<svg xmlns="http://www.w3.org/2000/svg" width="400.242" height="250" viewBox="0 0 400.242 250">
  <g id="ch-1" transform="translate(-179.758 -16889.387)">
    <rect id="Rectangle_36432" data-name="Rectangle 36432" width="400" height="250" rx="30" transform="translate(179.758 16889.387)" fill="#e2f0fc"/>
    <path id="Rectangle_36432_-_Outline" data-name="Rectangle 36432 - Outline" d="M30,3A26.975,26.975,0,0,0,3,30V220a26.975,26.975,0,0,0,27,27H370a26.975,26.975,0,0,0,27-27V30A26.975,26.975,0,0,0,370,3H30m0-3H370a30,30,0,0,1,30,30V220a30,30,0,0,1-30,30H30A30,30,0,0,1,0,220V30A30,30,0,0,1,30,0Z" transform="translate(179.758 16889.387)" fill="#75baf1"/>
    <path id="Rectangle_36433" data-name="Rectangle 36433" d="M0,0H400a0,0,0,0,1,0,0V25a30,30,0,0,1-30,30H30A30,30,0,0,1,0,25V0A0,0,0,0,1,0,0Z" transform="translate(180 17084.387)" fill="#75baf1"/>
    <path id="Path_157288" data-name="Path 157288" d="M24.031,5.359l1.493,10.85,5.242-10.85h4.9L32.958,21h-3.7l.666-3.835,1.59-7.068L26.04,21H23.6L21.829,9.688l-.988,7.842L20.229,21H16.555L19.262,5.359ZM40.982,21.215a5.4,5.4,0,0,1-2.777-.736,4.636,4.636,0,0,1-1.842-2.02,5.426,5.426,0,0,1-.494-2.852l.032-.3a7.125,7.125,0,0,1,1.993-4.539,5.512,5.512,0,0,1,4.173-1.606,4.5,4.5,0,0,1,2.557.758,4.238,4.238,0,0,1,1.558,2.033,6.228,6.228,0,0,1,.322,2.91l-.2,1.474H39.382A2.266,2.266,0,0,0,39.9,17.82a1.894,1.894,0,0,0,1.439.6A3.658,3.658,0,0,0,44.1,17.24L45.58,19.2a4.373,4.373,0,0,1-1.832,1.462,6.432,6.432,0,0,1-2.573.552Zm.859-9.26a1.818,1.818,0,0,0-1.305.47,3.946,3.946,0,0,0-.961,1.646h3.534l.064-.31a2.358,2.358,0,0,0,.021-.705A1.244,1.244,0,0,0,41.842,11.955Zm13.481.7a10.111,10.111,0,0,0-1.1-.107,2.729,2.729,0,0,0-2.428,1.1L50.489,21H46.955l2.02-11.623,3.3-.011L52,10.892A3.227,3.227,0,0,1,54.689,9.13a5.064,5.064,0,0,1,1.1.15Zm4.984,5.769A1.521,1.521,0,0,0,61.5,18a2.1,2.1,0,0,0,.548-1.147l3.309-.011a4.35,4.35,0,0,1-.757,2.288,4.577,4.577,0,0,1-1.869,1.563,5.526,5.526,0,0,1-2.519.521,4.364,4.364,0,0,1-3.577-1.67,5.777,5.777,0,0,1-1.021-4.206l.032-.258a7.787,7.787,0,0,1,.988-3.121,5.654,5.654,0,0,1,2.089-2.1,5.419,5.419,0,0,1,2.9-.7,4.322,4.322,0,0,1,3.207,1.294,4.59,4.59,0,0,1,1.133,3.378l-3.309-.011q.054-1.837-1.321-1.869-1.869-.064-2.148,3.137l-.1,1.092-.011.407Q59.072,18.39,60.308,18.422Zm10.925-7.777a3.8,3.8,0,0,1,3-1.493,3.021,3.021,0,0,1,2.594,1.278,4.866,4.866,0,0,1,.607,3.352L76.228,21H72.693l1.214-7.27a3.763,3.763,0,0,0,.021-.688,1.073,1.073,0,0,0-1.182-1.1,2.289,2.289,0,0,0-1.7.7L69.567,21H66.033L68.9,4.5h3.534ZM84.821,21a3.152,3.152,0,0,1-.15-1.053,3.585,3.585,0,0,1-2.847,1.268,3.5,3.5,0,0,1-2.514-1.01,3.035,3.035,0,0,1-.935-2.4A3.409,3.409,0,0,1,79.955,14.9a7.445,7.445,0,0,1,4.168-1.015l1.182.021.129-.655.043-.569a.923.923,0,0,0-.978-1.01,1.358,1.358,0,0,0-1.429,1.278l-3.545.011a3.367,3.367,0,0,1,.763-2.036A4.52,4.52,0,0,1,82.216,9.6a6.737,6.737,0,0,1,2.594-.435,5.2,5.2,0,0,1,2.315.553,3.446,3.446,0,0,1,1.488,1.45,3.7,3.7,0,0,1,.376,2.143l-.87,5.468-.054.666a2.936,2.936,0,0,0,.2,1.354l-.011.2ZM82.8,18.658a2.28,2.28,0,0,0,1.9-.956l.354-1.869-.913-.011a2.406,2.406,0,0,0-1.461.5,1.894,1.894,0,0,0-.72,1.305.951.951,0,0,0,.167.725A.85.85,0,0,0,82.8,18.658ZM94.94,9.366l-.247,1.4a4.131,4.131,0,0,1,3.362-1.611,2.775,2.775,0,0,1,2.4,1.2,5.013,5.013,0,0,1,.575,3.335L99.807,21H96.262L97.5,13.654a3.8,3.8,0,0,0,.021-.688q-.075-1.022-1.2-1.022a2.209,2.209,0,0,0-1.708.828L93.157,21H89.623l2.02-11.623Zm7.477,5.8a8.454,8.454,0,0,1,1.676-4.4,4.153,4.153,0,0,1,3.5-1.6,3.168,3.168,0,0,1,2.46,1.246L111.183,4.5h3.545L111.87,21h-3.147l.15-1.257a3.627,3.627,0,0,1-2.89,1.482,3.2,3.2,0,0,1-2.626-1.241,5.471,5.471,0,0,1-1.015-3.271,10.061,10.061,0,0,1,.043-1.321Zm3.523.247a8.436,8.436,0,0,0-.075,1.2q0,1.783,1.2,1.815a2.254,2.254,0,0,0,1.858-1l.795-4.458a1.431,1.431,0,0,0-1.418-1.021,1.807,1.807,0,0,0-1.6.854A5.508,5.508,0,0,0,105.94,15.414ZM117.671,21h-3.545l2.02-11.623h3.545ZM116.457,6.444a1.639,1.639,0,0,1,.553-1.311,1.986,1.986,0,0,1,1.391-.526,2.051,2.051,0,0,1,1.38.473,1.611,1.611,0,0,1,.575,1.235,1.642,1.642,0,0,1-.548,1.316,1.993,1.993,0,0,1-1.4.521,2.076,2.076,0,0,1-1.37-.467A1.592,1.592,0,0,1,116.457,6.444ZM126.469,17.67q.14-.709-1.1-1.063l-.763-.193a5.873,5.873,0,0,1-2.739-1.386,2.743,2.743,0,0,1-.816-2.116,3.371,3.371,0,0,1,1.488-2.723,5.662,5.662,0,0,1,3.5-1.026,5.246,5.246,0,0,1,3.325,1.042,3.4,3.4,0,0,1,1.294,2.75l-3.523-.011q.043-1.375-1.214-1.375a1.731,1.731,0,0,0-1,.317,1.231,1.231,0,0,0-.548.843q-.183.87,1.536,1.192a8.927,8.927,0,0,1,2.31.822,3.448,3.448,0,0,1,1.246,1.155,2.872,2.872,0,0,1,.4,1.654,3.106,3.106,0,0,1-.687,1.88,4.452,4.452,0,0,1-1.9,1.321,6.791,6.791,0,0,1-2.691.462,5.462,5.462,0,0,1-2.336-.526,4.166,4.166,0,0,1-1.687-1.4,3.641,3.641,0,0,1-.628-2.036l3.287.021a1.358,1.358,0,0,0,1.547,1.525,2.03,2.03,0,0,0,1.117-.3A1.278,1.278,0,0,0,126.469,17.67ZM134.687,21h-3.545l2.02-11.623h3.545ZM133.473,6.444a1.639,1.639,0,0,1,.553-1.311,1.986,1.986,0,0,1,1.391-.526,2.051,2.051,0,0,1,1.38.473,1.611,1.611,0,0,1,.575,1.235,1.642,1.642,0,0,1-.548,1.316,1.993,1.993,0,0,1-1.4.521,2.076,2.076,0,0,1-1.37-.467A1.592,1.592,0,0,1,133.473,6.444Zm8.7,2.922-.247,1.4a4.131,4.131,0,0,1,3.362-1.611,2.775,2.775,0,0,1,2.4,1.2,5.013,5.013,0,0,1,.575,3.335L147.04,21H143.5l1.235-7.346a3.8,3.8,0,0,0,.021-.688q-.075-1.022-1.2-1.022a2.209,2.209,0,0,0-1.708.828L140.391,21h-3.534l2.02-11.623Zm7.5,5.8A8.831,8.831,0,0,1,150.633,12a5.579,5.579,0,0,1,1.9-2.143,4.565,4.565,0,0,1,2.578-.7,3.174,3.174,0,0,1,2.643,1.257l.376-1.042,3.266.011-1.9,11.172a5.46,5.46,0,0,1-2.073,3.728,6.6,6.6,0,0,1-4.361,1.3,6.227,6.227,0,0,1-2.245-.462,4.837,4.837,0,0,1-1.858-1.332l1.676-2.084a3.042,3.042,0,0,0,2.428,1.214,2.841,2.841,0,0,0,2.986-2.5l.086-.354a3.634,3.634,0,0,1-2.653,1.16,3.584,3.584,0,0,1-1.966-.564,3.708,3.708,0,0,1-1.332-1.6,6.2,6.2,0,0,1-.548-2.32A10.087,10.087,0,0,1,149.672,15.167Zm3.491,1.149a2.819,2.819,0,0,0,.354,1.536,1.2,1.2,0,0,0,1.031.569,2.362,2.362,0,0,0,1.815-.773l.913-4.931a1.566,1.566,0,0,0-1.439-.773,2.057,2.057,0,0,0-1.729.875,4.72,4.72,0,0,0-.881,2.358Q153.163,15.854,153.163,16.316ZM167.579,15.1a7.1,7.1,0,0,1,1.192-4.351,3.925,3.925,0,0,1,3.33-1.59,3.338,3.338,0,0,1,2.621,1.225V4.5h3.631V21H175.1l-.183-1.246a3.428,3.428,0,0,1-2.836,1.461,3.918,3.918,0,0,1-3.287-1.59A7.325,7.325,0,0,1,167.579,15.1Zm3.62.226q0,3.094,1.8,3.094a1.782,1.782,0,0,0,1.719-1.01V12.986a1.734,1.734,0,0,0-1.7-1.031q-1.676,0-1.815,2.707Zm14.835,5.887a5.975,5.975,0,0,1-4.329-1.6,5.509,5.509,0,0,1-1.654-4.152v-.3a7.138,7.138,0,0,1,.661-3.147,4.834,4.834,0,0,1,1.928-2.111,5.821,5.821,0,0,1,3.008-.747,5.031,5.031,0,0,1,3.867,1.52,5.973,5.973,0,0,1,1.418,4.238v1.407h-7.2a2.609,2.609,0,0,0,.849,1.536,2.525,2.525,0,0,0,1.7.559,3.254,3.254,0,0,0,2.686-1.2l1.654,1.955a4.624,4.624,0,0,1-1.917,1.488A6.48,6.48,0,0,1,186.034,21.215Zm-.408-9.26q-1.59,0-1.891,2.105h3.652v-.279a1.793,1.793,0,0,0-.44-1.348A1.753,1.753,0,0,0,185.626,11.955Zm23.031,3.319a7.009,7.009,0,0,1-1.219,4.324,3.909,3.909,0,0,1-3.292,1.617,3.351,3.351,0,0,1-2.632-1.171v5.425h-3.62V9.377h3.384l.107,1.074a3.351,3.351,0,0,1,2.739-1.289,3.941,3.941,0,0,1,3.341,1.584,7.1,7.1,0,0,1,1.192,4.356Zm-3.62-.226q0-3.094-1.8-3.094a1.7,1.7,0,0,0-1.719.924v4.576a1.759,1.759,0,0,0,1.74.967q1.729,0,1.783-2.986Zm12.246-2.4-1.192-.086a2.142,2.142,0,0,0-2.191,1.074V21h-3.62V9.377h3.395l.118,1.493a2.8,2.8,0,0,1,2.546-1.708,3.53,3.53,0,0,1,1.01.129Zm6.725,8.562a5.975,5.975,0,0,1-4.329-1.6,5.509,5.509,0,0,1-1.654-4.152v-.3a7.138,7.138,0,0,1,.661-3.147,4.834,4.834,0,0,1,1.928-2.111,5.821,5.821,0,0,1,3.008-.747,5.031,5.031,0,0,1,3.867,1.52,5.973,5.973,0,0,1,1.418,4.238v1.407h-7.2a2.609,2.609,0,0,0,.849,1.536,2.525,2.525,0,0,0,1.7.559,3.254,3.254,0,0,0,2.686-1.2l1.654,1.955a4.624,4.624,0,0,1-1.917,1.488A6.48,6.48,0,0,1,224.008,21.215Zm-.408-9.26q-1.59,0-1.891,2.105h3.652v-.279a1.793,1.793,0,0,0-.44-1.348A1.753,1.753,0,0,0,223.6,11.955Zm12.848,5.779a.836.836,0,0,0-.483-.741,7.353,7.353,0,0,0-1.837-.58,8.376,8.376,0,0,1-2.234-.79,3.743,3.743,0,0,1-1.343-1.187,2.835,2.835,0,0,1-.462-1.6,3.212,3.212,0,0,1,1.321-2.637,5.443,5.443,0,0,1,3.459-1.037,6.03,6.03,0,0,1,3.7,1.042,3.258,3.258,0,0,1,1.4,2.739h-3.631q0-1.4-1.472-1.4a1.459,1.459,0,0,0-.956.317.981.981,0,0,0-.387.79.9.9,0,0,0,.473.784,4.466,4.466,0,0,0,1.509.494,13.042,13.042,0,0,1,1.821.462q2.621.9,2.621,3.233a3.044,3.044,0,0,1-1.413,2.589,6.2,6.2,0,0,1-3.658,1,6.322,6.322,0,0,1-2.664-.537,4.455,4.455,0,0,1-1.826-1.461,3.308,3.308,0,0,1-.655-1.944h3.384a1.4,1.4,0,0,0,.537,1.176,2.209,2.209,0,0,0,1.321.371,1.738,1.738,0,0,0,1.112-.3A.962.962,0,0,0,236.447,17.734Zm10.807,3.48a5.975,5.975,0,0,1-4.329-1.6,5.509,5.509,0,0,1-1.654-4.152v-.3a7.138,7.138,0,0,1,.661-3.147,4.834,4.834,0,0,1,1.928-2.111,5.821,5.821,0,0,1,3.008-.747,5.031,5.031,0,0,1,3.867,1.52,5.973,5.973,0,0,1,1.418,4.238v1.407h-7.2a2.609,2.609,0,0,0,.849,1.536,2.525,2.525,0,0,0,1.7.559,3.254,3.254,0,0,0,2.686-1.2l1.654,1.955a4.624,4.624,0,0,1-1.917,1.488A6.48,6.48,0,0,1,247.254,21.215Zm-.408-9.26q-1.59,0-1.891,2.105h3.652v-.279a1.793,1.793,0,0,0-.44-1.348A1.753,1.753,0,0,0,246.846,11.955Zm10.087-2.578.118,1.364a3.942,3.942,0,0,1,3.319-1.579,3.316,3.316,0,0,1,2.712,1.085,5.165,5.165,0,0,1,.929,3.266V21h-3.631V13.663a1.961,1.961,0,0,0-.354-1.294,1.64,1.64,0,0,0-1.289-.414,1.726,1.726,0,0,0-1.579.838V21h-3.62V9.377Zm13.3-2.89v2.89h1.912v2.514h-1.912v5.317a1.358,1.358,0,0,0,.236.913,1.268,1.268,0,0,0,.935.258,5.311,5.311,0,0,0,.9-.064V20.9a6.681,6.681,0,0,1-2.041.312,3.792,3.792,0,0,1-2.761-.881,3.61,3.61,0,0,1-.892-2.675V11.891h-1.482V9.377h1.482V6.487ZM280.114,21a4.087,4.087,0,0,1-.344-1.042,3.366,3.366,0,0,1-2.793,1.257,4.124,4.124,0,0,1-2.793-.994,3.163,3.163,0,0,1-1.149-2.5,3.251,3.251,0,0,1,1.4-2.857,7.114,7.114,0,0,1,4.061-.967h1.117v-.615q0-1.608-1.386-1.608a1.133,1.133,0,0,0-1.289,1.274h-3.62a3.245,3.245,0,0,1,1.434-2.736,6.027,6.027,0,0,1,3.658-1.051,5.284,5.284,0,0,1,3.513,1.085,3.772,3.772,0,0,1,1.321,2.976v5.146a5.269,5.269,0,0,0,.494,2.449V21Zm-2.267-2.363a2.019,2.019,0,0,0,1.123-.29,1.818,1.818,0,0,0,.639-.655V15.833h-1.053q-1.891,0-1.891,1.7a1.036,1.036,0,0,0,.333.8A1.205,1.205,0,0,0,277.848,18.637Zm12.311-.215a1.61,1.61,0,0,0,1.182-.414,1.517,1.517,0,0,0,.408-1.155h3.395a4.018,4.018,0,0,1-1.37,3.137,5.1,5.1,0,0,1-3.529,1.225,5.158,5.158,0,0,1-4-1.59,6.264,6.264,0,0,1-1.461-4.4v-.15a7.08,7.08,0,0,1,.65-3.11,4.732,4.732,0,0,1,1.875-2.073,5.589,5.589,0,0,1,2.9-.725,5.03,5.03,0,0,1,3.6,1.257,4.458,4.458,0,0,1,1.332,3.405h-3.395a1.987,1.987,0,0,0-.44-1.386,1.52,1.52,0,0,0-1.182-.483q-1.407,0-1.644,1.794a12.656,12.656,0,0,0-.075,1.568,4.972,4.972,0,0,0,.419,2.428A1.45,1.45,0,0,0,290.158,18.422ZM300.492,21h-3.631V9.377h3.631ZM296.646,6.369a1.63,1.63,0,0,1,.559-1.275,2.364,2.364,0,0,1,2.9,0,1.63,1.63,0,0,1,.559,1.275,1.63,1.63,0,0,1-.559,1.275,2.364,2.364,0,0,1-2.9,0A1.63,1.63,0,0,1,296.646,6.369Zm5.618,8.712a6.86,6.86,0,0,1,.677-3.1,4.84,4.84,0,0,1,1.944-2.089,5.856,5.856,0,0,1,2.976-.73,5.344,5.344,0,0,1,4.114,1.617,6.2,6.2,0,0,1,1.5,4.4v.129a6.019,6.019,0,0,1-1.509,4.313,5.359,5.359,0,0,1-4.087,1.6,5.42,5.42,0,0,1-3.985-1.488,5.819,5.819,0,0,1-1.622-4.034Zm3.62.226a4.325,4.325,0,0,0,.5,2.363,1.682,1.682,0,0,0,1.493.752q1.934,0,1.977-2.976v-.365q0-3.126-2-3.126-1.815,0-1.966,2.7ZM308.355,4.5h3.824l-2.986,3.373-2.954-.005ZM318.4,9.377l.118,1.364a3.942,3.942,0,0,1,3.319-1.579,3.316,3.316,0,0,1,2.712,1.085,5.165,5.165,0,0,1,.929,3.266V21h-3.631V13.663a1.961,1.961,0,0,0-.354-1.294,1.64,1.64,0,0,0-1.289-.414,1.726,1.726,0,0,0-1.579.838V21H315V9.377Z" transform="translate(209 17098.387)" fill="#12263f"/>
    <g id="estrella" transform="translate(284.723 16927)">
      <g id="_000000ff" data-name="#000000ff" transform="translate(46.035)">
        <path id="Path_157053" data-name="Path 157053" d="M164.819,0h1.193a5.158,5.158,0,0,1,3.776,2.653q2.936,5.509,5.85,11.03a1.149,1.149,0,0,0,1.022.659q6,1.083,11.991,2.22a5.465,5.465,0,0,1,2.805,1.223,4.944,4.944,0,0,1,1.446,5.238,6.087,6.087,0,0,1-1.6,2.393c-2.667,2.721-5.285,5.491-7.966,8.2-.33.354-.752.759-.6,1.294.448,3.551.938,7.1,1.38,10.65a14.992,14.992,0,0,1,.267,3.422,4.9,4.9,0,0,1-3.11,3.921,4.959,4.959,0,0,1-3.9-.169c-3.79-1.838-7.566-3.71-11.358-5.541-.42-.277-.877.019-1.275.178-3.645,1.758-7.3,3.478-10.95,5.229a5.332,5.332,0,0,1-2.911.607,4.926,4.926,0,0,1-4.2-3.3,6.746,6.746,0,0,1-.094-3.265c.523-3.71,1.024-7.425,1.591-11.13.04-.4.164-.9-.2-1.2-2.958-3.134-5.932-6.253-8.888-9.387a4.916,4.916,0,0,1,2.674-8.278c4.12-.743,8.252-1.432,12.373-2.177a1.1,1.1,0,0,0,.888-.722c2.034-3.752,4.064-7.507,6.12-11.245A5.161,5.161,0,0,1,164.819,0m.253,5.06c-2.051,3.795-4.123,7.575-6.178,11.367-.509.982-1.066,2.189-2.3,2.365-4.732.86-9.478,1.652-14.21,2.515a1.6,1.6,0,0,0,.466.8c3.129,3.277,6.237,6.574,9.356,9.862a2.539,2.539,0,0,1,.874,2c-.567,4.873-1.46,9.71-1.969,14.59a7.419,7.419,0,0,0,1.078-.394q6.184-2.957,12.375-5.888a2.763,2.763,0,0,1,2.637.251c3.769,1.861,7.552,3.7,11.323,5.557a9.714,9.714,0,0,0,1.188.485,22.316,22.316,0,0,0-.293-2.791c-.509-3.928-1.031-7.852-1.538-11.78a2.512,2.512,0,0,1,.759-2.262c3.082-3.166,6.136-6.361,9.23-9.518a1.885,1.885,0,0,0,.577-.909c-4.826-.949-9.67-1.8-14.5-2.726a2.552,2.552,0,0,1-1.774-1.43q-3.245-6.131-6.5-12.255C165.553,4.568,165.107,4.772,165.072,5.06Z" transform="translate(-116.206)"/>
        <path id="Path_157054" data-name="Path 157054" d="M57.748,272.632a10.9,10.9,0,0,1,5.595-.654,2.434,2.434,0,0,1,2.016,2.29,2.525,2.525,0,0,1-1.617,2.21c-1.155.3-2.374-.021-3.537.23a5.411,5.411,0,0,0-2.7,2.009c-1.87,2.428-3.788,4.819-5.646,7.256,9.78.033,19.561,0,29.344.016a4.763,4.763,0,0,0,3.647-2.205c1.83-2.4,3.748-4.732,5.543-7.158-1.983-.038-3.963,0-5.944-.012a2.718,2.718,0,0,1-1.948-.607,3.562,3.562,0,0,1-.865-1.753,3.481,3.481,0,0,1,.865-1.725,2.692,2.692,0,0,1,1.948-.609q22.514.014,45.028,0a8.561,8.561,0,0,1,5.564,2.156,17.253,17.253,0,0,1,2.414,2.745c1.913,2.466,3.851,4.91,5.759,7.378a4.692,4.692,0,0,1,1.127,4.005,3.423,3.423,0,0,1-3.368,2.456c-2.74.035-5.482-.012-8.222.014q-.021,15.121,0,30.244a7.142,7.142,0,0,1-2.067,5.184,7.676,7.676,0,0,1-4.153,2.067H63.968a7.728,7.728,0,0,1-4.036-1.95,7.109,7.109,0,0,1-2.187-5.3q-.007-15.121,0-30.244c-2.74-.028-5.482.021-8.22-.014a3.428,3.428,0,0,1-3.319-2.28,4.589,4.589,0,0,1,1.076-4.181q3.291-4.215,6.579-8.428a10.161,10.161,0,0,1,3.891-3.143m42.354,3.991c1.828,2.468,3.78,4.847,5.646,7.287a4.561,4.561,0,0,0,3.792,2.084c9.7-.026,19.4.016,29.1-.021-1.9-2.48-3.839-4.92-5.749-7.385a4.524,4.524,0,0,0-3.645-1.98c-9.713.019-19.427-.016-29.14.016M87.956,287.379a9,9,0,0,1-6.769,3.3q-9.376,0-18.752,0-.007,15.124,0,30.248a2.371,2.371,0,0,0,2.323,2.55c9.38.026,18.759.007,28.139.009-.007-14.093.033-28.186-.019-42.279-1.737,1.978-3.241,4.148-4.922,6.173m9.659-6.171c-.059,14.091-.014,28.184-.023,42.277,9.223.009,18.445,0,27.668.007a2.461,2.461,0,0,0,2.8-2.805q-.018-15-.007-30.009-9.376-.011-18.75,0a8.93,8.93,0,0,1-6.551-3.049C100.969,285.547,99.434,283.259,97.615,281.208Z" transform="translate(-46.035 -208.175)"/>
        <path id="Path_157055" data-name="Path 157055" d="M153.795,272.63a2.353,2.353,0,0,1,3.061-.061,2.841,2.841,0,0,1,.893,1.8,2.807,2.807,0,0,1-.893,1.8,2.355,2.355,0,0,1-3.059-.061,3.546,3.546,0,0,1-.867-1.753A3.481,3.481,0,0,1,153.795,272.63Z" transform="translate(-127.876 -208.276)"/>
      </g>
      <g id="_ffc144ff" data-name="#ffc144ff" transform="translate(72.213 4.729)">
        <path id="Path_157056" data-name="Path 157056" d="M180.418,20.51c.035-.288.48-.492.6-.157q3.262,6.121,6.5,12.255a2.552,2.552,0,0,0,1.774,1.43c4.83.926,9.675,1.777,14.5,2.726a1.884,1.884,0,0,1-.577.909c-3.094,3.157-6.148,6.352-9.23,9.518a2.512,2.512,0,0,0-.759,2.262c.506,3.928,1.029,7.852,1.537,11.78a22.319,22.319,0,0,1,.293,2.791,9.711,9.711,0,0,1-1.188-.485c-3.771-1.861-7.554-3.7-11.323-5.557a2.763,2.763,0,0,0-2.637-.251q-6.187,2.939-12.375,5.887a7.419,7.419,0,0,1-1.078.394c.509-4.88,1.4-9.717,1.969-14.59a2.539,2.539,0,0,0-.874-2c-3.12-3.288-6.227-6.586-9.356-9.863a1.6,1.6,0,0,1-.466-.8c4.732-.863,9.478-1.655,14.21-2.515,1.233-.176,1.791-1.383,2.3-2.365C176.295,28.085,178.367,24.3,180.418,20.51Z" transform="translate(-157.73 -20.179)" fill="#f9f024"/>
      </g>
      <g id="_ddb9b6ff" data-name="#ddb9b6ff" transform="translate(51.858 66.08)">
        <path id="Path_157057" data-name="Path 157057" d="M84.38,281.954c1.91-.007,3.82.014,5.73-.014a3.545,3.545,0,0,0,.867,1.753,2.355,2.355,0,0,0,3.059.061,2.808,2.808,0,0,0,.893-1.8c1.91-.007,3.818.014,5.728-.014a3.561,3.561,0,0,0,.865,1.753,2.718,2.718,0,0,0,1.948.607c1.98.012,3.961-.026,5.944.012-1.8,2.426-3.713,4.758-5.543,7.158a4.763,4.763,0,0,1-3.647,2.205c-9.783-.016-19.563.016-29.344-.016,1.859-2.438,3.776-4.828,5.646-7.256a5.411,5.411,0,0,1,2.7-2.009c1.162-.251,2.381.075,3.537-.23A2.525,2.525,0,0,0,84.38,281.954Z" transform="translate(-70.88 -281.94)" fill="#f3b0ff"/>
        <path id="Path_157058" data-name="Path 157058" d="M276.72,291.977c9.712-.033,19.427,0,29.14-.016a4.524,4.524,0,0,1,3.645,1.98c1.91,2.466,3.853,4.906,5.749,7.385-9.7.038-19.4,0-29.1.021a4.561,4.561,0,0,1-3.792-2.084C280.5,296.824,278.548,294.445,276.72,291.977Z" transform="translate(-228.476 -289.607)" fill="#f3b0ff"/>
      </g>
      <g id="_c68a86ff" data-name="#c68a86ff" transform="translate(62.428 73.031)">
        <path id="Path_157059" data-name="Path 157059" d="M141.508,317.773c1.68-2.025,3.185-4.2,4.922-6.173.052,14.093.012,28.186.019,42.279-9.38,0-18.759.016-28.139-.009a2.371,2.371,0,0,1-2.323-2.55q0-15.124,0-30.248,9.376-.011,18.752,0A9,9,0,0,0,141.508,317.773Z" transform="translate(-115.98 -311.6)" fill="#be79ca"/>
        <path id="Path_157060" data-name="Path 157060" d="M266.009,311.61c1.819,2.051,3.354,4.338,5.14,6.42a8.93,8.93,0,0,0,6.551,3.049q9.373,0,18.75,0,.011,15,.007,30.009a2.461,2.461,0,0,1-2.8,2.805c-9.223-.012-18.445,0-27.668-.007C265.995,339.794,265.95,325.7,266.009,311.61Z" transform="translate(-230.822 -311.608)" fill="#be79ca"/>
      </g>
    </g>
  </g>
</svg>
