<svg xmlns="http://www.w3.org/2000/svg" width="400" height="250" viewBox="0 0 400 250">
  <g id="ch-2" transform="translate(-600 -16889.387)">
    <rect id="Rectangle_36409" data-name="Rectangle 36409" width="400" height="250" rx="30" transform="translate(600 16889.387)" fill="#fdfbd2"/>
    <path id="Rectangle_36409_-_Outline" data-name="Rectangle 36409 - Outline" d="M30,3A26.975,26.975,0,0,0,3,30V220a26.975,26.975,0,0,0,27,27H370a26.975,26.975,0,0,0,27-27V30A26.975,26.975,0,0,0,370,3H30m0-3H370a30,30,0,0,1,30,30V220a30,30,0,0,1-30,30H30A30,30,0,0,1,0,220V30A30,30,0,0,1,30,0Z" transform="translate(600 16889.387)" fill="#f9f024"/>
    <path id="Rectangle_36408" data-name="Rectangle 36408" d="M0,0H400a0,0,0,0,1,0,0V25a30,30,0,0,1-30,30H30A30,30,0,0,1,0,25V0A0,0,0,0,1,0,0Z" transform="translate(600 17084.387)" fill="#f9f024"/>
    <path id="Path_157289" data-name="Path 157289" d="M51.708,5.359,53.2,16.209l5.242-10.85h4.9L60.635,21h-3.7l.666-3.835L59.2,10.1,53.717,21H51.279L49.506,9.688l-.988,7.842L47.906,21H44.232L46.939,5.359ZM68.66,21.215a5.4,5.4,0,0,1-2.777-.736,4.636,4.636,0,0,1-1.842-2.02,5.426,5.426,0,0,1-.494-2.852l.032-.3a7.125,7.125,0,0,1,1.993-4.539,5.512,5.512,0,0,1,4.173-1.606,4.5,4.5,0,0,1,2.557.758,4.238,4.238,0,0,1,1.558,2.033,6.228,6.228,0,0,1,.322,2.91l-.2,1.474H67.059a2.266,2.266,0,0,0,.516,1.482,1.894,1.894,0,0,0,1.439.6,3.658,3.658,0,0,0,2.761-1.182l1.482,1.96a4.373,4.373,0,0,1-1.832,1.462,6.432,6.432,0,0,1-2.573.552Zm.859-9.26a1.818,1.818,0,0,0-1.305.47,3.946,3.946,0,0,0-.961,1.646h3.534l.064-.31a2.358,2.358,0,0,0,.021-.705A1.244,1.244,0,0,0,69.519,11.955Zm13.481.7a10.111,10.111,0,0,0-1.1-.107,2.729,2.729,0,0,0-2.428,1.1L78.167,21H74.632l2.02-11.623,3.3-.011-.269,1.525A3.227,3.227,0,0,1,82.367,9.13a5.065,5.065,0,0,1,1.1.15Zm4.984,5.769A1.521,1.521,0,0,0,89.177,18a2.1,2.1,0,0,0,.548-1.147l3.309-.011a4.35,4.35,0,0,1-.757,2.288,4.577,4.577,0,0,1-1.869,1.563,5.526,5.526,0,0,1-2.519.521,4.364,4.364,0,0,1-3.577-1.67,5.776,5.776,0,0,1-1.021-4.206l.032-.258a7.787,7.787,0,0,1,.988-3.121A5.654,5.654,0,0,1,86.4,9.86a5.419,5.419,0,0,1,2.9-.7A4.322,4.322,0,0,1,92.5,10.457a4.59,4.59,0,0,1,1.133,3.378l-3.309-.011q.054-1.837-1.321-1.869-1.869-.064-2.148,3.137l-.1,1.092-.011.407Q86.75,18.39,87.985,18.422ZM98.91,10.645a3.8,3.8,0,0,1,3-1.493A3.021,3.021,0,0,1,104.5,10.43a4.866,4.866,0,0,1,.607,3.352L103.9,21h-3.534l1.214-7.27a3.763,3.763,0,0,0,.021-.688,1.073,1.073,0,0,0-1.182-1.1,2.289,2.289,0,0,0-1.7.7L97.245,21H93.71L96.579,4.5h3.534ZM112.5,21a3.152,3.152,0,0,1-.15-1.053,3.585,3.585,0,0,1-2.847,1.268,3.5,3.5,0,0,1-2.514-1.01,3.035,3.035,0,0,1-.935-2.4,3.409,3.409,0,0,1,1.579-2.906,7.445,7.445,0,0,1,4.168-1.015l1.182.021.129-.655.043-.569a.923.923,0,0,0-.978-1.01,1.358,1.358,0,0,0-1.429,1.278l-3.545.011a3.367,3.367,0,0,1,.763-2.036A4.52,4.52,0,0,1,109.894,9.6a6.737,6.737,0,0,1,2.594-.435,5.2,5.2,0,0,1,2.315.553,3.446,3.446,0,0,1,1.488,1.45,3.7,3.7,0,0,1,.376,2.143l-.87,5.468-.054.666a2.936,2.936,0,0,0,.2,1.354l-.011.2Zm-2.02-2.342a2.28,2.28,0,0,0,1.9-.956l.354-1.869-.913-.011a2.406,2.406,0,0,0-1.461.5,1.894,1.894,0,0,0-.72,1.305.951.951,0,0,0,.167.725A.85.85,0,0,0,110.479,18.658Zm12.139-9.292-.247,1.4a4.131,4.131,0,0,1,3.362-1.611,2.775,2.775,0,0,1,2.4,1.2,5.013,5.013,0,0,1,.575,3.335L127.484,21h-3.545l1.235-7.346a3.8,3.8,0,0,0,.021-.688q-.075-1.022-1.2-1.022a2.209,2.209,0,0,0-1.708.828L120.834,21H117.3l2.02-11.623Zm7.477,5.8a8.454,8.454,0,0,1,1.676-4.4,4.153,4.153,0,0,1,3.5-1.6,3.168,3.168,0,0,1,2.46,1.246L138.86,4.5H142.4L139.547,21H136.4l.15-1.257a3.627,3.627,0,0,1-2.89,1.482,3.2,3.2,0,0,1-2.626-1.241,5.471,5.471,0,0,1-1.015-3.271,10.06,10.06,0,0,1,.043-1.321Zm3.523.247a8.436,8.436,0,0,0-.075,1.2q0,1.783,1.2,1.815a2.254,2.254,0,0,0,1.858-1l.795-4.458a1.431,1.431,0,0,0-1.418-1.021,1.807,1.807,0,0,0-1.6.854A5.508,5.508,0,0,0,133.618,15.414ZM145.348,21H141.8l2.02-11.623h3.545ZM144.134,6.444a1.639,1.639,0,0,1,.553-1.311,1.986,1.986,0,0,1,1.391-.526,2.051,2.051,0,0,1,1.38.473,1.611,1.611,0,0,1,.575,1.235,1.642,1.642,0,0,1-.548,1.316,1.993,1.993,0,0,1-1.4.521,2.076,2.076,0,0,1-1.37-.467A1.592,1.592,0,0,1,144.134,6.444ZM154.146,17.67q.14-.709-1.1-1.063l-.763-.193a5.873,5.873,0,0,1-2.739-1.386,2.743,2.743,0,0,1-.816-2.116,3.371,3.371,0,0,1,1.488-2.723,5.662,5.662,0,0,1,3.5-1.026,5.246,5.246,0,0,1,3.325,1.042,3.4,3.4,0,0,1,1.294,2.75l-3.523-.011q.043-1.375-1.214-1.375a1.731,1.731,0,0,0-1,.317,1.231,1.231,0,0,0-.548.843q-.183.87,1.536,1.192a8.927,8.927,0,0,1,2.31.822,3.448,3.448,0,0,1,1.246,1.155,2.872,2.872,0,0,1,.4,1.654,3.106,3.106,0,0,1-.687,1.88,4.452,4.452,0,0,1-1.9,1.321,6.791,6.791,0,0,1-2.691.462,5.462,5.462,0,0,1-2.336-.526,4.166,4.166,0,0,1-1.687-1.4,3.641,3.641,0,0,1-.628-2.036l3.287.021a1.358,1.358,0,0,0,1.547,1.525,2.03,2.03,0,0,0,1.117-.3A1.278,1.278,0,0,0,154.146,17.67ZM162.364,21h-3.545l2.02-11.623h3.545ZM161.15,6.444a1.639,1.639,0,0,1,.553-1.311,1.986,1.986,0,0,1,1.391-.526,2.051,2.051,0,0,1,1.38.473,1.611,1.611,0,0,1,.575,1.235,1.642,1.642,0,0,1-.548,1.316,1.993,1.993,0,0,1-1.4.521,2.076,2.076,0,0,1-1.37-.467A1.592,1.592,0,0,1,161.15,6.444Zm8.7,2.922-.247,1.4a4.131,4.131,0,0,1,3.362-1.611,2.775,2.775,0,0,1,2.4,1.2,5.013,5.013,0,0,1,.575,3.335L174.717,21h-3.545l1.235-7.346a3.8,3.8,0,0,0,.021-.688q-.075-1.022-1.2-1.022a2.209,2.209,0,0,0-1.708.828L168.068,21h-3.534l2.02-11.623Zm7.5,5.8A8.831,8.831,0,0,1,178.311,12a5.579,5.579,0,0,1,1.9-2.143,4.565,4.565,0,0,1,2.578-.7,3.174,3.174,0,0,1,2.643,1.257l.376-1.042,3.266.011-1.9,11.172a5.46,5.46,0,0,1-2.073,3.728,6.6,6.6,0,0,1-4.361,1.3,6.227,6.227,0,0,1-2.245-.462,4.837,4.837,0,0,1-1.858-1.332l1.676-2.084a3.042,3.042,0,0,0,2.428,1.214,2.841,2.841,0,0,0,2.986-2.5l.086-.354a3.634,3.634,0,0,1-2.653,1.16,3.584,3.584,0,0,1-1.966-.564,3.708,3.708,0,0,1-1.332-1.6,6.2,6.2,0,0,1-.548-2.32A10.087,10.087,0,0,1,177.349,15.167Zm3.491,1.149a2.819,2.819,0,0,0,.354,1.536,1.2,1.2,0,0,0,1.031.569,2.362,2.362,0,0,0,1.815-.773l.913-4.931a1.566,1.566,0,0,0-1.439-.773,2.057,2.057,0,0,0-1.729.875,4.72,4.72,0,0,0-.881,2.358Q180.84,15.854,180.84,16.316ZM195.256,15.1a7.1,7.1,0,0,1,1.192-4.351,3.925,3.925,0,0,1,3.33-1.59,3.338,3.338,0,0,1,2.621,1.225V4.5h3.631V21h-3.255l-.183-1.246a3.428,3.428,0,0,1-2.836,1.461,3.918,3.918,0,0,1-3.287-1.59A7.325,7.325,0,0,1,195.256,15.1Zm3.62.226q0,3.094,1.8,3.094a1.782,1.782,0,0,0,1.719-1.01V12.986a1.734,1.734,0,0,0-1.7-1.031q-1.676,0-1.815,2.707Zm14.835,5.887a5.975,5.975,0,0,1-4.329-1.6,5.509,5.509,0,0,1-1.654-4.152v-.3a7.138,7.138,0,0,1,.661-3.147,4.834,4.834,0,0,1,1.928-2.111,5.821,5.821,0,0,1,3.008-.747,5.031,5.031,0,0,1,3.867,1.52,5.973,5.973,0,0,1,1.418,4.238v1.407h-7.2a2.609,2.609,0,0,0,.849,1.536,2.525,2.525,0,0,0,1.7.559,3.254,3.254,0,0,0,2.686-1.2l1.654,1.955a4.624,4.624,0,0,1-1.917,1.488A6.48,6.48,0,0,1,213.711,21.215Zm-.408-9.26q-1.59,0-1.891,2.105h3.652v-.279a1.793,1.793,0,0,0-.44-1.348A1.753,1.753,0,0,0,213.3,11.955ZM225.12,15.1a7.848,7.848,0,0,1,.58-3.115A4.67,4.67,0,0,1,227.365,9.9a4.389,4.389,0,0,1,2.524-.736,3.49,3.49,0,0,1,2.836,1.225l.129-1.01h3.287V20.56a4.9,4.9,0,0,1-.714,2.669,4.584,4.584,0,0,1-2.068,1.74,7.6,7.6,0,0,1-3.137.607,6.557,6.557,0,0,1-2.476-.483,4.47,4.47,0,0,1-1.832-1.257l1.515-2.127a3.319,3.319,0,0,0,2.664,1.192,2.156,2.156,0,0,0,2.406-2.471v-.365a3.4,3.4,0,0,1-2.632,1.149,4.2,4.2,0,0,1-3.437-1.627,6.743,6.743,0,0,1-1.311-4.356Zm3.631.226a4.135,4.135,0,0,0,.537,2.261,1.7,1.7,0,0,0,1.5.833,1.923,1.923,0,0,0,1.708-.784V12.75a1.875,1.875,0,0,0-1.687-.795,1.706,1.706,0,0,0-1.515.865A4.715,4.715,0,0,0,228.75,15.328Zm15.071,5.887a5.975,5.975,0,0,1-4.329-1.6,5.509,5.509,0,0,1-1.654-4.152v-.3a7.138,7.138,0,0,1,.661-3.147,4.834,4.834,0,0,1,1.928-2.111,5.821,5.821,0,0,1,3.008-.747,5.031,5.031,0,0,1,3.867,1.52,5.973,5.973,0,0,1,1.418,4.238v1.407h-7.2a2.609,2.609,0,0,0,.849,1.536,2.525,2.525,0,0,0,1.7.559,3.254,3.254,0,0,0,2.686-1.2l1.654,1.955a4.624,4.624,0,0,1-1.917,1.488A6.48,6.48,0,0,1,243.822,21.215Zm-.408-9.26q-1.59,0-1.891,2.105h3.652v-.279a1.793,1.793,0,0,0-.44-1.348A1.753,1.753,0,0,0,243.414,11.955Zm12.848,5.779a.836.836,0,0,0-.483-.741,7.353,7.353,0,0,0-1.837-.58,8.376,8.376,0,0,1-2.234-.79,3.743,3.743,0,0,1-1.343-1.187,2.835,2.835,0,0,1-.462-1.6,3.212,3.212,0,0,1,1.321-2.637,5.443,5.443,0,0,1,3.459-1.037,6.03,6.03,0,0,1,3.7,1.042,3.258,3.258,0,0,1,1.4,2.739h-3.631q0-1.4-1.472-1.4a1.459,1.459,0,0,0-.956.317.981.981,0,0,0-.387.79.9.9,0,0,0,.473.784,4.466,4.466,0,0,0,1.509.494,13.043,13.043,0,0,1,1.821.462q2.621.9,2.621,3.233a3.044,3.044,0,0,1-1.413,2.589,6.2,6.2,0,0,1-3.658,1,6.322,6.322,0,0,1-2.664-.537,4.455,4.455,0,0,1-1.826-1.461,3.308,3.308,0,0,1-.655-1.944h3.384a1.4,1.4,0,0,0,.537,1.176,2.209,2.209,0,0,0,1.321.371,1.738,1.738,0,0,0,1.112-.3A.962.962,0,0,0,256.261,17.734Zm9.4-11.247v2.89h1.912v2.514h-1.912v5.317a1.358,1.358,0,0,0,.236.913,1.268,1.268,0,0,0,.935.258,5.311,5.311,0,0,0,.9-.064V20.9a6.681,6.681,0,0,1-2.041.312,3.792,3.792,0,0,1-2.761-.881,3.61,3.61,0,0,1-.892-2.675V11.891h-1.482V9.377h1.482V6.487ZM272.815,21h-3.631V9.377h3.631ZM268.969,6.369a1.63,1.63,0,0,1,.559-1.275,2.364,2.364,0,0,1,2.9,0,1.63,1.63,0,0,1,.559,1.275,1.63,1.63,0,0,1-.559,1.275,2.364,2.364,0,0,1-2.9,0A1.63,1.63,0,0,1,268.969,6.369Zm5.618,8.712a6.86,6.86,0,0,1,.677-3.1,4.84,4.84,0,0,1,1.944-2.089,5.856,5.856,0,0,1,2.976-.73,5.344,5.344,0,0,1,4.114,1.617,6.2,6.2,0,0,1,1.5,4.4v.129a6.019,6.019,0,0,1-1.509,4.313,5.359,5.359,0,0,1-4.087,1.6,5.42,5.42,0,0,1-3.985-1.488,5.819,5.819,0,0,1-1.622-4.034Zm3.62.226a4.325,4.325,0,0,0,.5,2.363,1.682,1.682,0,0,0,1.493.752q1.934,0,1.977-2.976v-.365q0-3.126-2-3.126-1.815,0-1.966,2.7ZM280.678,4.5H284.5l-2.986,3.373-2.954-.005Zm10.044,4.877.118,1.364a3.942,3.942,0,0,1,3.319-1.579,3.316,3.316,0,0,1,2.712,1.085,5.165,5.165,0,0,1,.929,3.266V21H294.17V13.663a1.961,1.961,0,0,0-.354-1.294,1.64,1.64,0,0,0-1.289-.414,1.726,1.726,0,0,0-1.579.838V21h-3.62V9.377Z" transform="translate(629 17098.387)" fill="#12263f"/>
    <g id="shelves2" transform="translate(716.652 16860.203)">
      <g id="_000000ff" data-name="#000000ff" transform="translate(0 64.098)">
        <path id="Path_157061" data-name="Path 157061" d="M23.689,72.371A10.268,10.268,0,0,1,43.2,70.359a10.549,10.549,0,0,1-.638,9.377c1.1.062,2.393-.163,3.269.667a2.606,2.606,0,0,1,.716,2.549C45,92.329,43.406,101.7,41.879,111.076c9.331-.007,18.665.026,28-.016a23.126,23.126,0,0,1-5.3-7.062A20.63,20.63,0,0,1,73.034,77.35c.124-3.65-.026-7.3.068-10.949a2.461,2.461,0,0,1,2.732-2.289c5.118.01,10.236-.026,15.354.016a2.388,2.388,0,0,1,2.406,2.256c.094,3.65-.052,7.306.068,10.956a20.653,20.653,0,0,1,9.126,25.04,22.415,22.415,0,0,1-5.961,8.68c8.169.046,16.341.007,24.513.02a11.774,11.774,0,0,1-1.416-4.317c-.28-2.465.583-4.851,1.276-7.176a2.609,2.609,0,0,1,2.741-1.569c.107-.218.218-.433.332-.648-.007.176-.016.527-.023.7a2.8,2.8,0,0,1,1.621,2.468c-.2,1.651-.964,3.184-1.107,4.845a5.4,5.4,0,0,0,3.187,5.242,9.4,9.4,0,0,0,3.959.459c1.5-.036,3,.072,4.5-.055a5.456,5.456,0,0,0,4.382-7.283c-1.625-5.886-3.207-11.783-4.835-17.669a3.257,3.257,0,0,1-.091-2.058c.746-2.116,1.732-4.145,2.445-6.274a2.763,2.763,0,0,0-1.856-3.415,49.522,49.522,0,0,0-5.9-.124,2.89,2.89,0,0,0-2.868,1.638c-.693,1.4.247,2.826.716,4.128a44.371,44.371,0,0,1,1.722,4.578,20.45,20.45,0,0,1-.944,4.177c-.358,1.094-.42,2.429-1.367,3.21a3.054,3.054,0,0,1-2.191.521,2.692,2.692,0,0,1-1.768-2.351c.169-1.778,1-3.415,1.218-5.183-.625-2.032-1.654-3.92-2.256-5.961a7.627,7.627,0,0,1,1.787-7.189,8.22,8.22,0,0,1,5.9-2.51,12.91,12.91,0,0,1,.208-3.718,2.459,2.459,0,0,1,3.966-.7c1.11,1.192.583,2.969.7,4.434a7.846,7.846,0,0,1,7.8,6.248c.615,2.693-.785,5.193-1.732,7.615-.27.8-.866,1.612-.547,2.481q2.383,8.708,4.75,17.422a10.575,10.575,0,0,1-1.123,8.019c6.528.042,13.056-.007,19.583.023A2.648,2.648,0,0,1,166.7,113v11.512a2.639,2.639,0,0,1-2.611,1.888q-80.737.015-161.473,0A2.65,2.65,0,0,1,0,124.529V113a2.612,2.612,0,0,1,2.308-1.895q4.034-.073,8.071,0a2.6,2.6,0,0,1,2.4,2.426,2.627,2.627,0,0,1-2.041,2.373c-1.937.147-3.891.036-5.834.042-.046,1.859-.016,3.718-.023,5.574q78.466,0,156.928,0c-.01-1.859.026-3.718-.026-5.577q-70.462.073-140.926.016a2.425,2.425,0,0,1-.55-4.819c1.771-.15,3.552-.02,5.326-.052-1.511-9.38-3.119-18.743-4.666-28.117a2.614,2.614,0,0,1,.651-2.5c.866-.9,2.217-.667,3.344-.729a10.636,10.636,0,0,1-1.276-7.365M32.4,69.164a5.385,5.385,0,1,0,6.739,5.014A5.42,5.42,0,0,0,32.4,69.164M77.953,69c.02,2.084-.01,4.171.02,6.254a20.888,20.888,0,0,1,10.721,0c.1-2.08,0-4.164.055-6.245-3.6-.029-7.2-.016-10.8-.007M70.517,86.033A15.8,15.8,0,0,0,81.026,110.9a15.254,15.254,0,0,0,11.551-2.9,15.421,15.421,0,0,0,6.551-11.711A15.805,15.805,0,0,0,70.517,86.033M26.245,84.62c1.361,8.833,2.927,17.633,4.363,26.456,2.093.013,4.187-.01,6.28.013.342-1.914.71-3.826.928-5.759l.078.052c1.078-6.922,2.3-13.824,3.422-20.739H31.942C30.044,84.633,28.143,84.665,26.245,84.62Z" transform="translate(0 -64.098)"/>
        <path id="Path_157062" data-name="Path 157062" d="M23.526,283.274a2.442,2.442,0,0,1,2.523-2.748c4.877-.042,9.754.007,14.631-.023a3.168,3.168,0,0,1,2.816.947c.755.886.472,2.113.374,3.165-.208,1.416-.234,2.862-.544,4.262a2.6,2.6,0,0,1-2.595,1.791,2.707,2.707,0,0,1-2.084-1.875,14.869,14.869,0,0,1,.212-3.4c-3.4,0-6.8-.007-10.207,0q1.045,9.308,2.074,18.617c2.019,0,4.037,0,6.056,0,.29-2.019.365-4.066.742-6.072a2.4,2.4,0,0,1,4.737.589c-.068,1.836-.4,3.653-.547,5.486,2.595.013,5.19-.046,7.781.013a2.444,2.444,0,0,1,2.36,2.67c.013,4.317,0,8.638,0,12.955,4.62.02,9.243-.01,13.863.016-.661-1.986-.453-4.092-.475-6.147.007-4.122-.013-8.244.007-12.365a7.619,7.619,0,0,1,2.11-5.213,8.057,8.057,0,0,1,5.72-2.429c0-1.944-.205-4,.645-5.815a7.648,7.648,0,0,1,6.707-4.558q2.911-.044,5.828,0a7.66,7.66,0,0,1,6.782,4.747c.755,1.778.557,3.747.563,5.629a7.753,7.753,0,0,1,7.84,7.97q0,6.022,0,12.04c-.02,2.051.179,4.154-.475,6.14q7.15-.029,14.3,0c-.8-3.181-.3-6.486-.446-9.725a7.82,7.82,0,0,1,3.23-6.922c2.455-1.66,4.9-3.337,7.4-4.926a9.052,9.052,0,0,1-2.191-2.321c-.85-1.53-.553-3.337-.6-5.011.052-1.667-.26-3.487.628-5a5.105,5.105,0,0,1,4.679-2.637c3.461.016,6.925-.023,10.386.016a5.071,5.071,0,0,1,4.841,4.981c0,1.957.068,3.92-.046,5.873a5.65,5.65,0,0,1-2.8,4.057q3.79,2.437,7.514,4.985a8.046,8.046,0,0,1,3.178,7.238c-.179,3.109.423,6.316-.495,9.347,4.62.111,9.246-.039,13.866.068a2.5,2.5,0,0,1,2.282,2.038v11.268a2.589,2.589,0,0,1-2.595,1.976c-5.759.029-11.522-.01-17.282.02a2.8,2.8,0,0,1-3.344-2.452,2.571,2.571,0,0,1,2.367-2.416c5.32-.065,10.643-.01,15.966-.023.007-1.856,0-3.708,0-5.561H4.884c0,1.853,0,3.705,0,5.561q64.469-.02,128.938-.01c1.113.046,2.435-.212,3.331.622a3.16,3.16,0,0,1,.9,1.827,2.648,2.648,0,0,1-2.9,2.442q-66.281-.015-132.565-.01A2.585,2.585,0,0,1,0,333.016V321.757a2.536,2.536,0,0,1,2.614-2.08c4.34-.023,8.683-.007,13.023,0,.068-4.431-.023-8.866.042-13.3a2.366,2.366,0,0,1,2.22-2.331c2.621-.075,5.245-.02,7.866-.01-.641-6.932-1.546-13.837-2.24-20.762m54.635,6.5a15.167,15.167,0,0,0-.2,3.806c3.594-.01,7.192.029,10.79-.02-.033-1.035.029-2.071-.052-3.1a2.751,2.751,0,0,0-2.767-2.426q-2.583-.024-5.17,0a2.76,2.76,0,0,0-2.6,1.742m49.393-1.739c.02,1.853-.088,3.712.062,5.564,3.562-.046,7.124,0,10.685-.023.046-1.843.01-3.686.026-5.525-3.591-.052-7.182-.023-10.773-.016M70.133,301.5c0,5.1-.01,10.207,0,15.309a2.787,2.787,0,0,0,2.761,2.846q10.436.024,20.87,0a2.73,2.73,0,0,0,2.706-2.165c.205-5.33.042-10.676.091-16.012a2.8,2.8,0,0,0-2.82-3.012c-6.075-.016-12.147,0-18.223-.007a27.576,27.576,0,0,0-3.24.072,2.823,2.823,0,0,0-2.149,2.969m54.8,2.787c-1.319.879-2.657,1.735-3.956,2.64a2.788,2.788,0,0,0-1.253,2.406c-.036,2.165.01,4.333-.016,6.5a4.37,4.37,0,0,0,.472,2.582,2.854,2.854,0,0,0,2.546,1.25c6.853,0,13.707.01,20.557-.007a2.74,2.74,0,0,0,2.767-2.155c.192-2.618.059-5.248.1-7.872a2.982,2.982,0,0,0-1.4-2.806c-3.891-2.595-7.775-5.2-11.675-7.781l-.238,0c-2.66,1.7-5.261,3.506-7.9,5.248M20.544,308.9c0,3.588-.01,7.179.007,10.77q13.205-.015,26.411,0c.036-1.817.007-3.633.016-5.45q0-2.662,0-5.32-10.49,0-20.98,0Q23.269,308.9,20.544,308.9Z" transform="translate(0 -210.044)"/>
      </g>
      <g id="_ff8086ff" data-name="#ff8086ff" transform="translate(26.245 68.97)">
        <path id="Path_157063" data-name="Path 157063" d="M91.138,79.257a5.386,5.386,0,1,1-3.7,3.366A5.424,5.424,0,0,1,91.138,79.257Z" transform="translate(-84.982 -79.062)" fill="#be79ca"/>
        <path id="Path_157064" data-name="Path 157064" d="M80.61,127.13c1.9.046,3.8.013,5.7.023.928,4.952,1.673,9.933,2.513,14.9a9.515,9.515,0,0,0,1.13,3.8,6.992,6.992,0,0,0,2.23,1.989c-.218,1.934-.586,3.845-.928,5.759-2.093-.023-4.187,0-6.28-.013C83.537,144.763,81.971,135.963,80.61,127.13Z" transform="translate(-80.61 -111.48)" fill="#be79ca"/>
      </g>
      <g id="_fff0afff" data-name="#fff0afff" transform="translate(77.953 68.99)">
        <path id="Path_157065" data-name="Path 157065" d="M239.43,79.136c3.6-.01,7.2-.023,10.8.007-.052,2.08.046,4.164-.055,6.245a20.888,20.888,0,0,0-10.721,0C239.42,83.307,239.45,81.22,239.43,79.136Z" transform="translate(-239.43 -79.125)" fill="#f9f024"/>
      </g>
      <g id="_a4ccffff" data-name="#a4ccffff" transform="translate(124.25 74.177)">
        <path id="Path_157066" data-name="Path 157066" d="M385.068,96.72a2.89,2.89,0,0,1,2.868-1.638,49.525,49.525,0,0,1,5.9.124,10.908,10.908,0,0,0-3.178.221,4.906,4.906,0,0,0-.368,4.125,27.129,27.129,0,0,1,1.534,4.617,13.024,13.024,0,0,1-.27,5.808c-1.335,5-2.754,9.979-4.063,14.983-.638,2.487.413,4.975,1.8,7a9.4,9.4,0,0,1-3.959-.459,5.4,5.4,0,0,1-3.187-5.242c.143-1.66.912-3.194,1.107-4.845a2.8,2.8,0,0,0-1.621-2.468c.007-.173.016-.524.023-.7.479-1.631.915-3.272,1.351-4.913a3.054,3.054,0,0,0,2.191-.521c.947-.781,1.009-2.116,1.367-3.21a20.448,20.448,0,0,0,.944-4.177,44.372,44.372,0,0,0-1.722-4.578C385.316,99.546,384.375,98.117,385.068,96.72Z" transform="translate(-381.63 -95.054)" fill="#75baf1"/>
      </g>
      <g id="_c3ddffff" data-name="#c3ddffff" transform="translate(129.919 74.322)">
        <path id="Path_157067" data-name="Path 157067" d="M402.4,95.729a10.908,10.908,0,0,1,3.178-.221,2.763,2.763,0,0,1,1.856,3.415c-.713,2.129-1.7,4.158-2.445,6.274a3.257,3.257,0,0,0,.091,2.058c1.628,5.886,3.21,11.783,4.835,17.669a5.456,5.456,0,0,1-4.382,7.283c-1.5.127-3,.02-4.5.055-1.387-2.025-2.439-4.512-1.8-7,1.309-5,2.728-9.985,4.063-14.983a13.024,13.024,0,0,0,.27-5.808,27.129,27.129,0,0,0-1.534-4.617A4.906,4.906,0,0,1,402.4,95.729Z" transform="translate(-399.043 -95.501)" fill="#99d2ff"/>
      </g>
      <g id="_b3e59fff" data-name="#b3e59fff" transform="translate(70.35 79.439)">
        <path id="Path_157068" data-name="Path 157068" d="M216.244,117.812a15.811,15.811,0,0,1,28.612,10.262,15.422,15.422,0,0,1-6.551,11.711,20.438,20.438,0,0,1-11.734-1.4,18.5,18.5,0,0,1-9.289-9.95C215.795,125.089,216.01,121.371,216.244,117.812Z" transform="translate(-216.077 -111.219)" fill="#ab88eb"/>
      </g>
      <g id="_ff9a9fff" data-name="#ff9a9fff" transform="translate(31.942 84.642)">
        <path id="Path_157069" data-name="Path 157069" d="M98.11,127.2h9.373c-1.126,6.915-2.344,13.818-3.422,20.739l-.078-.052a6.992,6.992,0,0,1-2.23-1.989,9.515,9.515,0,0,1-1.13-3.8C99.783,137.133,99.038,132.152,98.11,127.2Z" transform="translate(-98.11 -127.2)" fill="#f3b0ff"/>
      </g>
      <g id="_95d6a4ff" data-name="#95d6a4ff" transform="translate(67.534 86.033)">
        <path id="Path_157070" data-name="Path 157070" d="M208.868,147.3a15.8,15.8,0,0,1,1.543-15.826c-.234,3.559-.449,7.277,1.039,10.624a18.5,18.5,0,0,0,9.289,9.95,20.438,20.438,0,0,0,11.734,1.4,15.255,15.255,0,0,1-11.551,2.9A15.9,15.9,0,0,1,208.868,147.3Z" transform="translate(-207.429 -131.47)" fill="#6e3dc6"/>
      </g>
      <g id="_faf5dcff" data-name="#faf5dcff" transform="translate(4.88 113.526)">
        <path id="Path_157071" data-name="Path 157071" d="M22.892,215.917c1.807,0,3.614,0,5.421,0a2.59,2.59,0,0,0,2.657,2.429q70.462,0,140.926-.016c.052,1.859.016,3.718.026,5.577q-78.466,0-156.928,0c.007-1.856-.023-3.715.023-5.574,1.944-.007,3.9.1,5.834-.042A2.627,2.627,0,0,0,22.892,215.917Z" transform="translate(-14.99 -215.916)" fill="#e8e8e8"/>
        <path id="Path_157072" data-name="Path 157072" d="M15,415.8H171.927c0,1.853,0,3.705,0,5.561-5.323.013-10.646-.042-15.966.023a2.571,2.571,0,0,0-2.367,2.416h-5.424a3.16,3.16,0,0,0-.9-1.826c-.9-.833-2.217-.576-3.331-.622q-64.469.024-128.938.01C15,419.505,15,417.653,15,415.8Z" transform="translate(-14.995 -350.722)" fill="#e8e8e8"/>
      </g>
      <g id="_dad8dbff" data-name="#dad8dbff" transform="translate(28.654 139.448)">
        <path id="Path_157073" data-name="Path 157073" d="M88.01,295.539c3.4-.01,6.8,0,10.207,0a14.87,14.87,0,0,0-.212,3.4,2.708,2.708,0,0,0,2.084,1.875c-.2,1.82-.413,3.64-.6,5.463a2.6,2.6,0,0,0-2.608,1.817c-.378,2.006-.453,4.053-.742,6.072-2.019-.007-4.037,0-6.056,0Q89.044,304.847,88.01,295.539Z" transform="translate(-88.01 -295.533)" fill="#e8e8e8"/>
      </g>
      <g id="_f5ebcdff" data-name="#f5ebcdff" transform="translate(77.94 142.069)">
        <path id="Path_157074" data-name="Path 157074" d="M239.612,305.337a2.76,2.76,0,0,1,2.6-1.742q2.588-.024,5.17,0a2.751,2.751,0,0,1,2.767,2.426c.081,1.032.02,2.067.052,3.1-3.6.049-7.2.01-10.79.02A15.167,15.167,0,0,1,239.612,305.337Z" transform="translate(-239.391 -303.583)" fill="#e8e8e8"/>
      </g>
      <g id="_eceaecff" data-name="#eceaecff" transform="translate(127.536 142.07)">
        <path id="Path_157075" data-name="Path 157075" d="M391.74,303.6c3.591-.007,7.182-.036,10.773.016-.016,1.84.02,3.682-.026,5.525-3.562.023-7.124-.023-10.685.023C391.652,307.312,391.76,305.453,391.74,303.6Z" transform="translate(-391.721 -303.587)" fill="#e8e8e8"/>
      </g>
      <g id="_c3aff0ff" data-name="#c3aff0ff" transform="translate(70.124 152.503)">
        <path id="Path_157076" data-name="Path 157076" d="M215.391,338.686a2.823,2.823,0,0,1,2.149-2.969,27.583,27.583,0,0,1,3.24-.072c0,4.171.02,8.338,0,12.505a3.329,3.329,0,0,0,.72,2.517,2.948,2.948,0,0,0,2.233.755c5.948,0,11.9-.042,17.848.02.029,1.078.094,2.155.147,3.233a2.73,2.73,0,0,1-2.706,2.165q-10.431.024-20.87,0a2.787,2.787,0,0,1-2.761-2.846C215.382,348.893,215.391,343.788,215.391,338.686Z" transform="translate(-215.382 -335.633)" fill="#ab88eb"/>
      </g>
      <g id="_d6bdefff" data-name="#d6bdefff" transform="translate(75.521 152.514)">
        <path id="Path_157077" data-name="Path 157077" d="M231.96,335.666c6.075,0,12.147-.01,18.223.007A2.8,2.8,0,0,1,253,338.684c-.049,5.336.114,10.682-.091,16.012-.052-1.078-.117-2.155-.147-3.233-5.948-.062-11.9-.02-17.848-.02a2.948,2.948,0,0,1-2.233-.755,3.329,3.329,0,0,1-.72-2.517C231.98,344,231.963,339.837,231.96,335.666Z" transform="translate(-231.96 -335.664)" fill="#d1b8ff"/>
      </g>
      <g id="_ffc269ff" data-name="#ffc269ff" transform="translate(124.937 153.095)">
        <path id="Path_157078" data-name="Path 157078" d="M383.74,342.7c2.637-1.742,5.239-3.546,7.9-5.248l.238,0c3.9,2.579,7.785,5.186,11.675,7.781a2.982,2.982,0,0,1,1.4,2.807c-.039,2.624.094,5.255-.1,7.872-.02-1.091-.107-2.178-.205-3.259-5.1-.013-10.2.023-15.292.007a22.2,22.2,0,0,1-3.575-.111,2.618,2.618,0,0,1-1.882-2.543C383.776,347.572,384.007,345.127,383.74,342.7Z" transform="translate(-383.74 -337.45)" fill="#f3b0ff"/>
      </g>
      <g id="_ffa95fff" data-name="#ffa95fff" transform="translate(119.712 158.343)">
        <path id="Path_157079" data-name="Path 157079" d="M368.96,356.21c1.3-.905,2.637-1.761,3.956-2.64.267,2.429.036,4.874.163,7.309a2.618,2.618,0,0,0,1.882,2.543,22.2,22.2,0,0,0,3.575.111c5.1.016,10.194-.02,15.292-.007.1,1.081.186,2.168.205,3.259a2.74,2.74,0,0,1-2.767,2.155c-6.85.016-13.7,0-20.557.007a2.854,2.854,0,0,1-2.546-1.25,4.369,4.369,0,0,1-.472-2.582c.026-2.165-.02-4.333.016-6.5A2.788,2.788,0,0,1,368.96,356.21Z" transform="translate(-367.69 -353.57)" fill="#be79ca"/>
      </g>
      <g id="_ffd064ff" data-name="#ffd064ff" transform="translate(20.542 162.954)">
        <path id="Path_157080" data-name="Path 157080" d="M63.1,367.733q2.725,0,5.45,0c.127,1.582-.511,3.62.918,4.77.612.654,1.573.563,2.39.593,5.893-.059,11.786.02,17.676-.039-.01,1.817.02,3.633-.016,5.45q-13.205-.02-26.411,0C63.086,374.912,63.1,371.321,63.1,367.733Z" transform="translate(-63.094 -367.73)" fill="#f9f024"/>
      </g>
      <g id="_ffe07dff" data-name="#ffe07dff" transform="translate(25.959 162.954)">
        <path id="Path_157081" data-name="Path 157081" d="M79.766,367.73q10.49,0,20.98,0,0,2.657,0,5.32c-5.89.059-11.783-.02-17.676.039-.817-.029-1.778.062-2.39-.593C79.255,371.35,79.893,369.312,79.766,367.73Z" transform="translate(-79.731 -367.73)" fill="#fffa7d"/>
      </g>
    </g>
  </g>
</svg>
