<svg xmlns="http://www.w3.org/2000/svg" width="400.242" height="250" viewBox="0 0 400.242 250">
  <g id="ch-4" transform="translate(-389.758 -17269.387)">
    <rect id="Rectangle_36560" data-name="Rectangle 36560" width="400" height="250" rx="30" transform="translate(389.758 17269.387)" fill="#fdfbd2"/>
    <path id="Rectangle_36560_-_Outline" data-name="Rectangle 36560 - Outline" d="M30,3A26.975,26.975,0,0,0,3,30V220a26.975,26.975,0,0,0,27,27H370a26.975,26.975,0,0,0,27-27V30A26.975,26.975,0,0,0,370,3H30m0-3H370a30,30,0,0,1,30,30V220a30,30,0,0,1-30,30H30A30,30,0,0,1,0,220V30A30,30,0,0,1,30,0Z" transform="translate(389.758 17269.387)" fill="#f9f024"/>
    <path id="Rectangle_36436" data-name="Rectangle 36436" d="M0,0H400a0,0,0,0,1,0,0V25a30,30,0,0,1-30,30H30A30,30,0,0,1,0,25V0A0,0,0,0,1,0,0Z" transform="translate(390 17464.387)" fill="#f9f024"/>
    <path id="Path_157291" data-name="Path 157291" d="M63.02,15.693V21H59.25V5.359h6.241a7.269,7.269,0,0,1,3.174.661A4.979,4.979,0,0,1,70.8,7.9a5.134,5.134,0,0,1,.757,2.766,4.526,4.526,0,0,1-1.638,3.658,6.8,6.8,0,0,1-4.5,1.37Zm0-2.911h2.471a2.33,2.33,0,0,0,1.67-.548,2.035,2.035,0,0,0,.575-1.547,2.516,2.516,0,0,0-.591-1.751,2.092,2.092,0,0,0-1.611-.666H63.02ZM79.832,21a4.087,4.087,0,0,1-.344-1.042,3.366,3.366,0,0,1-2.793,1.257,4.124,4.124,0,0,1-2.793-.994,3.163,3.163,0,0,1-1.149-2.5,3.251,3.251,0,0,1,1.4-2.857,7.114,7.114,0,0,1,4.061-.967h1.117v-.615q0-1.608-1.386-1.608a1.133,1.133,0,0,0-1.289,1.274h-3.62a3.245,3.245,0,0,1,1.434-2.736,6.027,6.027,0,0,1,3.658-1.051,5.284,5.284,0,0,1,3.513,1.085,3.772,3.772,0,0,1,1.321,2.976v5.146a5.269,5.269,0,0,0,.494,2.449V21Zm-2.267-2.363a2.019,2.019,0,0,0,1.123-.29,1.818,1.818,0,0,0,.639-.655V15.833H78.274q-1.891,0-1.891,1.7a1.036,1.036,0,0,0,.333.8A1.205,1.205,0,0,0,77.565,18.637Zm14.427-5.983L90.8,12.567a2.142,2.142,0,0,0-2.191,1.074V21h-3.62V9.377h3.395L88.5,10.87a2.8,2.8,0,0,1,2.546-1.708,3.53,3.53,0,0,1,1.01.129ZM99.522,21a4.087,4.087,0,0,1-.344-1.042,3.366,3.366,0,0,1-2.793,1.257,4.124,4.124,0,0,1-2.793-.994,3.163,3.163,0,0,1-1.149-2.5,3.251,3.251,0,0,1,1.4-2.857A7.114,7.114,0,0,1,97.9,13.9h1.117v-.615q0-1.608-1.386-1.608a1.133,1.133,0,0,0-1.289,1.274h-3.62a3.245,3.245,0,0,1,1.434-2.736,6.027,6.027,0,0,1,3.658-1.051,5.284,5.284,0,0,1,3.513,1.085,3.772,3.772,0,0,1,1.321,2.976v5.146a5.269,5.269,0,0,0,.494,2.449V21Zm-2.267-2.363a2.019,2.019,0,0,0,1.123-.29,1.818,1.818,0,0,0,.639-.655V15.833H97.964q-1.891,0-1.891,1.7a1.036,1.036,0,0,0,.333.8A1.205,1.205,0,0,0,97.255,18.637Zm18.5,2.578a5.975,5.975,0,0,1-4.329-1.6,5.509,5.509,0,0,1-1.654-4.152v-.3a7.138,7.138,0,0,1,.661-3.147,4.834,4.834,0,0,1,1.928-2.111,5.821,5.821,0,0,1,3.008-.747,5.031,5.031,0,0,1,3.867,1.52,5.973,5.973,0,0,1,1.418,4.238v1.407h-7.2a2.609,2.609,0,0,0,.849,1.536,2.525,2.525,0,0,0,1.7.559,3.254,3.254,0,0,0,2.686-1.2l1.654,1.955a4.624,4.624,0,0,1-1.917,1.488A6.48,6.48,0,0,1,115.753,21.215Zm-.408-9.26q-1.59,0-1.891,2.105h3.652v-.279a1.793,1.793,0,0,0-.44-1.348A1.753,1.753,0,0,0,115.345,11.955ZM125.926,21H122.3V4.5h3.631Zm12.622-2.578a1.61,1.61,0,0,0,1.182-.414,1.517,1.517,0,0,0,.408-1.155h3.395a4.018,4.018,0,0,1-1.37,3.137,5.1,5.1,0,0,1-3.529,1.225,5.158,5.158,0,0,1-4-1.59,6.264,6.264,0,0,1-1.461-4.4v-.15a7.08,7.08,0,0,1,.65-3.11A4.732,4.732,0,0,1,135.7,9.887a5.589,5.589,0,0,1,2.9-.725,5.03,5.03,0,0,1,3.6,1.257,4.458,4.458,0,0,1,1.332,3.405h-3.395a1.987,1.987,0,0,0-.44-1.386,1.52,1.52,0,0,0-1.182-.483q-1.407,0-1.644,1.794a12.659,12.659,0,0,0-.075,1.568,4.972,4.972,0,0,0,.419,2.428A1.45,1.45,0,0,0,138.548,18.422ZM148.882,21h-3.631V4.5h3.631Zm6.048,0H151.3V9.377h3.631ZM151.084,6.369a1.63,1.63,0,0,1,.559-1.275,2.364,2.364,0,0,1,2.9,0,1.63,1.63,0,0,1,.559,1.275,1.63,1.63,0,0,1-.559,1.275,2.364,2.364,0,0,1-2.9,0A1.63,1.63,0,0,1,151.084,6.369Zm11.7,14.846a5.975,5.975,0,0,1-4.329-1.6,5.509,5.509,0,0,1-1.654-4.152v-.3a7.138,7.138,0,0,1,.661-3.147,4.834,4.834,0,0,1,1.928-2.111,5.821,5.821,0,0,1,3.008-.747,5.031,5.031,0,0,1,3.867,1.52,5.973,5.973,0,0,1,1.418,4.238v1.407h-7.2a2.609,2.609,0,0,0,.849,1.536,2.525,2.525,0,0,0,1.7.559,3.254,3.254,0,0,0,2.686-1.2l1.654,1.955a4.624,4.624,0,0,1-1.917,1.488A6.48,6.48,0,0,1,162.783,21.215Zm-.408-9.26q-1.59,0-1.891,2.105h3.652v-.279a1.793,1.793,0,0,0-.44-1.348A1.753,1.753,0,0,0,162.375,11.955Zm10.087-2.578.118,1.364A3.942,3.942,0,0,1,175.9,9.162a3.316,3.316,0,0,1,2.712,1.085,5.165,5.165,0,0,1,.929,3.266V21H175.91V13.663a1.961,1.961,0,0,0-.354-1.294,1.64,1.64,0,0,0-1.289-.414,1.726,1.726,0,0,0-1.579.838V21h-3.62V9.377Zm13.3-2.89v2.89h1.912v2.514H185.76v5.317a1.358,1.358,0,0,0,.236.913,1.268,1.268,0,0,0,.935.258,5.311,5.311,0,0,0,.9-.064V20.9a6.681,6.681,0,0,1-2.041.312,3.792,3.792,0,0,1-2.761-.881,3.61,3.61,0,0,1-.892-2.675V11.891h-1.482V9.377h1.482V6.487Zm8.959,14.728a5.975,5.975,0,0,1-4.329-1.6,5.509,5.509,0,0,1-1.654-4.152v-.3a7.138,7.138,0,0,1,.661-3.147,4.834,4.834,0,0,1,1.928-2.111,5.821,5.821,0,0,1,3.008-.747,5.031,5.031,0,0,1,3.867,1.52,5.973,5.973,0,0,1,1.418,4.238v1.407h-7.2a2.609,2.609,0,0,0,.849,1.536,2.525,2.525,0,0,0,1.7.559,3.254,3.254,0,0,0,2.686-1.2l1.654,1.955a4.624,4.624,0,0,1-1.917,1.488A6.48,6.48,0,0,1,194.719,21.215Zm-.408-9.26q-1.59,0-1.891,2.105h3.652v-.279a1.793,1.793,0,0,0-.44-1.348A1.753,1.753,0,0,0,194.311,11.955ZM211.9,17.67q.14-.709-1.1-1.063l-.763-.193a5.873,5.873,0,0,1-2.739-1.386,2.743,2.743,0,0,1-.816-2.116,3.371,3.371,0,0,1,1.488-2.723,5.662,5.662,0,0,1,3.5-1.026,5.246,5.246,0,0,1,3.325,1.042,3.4,3.4,0,0,1,1.294,2.75l-3.523-.011q.043-1.375-1.214-1.375a1.731,1.731,0,0,0-1,.317,1.231,1.231,0,0,0-.548.843q-.183.87,1.536,1.192a8.927,8.927,0,0,1,2.31.822,3.448,3.448,0,0,1,1.246,1.155,2.872,2.872,0,0,1,.4,1.654,3.106,3.106,0,0,1-.687,1.88,4.452,4.452,0,0,1-1.9,1.321,6.791,6.791,0,0,1-2.691.462,5.462,5.462,0,0,1-2.336-.526,4.166,4.166,0,0,1-1.687-1.4,3.641,3.641,0,0,1-.628-2.036l3.287.021A1.358,1.358,0,0,0,210.2,18.8a2.03,2.03,0,0,0,1.117-.3A1.278,1.278,0,0,0,211.9,17.67Zm9.6-7.025a3.8,3.8,0,0,1,3-1.493,3.021,3.021,0,0,1,2.594,1.278,4.866,4.866,0,0,1,.607,3.352L226.495,21H222.96l1.214-7.27a3.763,3.763,0,0,0,.021-.688,1.073,1.073,0,0,0-1.182-1.1,2.289,2.289,0,0,0-1.7.7L219.834,21H216.3l2.868-16.5H222.7Zm13.814-1.482a4.881,4.881,0,0,1,2.7.779,4.388,4.388,0,0,1,1.67,2.111,6.514,6.514,0,0,1,.381,3.008l-.021.236a6.888,6.888,0,0,1-1.987,4.318,5.592,5.592,0,0,1-4.168,1.6,4.861,4.861,0,0,1-2.675-.768,4.415,4.415,0,0,1-1.67-2.089,6.33,6.33,0,0,1-.392-2.986,7.165,7.165,0,0,1,1.96-4.555A5.557,5.557,0,0,1,235.314,9.162Zm-2.632,6.214-.032.633q-.15,2.391,1.461,2.434,2.084.064,2.417-3.378l.043-.976a2.634,2.634,0,0,0-.36-1.539,1.311,1.311,0,0,0-1.123-.6,1.848,1.848,0,0,0-1.606.8A5.228,5.228,0,0,0,232.682,15.376Zm19.433-.177a9.655,9.655,0,0,1-.956,3.25,5.314,5.314,0,0,1-1.81,2.116,4.176,4.176,0,0,1-2.412.661,3.158,3.158,0,0,1-2.471-1.2l-1.053,5.446h-3.534l2.793-16.092,3.266-.011-.183,1.106a3.416,3.416,0,0,1,2.761-1.311,3.253,3.253,0,0,1,2.648,1.214,5.363,5.363,0,0,1,1.015,3.255A12.555,12.555,0,0,1,252.115,15.2Zm-3.437-1.439q-.054-1.772-1.2-1.8a2.083,2.083,0,0,0-1.858.913l-.827,4.608a1.434,1.434,0,0,0,1.482.956q1.88.032,2.31-3.233Q248.677,14.168,248.677,13.76ZM264.232,15.2a9.655,9.655,0,0,1-.956,3.25,5.314,5.314,0,0,1-1.81,2.116,4.176,4.176,0,0,1-2.412.661,3.158,3.158,0,0,1-2.471-1.2l-1.053,5.446H252L254.79,9.377l3.266-.011-.183,1.106a3.416,3.416,0,0,1,2.761-1.311,3.253,3.253,0,0,1,2.648,1.214,5.363,5.363,0,0,1,1.015,3.255A12.561,12.561,0,0,1,264.232,15.2Zm-3.437-1.439q-.054-1.772-1.2-1.8a2.083,2.083,0,0,0-1.858.913l-.827,4.608a1.434,1.434,0,0,0,1.482.956q1.88.032,2.31-3.233Q260.794,14.168,260.794,13.76Zm9.851,7.455a5.4,5.4,0,0,1-2.777-.736,4.636,4.636,0,0,1-1.842-2.02,5.426,5.426,0,0,1-.494-2.852l.032-.3a7.125,7.125,0,0,1,1.993-4.539,5.512,5.512,0,0,1,4.173-1.606,4.5,4.5,0,0,1,2.557.758,4.238,4.238,0,0,1,1.558,2.033,6.227,6.227,0,0,1,.322,2.91l-.2,1.474h-6.918a2.266,2.266,0,0,0,.516,1.482,1.894,1.894,0,0,0,1.439.6,3.658,3.658,0,0,0,2.761-1.182l1.482,1.96a4.373,4.373,0,0,1-1.832,1.462,6.432,6.432,0,0,1-2.573.552Zm.859-9.26a1.818,1.818,0,0,0-1.305.47,3.946,3.946,0,0,0-.961,1.646h3.534l.064-.31a2.357,2.357,0,0,0,.021-.705A1.244,1.244,0,0,0,271.5,11.955Zm13.481.7a10.111,10.111,0,0,0-1.1-.107,2.729,2.729,0,0,0-2.428,1.1L280.152,21h-3.534l2.02-11.623,3.3-.011-.269,1.525a3.227,3.227,0,0,1,2.686-1.762,5.065,5.065,0,0,1,1.1.15Z" transform="translate(419 17478.387)" fill="#12263f"/>
    <g id="pregunta" transform="translate(519.597 17304.301)">
      <g id="_000000ff" data-name="#000000ff" transform="translate(10.161)">
        <path id="Path_157198" data-name="Path 157198" d="M89.193,0h33.74a8.479,8.479,0,0,1,4.548,2.012,8.047,8.047,0,0,1,2.7,6.04q.007,16,0,32a8.015,8.015,0,0,1-8.005,8.074c-4.236.02-8.469,0-12.7.007a1.24,1.24,0,0,0-1.147.547c-2,2.549-3.967,5.132-5.974,7.678a2.954,2.954,0,0,1-3.516.911A2.9,2.9,0,0,1,97.047,54.7c-.078-1.8.037-3.6-.039-5.4a1.132,1.132,0,0,0-.962-1.14c-2.673-.183-5.383.21-8.032-.288,0,1.555,0,3.11,0,4.665a7.543,7.543,0,0,1,2.559,4.795c.161,2.185.2,4.563-1.079,6.457a7.283,7.283,0,0,1-5.669,3.381c-1.318.068-2.639,0-3.957.037A32.176,32.176,0,0,1,66.164,82.555a6.209,6.209,0,0,1-3.481,7.537,3.9,3.9,0,0,0,1.138,2.473c.9.9,2.231.984,3.42,1.167,2.69.435,5.461.691,7.971,1.831a12.143,12.143,0,0,1,2.937,1.687,2,2,0,0,1,.212,2.288,2.036,2.036,0,0,1-2.041.7c-.83-.327-1.543-.881-2.363-1.226-2.3-1.072-4.856-1.262-7.327-1.645-.62-.117-1.245-.215-1.865-.315a19.87,19.87,0,0,1-11.3,5.281,20.705,20.705,0,0,1-5.286-.1c-.713-.178-1.345.254-1.99.471a9.943,9.943,0,0,1-3.574.566c-2.6,0-5.207-.007-7.812,0q-2.355,9.027-4.695,18.059,1.677,0,3.354,0,18.369,0,36.733,0c.01-2.446-.012-4.893,0-7.336a1.852,1.852,0,0,1,1.265-1.885,1.82,1.82,0,0,1,2.373,1.631c.056,2.529,0,5.059.02,7.59h4.363c1.453-.042,2.913.085,4.36-.056.583-.215.454-.9.435-1.389-.225-2.859-.42-5.72-.635-8.579A14.431,14.431,0,0,0,81.2,106.4a3.166,3.166,0,0,1-.476-2.136,2.3,2.3,0,0,1,.891-1.15,1.908,1.908,0,0,1,2.424.725,17.879,17.879,0,0,1,2.014,7.5c.2,3.093.491,6.179.649,9.272A4.479,4.479,0,0,1,82.755,125H13.73a3.644,3.644,0,0,1-3.032-4.368c2.751-10.71,5.569-21.4,8.328-32.111a4.106,4.106,0,0,1,.7-1.5c2.717-3.713,5.373-7.473,8.1-11.179a30.389,30.389,0,0,1-5.417-8.623c-1.9-.059-3.8.059-5.7-.061a7.317,7.317,0,0,1-6.5-6.587,11.549,11.549,0,0,1,.542-5.242A8.525,8.525,0,0,1,12.492,52.8q-.231-7.965-.459-15.93A15.7,15.7,0,0,1,22.639,21.5c.413-.107.637-.481.859-.811A27.432,27.432,0,0,1,40.663,8.8c4-.942,8.13-.564,12.2-.642A36.5,36.5,0,0,1,63.339,9.3,33.6,33.6,0,0,1,82.054,22.478c.007-4.807,0-9.617,0-14.424a8,8,0,0,1,2.888-6.2A8.718,8.718,0,0,1,89.193,0M86.124,6.167a6.825,6.825,0,0,0-.408,3.127q0,9.759,0,19.521a9.236,9.236,0,0,0,.684,2.417,36.752,36.752,0,0,1,1.616,12.742,5.032,5.032,0,0,0,1.946.481c2.041.039,4.084-.02,6.125.024a4.86,4.86,0,0,1,4.565,4.329c.088,1.235.012,2.473.042,3.711,1.619-2.061,3.208-4.141,4.824-6.2a4.721,4.721,0,0,1,3.711-1.848c3.581-.01,7.165,0,10.747,0,.9-.015,1.8.039,2.693-.039a4.34,4.34,0,0,0,3.638-2.957,8.526,8.526,0,0,0,.22-2.659q-.011-15.384,0-30.766a4.352,4.352,0,0,0-2.532-3.989c-1.255-.6-2.681-.339-4.021-.4q-14.886.007-29.775,0a4.364,4.364,0,0,0-4.067,2.5M42.631,12.141A23.856,23.856,0,0,0,26.049,23.5a2.267,2.267,0,0,1-1.523,1.238,12.1,12.1,0,0,0-7.888,6.931,12.39,12.39,0,0,0-.942,5.2c.129,4.7.276,9.4.4,14.1a43.984,43.984,0,0,1,4.609-.1,50.42,50.42,0,0,1,1.089-6.243,1.975,1.975,0,0,1,2.2-1.294,2.041,2.041,0,0,1,1.36,1.821c-.168,1.309-.542,2.583-.7,3.894-.652,4.839-1.025,9.88.393,14.624A25.442,25.442,0,0,0,30,72.76c1.289-1.694,2.488-3.457,3.762-5.166a6.03,6.03,0,0,1,3.906-2.332A6.222,6.222,0,0,1,44.1,68.529a5.975,5.975,0,0,1-.3,5.945c-.9,1.333-1.841,2.634-2.754,3.957,6.372.01,12.746,0,19.121,0a6.193,6.193,0,0,1,3.772,1.157,31.015,31.015,0,0,0,8.249-6.77,24.27,24.27,0,0,0,5.962-14.944,49.386,49.386,0,0,0-1.145-11.98,4.962,4.962,0,0,0-4.121-3.874A62.709,62.709,0,0,1,50.666,36.5a5.746,5.746,0,0,0-.793-.273A12.212,12.212,0,0,0,48.739,37.4a6.319,6.319,0,0,1-4.932,1.653,10.374,10.374,0,0,1-5.117-2.222,38.585,38.585,0,0,1-4.993-4.77,1.076,1.076,0,0,0-1.619-.09,28.533,28.533,0,0,0-4.133,6.125A1.814,1.814,0,0,1,24.687,36.5a30.646,30.646,0,0,1,4.106-6.345,4.876,4.876,0,0,1,6.247-1.633,11.7,11.7,0,0,1,2.678,2.483A21.692,21.692,0,0,0,42.1,34.7a3.957,3.957,0,0,0,3.3.542c1.133-.41,1.55-1.733,2.664-2.185a4.859,4.859,0,0,1,4.6.33A57.485,57.485,0,0,0,72.6,38.3a8.683,8.683,0,0,1,7.759,5.9,46.02,46.02,0,0,1,1.206,6.67c.928-.017,1.858-.01,2.783.042,0-3.3.015-6.6-.007-9.892A29.7,29.7,0,0,0,59.706,12.246a54.77,54.77,0,0,0-9.553-.43,45,45,0,0,0-7.522.325M13.862,57.831a18.645,18.645,0,0,0,.01,2.5,3.671,3.671,0,0,0,3.347,3.188c1.331.049,2.661,0,3.992.015a30.91,30.91,0,0,1-.747-9.016c-1.082.012-2.166-.032-3.247.015a3.666,3.666,0,0,0-3.354,3.293M81.81,54.523a31.428,31.428,0,0,1-.747,9.016c1.509-.042,3.23.281,4.492-.769a4.286,4.286,0,0,0,1.428-3.921,3.947,3.947,0,0,0-1.677-3.728,5.735,5.735,0,0,0-3.5-.6m-44,14.463c-.872.271-1.335,1.108-1.846,1.794q-6.54,9.071-13.093,18.135a2.406,2.406,0,0,0-.4.918q-4.083,15.754-8.186,31.5c4.006.01,8.013-.012,12.019.012,1.675-6.313,3.281-12.646,4.949-18.96a3.776,3.776,0,0,1,3.508-2.769c2.776-.037,5.557.017,8.335-.022A6.146,6.146,0,0,0,48.62,95.87c.872-1.987.293-4.2.554-6.282a3.242,3.242,0,0,1,3.186-2.683c2.693-.042,5.386.029,8.079-.029a2.393,2.393,0,1,0-.247-4.778q-9.661-.011-19.321,0a4.724,4.724,0,0,1-2.776-.466,2.956,2.956,0,0,1-.913-4.031c1.138-1.7,2.361-3.35,3.506-5.049a2.291,2.291,0,0,0,.2-2.244,2.527,2.527,0,0,0-3.076-1.323M52.777,90.6c0,1.133.027,2.268-.015,3.4a9.744,9.744,0,0,1-1.541,4.79,16.34,16.34,0,0,0,10.054-3.552A7.467,7.467,0,0,1,59.057,90.6Q55.915,90.6,52.777,90.6Z" transform="translate(-10.161)"/>
        <path id="Path_157199" data-name="Path 157199" d="M368.851,42.58A8.484,8.484,0,1,1,380.543,52.8a9.406,9.406,0,0,1-2.922.791c-.022,1.536.032,3.074-.022,4.612a1.824,1.824,0,0,1-3.638-.254q-.015-3.058,0-6.118a1.828,1.828,0,0,1,.84-1.6,4.087,4.087,0,0,1,2.1-.3,4.824,4.824,0,1,0-4.7-5.637c-.11.745-.034,1.638-.684,2.165a1.84,1.84,0,0,1-2.949-.735A6.318,6.318,0,0,1,368.851,42.58Z" transform="translate(-280.991 -27.676)"/>
        <path id="Path_157200" data-name="Path 157200" d="M392.192,143.366a1.842,1.842,0,0,1,1.755.427c1.218,1.157.547,3.835-1.345,3.691C390.459,147.436,390.2,143.886,392.192,143.366Z" transform="translate(-297.899 -108.313)"/>
        <path id="Path_157201" data-name="Path 157201" d="M133.964,217.331a1.826,1.826,0,0,1,2.234,1.6,18.135,18.135,0,0,1-.022,2.576,1.831,1.831,0,0,1-2.837,1.143c-1.064-.718-.735-2.144-.781-3.23A1.909,1.909,0,0,1,133.964,217.331Z" transform="translate(-102.666 -164.231)"/>
        <path id="Path_157202" data-name="Path 157202" d="M246.028,217.33a1.834,1.834,0,0,1,2.266,1.8c-.059,1.138.344,2.583-.659,3.423a1.837,1.837,0,0,1-2.869-.759,10.917,10.917,0,0,1-.115-2.634A1.826,1.826,0,0,1,246.028,217.33Z" transform="translate(-187.386 -164.225)"/>
        <path id="Path_157203" data-name="Path 157203" d="M176.77,258.294a10.4,10.4,0,0,1,7.341,1.606,1.83,1.83,0,0,1-.43,3.093c-.942.449-1.833-.244-2.666-.605a6.406,6.406,0,0,0-5.588.154c-.73.391-1.6.869-2.419.417a1.834,1.834,0,0,1-.288-3.105A11.116,11.116,0,0,1,176.77,258.294Z" transform="translate(-132.481 -195.135)"/>
      </g>
      <g id="_f7e365ff" data-name="#f7e365ff" transform="translate(85.712 3.659)">
        <path id="Path_157204" data-name="Path 157204" d="M320.033,17.495a4.364,4.364,0,0,1,4.067-2.5q14.886,0,29.775,0a6.6,6.6,0,0,1,1.719,4.4q.022,16,0,32a6.728,6.728,0,0,1-1.716,4.414c-3.581,0-7.165-.007-10.747,0a4.72,4.72,0,0,0-3.711,1.848c-1.616,2.061-3.206,4.141-4.824,6.2-.029-1.238.046-2.476-.042-3.711a4.86,4.86,0,0,0-4.565-4.329c-2.041-.044-4.084.015-6.125-.024a5.032,5.032,0,0,1-1.946-.481,36.752,36.752,0,0,0-1.616-12.742,9.236,9.236,0,0,1-.684-2.417q.011-9.759,0-19.521a6.825,6.825,0,0,1,.408-3.127m11.9,8.738a6.318,6.318,0,0,0-.281,3.147,1.84,1.84,0,0,0,2.949.735c.649-.527.574-1.421.684-2.166a4.819,4.819,0,1,1,4.7,5.637,4.087,4.087,0,0,0-2.1.3,1.827,1.827,0,0,0-.84,1.6q-.022,3.058,0,6.118a1.824,1.824,0,0,0,3.638.254c.054-1.538,0-3.076.022-4.612a9.406,9.406,0,0,0,2.922-.791A8.484,8.484,0,1,0,331.93,26.233m6.433,20.149c-1.992.52-1.733,4.07.41,4.119,1.892.144,2.563-2.534,1.345-3.691A1.842,1.842,0,0,0,338.363,46.381Z" transform="translate(-319.621 -14.987)" fill="#f9f024"/>
      </g>
      <g id="_f3d332ff" data-name="#f3d332ff" transform="translate(119.967 3.652)">
        <path id="Path_157205" data-name="Path 157205" d="M459.93,14.968c1.34.059,2.766-.2,4.021.4a4.352,4.352,0,0,1,2.532,3.989q.011,15.384,0,30.766a8.525,8.525,0,0,1-.22,2.659,4.34,4.34,0,0,1-3.638,2.957c-.9.078-1.8.024-2.693.039a6.727,6.727,0,0,0,1.716-4.414q0-16,0-32A6.6,6.6,0,0,0,459.93,14.968Z" transform="translate(-459.93 -14.961)" fill="#d9d11f"/>
      </g>
      <g id="_655e67ff" data-name="#655e67ff" transform="translate(15.689 11.81)">
        <path id="Path_157206" data-name="Path 157206" d="M59.747,48.706a45,45,0,0,1,7.522-.325,54.771,54.771,0,0,1,9.553.43A29.7,29.7,0,0,1,101.46,77.583c.022,3.3,0,6.594.007,9.892-.925-.051-1.855-.059-2.783-.042a46.019,46.019,0,0,0-1.206-6.67,8.683,8.683,0,0,0-7.759-5.9,57.485,57.485,0,0,1-19.936-4.912,4.859,4.859,0,0,0-4.6-.33c-1.113.452-1.531,1.775-2.664,2.185a3.957,3.957,0,0,1-3.3-.542,21.692,21.692,0,0,1-4.38-3.694,11.7,11.7,0,0,0-2.678-2.483,4.876,4.876,0,0,0-6.247,1.633A30.645,30.645,0,0,0,41.8,73.066a1.965,1.965,0,0,0,.872,2.383Q41.8,77.643,41.107,79.9a1.975,1.975,0,0,0-2.2,1.294,50.421,50.421,0,0,0-1.089,6.243,43.983,43.983,0,0,0-4.609.1c-.125-4.7-.271-9.4-.4-14.1a12.39,12.39,0,0,1,.942-5.2,12.1,12.1,0,0,1,7.888-6.931,2.267,2.267,0,0,0,1.523-1.238A23.856,23.856,0,0,1,59.747,48.706Z" transform="translate(-32.805 -48.376)" fill="#575c73"/>
      </g>
      <g id="_f8a48dff" data-name="#f8a48dff" transform="translate(13.825 31.641)">
        <path id="Path_157207" data-name="Path 157207" d="M74.9,129.93a1.076,1.076,0,0,1,1.619.09,38.586,38.586,0,0,0,4.993,4.77,10.374,10.374,0,0,0,5.117,2.222,6.319,6.319,0,0,0,4.932-1.653,12.212,12.212,0,0,1,1.133-1.169,5.747,5.747,0,0,1,.793.273,62.709,62.709,0,0,0,22.226,5.518,4.962,4.962,0,0,1,4.121,3.874,49.386,49.386,0,0,1,1.145,11.98,24.27,24.27,0,0,1-5.962,14.944,31.015,31.015,0,0,1-8.249,6.77,6.193,6.193,0,0,0-3.772-1.157c-6.374,0-12.749.012-19.121,0,.913-1.323,1.855-2.624,2.754-3.957a5.975,5.975,0,0,0,.3-5.945,6.222,6.222,0,0,0-6.431-3.267,6.03,6.03,0,0,0-3.906,2.331c-1.274,1.709-2.473,3.472-3.762,5.166a25.442,25.442,0,0,1-4.963-9.089c-1.418-4.744-1.045-9.785-.393-14.624.161-1.311.535-2.585.7-3.894a2.041,2.041,0,0,0-1.36-1.821q.692-2.256,1.567-4.448a1.981,1.981,0,0,0,2.388-.791A28.533,28.533,0,0,1,74.9,129.93m9.38,21.133a1.909,1.909,0,0,0-1.406,2.085c.046,1.086-.283,2.512.781,3.23a1.831,1.831,0,0,0,2.837-1.143,18.137,18.137,0,0,0,.022-2.576,1.826,1.826,0,0,0-2.234-1.6m27.343,0a1.826,1.826,0,0,0-1.377,1.831,10.918,10.918,0,0,0,.115,2.634,1.837,1.837,0,0,0,2.869.759c1-.84.6-2.285.659-3.423a1.834,1.834,0,0,0-2.266-1.8M97.269,161.121a11.116,11.116,0,0,0-4.05,1.56,1.834,1.834,0,0,0,.288,3.105c.818.452,1.689-.027,2.419-.417a6.406,6.406,0,0,1,5.588-.154c.833.361,1.724,1.055,2.666.605a1.83,1.83,0,0,0,.43-3.093A10.4,10.4,0,0,0,97.269,161.121Z" transform="translate(-56.643 -129.604)" fill="#ffe5c1"/>
        <path id="Path_157208" data-name="Path 157208" d="M25.2,226.616a3.666,3.666,0,0,1,3.354-3.293c1.082-.046,2.166,0,3.247-.015a30.91,30.91,0,0,0,.747,9.016c-1.331-.012-2.661.034-3.992-.015a3.671,3.671,0,0,1-3.347-3.188A18.644,18.644,0,0,1,25.2,226.616Z" transform="translate(-25.167 -200.426)" fill="#fed1a3"/>
        <path id="Path_157209" data-name="Path 157209" d="M301.327,223.29a5.735,5.735,0,0,1,3.5.6,3.947,3.947,0,0,1,1.677,3.728,4.286,4.286,0,0,1-1.428,3.921c-1.262,1.05-2.983.728-4.492.769A31.43,31.43,0,0,0,301.327,223.29Z" transform="translate(-233.341 -200.408)" fill="#fed1a3"/>
        <path id="Path_157210" data-name="Path 157210" d="M179.905,371.1q3.138,0,6.279,0a7.466,7.466,0,0,0,2.219,4.639,16.34,16.34,0,0,1-10.054,3.552,9.744,9.744,0,0,0,1.54-4.79C179.932,373.365,179.9,372.229,179.905,371.1Z" transform="translate(-140.952 -312.138)" fill="#fed1a3"/>
      </g>
      <g id="_f9b1a0ff" data-name="#f9b1a0ff" transform="translate(14.287 68.85)">
        <path id="Path_157211" data-name="Path 157211" d="M50.588,282.149a2.528,2.528,0,0,1,3.076,1.323,2.291,2.291,0,0,1-.2,2.244c-1.145,1.7-2.368,3.345-3.506,5.049a2.956,2.956,0,0,0,.913,4.031,4.724,4.724,0,0,0,2.776.466q9.661,0,19.321,0a2.393,2.393,0,1,1,.247,4.778c-2.693.059-5.386-.012-8.079.029a3.242,3.242,0,0,0-3.186,2.683c-.261,2.082.317,4.294-.554,6.282a6.146,6.146,0,0,1-5.522,3.726c-2.778.039-5.559-.015-8.335.022a3.776,3.776,0,0,0-3.508,2.769c-1.667,6.313-3.274,12.646-4.949,18.96-4.006-.024-8.013,0-12.019-.012q4.091-15.751,8.186-31.5a2.406,2.406,0,0,1,.4-.918q6.559-9.06,13.093-18.135C49.252,283.257,49.716,282.42,50.588,282.149Z" transform="translate(-27.06 -282.013)" fill="#ffe5c1"/>
      </g>
      <g id="_acd980ff" data-name="#acd980ff" transform="translate(33.461 97.05)">
        <path id="Path_157212" data-name="Path 157212" d="M125.6,402.8a19.87,19.87,0,0,0,11.3-5.281c.62.1,1.245.2,1.865.315.732.405,1.487.771,2.241,1.133a16.113,16.113,0,0,1,7.961,9.617,17.8,17.8,0,0,1,.7,3.955c.232,3.088.432,6.179.686,9.268H146c-.017-2.532.037-5.061-.02-7.59a1.82,1.82,0,0,0-2.373-1.631,1.852,1.852,0,0,0-1.265,1.885c-.017,2.444,0,4.89,0,7.336q-18.365,0-36.733,0c1.15-4.7,2.434-9.377,3.623-14.072a1.994,1.994,0,0,1,1.831-1.7c2.766-.066,5.535.017,8.3-.024A7.682,7.682,0,0,0,125.6,402.8Z" transform="translate(-105.6 -397.52)" fill="#9ed4ff"/>
      </g>
      <g id="_8cc951ff" data-name="#8cc951ff" transform="translate(30.107 97.365)">
        <path id="Path_157213" data-name="Path 157213" d="M241.46,398.81c2.471.383,5.029.574,7.327,1.645.82.344,1.533.9,2.363,1.226a2.036,2.036,0,0,0,2.041-.7,17.731,17.731,0,0,1,3.257,3.579,2.3,2.3,0,0,0-.891,1.15,3.166,3.166,0,0,0,.476,2.136,14.431,14.431,0,0,1,1.177,4.91c.215,2.859.41,5.72.635,8.579.02.486.149,1.174-.435,1.389-1.448.142-2.908.015-4.36.056-.254-3.088-.454-6.179-.686-9.267a17.8,17.8,0,0,0-.7-3.955,16.113,16.113,0,0,0-7.961-9.617C242.947,399.581,242.192,399.215,241.46,398.81Z" transform="translate(-204.937 -398.81)" fill="#75baf1"/>
        <path id="Path_157214" data-name="Path 157214" d="M107.941,419.091c.645-.217,1.277-.649,1.99-.471a20.7,20.7,0,0,0,5.286.1,7.682,7.682,0,0,1-6.247,3.213c-2.766.042-5.535-.041-8.3.024a1.994,1.994,0,0,0-1.831,1.7c-1.189,4.695-2.473,9.368-3.623,14.072q-1.677,0-3.354,0,2.34-9.031,4.695-18.059c2.6-.012,5.207,0,7.812,0A9.943,9.943,0,0,0,107.941,419.091Z" transform="translate(-91.86 -413.752)" fill="#75baf1"/>
      </g>
    </g>
  </g>
</svg>
