<svg xmlns="http://www.w3.org/2000/svg" width="295.242" height="280" viewBox="0 0 295.242 280">
  <g id="ch-7" transform="translate(-494.758 -17631.387)">
    <rect id="Rectangle_36441" data-name="Rectangle 36441" width="295" height="280" rx="30" transform="translate(494.758 17631.387)" fill="#fdfbd2"/>
    <path id="Rectangle_36441_-_Outline" data-name="Rectangle 36441 - Outline" d="M30,3A26.975,26.975,0,0,0,3,30V250a26.975,26.975,0,0,0,27,27H265a26.975,26.975,0,0,0,27-27V30A26.975,26.975,0,0,0,265,3H30m0-3H265a30,30,0,0,1,30,30V250a30,30,0,0,1-30,30H30A30,30,0,0,1,0,250V30A30,30,0,0,1,30,0Z" transform="translate(494.758 17631.387)" fill="#f9f024"/>
    <path id="Path_156383" data-name="Path 156383" d="M105,0H400V45a30,30,0,0,1-30,30H135a30,30,0,0,1-30-30Z" transform="translate(390 17836.387)" fill="#f9f024"/>
    <path id="Path_157294" data-name="Path 157294" d="M32.762,15.693V21H28.991V5.359h6.241a7.269,7.269,0,0,1,3.174.661A4.979,4.979,0,0,1,40.544,7.9a5.134,5.134,0,0,1,.757,2.766,4.526,4.526,0,0,1-1.638,3.658,6.8,6.8,0,0,1-4.5,1.37Zm0-2.911h2.471a2.33,2.33,0,0,0,1.67-.548,2.035,2.035,0,0,0,.575-1.547,2.516,2.516,0,0,0-.591-1.751,2.092,2.092,0,0,0-1.611-.666H32.762Zm17.413-.129-1.192-.086a2.142,2.142,0,0,0-2.191,1.074V21h-3.62V9.377h3.395l.118,1.493a2.8,2.8,0,0,1,2.546-1.708,3.53,3.53,0,0,1,1.01.129Zm.462,2.428a6.86,6.86,0,0,1,.677-3.1,4.84,4.84,0,0,1,1.944-2.089,5.856,5.856,0,0,1,2.976-.73,5.344,5.344,0,0,1,4.114,1.617,6.2,6.2,0,0,1,1.5,4.4v.129a6.019,6.019,0,0,1-1.509,4.313,5.359,5.359,0,0,1-4.087,1.6,5.42,5.42,0,0,1-3.985-1.488,5.819,5.819,0,0,1-1.622-4.034Zm3.62.226a4.325,4.325,0,0,0,.5,2.363,1.682,1.682,0,0,0,1.493.752q1.934,0,1.977-2.976v-.365q0-3.126-2-3.126-1.815,0-1.966,2.7Zm8.733-.2a7.1,7.1,0,0,1,1.192-4.351,3.925,3.925,0,0,1,3.33-1.59,3.338,3.338,0,0,1,2.621,1.225V4.5h3.631V21H70.51l-.183-1.246a3.428,3.428,0,0,1-2.836,1.461,3.918,3.918,0,0,1-3.287-1.59A7.325,7.325,0,0,1,62.99,15.1Zm3.62.226q0,3.094,1.8,3.094a1.782,1.782,0,0,0,1.719-1.01V12.986a1.734,1.734,0,0,0-1.7-1.031q-1.676,0-1.815,2.707Zm16.135,4.415a3.732,3.732,0,0,1-3.1,1.472,3.661,3.661,0,0,1-2.9-1.112,4.676,4.676,0,0,1-.983-3.2V9.377h3.62v7.552a1.3,1.3,0,0,0,1.45,1.493,1.892,1.892,0,0,0,1.772-.892V9.377h3.642V21H82.853Zm10.4-1.321a1.61,1.61,0,0,0,1.182-.414,1.517,1.517,0,0,0,.408-1.155h3.395a4.018,4.018,0,0,1-1.37,3.137,5.1,5.1,0,0,1-3.529,1.225,5.158,5.158,0,0,1-4-1.59,6.264,6.264,0,0,1-1.461-4.4v-.15a7.08,7.08,0,0,1,.65-3.11A4.732,4.732,0,0,1,90.3,9.887a5.589,5.589,0,0,1,2.9-.725,5.03,5.03,0,0,1,3.6,1.257,4.458,4.458,0,0,1,1.332,3.405H94.733a1.987,1.987,0,0,0-.44-1.386,1.52,1.52,0,0,0-1.182-.483q-1.407,0-1.644,1.794a12.658,12.658,0,0,0-.075,1.568,4.972,4.972,0,0,0,.419,2.428A1.45,1.45,0,0,0,93.144,18.422ZM103.875,6.487v2.89h1.912v2.514h-1.912v5.317a1.358,1.358,0,0,0,.236.913,1.268,1.268,0,0,0,.935.258,5.311,5.311,0,0,0,.9-.064V20.9a6.681,6.681,0,0,1-2.041.312,3.792,3.792,0,0,1-2.761-.881,3.61,3.61,0,0,1-.892-2.675V11.891H98.772V9.377h1.482V6.487Zm2.557,8.594a6.86,6.86,0,0,1,.677-3.1,4.84,4.84,0,0,1,1.944-2.089,5.856,5.856,0,0,1,2.976-.73,5.344,5.344,0,0,1,4.114,1.617,6.2,6.2,0,0,1,1.5,4.4v.129a6.019,6.019,0,0,1-1.509,4.313,5.359,5.359,0,0,1-4.087,1.6,5.42,5.42,0,0,1-3.985-1.488,5.819,5.819,0,0,1-1.622-4.034Zm3.62.226a4.325,4.325,0,0,0,.5,2.363,1.682,1.682,0,0,0,1.493.752q1.934,0,1.977-2.976v-.365q0-3.126-2-3.126-1.815,0-1.966,2.7Zm14.212-.2a7.1,7.1,0,0,1,1.192-4.351,3.925,3.925,0,0,1,3.33-1.59,3.338,3.338,0,0,1,2.621,1.225V4.5h3.631V21h-3.255l-.183-1.246a3.428,3.428,0,0,1-2.836,1.461,3.918,3.918,0,0,1-3.287-1.59A7.325,7.325,0,0,1,124.264,15.1Zm3.62.226q0,3.094,1.8,3.094a1.782,1.782,0,0,0,1.719-1.01V12.986a1.734,1.734,0,0,0-1.7-1.031q-1.676,0-1.815,2.707Zm14.835,5.887a5.975,5.975,0,0,1-4.329-1.6,5.509,5.509,0,0,1-1.654-4.152v-.3a7.138,7.138,0,0,1,.661-3.147,4.834,4.834,0,0,1,1.928-2.111,5.821,5.821,0,0,1,3.008-.747,5.031,5.031,0,0,1,3.867,1.52,5.973,5.973,0,0,1,1.418,4.238v1.407h-7.2a2.609,2.609,0,0,0,.849,1.536,2.525,2.525,0,0,0,1.7.559,3.254,3.254,0,0,0,2.686-1.2l1.654,1.955a4.624,4.624,0,0,1-1.917,1.488A6.48,6.48,0,0,1,142.719,21.215Zm-.408-9.26q-1.59,0-1.891,2.105h3.652v-.279a1.793,1.793,0,0,0-.44-1.348A1.753,1.753,0,0,0,142.311,11.955ZM161.1,21a4.088,4.088,0,0,1-.344-1.042,3.366,3.366,0,0,1-2.793,1.257,4.124,4.124,0,0,1-2.793-.994,3.163,3.163,0,0,1-1.149-2.5,3.251,3.251,0,0,1,1.4-2.857,7.114,7.114,0,0,1,4.061-.967h1.117v-.615q0-1.608-1.386-1.608a1.133,1.133,0,0,0-1.289,1.274H154.3a3.245,3.245,0,0,1,1.434-2.736,6.027,6.027,0,0,1,3.658-1.051,5.284,5.284,0,0,1,3.513,1.085,3.772,3.772,0,0,1,1.321,2.976v5.146a5.269,5.269,0,0,0,.494,2.449V21Zm-2.267-2.363a2.019,2.019,0,0,0,1.123-.29,1.818,1.818,0,0,0,.639-.655V15.833h-1.053q-1.891,0-1.891,1.7a1.036,1.036,0,0,0,.333.8A1.205,1.205,0,0,0,158.832,18.637ZM170.444,6.487v2.89h1.912v2.514h-1.912v5.317a1.358,1.358,0,0,0,.236.913,1.268,1.268,0,0,0,.935.258,5.311,5.311,0,0,0,.9-.064V20.9a6.681,6.681,0,0,1-2.041.312,3.792,3.792,0,0,1-2.761-.881,3.61,3.61,0,0,1-.892-2.675V11.891h-1.482V9.377h1.482V6.487ZM180.327,21a4.088,4.088,0,0,1-.344-1.042,3.366,3.366,0,0,1-2.793,1.257,4.124,4.124,0,0,1-2.793-.994,3.163,3.163,0,0,1-1.149-2.5,3.251,3.251,0,0,1,1.4-2.857,7.114,7.114,0,0,1,4.061-.967h1.117v-.615q0-1.608-1.386-1.608a1.133,1.133,0,0,0-1.289,1.274h-3.62a3.245,3.245,0,0,1,1.434-2.736,6.027,6.027,0,0,1,3.658-1.051,5.284,5.284,0,0,1,3.513,1.085,3.772,3.772,0,0,1,1.321,2.976v5.146a5.269,5.269,0,0,0,.494,2.449V21Zm-2.267-2.363a2.019,2.019,0,0,0,1.123-.29,1.818,1.818,0,0,0,.639-.655V15.833H178.77q-1.891,0-1.891,1.7a1.036,1.036,0,0,0,.333.8A1.205,1.205,0,0,0,178.061,18.637ZM185,15.07a6.977,6.977,0,0,1,1.2-4.34,3.952,3.952,0,0,1,3.319-1.568,3.375,3.375,0,0,1,2.857,1.461l.258-1.246h3.137V25.469h-3.631V20.033a3.37,3.37,0,0,1-2.643,1.182,3.917,3.917,0,0,1-3.282-1.6A7.366,7.366,0,0,1,185,15.07Zm3.62.226q0,3.126,1.8,3.126a1.748,1.748,0,0,0,1.719-.945v-4.6a1.71,1.71,0,0,0-1.7-.924q-1.687,0-1.815,2.7Zm16.124,4.447a3.732,3.732,0,0,1-3.1,1.472,3.661,3.661,0,0,1-2.9-1.112,4.676,4.676,0,0,1-.983-3.2V9.377h3.62v7.552a1.3,1.3,0,0,0,1.45,1.493,1.892,1.892,0,0,0,1.772-.892V9.377h3.642V21h-3.395Zm11.107,1.472a5.975,5.975,0,0,1-4.329-1.6,5.509,5.509,0,0,1-1.654-4.152v-.3a7.138,7.138,0,0,1,.661-3.147,4.834,4.834,0,0,1,1.928-2.111,5.821,5.821,0,0,1,3.008-.747,5.031,5.031,0,0,1,3.867,1.52,5.973,5.973,0,0,1,1.418,4.238v1.407h-7.2a2.609,2.609,0,0,0,.849,1.536,2.525,2.525,0,0,0,1.7.559,3.254,3.254,0,0,0,2.686-1.2l1.654,1.955a4.624,4.624,0,0,1-1.917,1.488A6.48,6.48,0,0,1,215.852,21.215Zm-.408-9.26q-1.59,0-1.891,2.105h3.652v-.279a1.793,1.793,0,0,0-.44-1.348A1.753,1.753,0,0,0,215.443,11.955Z" transform="translate(518 17861.387)" fill="#12263f"/>
    <g id="Group_108287" data-name="Group 108287" transform="translate(3789.044 20341.607)">
      <path id="Trazado_157215" data-name="Trazado 157215" d="M-3206.168-2670.607h118.54a3.858,3.858,0,0,1,3.255,3.245v4.45a3.631,3.631,0,0,1-4.3,3.165c-.973-.3-1.186-1.364-1.154-2.252a2.5,2.5,0,0,1,1.8-1.391v-3.557h-117.594v3.66q55.029,0,110.058,0a2.011,2.011,0,0,1,2.013,1.286c-.073.6.02,1.313-.451,1.778a2.011,2.011,0,0,1-1.579.59q-54.9.011-109.794,0a3.786,3.786,0,0,1-3.906-3.24v-4.487A3.917,3.917,0,0,1-3206.168-2670.607Z"/>
      <path id="Trazado_157216" data-name="Trazado 157216" d="M-3203.274-2609.315a1.879,1.879,0,0,1,2.027-1.322c5.953.007,11.906-.02,17.856.014a1.82,1.82,0,0,1,1.854,1.785c0,.045,0,.09,0,.135.029,7.136-.012,14.272.019,21.408q1.823-.007,3.647,0,0-9.72,0-19.437a13.137,13.137,0,0,1,.117-2.681,1.834,1.834,0,0,1,1.891-1.215c5.77-.022,11.54.01,17.31-.015a2.559,2.559,0,0,1,1.959.529,2.456,2.456,0,0,1,.564,1.915c-.017,6.968-.005,13.933-.007,20.9,1.222,0,2.447.01,3.669-.02-.032-6.96,0-13.923-.02-20.886a2.466,2.466,0,0,1,.524-1.874,2.36,2.36,0,0,1,1.862-.566q8.541.018,17.088,0a2.331,2.331,0,0,1,1.857.578,2.505,2.505,0,0,1,.512,1.871c-.022,6.96.007,13.921-.015,20.884,1.222.02,2.445.017,3.667.015.017-3.874-.029-7.749.02-11.62a4.739,4.739,0,0,1,2.718-4.055c.047-2-.053-4,.039-5.992a1.79,1.79,0,0,1,1.918-1.664q3.55-.029,7.1,0a1.8,1.8,0,0,1,1.9,1.691v0c.083,1.989-.022,3.979.044,5.968a4.752,4.752,0,0,1,2.72,4.289c.02,3.793,0,7.585.007,11.379q1.826,0,3.65,0c.032-3.879-.022-7.76.024-11.637a4.7,4.7,0,0,1,2.7-4.018c.066-1.837.007-3.677.024-5.516a2.109,2.109,0,0,1,.61-1.7,3.157,3.157,0,0,1,2.215-.48c2.12.042,4.243-.034,6.363.029a1.766,1.766,0,0,1,1.766,1.7c.083,1.979,0,3.96.032,5.941a5.5,5.5,0,0,1,2.071,1.869,5.564,5.564,0,0,1,.676,3.152c-.007,3.557-.02,7.114.007,10.671,1.4.027,2.957-.244,4.2.566a3.856,3.856,0,0,1,1.71,2.735v4.448a3.778,3.778,0,0,1-3.657,3.216q-54.168.025-108.34.01a9.779,9.779,0,0,1-2.659-.159,2.171,2.171,0,0,1-1.176-1.669,2.139,2.139,0,0,1,1.21-1.693,12.188,12.188,0,0,1,2.893-.144q54.034.007,108.064,0c.007-1.222,0-2.442,0-3.662q-58.8,0-117.591,0c0,1.188,0,2.379,0,3.567a2.277,2.277,0,0,1,1.893,1.927,2.065,2.065,0,0,1-1.515,1.779,3.709,3.709,0,0,1-4.04-3.177v-4.57a3.946,3.946,0,0,1,1.71-2.608c1.247-.82,2.808-.539,4.213-.576q.011-9.709,0-19.423a15.909,15.909,0,0,1,.085-2.6m3.574,2.34q.008,7.085,0,14.172v5.506h14.506q0-9.84,0-19.678c-1.837,0-3.672,0-5.509,0-3,0-6,0-9,0m25.49,0q0,7.092,0,14.187c0,1.828.007,3.655-.005,5.482,4.838.027,9.674,0,14.509.014.015-6.56,0-13.123,0-19.684h-14.507m25.485,0q0,7.089,0,14.175c0,1.835,0,3.669,0,5.506h14.506q0-9.84,0-19.678c-1.837,0-3.672,0-5.509,0h-9m28.232,0c-.01,1.8.017,3.6-.005,5.392a1.772,1.772,0,0,1-1.312,1.82c-.459.156-1.088.11-1.332.617a4.113,4.113,0,0,0-.1,1.2c.015,3.547.008,7.1,0,10.644,3.052.01,6.107.022,9.161-.005-.03-3.791.014-7.585-.02-11.374.063-.6-.5-.961-1.037-.988a1.8,1.8,0,0,1-1.676-1.686c-.059-1.871,0-3.745-.022-5.619h-3.659m20.123.01c0,1.864.039,3.73-.015,5.594a1.75,1.75,0,0,1-1.513,1.661c-.559.044-1.264.322-1.2,1-.029,3.8,0,7.61-.01,11.416h9.147c-.01-3.8.019-7.6-.012-11.406.063-.659-.6-.961-1.154-1a1.766,1.766,0,0,1-1.562-1.678c-.046-1.864,0-3.73-.017-5.6-1.222,0-2.444-.007-3.664.01Z" transform="translate(0 -45.332)"/>
      <path id="Trazado_157219" data-name="Trazado 157219" d="M-3194.286-2655.607h117.594v3.557a2.5,2.5,0,0,0-1.8,1.391,6.059,6.059,0,0,0-.139.715,7.59,7.59,0,0,0-3.45,0c-.042-.242-.076-.483-.139-.717a2.01,2.01,0,0,0-2.013-1.286q-55.029-.011-110.057,0Z" transform="translate(-11.34 -11.34)" fill="#e8e8e8"/>
      <path id="Trazado_157220" data-name="Trazado 157220" d="M-3194.285-2499.943q58.794,0,117.591,0c0,1.22,0,2.439,0,3.662q-54.034-.015-108.064,0a12.2,12.2,0,0,0-2.893.144,2.14,2.14,0,0,0-1.21,1.693q-1.764.007-3.525,0a2.278,2.278,0,0,0-1.893-1.927C-3194.29-2497.564-3194.287-2498.755-3194.285-2499.943Z" transform="translate(-11.339 -129.026)" fill="#e8e8e8"/>
      <g id="_ffcf5dff" data-name=" ffcf5dff" transform="translate(-3199.7 -2652.311)">
        <path id="Trazado_157223" data-name="Trazado 157223" d="M-3170-2595.6c3,0,6,0,9,0-.012,4.718.066,9.437-.032,14.155-2.989.078-5.979.027-8.968.02Q-3169.994-2588.517-3170-2595.6Z" transform="translate(3169.996 2595.609)" fill="#9ed4ff"/>
        <path id="Trazado_157224" data-name="Trazado 157224" d="M-3065.523-2595.607h9.039c-.024,4.714,0,9.427-.015,14.141-3.006.115-6.016.022-9.027.046Q-3065.526-2588.512-3065.523-2595.607Z" transform="translate(3091.013 2595.609)" fill="#9ed4ff"/>
        <path id="Trazado_157225" data-name="Trazado 157225" d="M-2961.056-2595.613q4.5,0,9,0c-.005,4.721.046,9.439-.025,14.16-2.991.066-5.985.027-8.978.015Z" transform="translate(3012.031 2595.615)" fill="#9ed4ff"/>
      </g>
      <g id="_ffb545ff" data-name=" ffb545ff" transform="translate(-3199.698 -2652.31)">
        <path id="Trazado_157226" data-name="Trazado 157226" d="M-3160.986-2595.609c1.837,0,3.671,0,5.509,0q-.007,9.837,0,19.679h-14.507v-5.506c2.989.007,5.98.059,8.969-.02C-3160.92-2586.172-3161-2590.891-3160.986-2595.609Z" transform="translate(3169.986 2595.609)" fill="#75baf1"/>
        <path id="Trazado_157227" data-name="Trazado 157227" d="M-3056.5-2595.607h5.467c0,6.56.01,13.123,0,19.684-4.835-.015-9.671.012-14.509-.015.012-1.827,0-3.655,0-5.482,3.011-.024,6.021.068,9.027-.046C-3056.5-2586.18-3056.524-2590.893-3056.5-2595.607Z" transform="translate(3091.026 2595.607)" fill="#75baf1"/>
        <path id="Trazado_157228" data-name="Trazado 157228" d="M-2952.053-2595.607c1.837,0,3.672,0,5.509,0q-.007,9.841,0,19.679h-14.506c0-1.837,0-3.672,0-5.506,2.993.012,5.987.051,8.978-.015C-2952.007-2586.168-2952.058-2590.886-2952.053-2595.607Z" transform="translate(3012.029 2595.607)" fill="#75baf1"/>
      </g>
      <path id="Trazado_157229" data-name="Trazado 157229" d="M-2853.888-2595.607h3.66c.02,1.874-.037,3.747.022,5.619a1.8,1.8,0,0,0,1.676,1.686c.532.027,1.1.385,1.037.988.034,3.789-.01,7.583.02,11.374-3.055.027-6.109.015-9.161.005,0-3.547.01-7.1,0-10.645a4.1,4.1,0,0,1,.1-1.2c.244-.508.873-.461,1.332-.617a1.773,1.773,0,0,0,1.313-1.82C-2853.871-2592.011-2853.9-2593.809-2853.888-2595.607Z" transform="translate(-266.605 -56.702)" fill="#f9f024"/>
      <path id="Trazado_157230" data-name="Trazado 157230" d="M-2771.352-2595.6c1.22-.017,2.442-.01,3.664-.01.017,1.866-.029,3.733.017,5.6a1.766,1.766,0,0,0,1.562,1.678c.549.039,1.217.342,1.154,1,.032,3.8,0,7.6.012,11.406q-4.574,0-9.146,0c.007-3.806-.02-7.612.01-11.416-.063-.678.641-.957,1.2-1a1.75,1.75,0,0,0,1.513-1.661C-2771.313-2591.872-2771.357-2593.738-2771.352-2595.6Z" transform="translate(-329.018 -56.697)" fill="#f9f024"/>
      <g id="Group_108286" data-name="Group 108286" transform="translate(-3209.286 -2617.999)">
        <path id="Trazado_157216-2" data-name="Trazado 157216" d="M-3203.274-2453.643a1.879,1.879,0,0,1,2.027-1.322c5.953.007,11.906-.02,17.856.015a1.82,1.82,0,0,1,1.854,1.785c0,.045,0,.09,0,.135.029,7.136-.012,14.272.019,21.408q1.823-.007,3.647,0,0-9.72,0-19.437a13.138,13.138,0,0,1,.117-2.681,1.834,1.834,0,0,1,1.891-1.215c5.77-.022,11.54.01,17.31-.015a2.559,2.559,0,0,1,1.959.529,2.456,2.456,0,0,1,.564,1.915c-.017,6.968-.005,13.933-.007,20.9,1.222,0,2.447.01,3.669-.02-.032-6.96,0-13.924-.02-20.886a2.466,2.466,0,0,1,.524-1.874,2.361,2.361,0,0,1,1.862-.566q8.541.018,17.088,0a2.331,2.331,0,0,1,1.857.578,2.505,2.505,0,0,1,.512,1.871c-.022,6.96.007,13.921-.015,20.884,1.222.019,2.445.017,3.667.015.017-3.874-.029-7.748.02-11.62a4.739,4.739,0,0,1,2.718-4.055c.047-2-.053-4,.039-5.992a1.79,1.79,0,0,1,1.918-1.664q3.55-.029,7.1,0a1.8,1.8,0,0,1,1.9,1.691v0c.083,1.989-.022,3.979.044,5.968a4.752,4.752,0,0,1,2.72,4.289c.02,3.794,0,7.585.007,11.379q1.826,0,3.65,0c.032-3.879-.022-7.76.024-11.637a4.7,4.7,0,0,1,2.7-4.018c.066-1.837.007-3.677.024-5.516a2.11,2.11,0,0,1,.61-1.7,3.158,3.158,0,0,1,2.215-.48c2.12.042,4.243-.034,6.363.029a1.766,1.766,0,0,1,1.766,1.7c.083,1.979,0,3.96.032,5.941a5.5,5.5,0,0,1,2.071,1.869,5.564,5.564,0,0,1,.676,3.152c-.007,3.557-.02,7.114.007,10.671,1.4.027,2.957-.244,4.2.566a3.856,3.856,0,0,1,1.71,2.735v4.448a3.778,3.778,0,0,1-3.657,3.216q-54.168.025-108.34.01a9.779,9.779,0,0,1-2.659-.159,2.171,2.171,0,0,1-1.176-1.669,2.139,2.139,0,0,1,1.21-1.693,12.188,12.188,0,0,1,2.893-.144q54.034.007,108.064,0c.007-1.222,0-2.442,0-3.662q-58.8,0-117.591,0c0,1.188,0,2.379,0,3.567a2.277,2.277,0,0,1,1.893,1.927,2.065,2.065,0,0,1-1.515,1.779,3.709,3.709,0,0,1-4.04-3.177v-4.57a3.946,3.946,0,0,1,1.71-2.608c1.247-.82,2.808-.539,4.213-.576q.011-9.709,0-19.423a15.909,15.909,0,0,1,.085-2.6m3.574,2.34q.008,7.085,0,14.172v5.506h14.506q0-9.84,0-19.678c-1.837,0-3.672,0-5.509,0-3,0-6,0-9,0m25.49,0q0,7.092,0,14.187c0,1.827.007,3.655-.005,5.482,4.838.027,9.674,0,14.509.015.015-6.56,0-13.123,0-19.684h-14.507m25.485,0q0,7.089,0,14.175c0,1.835,0,3.669,0,5.506h14.506q0-9.84,0-19.678c-1.837,0-3.672,0-5.509,0h-9m28.232,0c-.01,1.8.017,3.6-.005,5.392a1.772,1.772,0,0,1-1.312,1.82c-.459.156-1.088.11-1.332.617a4.111,4.111,0,0,0-.1,1.2c.015,3.547.008,7.1,0,10.644,3.052.01,6.107.022,9.161,0-.03-3.791.014-7.585-.02-11.374.063-.6-.5-.961-1.037-.988a1.8,1.8,0,0,1-1.676-1.686c-.059-1.871,0-3.745-.022-5.619h-3.659m20.123.01c0,1.864.039,3.73-.015,5.594a1.75,1.75,0,0,1-1.513,1.661c-.559.044-1.264.322-1.2,1-.029,3.8,0,7.609-.01,11.415h9.147c-.01-3.8.019-7.6-.012-11.406.063-.659-.6-.961-1.154-1a1.765,1.765,0,0,1-1.562-1.678c-.046-1.864,0-3.73-.017-5.6-1.222,0-2.444-.007-3.664.01Z" transform="translate(3209.286 2454.975)"/>
        <path id="Trazado_157220-2" data-name="Trazado 157220" d="M-3194.285-2344.271q58.794,0,117.591,0c0,1.22,0,2.44,0,3.662q-54.034-.015-108.064,0a12.19,12.19,0,0,0-2.893.144,2.14,2.14,0,0,0-1.21,1.693q-1.764.007-3.525,0a2.278,2.278,0,0,0-1.893-1.927C-3194.29-2341.892-3194.287-2343.083-3194.285-2344.271Z" transform="translate(3197.947 2371.281)" fill="#e8e8e8"/>
        <g id="_ffcf5dff-2" data-name=" ffcf5dff" transform="translate(9.586 3.667)">
          <path id="Trazado_157223-2" data-name="Trazado 157223" d="M-3170-2439.933c3,0,6,0,9,0-.012,4.718.066,9.437-.032,14.155-2.989.078-5.979.027-8.968.02Q-3169.994-2432.845-3170-2439.933Z" transform="translate(3169.996 2439.937)" fill="#9ed4ff"/>
          <path id="Trazado_157224-2" data-name="Trazado 157224" d="M-3065.523-2439.935h9.039c-.024,4.714,0,9.427-.015,14.141-3.006.115-6.016.022-9.027.046Q-3065.526-2432.84-3065.523-2439.935Z" transform="translate(3091.013 2439.937)" fill="#9ed4ff"/>
          <path id="Trazado_157225-2" data-name="Trazado 157225" d="M-2961.056-2439.941q4.5,0,9,0c-.005,4.721.046,9.439-.025,14.16-2.991.066-5.985.027-8.978.015Z" transform="translate(3012.031 2439.942)" fill="#9ed4ff"/>
        </g>
        <g id="_ffb545ff-2" data-name=" ffb545ff" transform="translate(9.588 3.669)">
          <path id="Trazado_157226-2" data-name="Trazado 157226" d="M-3160.986-2439.937c1.837,0,3.671,0,5.509,0q-.007,9.837,0,19.679h-14.507v-5.506c2.989.007,5.98.059,8.969-.02C-3160.92-2430.5-3161-2435.219-3160.986-2439.937Z" transform="translate(3169.986 2439.938)" fill="#75baf1"/>
          <path id="Trazado_157227-2" data-name="Trazado 157227" d="M-3056.5-2439.935h5.467c0,6.561.01,13.123,0,19.684-4.835-.015-9.671.012-14.509-.015.012-1.827,0-3.655,0-5.482,3.011-.024,6.021.068,9.027-.046C-3056.5-2430.508-3056.524-2435.221-3056.5-2439.935Z" transform="translate(3091.026 2439.936)" fill="#75baf1"/>
          <path id="Trazado_157228-2" data-name="Trazado 157228" d="M-2952.053-2439.935c1.837,0,3.672,0,5.509,0q-.007,9.841,0,19.679h-14.506c0-1.837,0-3.672,0-5.506,2.993.012,5.987.051,8.978-.015C-2952.007-2430.5-2952.058-2435.214-2952.053-2439.935Z" transform="translate(3012.029 2439.936)" fill="#75baf1"/>
        </g>
        <path id="Trazado_157229-2" data-name="Trazado 157229" d="M-2853.888-2439.935h3.66c.02,1.874-.037,3.748.022,5.619a1.8,1.8,0,0,0,1.676,1.686c.532.027,1.1.385,1.037.988.034,3.789-.01,7.583.02,11.374-3.055.027-6.109.015-9.161,0,0-3.547.01-7.1,0-10.645a4.1,4.1,0,0,1,.1-1.2c.244-.508.873-.461,1.332-.617a1.773,1.773,0,0,0,1.313-1.82C-2853.871-2436.339-2853.9-2438.137-2853.888-2439.935Z" transform="translate(2942.681 2443.604)" fill="#f9f024"/>
        <path id="Trazado_157230-2" data-name="Trazado 157230" d="M-2771.352-2439.93c1.22-.017,2.442-.01,3.664-.01.017,1.866-.029,3.733.017,5.6a1.765,1.765,0,0,0,1.562,1.678c.549.039,1.217.342,1.154,1,.032,3.8,0,7.6.012,11.406q-4.574,0-9.146,0c.007-3.806-.02-7.612.01-11.415-.063-.678.641-.957,1.2-1a1.751,1.751,0,0,0,1.513-1.661C-2771.313-2436.2-2771.357-2438.066-2771.352-2439.93Z" transform="translate(2880.268 2443.609)" fill="#f9f024"/>
      </g>
      <path id="Trazado_157220-3" data-name="Trazado 157220" d="M-3194.285-2188.67q58.794,0,117.591,0c0,1.22,0,2.44,0,3.662q-54.034-.015-108.064,0a12.19,12.19,0,0,0-2.893.144,2.139,2.139,0,0,0-1.21,1.693q-1.764.008-3.525,0a2.278,2.278,0,0,0-1.893-1.927C-3194.29-2186.291-3194.287-2187.482-3194.285-2188.67Z" transform="translate(-11.339 -364.357)" fill="#e8e8e8"/>
      <g id="_ffcf5dff-3" data-name=" ffcf5dff" transform="translate(-3199.7 -2576.37)">
        <path id="Trazado_157223-3" data-name="Trazado 157223" d="M-3170-2284.332c3,0,6,0,9,0-.012,4.719.066,9.437-.032,14.155-2.989.078-5.979.027-8.968.02Q-3169.994-2277.244-3170-2284.332Z" transform="translate(3169.996 2284.336)" fill="#9ed4ff"/>
        <path id="Trazado_157224-3" data-name="Trazado 157224" d="M-3065.523-2284.334h9.039c-.024,4.714,0,9.427-.015,14.141-3.006.115-6.016.022-9.027.046Q-3065.526-2277.239-3065.523-2284.334Z" transform="translate(3091.013 2284.336)" fill="#9ed4ff"/>
        <path id="Trazado_157225-3" data-name="Trazado 157225" d="M-2961.056-2284.34q4.5,0,9,0c-.005,4.721.046,9.439-.025,14.16-2.991.066-5.985.027-8.978.015Z" transform="translate(3012.031 2284.342)" fill="#9ed4ff"/>
      </g>
      <g id="_ffb545ff-3" data-name=" ffb545ff" transform="translate(-3199.698 -2576.368)">
        <path id="Trazado_157226-3" data-name="Trazado 157226" d="M-3160.986-2284.336q2.755,0,5.509,0-.007,9.837,0,19.679h-14.507v-5.506c2.989.007,5.98.059,8.969-.02C-3160.92-2274.9-3161-2279.617-3160.986-2284.336Z" transform="translate(3169.986 2284.336)" fill="#75baf1"/>
        <path id="Trazado_157227-3" data-name="Trazado 157227" d="M-3056.5-2284.334h5.467c0,6.56.01,13.123,0,19.684-4.835-.015-9.671.012-14.509-.015.012-1.827,0-3.655,0-5.482,3.011-.024,6.021.068,9.027-.046C-3056.5-2274.907-3056.524-2279.62-3056.5-2284.334Z" transform="translate(3091.026 2284.334)" fill="#75baf1"/>
        <path id="Trazado_157228-3" data-name="Trazado 157228" d="M-2952.053-2284.334c1.837,0,3.672,0,5.509,0q-.007,9.84,0,19.679h-14.506c0-1.837,0-3.672,0-5.506,2.993.012,5.987.051,8.978-.015C-2952.007-2274.895-2952.058-2279.613-2952.053-2284.334Z" transform="translate(3012.029 2284.334)" fill="#75baf1"/>
      </g>
      <g id="_fff9ebff" data-name=" fff9ebff" transform="translate(-3119.716 -2571.398)">
        <path id="Trazado_157238" data-name="Trazado 157238" d="M-2728.088-2254.616c-2.181-.037-2.9,0-5.087-.02-.056-3.106-.024-6.211-.015-9.315,1.576.01,1.688-.02,3.264.007a1.814,1.814,0,0,1,1.83,1.788C-2728.068-2259.642-2728.095-2257.129-2728.088-2254.616Z" transform="translate(2759.786 2263.957)" fill="#f099ff"/>
        <path id="Trazado_157239" data-name="Trazado 157239" d="M-2782.561-2254.624c-2.191-.032-2.916,0-5.106-.015-.024-3.106.01-6.211-.017-9.317,1.618.012,1.771-.029,3.384.015a1.8,1.8,0,0,1,1.725,1.779C-2782.541-2259.65-2782.573-2257.137-2782.561-2254.624Z" transform="translate(2800.972 2263.962)" fill="#f099ff"/>
        <path id="Trazado_157240" data-name="Trazado 157240" d="M-2837.028-2254.624c-2.181-.02-2.9,0-5.08,0-.081-3.108-.022-6.216-.029-9.322,1.579.01,1.693-.02,3.272.007a1.817,1.817,0,0,1,1.83,1.8C-2837.013-2259.637-2837.035-2257.131-2837.028-2254.624Z" transform="translate(2842.15 2263.957)" fill="#f099ff"/>
      </g>
      <g id="_d3cdbfff" data-name=" d3cdbfff" transform="translate(-3124.23 -2571.399)">
        <path id="Trazado_157241" data-name="Trazado 157241" d="M-2747.163-2254.646c2.186.015,2.906-.017,5.087.02q0,2.731,0,5.465h-9.627c0-4.257-.005-8.515,0-12.774a1.84,1.84,0,0,1,1.71-2.008c1.261-.053,1.549,0,2.813-.017C-2747.187-2260.857-2747.219-2257.751-2747.163-2254.646Z" transform="translate(2778.288 2263.968)" fill="#be79ca"/>
        <path id="Trazado_157242" data-name="Trazado 157242" d="M-2801.642-2254.639c2.191.012,2.916-.017,5.106.015v5.467h-9.63c.007-4.331-.019-8.661.012-12.989a1.81,1.81,0,0,1,1.8-1.8c1.225-.037,1.474,0,2.7-.01C-2801.632-2260.851-2801.667-2257.745-2801.642-2254.639Z" transform="translate(2819.461 2263.965)" fill="#be79ca"/>
        <path id="Trazado_157243" data-name="Trazado 157243" d="M-2856.1-2254.639c2.181,0,2.9-.015,5.079,0,0,1.825,0,3.65,0,5.475-4.021,0-5.6,0-9.627,0q0-6.386,0-12.772a1.845,1.845,0,0,1,1.7-2.008c1.266-.059,1.559,0,2.825-.02C-2856.118-2260.855-2856.177-2257.748-2856.1-2254.639Z" transform="translate(2860.654 2263.969)" fill="#be79ca"/>
      </g>
      <path id="Path_157215" data-name="Path 157215" d="M-2876-2256.837c17,0,26.674.07,43.67.07,0,0-.055-12.068-.047-16.238a5.992,5.992,0,0,0-.69-3.111,5.5,5.5,0,0,0-4.8-2.833c-2.845-.007-3.25-.02-6.092,0a5.948,5.948,0,0,0-3.533,1.334,5.969,5.969,0,0,0-3.555-1.334c-2.842-.022-3.245-.015-6.087,0a6.028,6.028,0,0,0-3.65,1.334,6.04,6.04,0,0,0-3.681-1.337c-2.845,0-3.25-.019-6.094.008a5.49,5.49,0,0,0-5.326,5.177c-.049,4.423,0,8.849-.02,13.274l-.092,0Zm30.332-16.431a1.84,1.84,0,0,1,1.71-2.008c1.261-.054,1.549,0,2.813-.017,1.576.01,1.688-.02,3.264.007a1.814,1.814,0,0,1,1.83,1.788c.027,2.513,0,5.026.007,7.539q0,2.734,0,5.465c-4.021,0-5.6,0-9.627,0C-2845.668-2264.751-2845.676-2269.009-2845.668-2273.269Zm-13.279-.215a1.81,1.81,0,0,1,1.8-1.8c1.225-.037,1.474,0,2.7-.01,1.618.012,1.771-.029,3.384.015a1.8,1.8,0,0,1,1.725,1.779c.034,2.513,0,5.026.015,7.539v5.467h-9.63C-2858.953-2264.825-2858.979-2269.155-2858.948-2273.483Zm-11.606-1.791c1.266-.058,1.559,0,2.825-.02,1.579.01,1.693-.02,3.271.007a1.818,1.818,0,0,1,1.83,1.8c.022,2.508,0,5.014.007,7.521,0,1.825,0,3.65,0,5.475-4.021,0-5.6,0-9.627,0q0-6.386,0-12.772A1.845,1.845,0,0,1-2870.553-2275.274Z" transform="translate(-251.974 -296.098)"/>
      <path id="Path_157216" data-name="Path 157216" d="M-3086.083-2275.443c-1.247-.81-2.8-.539-4.2-.566,0-.03-39.055,0-40.277-.022.022-6.963-.007-13.923.015-20.884a2.506,2.506,0,0,0-.512-1.871,2.331,2.331,0,0,0-1.857-.578q-8.546.019-17.088,0a2.361,2.361,0,0,0-1.862.566,2.467,2.467,0,0,0-.524,1.874c.024,6.963-.012,13.926.02,20.886-1.222.029-2.447.024-3.669.019,0-6.968-.01-13.933.007-20.9a2.456,2.456,0,0,0-.564-1.915,2.559,2.559,0,0,0-1.959-.529c-5.77.024-11.54-.007-17.31.015a1.835,1.835,0,0,0-1.891,1.215,13.142,13.142,0,0,0-.117,2.682q0,9.717,0,19.437-1.825,0-3.647,0c-.032-7.136.01-14.272-.019-21.409,0-.045,0-.09,0-.135a1.82,1.82,0,0,0-1.854-1.785c-5.95-.034-11.9-.007-17.856-.015a1.879,1.879,0,0,0-2.027,1.322,15.909,15.909,0,0,0-.085,2.6q.009,9.714,0,19.423c-1.405.036-2.967-.244-4.213.576a3.945,3.945,0,0,0-1.71,2.608v4.57a3.709,3.709,0,0,0,4.04,3.177,2.064,2.064,0,0,0,1.515-1.779,2.278,2.278,0,0,0-1.893-1.927c0-1.188,0-2.379,0-3.567q58.793,0,117.591,0c0,1.22,0,2.44,0,3.662q-54.031,0-108.064,0a12.175,12.175,0,0,0-2.893.144,2.138,2.138,0,0,0-1.21,1.693,2.171,2.171,0,0,0,1.176,1.669,9.779,9.779,0,0,0,2.659.159q54.171.016,108.34-.01a3.778,3.778,0,0,0,3.657-3.216v-4.448A3.856,3.856,0,0,0-3086.083-2275.443Zm-99.108-.573H-3199.7v-5.506q0-7.087,0-14.172c3,0,6,0,9,0,1.837,0,3.672,0,5.509,0Q-3185.187-2285.857-3185.191-2276.016Zm25.483,0c-4.835-.015-9.671.012-14.509-.015.012-1.827,0-3.655.005-5.482q0-7.094,0-14.187h14.507C-3159.706-2289.137-3159.694-2282.574-3159.709-2276.014Zm25.492,0h-14.506c0-1.837,0-3.672,0-5.506q0-7.086,0-14.175h9c1.837,0,3.672,0,5.509,0Q-3134.212-2285.857-3134.216-2276.016Z" transform="translate(0 -280.67)"/>
    </g>
  </g>
</svg>
