<svg xmlns="http://www.w3.org/2000/svg" width="145" height="145" viewBox="0 0 145 145">
  <g id="ic-card3" transform="translate(-1147.758 -15780)">
    <circle id="Ellipse_4748" data-name="Ellipse 4748" cx="72.5" cy="72.5" r="72.5" transform="translate(1147.758 15780)" fill="#fff"/>
    <path id="Ellipse_4748_-_Outline" data-name="Ellipse 4748 - Outline" d="M72.5,3A69.161,69.161,0,0,0,33.644,14.868,69.712,69.712,0,0,0,8.46,45.448a69.4,69.4,0,0,0,6.407,65.908A69.712,69.712,0,0,0,45.448,136.54a69.4,69.4,0,0,0,65.908-6.407A69.712,69.712,0,0,0,136.54,99.552a69.4,69.4,0,0,0-6.407-65.908A69.712,69.712,0,0,0,99.552,8.46,69.062,69.062,0,0,0,72.5,3m0-3A72.5,72.5,0,1,1,0,72.5,72.5,72.5,0,0,1,72.5,0Z" transform="translate(1147.758 15780)" fill="#f9f024"/>
    <g id="ojo" transform="translate(1175.758 15706.143)">
      <g id="_000000ff" data-name="#000000ff" transform="translate(0 122.857)">
        <path id="Path_156544" data-name="Path 156544" d="M37.614,123.415a49.038,49.038,0,0,1,14.21-.079,57.76,57.76,0,0,1,15.9,4.762A74.883,74.883,0,0,1,82.4,137.166a1.366,1.366,0,0,1,.229,1.865,1.508,1.508,0,0,1-1.129.487,4.288,4.288,0,0,1-1.751-1.058,66.111,66.111,0,0,0-20.519-10.795,24.528,24.528,0,0,1,4.249,4.279,23.362,23.362,0,0,1,1.413,26.627,24.7,24.7,0,0,1-5.692,6.312A67.991,67.991,0,0,0,86.572,148.1a2.551,2.551,0,0,0,.657-2.644c-.292-.889-1.109-1.429-1.721-2.087a1.44,1.44,0,0,1-.5-1.55c.081-.153.169-.3.257-.454a1.465,1.465,0,0,1,1.035-.424c.835.065,1.287.863,1.872,1.354A5.537,5.537,0,0,1,90,146.012v.49a5.536,5.536,0,0,1-1.925,3.807A72.1,72.1,0,0,1,70.443,163.1c-8.654,4.5-18.455,7.1-28.248,6.472-9.519-.547-18.7-3.927-26.829-8.807a1.345,1.345,0,1,1,1.266-2.315,64.927,64.927,0,0,0,14.131,6.4,23.625,23.625,0,0,1-8.7-13.994,23.24,23.24,0,0,1,4.458-18.907,24.317,24.317,0,0,1,4.275-4.3,65.327,65.327,0,0,0-20.519,10.791A64.252,64.252,0,0,0,3.266,144.6a2.523,2.523,0,0,0-.359,2.795,3.811,3.811,0,0,0,.877,1.065,68.435,68.435,0,0,0,6.982,6.008c.41.339.951.624,1.1,1.174a1.29,1.29,0,0,1-1.96,1.47,71.7,71.7,0,0,1-8.439-7.242A5.466,5.466,0,0,1,0,146.513v-.483a5.389,5.389,0,0,1,1.4-3.285,72.181,72.181,0,0,1,21.11-14.76,57.138,57.138,0,0,1,15.108-4.569m-5.825,6.827c-.376.3-.721.647-1.074.977a20.736,20.736,0,0,0-2.039,27.87,20.723,20.723,0,0,0,26.6,5.2,20.5,20.5,0,0,0,6.664-6.022,20.763,20.763,0,0,0-30.148-28.027Z" transform="translate(0 -122.857)"/>
        <path id="Path_156545" data-name="Path 156545" d="M195.071,187.316a12.284,12.284,0,0,1,10.216.993,6.526,6.526,0,0,1,3.667-1.695,6.413,6.413,0,0,1,2.319,12.586,14.753,14.753,0,0,1-.795,3.778,12.131,12.131,0,0,1-22.242,1.194,12.141,12.141,0,0,1,6.834-16.856m2.415,2.087a9.6,9.6,0,0,0-7.754,7.759,9.376,9.376,0,0,0,1.684,7.165,9.634,9.634,0,0,0,4.521,3.4,9.448,9.448,0,0,0,8.724-1.292,9.577,9.577,0,0,0,3.923-7.126,6.646,6.646,0,0,1-3.524-1.927,6.505,6.505,0,0,1-1.285-6.889,9.559,9.559,0,0,0-6.289-1.09m11.3-.095a3.779,3.779,0,1,0,4.24,5.476,3.713,3.713,0,0,0-.007-3.635A3.781,3.781,0,0,0,208.789,189.307Z" transform="translate(-154.098 -175.362)"/>
      </g>
      <g id="_69a2d1ff" data-name="#69a2d1ff" transform="translate(24.233 125.492)">
        <path id="Path_156546" data-name="Path 156546" d="M180.84,142.6a20.775,20.775,0,0,1,26.425,0c-1.6-.176-3.145-.7-4.755-.814a1.458,1.458,0,0,1,.946,1.478,10.646,10.646,0,0,1-1.1,2.232,1.285,1.285,0,0,1-2.319-1.093,6.038,6.038,0,0,1,1.8-2.707,23.964,23.964,0,0,0-3.067-.4,53.4,53.4,0,0,0-14.21.613C183.313,142.086,182.1,142.475,180.84,142.6Z" transform="translate(-173.284 -137.846)" fill="#619ac7"/>
        <path id="Path_156547" data-name="Path 156547" d="M196.469,164.189c.754-.207,1.352.415,1.675,1.016.415.742,1.183,1.494.888,2.417a1.3,1.3,0,0,1-2.136.425,15.175,15.175,0,0,1-1.3-2.048A1.3,1.3,0,0,1,196.469,164.189Z" transform="translate(-185.324 -159.525)" fill="#619ac7"/>
        <path id="Path_156548" data-name="Path 156548" d="M137.882,186.352a20.583,20.583,0,0,1,6.456-15.922,3.221,3.221,0,0,1-.285.988,27.608,27.608,0,0,0-2.456,9.833,23.975,23.975,0,0,0,.527,7.015c.531-.014,1.039-.211,1.571-.209a1.285,1.285,0,0,1,.991,1.927c-.373.647-1.194.631-1.8.919a6.733,6.733,0,0,0,.71,2.02,18.21,18.21,0,0,0,5,6.615,19.184,19.184,0,0,0,5.679,3.127,5.737,5.737,0,0,0,1.343.366c.29-.884.063-1.87.441-2.728a1.3,1.3,0,0,1,2.315.156,9.939,9.939,0,0,1-.139,2.953c.033.058.1.176.128.234a32.758,32.758,0,0,0,9.816-.146,6.807,6.807,0,0,1,.708,0,20.751,20.751,0,0,1-31.015-17.149Z" transform="translate(-137.857 -164.702)" fill="#619ac7"/>
        <path id="Path_156549" data-name="Path 156549" d="M334.2,274.474a7.834,7.834,0,0,1,2.413.606,1.308,1.308,0,0,1,.882,1.765,1.4,1.4,0,0,1-1.921.633c-.835-.308-2-.325-2.391-1.28A1.281,1.281,0,0,1,334.2,274.474Z" transform="translate(-298.774 -250.456)" fill="#619ac7"/>
        <path id="Path_156550" data-name="Path 156550" d="M318.2,304.392c.77-.132,1.331.554,1.9.958.524.454,1.3.958,1.16,1.76a1.335,1.335,0,0,1-2.046.884,9.623,9.623,0,0,1-1.953-1.753A1.286,1.286,0,0,1,318.2,304.392Z" transform="translate(-285.602 -275.103)" fill="#619ac7"/>
      </g>
      <g id="_b2cbceff" data-name="#b2cbceff" transform="translate(10.278 127.65)">
        <path id="Path_156551" data-name="Path 156551" d="M58.47,160.911A65.327,65.327,0,0,1,78.989,150.12a24.316,24.316,0,0,0-4.275,4.3l-.485-.049a90.665,90.665,0,0,0-14.194,6C59.532,160.582,59.052,161.011,58.47,160.911Z" transform="translate(-58.47 -150.12)" fill="#afafaf"/>
        <path id="Path_156552" data-name="Path 156552" d="M336.94,150.21A66.111,66.111,0,0,1,357.459,161a3.654,3.654,0,0,1-1.71-.622,90.718,90.718,0,0,0-13.011-5.588c-.5-.141-1.012-.482-1.549-.306A24.528,24.528,0,0,0,336.94,150.21Z" transform="translate(-287.99 -150.194)" fill="#afafaf"/>
        <path id="Path_156553" data-name="Path 156553" d="M463.63,215.357a1.508,1.508,0,0,0,1.129-.487c.891.768,1.8,1.513,2.644,2.338-.088.149-.176.3-.257.454C466.126,216.677,464.634,216.352,463.63,215.357Z" transform="translate(-392.41 -203.488)" fill="#afafaf"/>
      </g>
      <path id="Path_156554" data-name="Path 156554" d="M166.492,157a53.4,53.4,0,0,1,14.21-.613,23.96,23.96,0,0,1,3.067.4,6.038,6.038,0,0,0-1.8,2.707,1.285,1.285,0,0,0,2.319,1.093,10.648,10.648,0,0,0,1.1-2.232,1.458,1.458,0,0,0-.946-1.478c1.61.109,3.154.638,4.755.814a20.758,20.758,0,0,1,3.723,28.025,20.5,20.5,0,0,1-6.664,6.022,6.8,6.8,0,0,0-.708,0,32.759,32.759,0,0,1-9.816.146c-.032-.058-.095-.176-.128-.234a9.94,9.94,0,0,0,.139-2.953,1.3,1.3,0,0,0-2.315-.156c-.378.858-.151,1.844-.441,2.728a5.735,5.735,0,0,1-1.343-.366,19.184,19.184,0,0,1-5.679-3.127,18.209,18.209,0,0,1-5-6.615,6.734,6.734,0,0,1-.71-2.02c.6-.288,1.424-.272,1.8-.919a1.285,1.285,0,0,0-.991-1.927c-.533,0-1.041.2-1.571.209a23.975,23.975,0,0,1-.527-7.015,27.608,27.608,0,0,1,2.456-9.833,3.221,3.221,0,0,0,.285-.988c.353-.33.7-.673,1.074-.977,1.26-.121,2.473-.51,3.727-.686m-.137.6a1.3,1.3,0,0,0-.877,1.811,15.176,15.176,0,0,0,1.3,2.048,1.3,1.3,0,0,0,2.136-.425c.3-.923-.473-1.675-.888-2.417-.323-.6-.921-1.223-1.675-1.016m5.6,4.655a12.139,12.139,0,1,0,15.407,15.662,14.753,14.753,0,0,0,.795-3.778,6.412,6.412,0,0,0-2.319-12.586,6.526,6.526,0,0,0-3.667,1.695,12.284,12.284,0,0,0-10.216-.993" transform="translate(-130.977 -27.448)" fill="#75baf1"/>
      <g id="_d1eff2ff" data-name="#d1eff2ff" transform="translate(2.639 131.895)">
        <path id="Path_156555" data-name="Path 156555" d="M24.214,180.3a90.664,90.664,0,0,1,14.194-6l.485.049a23.24,23.24,0,0,0-4.458,18.907,23.625,23.625,0,0,0,8.7,13.994A64.927,64.927,0,0,1,29,200.85a1.414,1.414,0,0,0-2,.309c-1-.628-1.958-1.308-2.932-1.971a1.381,1.381,0,0,0,.165-1.15c-.148-.55-.689-.835-1.1-1.174a68.437,68.437,0,0,1-6.982-6.008,3.811,3.811,0,0,1-.877-1.065A2.523,2.523,0,0,1,15.638,187a64.254,64.254,0,0,1,7.012-6.156C23.231,180.941,23.711,180.512,24.214,180.3Z" transform="translate(-15.01 -174.295)" fill="#f6f6f6"/>
        <path id="Path_156556" data-name="Path 156556" d="M341.049,174.319c.536-.176,1.044.165,1.549.306a90.724,90.724,0,0,1,13.011,5.588,3.654,3.654,0,0,0,1.71.622,4.289,4.289,0,0,0,1.751,1.058c1,.995,2.5,1.32,3.516,2.3a1.44,1.44,0,0,0,.5,1.55c.612.657,1.429,1.2,1.721,2.087a2.551,2.551,0,0,1-.657,2.644,67.991,67.991,0,0,1-27.374,16.78,24.7,24.7,0,0,0,5.692-6.312,23.362,23.362,0,0,0-1.413-26.627Z" transform="translate(-280.211 -174.27)" fill="#f6f6f6"/>
      </g>
      <g id="_38648cff" data-name="#38648cff" transform="translate(35.499 136.76)">
        <path id="Path_156557" data-name="Path 156557" d="M209.84,202.086a9.558,9.558,0,0,1,6.289,1.09,6.505,6.505,0,0,0,1.285,6.889,6.646,6.646,0,0,0,3.524,1.927,9.577,9.577,0,0,1-3.923,7.126,9.448,9.448,0,0,1-8.724,1.292,9.634,9.634,0,0,1-4.521-3.4,9.376,9.376,0,0,1-1.684-7.165A9.6,9.6,0,0,1,209.84,202.086Z" transform="translate(-201.951 -201.949)" fill="#619ac7"/>
      </g>
      <g id="_ffffffff" data-name="#ffffffff" transform="translate(51.834 136.683)">
        <path id="Path_156558" data-name="Path 156558" d="M297.734,201.63a3.781,3.781,0,0,1,4.233,1.84,3.779,3.779,0,0,1-3.045,5.593,3.779,3.779,0,0,1-1.188-7.434Z" transform="translate(-294.877 -201.511)" fill="#fff"/>
      </g>
    </g>
  </g>
</svg>
