<svg xmlns="http://www.w3.org/2000/svg" width="139.289" height="100" viewBox="0 0 139.289 100">
  <g id="t1-ic1" transform="translate(-180 -1100)">
    <path id="Path_156387" data-name="Path 156387" d="M5.294-6H90V74A20.15,20.15,0,0,1,69.706,94H-15V14A20.15,20.15,0,0,1,5.294-6Z" transform="translate(195 1106)" fill="#f2e4f5"/>
    <g id="store1" transform="translate(230 1083.374)">
      <g id="_000000ff" data-name="#000000ff" transform="translate(0 26.626)">
        <path id="Path_156409" data-name="Path 156409" d="M6.454,27.912a2.837,2.837,0,0,1,2.435-1.277c2.035.005,4.074-.035,6.107.019a1.377,1.377,0,0,1,1.259,1.284,1.393,1.393,0,0,1-1.31,1.294c-1.9.04-3.805.005-5.706.012-.2.037-.649-.091-.623.253-.033,1.657,0,3.317-.01,4.975q31.979,0,63.957,0,4.06,0,8.12,0,0-2.326,0-4.651c-.028-.2.068-.614-.267-.562-2.618-.031-5.235,0-7.851-.012q-25.725-.005-51.451-.005a1.407,1.407,0,0,1-1.442-1.3,1.681,1.681,0,0,1,.478-.973c.5-.438,1.214-.312,1.824-.338q29.212.018,58.425.009A2.843,2.843,0,0,1,83.3,29.5c.014,1.857,0,3.716,0,5.574a4.072,4.072,0,0,0,.645,1.671q2.514,5,5.028,10a3.5,3.5,0,0,1,.213.663,20.44,20.44,0,0,0-.065,2.656,24.88,24.88,0,0,0,.056,2.747,7.374,7.374,0,0,1-3.552,6.158,8.438,8.438,0,0,1-2.584,1q0,18.144,0,36.289c1.353.038,2.813-.194,4.049.494a4.274,4.274,0,0,1,2.2,3.3v4.52a2.185,2.185,0,0,1-2.272,2.056q-41.846.026-83.693.009A4.015,4.015,0,0,1,.882,106.2,2.268,2.268,0,0,1,0,104.566v-4.494a4.248,4.248,0,0,1,2.217-3.338c1.233-.68,2.687-.446,4.034-.488V59.958A7.633,7.633,0,0,1,1.2,56.507,7.46,7.46,0,0,1,.1,53,55.362,55.362,0,0,0,.12,47.177c1.707-3.495,3.488-6.953,5.225-10.434a4.119,4.119,0,0,0,.647-1.681c0-1.8-.007-3.6,0-5.406a3.09,3.09,0,0,1,.466-1.744m1.613,9.2C6.578,40.168,5.016,43.192,3.5,46.237c3.115-.014,6.231.038,9.344-.026,1.053-3.052,2.178-6.078,3.256-9.119-2.679.009-5.357-.03-8.034.019m10.814-.019q-1.638,4.575-3.284,9.147c3.15,0,6.3.007,9.449-.005.644-3.052,1.327-6.1,1.958-9.15-2.707.016-5.415,0-8.123.009m10.807,0q-.978,4.573-1.964,9.145c3.174-.005,6.35.019,9.525-.012.206-3.045.439-6.09.65-9.135q-4.1,0-8.212,0m10.183,9.147h9.546c-.215-3.048-.439-6.1-.649-9.145-2.748-.01-5.5,0-8.242-.005q-.335,4.575-.656,9.15M51.388,37.09c.228,3.054.413,6.111.678,9.161,3.165-.028,6.332,0,9.5-.014q-.978-4.573-1.964-9.145-4.107-.008-8.212,0m12.844,9.138c3.153.024,6.306,0,9.459.01q-1.64-4.575-3.284-9.147c-2.707-.01-5.413.012-8.118-.012.614,3.055,1.313,6.1,1.943,9.149m8.955-9.136c1.083,3.045,2.2,6.079,3.266,9.128,3.111.044,6.222.009,9.333.017-1.521-3.048-3.071-6.081-4.578-9.135-2.673-.028-5.349-.007-8.022-.01M2.68,48.858c.009,1.217-.01,2.435.007,3.652a5.081,5.081,0,0,0,.834,2.782,4.857,4.857,0,0,0,8.873-2.271c.08-1.386.017-2.776.035-4.164q-4.873,0-9.749,0m12.366,0c.023,1.393-.047,2.79.04,4.182a4.854,4.854,0,0,0,9.646.185c.122-1.451.03-2.912.058-4.367q-4.871,0-9.743,0m12.361,0c.012,1.32-.03,2.64.021,3.959a4.861,4.861,0,0,0,9.715-.141c.03-1.271,0-2.544.01-3.817q-4.873,0-9.747,0m12.364,0c.016,1.336-.031,2.673.024,4.008a4.855,4.855,0,0,0,9.674.246c.1-1.414.023-2.836.047-4.253q-4.873,0-9.745,0m12.363,0c0,1.154-.005,2.307,0,3.462a5.345,5.345,0,0,0,.422,2.213,4.854,4.854,0,0,0,9.21-1,40.24,40.24,0,0,0,.115-4.679q-4.873,0-9.747,0m12.364,0c.028,1.451-.065,2.907.058,4.355a4.853,4.853,0,0,0,9.606.15c.167-1.495.04-3,.08-4.5q-4.871,0-9.743,0m12.361,0c.005,1.268-.019,2.537.01,3.805a4.861,4.861,0,0,0,9.717.127c.047-1.308,0-2.619.023-3.929-3.251-.01-6.5,0-9.75,0M13.011,57.674a7.782,7.782,0,0,1-4.144,2.285q0,18.144,0,36.288H11.2c.005-9.7-.009-19.4.009-29.1A2.436,2.436,0,0,1,13.6,64.759q7.583-.021,15.167,0a2.439,2.439,0,0,1,2.414,2.377c.019,9.7,0,19.408.009,29.111q20.569,0,41.139,0,4.047,0,8.092,0,0-18.144,0-36.288c-.361-.1-.722-.2-1.079-.307a8.1,8.1,0,0,1-3.81-2.827,7.657,7.657,0,0,1-3.2,2.64,7.573,7.573,0,0,1-4.839.361,7.7,7.7,0,0,1-4.313-3.01,7.511,7.511,0,0,1-6.669,3.233,7.608,7.608,0,0,1-5.692-3.237,7.485,7.485,0,0,1-12.35,0,7.546,7.546,0,0,1-6.9,3.223,7.688,7.688,0,0,1-5.479-3.214,7.475,7.475,0,0,1-12.331,0c-.256.277-.5.567-.739.856m.8,9.694q0,14.44,0,28.878,3.3,0,6.6,0h8.162q0-14.44,0-28.878H13.815M2.625,100.456c-.024,1.182,0,2.367-.009,3.549q37.951.005,75.9,0,4.078,0,8.155,0c-.014-1.24.035-2.483-.021-3.722a1.523,1.523,0,0,0-1.54-1.409c-2.2-.028-4.4,0-6.594-.01q-36.562,0-73.121,0a7.276,7.276,0,0,0-1.742.1A1.551,1.551,0,0,0,2.625,100.456Z" transform="translate(0 -26.626)"/>
        <path id="Path_156410" data-name="Path 156410" d="M194.477,247.755a2.453,2.453,0,0,1,2.368-2.564c5.282-.019,10.566-.007,15.849-.005a1.313,1.313,0,1,1-.007,2.607q-7.793.018-15.587,0c-.016,6.862-.005,13.723-.005,20.585q14.782.005,29.566,0c2.7.01,5.41-.024,8.114.017.056-6.866.009-13.733.023-20.6q-4.068,0-8.137,0c-2.269,0-4.538-.005-6.8.005a3.019,3.019,0,0,1-1.571-.232,1.519,1.519,0,0,1-.619-1.086,1.389,1.389,0,0,1,1.477-1.3c4.58-.009,9.159,0,13.74,0a9.793,9.793,0,0,1,3.089.216,2.47,2.47,0,0,1,1.444,2.349q0,10.3,0,20.59a2.518,2.518,0,0,1-1.059,2.222c-1.017.7-2.321.358-3.474.438q-17.937,0-35.873,0a2.45,2.45,0,0,1-2.527-2.379C194.467,261.663,194.483,254.708,194.477,247.755Z" transform="translate(-160.558 -207.056)"/>
        <path id="Path_156411" data-name="Path 156411" d="M136.687,326.473a1.292,1.292,0,0,1,1.835.841,19.912,19.912,0,0,1,.056,2.457,1.382,1.382,0,0,1-.736,1.366,1.293,1.293,0,0,1-1.821-.846,20.126,20.126,0,0,1-.056-2.448A1.394,1.394,0,0,1,136.687,326.473Z" transform="translate(-112.245 -274.063)"/>
      </g>
      <g id="_fdc74fff" data-name="#fdc74fff" transform="translate(8.602 27.938)">
        <path id="Path_156412" data-name="Path 156412" d="M56.977,34.15q1.708,0,3.42,0a1.407,1.407,0,0,0,1.442,1.3q25.725.018,51.451.005c.01,1.742.012,3.484-.005,5.225q-31.979,0-63.957,0c.01-1.658-.023-3.319.01-4.975-.026-.344.419-.216.623-.253,1.9-.007,3.805.028,5.706-.012A1.394,1.394,0,0,0,56.977,34.15Z" transform="translate(-49.323 -34.15)" fill="#8e4fff"/>
      </g>
      <g id="_fca629ff" data-name="#fca629ff" transform="translate(72.563 29.245)">
        <path id="Path_156413" data-name="Path 156413" d="M416.1,41.645c2.616.009,5.234-.019,7.851.012.335-.052.239.366.267.562q-.005,2.326,0,4.651-4.06,0-8.12,0C416.107,45.129,416.106,43.387,416.1,41.645Z" transform="translate(-416.09 -41.642)" fill="#6e3dc6"/>
      </g>
      <g id="_fc502aff" data-name="#fc502aff" transform="translate(3.502 37.086)">
        <path id="Path_156414" data-name="Path 156414" d="M24.646,86.63c2.677-.049,5.356-.01,8.034-.019-1.078,3.041-2.2,6.067-3.256,9.119-3.113.065-6.229.012-9.344.026C21.594,92.711,23.156,89.687,24.646,86.63Z" transform="translate(-20.08 -86.605)" fill="#be79ca"/>
        <path id="Path_156415" data-name="Path 156415" d="M160.944,86.626q4.107-.008,8.212,0c-.211,3.045-.445,6.09-.65,9.135-3.176.031-6.351.007-9.525.012Q159.958,91.2,160.944,86.626Z" transform="translate(-134.757 -86.62)" fill="#be79ca"/>
        <path id="Path_156416" data-name="Path 156416" d="M294.67,86.625q4.1,0,8.212,0,.978,4.573,1.964,9.145c-3.165.01-6.332-.014-9.5.014C295.083,92.735,294.9,89.678,294.67,86.625Z" transform="translate(-246.784 -86.62)" fill="#be79ca"/>
        <path id="Path_156417" data-name="Path 156417" d="M419.67,86.62c2.673,0,5.349-.017,8.022.01,1.507,3.054,3.057,6.086,4.578,9.135-3.111-.009-6.222.026-9.333-.017C421.867,92.7,420.753,89.665,419.67,86.62Z" transform="translate(-349.985 -86.614)" fill="#be79ca"/>
      </g>
      <g id="_ffffffff" data-name="#ffffffff" transform="translate(15.598 37.08)">
        <path id="Path_156418" data-name="Path 156418" d="M92.724,86.6c2.708-.007,5.417.007,8.123-.009-.631,3.055-1.315,6.1-1.958,9.15-3.15.012-6.3,0-9.449.005Q91.08,91.17,92.724,86.6Z" transform="translate(-89.44 -86.586)" fill="#fff"/>
        <path id="Path_156419" data-name="Path 156419" d="M228.63,95.77q.327-4.575.656-9.15c2.747.005,5.493-.005,8.242.005.209,3.048.434,6.1.649,9.145Z" transform="translate(-204.356 -86.611)" fill="#fff"/>
        <path id="Path_156420" data-name="Path 156420" d="M359.123,95.719c-.63-3.054-1.329-6.093-1.943-9.149,2.7.024,5.411,0,8.118.012q1.638,4.575,3.284,9.147C365.429,95.722,362.276,95.743,359.123,95.719Z" transform="translate(-310.488 -86.57)" fill="#fff"/>
      </g>
      <g id="_0000009e" data-name="#0000009e" transform="translate(0 47.177)">
        <path id="Path_156421" data-name="Path 156421" d="M0,144.751l.12-.281A55.362,55.362,0,0,1,.1,150.289l-.1-.237Z" transform="translate(0 -144.47)" opacity="0.62"/>
        <path id="Path_156422" data-name="Path 156422" d="M511.041,144.791l.1-.2v5.823l-.113-.22a24.889,24.889,0,0,1-.056-2.747A20.447,20.447,0,0,1,511.041,144.791Z" transform="translate(-421.857 -144.569)" opacity="0.62"/>
      </g>
      <g id="_e60d28ff" data-name="#e60d28ff" transform="translate(2.68 48.855)">
        <path id="Path_156423" data-name="Path 156423" d="M15.367,154.1q4.873-.008,9.749,0c-.017,1.388.045,2.778-.035,4.165a4.857,4.857,0,0,1-8.873,2.271,5.081,5.081,0,0,1-.834-2.782C15.356,156.531,15.376,155.314,15.367,154.1Z" transform="translate(-15.366 -154.093)" fill="#84548c"/>
        <path id="Path_156424" data-name="Path 156424" d="M157.137,154.094q4.873,0,9.747,0c-.007,1.273.019,2.546-.01,3.817a4.861,4.861,0,0,1-9.715.141C157.108,156.734,157.15,155.414,157.137,154.094Z" transform="translate(-132.41 -154.092)" fill="#84548c"/>
        <path id="Path_156425" data-name="Path 156425" d="M298.937,154.094q4.873,0,9.747,0a40.24,40.24,0,0,1-.115,4.679,4.854,4.854,0,0,1-9.21,1,5.345,5.345,0,0,1-.422-2.213C298.932,156.4,298.935,155.248,298.937,154.094Z" transform="translate(-249.482 -154.092)" fill="#84548c"/>
        <path id="Path_156426" data-name="Path 156426" d="M440.709,154.092c3.249,0,6.5-.007,9.75,0-.019,1.31.024,2.621-.023,3.929a4.861,4.861,0,0,1-9.717-.127C440.689,156.629,440.714,155.359,440.709,154.092Z" transform="translate(-366.528 -154.09)" fill="#84548c"/>
      </g>
      <g id="_f2f2f2ff" data-name="#f2f2f2ff" transform="translate(15.041 48.855)">
        <path id="Path_156427" data-name="Path 156427" d="M86.255,154.1q4.871,0,9.743,0c-.028,1.454.065,2.916-.058,4.367a4.854,4.854,0,0,1-9.646-.185C86.208,156.887,86.278,155.49,86.255,154.1Z" transform="translate(-86.25 -154.095)" fill="#f2f2f2"/>
        <path id="Path_156428" data-name="Path 156428" d="M228.042,154.09q4.873,0,9.745,0c-.024,1.418.052,2.839-.047,4.253a4.855,4.855,0,0,1-9.674-.246C228.011,156.763,228.058,155.426,228.042,154.09Z" transform="translate(-203.312 -154.09)" fill="#f2f2f2"/>
        <path id="Path_156429" data-name="Path 156429" d="M369.814,154.1q4.871,0,9.743,0c-.04,1.5.087,3.01-.08,4.5a4.853,4.853,0,0,1-9.605-.15C369.75,157,369.842,155.547,369.814,154.1Z" transform="translate(-320.357 -154.095)" fill="#f2f2f2"/>
      </g>
      <g id="_e9eaebff" data-name="#e9eaebff" transform="translate(8.867 56.809)">
        <path id="Path_156430" data-name="Path 156430" d="M54.99,200.565c.242-.289.483-.579.739-.856a7.475,7.475,0,0,0,12.331,0,7.688,7.688,0,0,0,5.479,3.214,7.546,7.546,0,0,0,6.9-3.223,7.485,7.485,0,0,0,12.35,0,7.608,7.608,0,0,0,5.692,3.237,7.511,7.511,0,0,0,6.669-3.233,7.7,7.7,0,0,0,4.313,3.01,7.573,7.573,0,0,0,4.839-.361c-.028,1.763-.023,3.524,0,5.288-4.581,0-9.161-.005-13.74,0a1.389,1.389,0,0,0-1.477,1.3c-1.168.012-2.337,0-3.505.009a1.4,1.4,0,0,0-1.467-1.308c-5.282,0-10.566-.014-15.849.005a2.452,2.452,0,0,0-2.368,2.564c.005,6.953-.01,13.908.009,20.861a2.45,2.45,0,0,0,2.527,2.379q17.935.013,35.872,0c-.023,1.892-.026,3.786,0,5.678q-20.569,0-41.139,0c-.007-9.7.01-19.408-.009-29.111a2.439,2.439,0,0,0-2.414-2.377q-7.583-.013-15.167,0a2.436,2.436,0,0,0-2.394,2.384c-.017,9.7,0,19.4-.009,29.1h-2.33q0-18.144,0-36.288A7.782,7.782,0,0,0,54.99,200.565Z" transform="translate(-50.846 -199.7)" fill="#e9eaeb"/>
      </g>
      <g id="_b9bbc1ff" data-name="#b9bbc1ff" transform="translate(72.309 56.824)">
        <path id="Path_156431" data-name="Path 156431" d="M417.858,199.79a8.1,8.1,0,0,0,3.81,2.827c.358.1.719.2,1.079.307q0,18.144,0,36.288-4.047,0-8.092,0c-.028-1.892-.024-3.786,0-5.678,1.153-.08,2.457.262,3.474-.438a2.518,2.518,0,0,0,1.059-2.222q-.005-10.3,0-20.59a2.47,2.47,0,0,0-1.444-2.349,9.792,9.792,0,0,0-3.088-.216c-.019-1.763-.024-3.524,0-5.288A7.657,7.657,0,0,0,417.858,199.79Z" transform="translate(-414.636 -199.79)" fill="#b9bbc1"/>
      </g>
      <g id="_00c6c8ff" data-name="#00c6c8ff" transform="translate(13.815 66.055)">
        <path id="Path_156432" data-name="Path 156432" d="M226.56,252.729c1.168-.009,2.337,0,3.505-.009a1.519,1.519,0,0,0,.619,1.086,3.019,3.019,0,0,0,1.571.232c2.267-.01,4.536,0,6.8-.005q-.013,10.291,0,20.584-14.785,0-29.566,0c0-6.862-.01-13.723.005-20.585q7.793.005,15.587,0A1.4,1.4,0,0,0,226.56,252.729Z" transform="translate(-186.771 -252.72)" fill="#75baf1"/>
        <path id="Path_156433" data-name="Path 156433" d="M79.216,260.25h6.6q.018,14.44,0,28.878-3.3,0-6.6,0Q79.216,274.688,79.216,260.25Z" transform="translate(-79.216 -258.937)" fill="#75baf1"/>
      </g>
      <g id="_0fb0c0ff" data-name="#0fb0c0ff" transform="translate(20.411 67.367)">
        <path id="Path_156434" data-name="Path 156434" d="M117.042,260.25H125.2q.005,14.44,0,28.878H117.04q.018-14.437,0-28.878m4.028,11.667a1.394,1.394,0,0,0-.722,1.369,20.123,20.123,0,0,0,.056,2.448,1.293,1.293,0,0,0,1.821.846,1.382,1.382,0,0,0,.736-1.366,19.908,19.908,0,0,0-.056-2.457A1.292,1.292,0,0,0,121.07,271.917Z" transform="translate(-117.04 -260.249)" fill="#639dcc"/>
        <path id="Path_156435" data-name="Path 156435" d="M379.025,260.246q4.068,0,8.137,0c-.014,6.868.033,13.735-.023,20.6-2.7-.042-5.41-.007-8.114-.017Q379.017,270.539,379.025,260.246Z" transform="translate(-333.332 -260.246)" fill="#639dcc"/>
      </g>
      <g id="_8b8996ff" data-name="#8b8996ff" transform="translate(2.613 98.856)">
        <path id="Path_156436" data-name="Path 156436" d="M15,442.409a1.551,1.551,0,0,1,1.029-1.5,7.279,7.279,0,0,1,1.742-.1q36.56,0,73.121,0c.03,1.714.021,3.429,0,5.143q-37.951,0-75.9,0C15,444.776,14.973,443.591,15,442.409Z" transform="translate(-14.986 -440.81)" fill="#d2e1f1"/>
      </g>
      <g id="_706f7fff" data-name="#706f7fff" transform="translate(78.517 98.861)">
        <path id="Path_156437" data-name="Path 156437" d="M450.23,440.837c2.2.009,4.4-.017,6.594.01a1.523,1.523,0,0,1,1.54,1.409c.056,1.238.007,2.482.021,3.722q-4.075.005-8.155,0C450.251,444.265,450.26,442.551,450.23,440.837Z" transform="translate(-450.23 -440.834)" fill="#b0c0d2"/>
      </g>
    </g>
  </g>
</svg>
