<svg xmlns="http://www.w3.org/2000/svg" width="400" height="250" viewBox="0 0 400 250">
  <g id="t1-i16" transform="translate(8670 5452)">
    <rect id="Rectangle_37340" data-name="Rectangle 37340" width="400" height="250" rx="30" transform="translate(-8670 -5452)" fill="#a86bb3"/>
    <path id="Rectangle_37340_-_Outline" data-name="Rectangle 37340 - Outline" d="M30,3A26.975,26.975,0,0,0,3,30V220a26.975,26.975,0,0,0,27,27H370a26.975,26.975,0,0,0,27-27V30A26.975,26.975,0,0,0,370,3H30m0-3H370a30,30,0,0,1,30,30V220a30,30,0,0,1-30,30H30A30,30,0,0,1,0,220V30A30,30,0,0,1,30,0Z" transform="translate(-8670 -5452)" fill="#cc82d9"/>
    <path id="Path_157041" data-name="Path 157041" d="M132.232,18.1h7.477V21H127.527V19.013l7.455-10.742h-7.5V5.359h12.149V7.293Zm8.336-3.019a6.86,6.86,0,0,1,.677-3.1,4.84,4.84,0,0,1,1.944-2.089,5.856,5.856,0,0,1,2.976-.73,5.344,5.344,0,0,1,4.114,1.617,6.2,6.2,0,0,1,1.5,4.4v.129a6.019,6.019,0,0,1-1.509,4.313,5.359,5.359,0,0,1-4.087,1.6,5.42,5.42,0,0,1-3.985-1.488,5.819,5.819,0,0,1-1.622-4.034Zm3.62.226a4.325,4.325,0,0,0,.5,2.363,1.682,1.682,0,0,0,1.493.752q1.934,0,1.977-2.976v-.365q0-3.126-2-3.126-1.815,0-1.966,2.7ZM156.7,9.377l.118,1.364a3.942,3.942,0,0,1,3.319-1.579,3.316,3.316,0,0,1,2.712,1.085,5.165,5.165,0,0,1,.929,3.266V21h-3.631V13.663a1.961,1.961,0,0,0-.354-1.294,1.64,1.64,0,0,0-1.289-.414,1.726,1.726,0,0,0-1.579.838V21h-3.62V9.377ZM172.333,21a4.088,4.088,0,0,1-.344-1.042,3.366,3.366,0,0,1-2.793,1.257,4.124,4.124,0,0,1-2.793-.994,3.163,3.163,0,0,1-1.149-2.5,3.251,3.251,0,0,1,1.4-2.857,7.114,7.114,0,0,1,4.061-.967h1.117v-.615q0-1.608-1.386-1.608a1.133,1.133,0,0,0-1.289,1.274h-3.62a3.245,3.245,0,0,1,1.434-2.736,6.027,6.027,0,0,1,3.658-1.051,5.284,5.284,0,0,1,3.513,1.085,3.772,3.772,0,0,1,1.321,2.976v5.146a5.269,5.269,0,0,0,.494,2.449V21Zm-2.267-2.363a2.019,2.019,0,0,0,1.123-.29,1.818,1.818,0,0,0,.639-.655V15.833h-1.053q-1.891,0-1.891,1.7a1.036,1.036,0,0,0,.333.8A1.205,1.205,0,0,0,170.066,18.637ZM183.741,21V11.891h-1.687V9.377h1.687V8.453a4.016,4.016,0,0,1,1.171-3.083,4.626,4.626,0,0,1,3.287-1.1,7.2,7.2,0,0,1,1.7.226l.011,2.664a3.307,3.307,0,0,0-.892-.1q-1.644,0-1.644,1.418v.892h2.267v2.514h-2.267V21Zm14.2-8.347-1.192-.086a2.142,2.142,0,0,0-2.191,1.074V21h-3.62V9.377h3.395l.118,1.493A2.8,2.8,0,0,1,197,9.162a3.53,3.53,0,0,1,1.01.129ZM203.195,21h-3.642V9.377h3.642ZM201.841,4.715h3.824l-2.986,3.373-2.954-.005ZM212.068,21a4.088,4.088,0,0,1-.344-1.042,3.366,3.366,0,0,1-2.793,1.257,4.124,4.124,0,0,1-2.793-.994,3.163,3.163,0,0,1-1.149-2.5,3.251,3.251,0,0,1,1.4-2.857,7.114,7.114,0,0,1,4.061-.967h1.117v-.615q0-1.608-1.386-1.608a1.133,1.133,0,0,0-1.289,1.274h-3.62a3.245,3.245,0,0,1,1.434-2.736,6.027,6.027,0,0,1,3.658-1.051,5.284,5.284,0,0,1,3.513,1.085,3.772,3.772,0,0,1,1.321,2.976v5.146a5.269,5.269,0,0,0,.494,2.449V21ZM209.8,18.637a2.019,2.019,0,0,0,1.123-.29,1.818,1.818,0,0,0,.639-.655V15.833H210.51q-1.891,0-1.891,1.7a1.036,1.036,0,0,0,.333.8A1.205,1.205,0,0,0,209.8,18.637Z" transform="translate(-8641 -5252)" fill="#fff"/>
    <rect id="Rectangle_37341" data-name="Rectangle 37341" width="250" height="2" transform="translate(-8595 -5271)" fill="#fff"/>
    <g id="_000000ff" data-name="#000000ff" transform="translate(-8546.987 -5411)">
      <path id="Path_156404" data-name="Path 156404" d="M76.22,0h.629a6.869,6.869,0,0,1,2.322,1.506q4.447,3.56,8.9,7.113a2.242,2.242,0,0,1,.959,1.934,2.336,2.336,0,0,1-1.018,1.7c-3.129,2.49-6.246,5-9.373,7.492-.023,2.393,0,4.787-.012,7.182,2.371-1.877,4.707-3.8,7.094-5.658a2.081,2.081,0,0,1,3.273,1.215,2.4,2.4,0,0,1-1.2,2.457c-3.062,2.424-6.1,4.879-9.158,7.313-.021,1.8-.008,3.6-.008,5.4a12.863,12.863,0,0,1,7.547,4.379q2.353-1.354,4.7-2.715.905-5.941,1.8-11.881a2.333,2.333,0,0,1,.854-1.641,2.074,2.074,0,0,1,2.916.395,2.6,2.6,0,0,1,.322,2.117c-.441,2.783-.848,5.57-1.281,8.355q3.091-1.8,6.2-3.572c.646-4,1.221-8,1.844-12a2.18,2.18,0,0,1,1.268-1.809,3.012,3.012,0,0,1,2.387.271c3.789,1.5,7.594,2.963,11.389,4.455a2.143,2.143,0,0,1,1.52,1.758,14.408,14.408,0,0,1-.295,2.582c-.541,3.568-1.092,7.137-1.621,10.709a2.488,2.488,0,0,1-1.031,1.938,2.274,2.274,0,0,1-2.156.068c-3.51-1.389-7.035-2.744-10.543-4.139-.32-.105-.687-.271-1-.043-1.959,1.117-3.906,2.26-5.863,3.385,2.584,1,5.156,2.029,7.744,3.018a2.888,2.888,0,0,1,1.721,1.242,2.093,2.093,0,0,1-1.061,2.883,2.637,2.637,0,0,1-2.053-.176c-3.65-1.457-7.32-2.861-10.975-4.3-1.561.9-3.115,1.807-4.682,2.7a13.058,13.058,0,0,1,0,8.744q2.347,1.345,4.684,2.7c3.75-1.473,7.51-2.926,11.258-4.406a2.181,2.181,0,0,1,2.369.3,2.091,2.091,0,0,1,.2,2.893,4.408,4.408,0,0,1-1.74.969c-2.494.951-4.973,1.941-7.459,2.906,1.912,1.107,3.826,2.209,5.734,3.322a1.092,1.092,0,0,0,1.135.012c3.408-1.359,6.836-2.668,10.246-4.027a2.75,2.75,0,0,1,2.049-.221,2.179,2.179,0,0,1,1.381,1.9c.631,4.145,1.248,8.293,1.9,12.437a2.3,2.3,0,0,1-1.754,2.957c-3.937,1.521-7.863,3.074-11.8,4.6a2.11,2.11,0,0,1-2.271-.375,3.2,3.2,0,0,1-.783-2.037c-.5-3.477-1.068-6.943-1.564-10.422-.094-.395-.057-.918-.48-1.125-1.949-1.16-3.936-2.26-5.887-3.416.426,2.785.838,5.572,1.277,8.354a2.7,2.7,0,0,1-.25,2.021,2.088,2.088,0,0,1-3,.5,2.452,2.452,0,0,1-.861-1.729c-.582-3.937-1.189-7.871-1.787-11.8-1.562-.912-3.133-1.811-4.7-2.715a12.859,12.859,0,0,1-7.547,4.379c0,1.807-.014,3.613.008,5.42,3.105,2.447,6.174,4.939,9.273,7.395a2.434,2.434,0,0,1,1.117,1.791,2.085,2.085,0,0,1-1.937,2.207,2.9,2.9,0,0,1-2.045-.928c-2.131-1.73-4.281-3.436-6.42-5.152.01,2.391-.014,4.783.012,7.174q4.743,3.788,9.48,7.584a2.173,2.173,0,0,1,.869,2.2c-.191.906-1.037,1.418-1.7,1.965-2.682,2.131-5.35,4.279-8.027,6.416a7.531,7.531,0,0,1-2.4,1.586h-.6a3.668,3.668,0,0,1-1.234-.633q-4.978-4.008-9.979-7.986a2.215,2.215,0,0,1-.982-1.934,2.721,2.721,0,0,1,1.336-1.957c3.031-2.393,6.023-4.832,9.059-7.221.021-2.4,0-4.793.012-7.187-2.207,1.771-4.426,3.527-6.625,5.309a2.625,2.625,0,0,1-1.832.764,2.082,2.082,0,0,1-1.953-2.223,2.291,2.291,0,0,1,1.008-1.674c3.137-2.492,6.254-5.006,9.389-7.5.02-1.807.008-3.611.008-5.414a12.925,12.925,0,0,1-7.543-4.373c-1.57.906-3.143,1.8-4.707,2.719-.6,3.932-1.2,7.861-1.785,11.795a2.54,2.54,0,0,1-.756,1.641,2.091,2.091,0,0,1-3.1-.412,2.545,2.545,0,0,1-.27-1.924c.443-2.812.859-5.631,1.291-8.443q-2.818,1.638-5.654,3.256a.951.951,0,0,0-.623.8c-.594,3.834-1.162,7.674-1.752,11.51A2.23,2.23,0,0,1,48.533,80.6a2.35,2.35,0,0,1-2.191.018q-5.9-2.335-11.812-4.625a2.375,2.375,0,0,1-1.3-1.014,2.7,2.7,0,0,1-.186-1.762c.652-4.162,1.271-8.332,1.906-12.5a2.219,2.219,0,0,1,1.1-1.768,2.3,2.3,0,0,1,2.031-.02c3.748,1.463,7.492,2.941,11.252,4.383,2.051-1.2,4.117-2.381,6.174-3.574-2.811-1.117-5.641-2.187-8.441-3.322A2.069,2.069,0,0,1,46,53.637a2.1,2.1,0,0,1,2.744-1.016c3.8,1.465,7.592,2.967,11.391,4.443,1.563-.889,3.113-1.8,4.676-2.688a12.968,12.968,0,0,1,0-8.75c-1.561-.895-3.115-1.8-4.678-2.691q-5.631,2.188-11.256,4.393a2.2,2.2,0,0,1-2.379-.291,2.09,2.09,0,0,1-.025-3.088,8.466,8.466,0,0,1,2.135-.99c2.3-.906,4.6-1.791,6.9-2.7-2.053-1.2-4.115-2.369-6.164-3.57-3.758,1.439-7.5,2.916-11.248,4.379a2.356,2.356,0,0,1-1.908.055,2.239,2.239,0,0,1-1.234-1.844c-.635-4.168-1.26-8.338-1.9-12.5a2.548,2.548,0,0,1,.25-1.855,2.651,2.651,0,0,1,1.4-.982c3.932-1.518,7.852-3.062,11.773-4.6a2.218,2.218,0,0,1,2.287.229,2.736,2.736,0,0,1,.871,1.93c.531,3.637,1.115,7.268,1.641,10.906a1.044,1.044,0,0,0,.551.926c1.92,1.111,3.85,2.207,5.766,3.328-.428-2.783-.836-5.57-1.277-8.354a2.708,2.708,0,0,1,.244-2,2.085,2.085,0,0,1,2.881-.59,2.242,2.242,0,0,1,.957,1.656c.605,3.984,1.2,7.969,1.82,11.951,1.566.9,3.129,1.809,4.7,2.711a12.93,12.93,0,0,1,7.545-4.373c0-1.809.012-3.615-.006-5.422-3.131-2.488-6.24-5-9.373-7.484a2.3,2.3,0,0,1-1.021-1.678,2.083,2.083,0,0,1,1.934-2.223,2.444,2.444,0,0,1,1.738.674c2.236,1.807,4.49,3.6,6.734,5.4-.012-2.395.008-4.789-.012-7.186-3.129-2.486-6.238-5-9.369-7.482a2.26,2.26,0,0,1-1.027-1.9,2.352,2.352,0,0,1,1.07-1.812c2.9-2.3,5.789-4.627,8.684-6.937A7.747,7.747,0,0,1,76.22,0M69.47,10.408c2.352,1.9,4.717,3.785,7.076,5.676q3.548-2.827,7.076-5.676c-2.361-1.885-4.713-3.779-7.076-5.66q-3.536,2.83-7.076,5.66M37.363,27.375c.449,2.986.908,5.973,1.359,8.961,2.816-1.1,5.635-2.187,8.447-3.295q-.686-4.482-1.369-8.965-4.216,1.652-8.437,3.3m68.557,5.666c2.82,1.09,5.629,2.2,8.447,3.3.451-2.99.91-5.979,1.359-8.967q-4.219-1.652-8.437-3.3-.688,4.482-1.369,8.963M74.812,41.85a8.326,8.326,0,0,0-4.148,14.039,8.334,8.334,0,0,0,14.2-6.088,8.377,8.377,0,0,0-4.461-7.18,8.49,8.49,0,0,0-5.594-.771M38.722,63.66c-.451,2.99-.914,5.977-1.357,8.967,2.816,1.088,5.625,2.2,8.436,3.3q.691-4.479,1.369-8.965-4.219-1.661-8.447-3.3m67.2,3.3q.683,4.482,1.369,8.963,4.219-1.649,8.438-3.3c-.449-2.988-.908-5.977-1.359-8.967-2.816,1.1-5.629,2.209-8.447,3.3M69.472,89.586q3.536,2.833,7.074,5.666c2.363-1.881,4.717-3.775,7.072-5.662-2.344-1.908-4.711-3.787-7.072-5.674C74.189,85.807,71.824,87.688,69.472,89.586Z" fill="#fff"/>
    </g>
  </g>
</svg>
