<svg xmlns="http://www.w3.org/2000/svg" width="448" height="252" viewBox="0 0 448 252">
  <g id="t1-l13" transform="translate(145 1081)">
    <path id="Rectangle_36583" data-name="Rectangle 36583" d="M-1-1H447V251H-1ZM445,1H1V249H445Z" transform="translate(-144 -1080)" fill="#12263f"/>
    <g id="Group_107543" data-name="Group 107543">
      <rect id="Rectangle_36584" data-name="Rectangle 36584" width="40" height="168" transform="translate(-93.274 -1044.094)" fill="#fff505"/>
      <rect id="Rectangle_36585" data-name="Rectangle 36585" width="40" height="112" transform="translate(-19.274 -1044.094)" fill="#fff505"/>
      <rect id="Rectangle_36586" data-name="Rectangle 36586" width="40" height="140" transform="translate(54.726 -1044.094)" fill="#fff505"/>
      <rect id="Rectangle_36587" data-name="Rectangle 36587" width="40" height="84" transform="translate(128.726 -1044.094)" fill="#fff505"/>
      <g id="SECUNDARIO" style="isolation: isolate">
        <path id="Path_156746" data-name="Path 156746" d="M7.438-2.344H3.328L2.547,0H.055L4.289-11.375H6.461L10.719,0H8.227Zm-3.477-1.9H6.8L5.375-8.5Zm9.375-4.211.07.977a2.951,2.951,0,0,1,2.43-1.133,2.453,2.453,0,0,1,2,.789,3.682,3.682,0,0,1,.672,2.359V0H16.25V-5.406a1.465,1.465,0,0,0-.312-1.043A1.4,1.4,0,0,0,14.9-6.773a1.553,1.553,0,0,0-1.43.813V0H11.211V-8.453Zm10.4,6.789a1.481,1.481,0,0,0,1.016-.344,1.2,1.2,0,0,0,.406-.914h2.117A2.9,2.9,0,0,1,26.8-1.348,3.093,3.093,0,0,1,25.543-.238a3.949,3.949,0,0,1-1.77.395A3.67,3.67,0,0,1,20.914-1,4.56,4.56,0,0,1,19.867-4.18v-.148a4.508,4.508,0,0,1,1.039-3.117,3.627,3.627,0,0,1,2.852-1.164,3.555,3.555,0,0,1,2.543.9,3.2,3.2,0,0,1,.973,2.4H25.156a1.551,1.551,0,0,0-.406-1.072,1.354,1.354,0,0,0-1.031-.412,1.36,1.36,0,0,0-1.191.575,3.333,3.333,0,0,0-.4,1.866v.235a3.375,3.375,0,0,0,.4,1.878A1.377,1.377,0,0,0,23.734-1.664Zm7.031-5.867a2.818,2.818,0,0,1,2.258-1.078q2.75,0,2.789,3.2V0H33.555V-5.352a1.57,1.57,0,0,0-.312-1.074A1.34,1.34,0,0,0,32.2-6.773a1.537,1.537,0,0,0-1.437.766V0H28.508V-12h2.258ZM42.578-.859A2.831,2.831,0,0,1,40.266.156a2.67,2.67,0,0,1-2.074-.781,3.335,3.335,0,0,1-.73-2.289V-8.453h2.258v5.467q0,1.322,1.2,1.322a1.63,1.63,0,0,0,1.578-.8V-8.453h2.266V0H42.641Zm8.641-5.477a6.134,6.134,0,0,0-.812-.062,1.654,1.654,0,0,0-1.68.867V0H46.469V-8.453H48.6l.063,1.008a2.092,2.092,0,0,1,1.883-1.164,2.366,2.366,0,0,1,.7.1ZM56.969,0a2.507,2.507,0,0,1-.227-.758,2.732,2.732,0,0,1-2.133.914,3,3,0,0,1-2.059-.719,2.312,2.312,0,0,1-.816-1.812,2.389,2.389,0,0,1,1-2.062,4.915,4.915,0,0,1,2.879-.727h1.039v-.484a1.393,1.393,0,0,0-.3-.937,1.183,1.183,0,0,0-.949-.352,1.345,1.345,0,0,0-.895.273.929.929,0,0,0-.324.75H51.922a2.268,2.268,0,0,1,.453-1.359,3,3,0,0,1,1.281-.98,4.669,4.669,0,0,1,1.859-.355A3.689,3.689,0,0,1,58-7.824a2.747,2.747,0,0,1,.918,2.207v3.664a4.041,4.041,0,0,0,.336,1.82V0ZM55.1-1.57a1.945,1.945,0,0,0,.922-.223,1.462,1.462,0,0,0,.625-.6V-3.844H55.8q-1.7,0-1.8,1.172l-.008.133a.9.9,0,0,0,.3.7A1.153,1.153,0,0,0,55.1-1.57Z" transform="translate(7.835 -1053.824)" fill="#12263f"/>
      </g>
      <path id="Path_156749" data-name="Path 156749" d="M3.359-4.008V0H1.016V-11.375H5.453a5.134,5.134,0,0,1,2.254.469A3.454,3.454,0,0,1,9.2-9.574a3.714,3.714,0,0,1,.523,1.965A3.266,3.266,0,0,1,8.582-4.973a4.767,4.767,0,0,1-3.168.965Zm0-1.9H5.453a2.059,2.059,0,0,0,1.418-.437,1.591,1.591,0,0,0,.488-1.25,1.876,1.876,0,0,0-.492-1.352,1.839,1.839,0,0,0-1.359-.531H3.359Zm12.578-.43a6.134,6.134,0,0,0-.812-.062,1.654,1.654,0,0,0-1.68.867V0H11.188V-8.453H13.32l.063,1.008a2.092,2.092,0,0,1,1.883-1.164,2.366,2.366,0,0,1,.7.1ZM16.391-4.3a5.013,5.013,0,0,1,.484-2.242A3.546,3.546,0,0,1,18.27-8.07a4.069,4.069,0,0,1,2.113-.539,3.849,3.849,0,0,1,2.793,1.047,4.2,4.2,0,0,1,1.207,2.844l.016.578A4.418,4.418,0,0,1,23.313-1.02,3.775,3.775,0,0,1,20.4.156,3.793,3.793,0,0,1,17.48-1.016,4.5,4.5,0,0,1,16.391-4.2Zm2.258.16A3.16,3.16,0,0,0,19.1-2.3a1.5,1.5,0,0,0,1.3.638,1.5,1.5,0,0,0,1.281-.63,3.457,3.457,0,0,0,.461-2.015A3.128,3.128,0,0,0,21.68-6.14a1.5,1.5,0,0,0-1.3-.649,1.474,1.474,0,0,0-1.281.646A3.516,3.516,0,0,0,18.648-4.144ZM26.406,0V-6.8H25.148V-8.453h1.258v-.719a2.918,2.918,0,0,1,.816-2.207,3.162,3.162,0,0,1,2.285-.785,5.278,5.278,0,0,1,1.148.156l-.023,1.75a2.878,2.878,0,0,0-.687-.07q-1.273,0-1.273,1.2v.68h1.68V-6.8h-1.68V0Zm10.18-.859A2.831,2.831,0,0,1,34.273.156,2.67,2.67,0,0,1,32.2-.625a3.335,3.335,0,0,1-.73-2.289V-8.453h2.258v5.467q0,1.322,1.2,1.322a1.63,1.63,0,0,0,1.578-.8V-8.453h2.266V0H36.648Zm5.969-7.594.07.977a2.951,2.951,0,0,1,2.43-1.133,2.453,2.453,0,0,1,2,.789,3.682,3.682,0,0,1,.672,2.359V0H45.469V-5.406a1.465,1.465,0,0,0-.312-1.043,1.4,1.4,0,0,0-1.039-.324,1.553,1.553,0,0,0-1.43.813V0H40.43V-8.453Zm6.531,4.164a5.094,5.094,0,0,1,.887-3.148A2.877,2.877,0,0,1,52.4-8.609a2.589,2.589,0,0,1,2.039.922V-12H56.7V0H54.664l-.109-.9A2.657,2.657,0,0,1,52.383.156,2.869,2.869,0,0,1,49.988-1.02,5.258,5.258,0,0,1,49.086-4.289Zm2.258.168A3.337,3.337,0,0,0,51.758-2.3a1.349,1.349,0,0,0,1.2.634,1.511,1.511,0,0,0,1.477-.884V-5.889a1.489,1.489,0,0,0-1.461-.884Q51.344-6.773,51.344-4.121ZM60.836,0H58.57V-8.453h2.266Zm-2.4-10.641a1.112,1.112,0,0,1,.34-.836A1.277,1.277,0,0,1,59.7-11.8a1.28,1.28,0,0,1,.922.328,1.105,1.105,0,0,1,.344.836,1.108,1.108,0,0,1-.348.844,1.283,1.283,0,0,1-.918.328,1.283,1.283,0,0,1-.918-.328A1.108,1.108,0,0,1,58.438-10.641Zm3.906,6.352a5.094,5.094,0,0,1,.887-3.148,2.877,2.877,0,0,1,2.426-1.172,2.589,2.589,0,0,1,2.039.922V-12h2.266V0H67.922l-.109-.9A2.657,2.657,0,0,1,65.641.156,2.869,2.869,0,0,1,63.246-1.02,5.258,5.258,0,0,1,62.344-4.289Zm2.258.168A3.337,3.337,0,0,0,65.016-2.3a1.349,1.349,0,0,0,1.2.634A1.511,1.511,0,0,0,67.7-2.548V-5.889a1.489,1.489,0,0,0-1.461-.884Q64.6-6.773,64.6-4.121ZM76.609,0a2.507,2.507,0,0,1-.227-.758A2.732,2.732,0,0,1,74.25.156a3,3,0,0,1-2.059-.719,2.312,2.312,0,0,1-.816-1.812,2.389,2.389,0,0,1,1-2.062,4.915,4.915,0,0,1,2.879-.727h1.039v-.484a1.393,1.393,0,0,0-.3-.937,1.183,1.183,0,0,0-.949-.352,1.345,1.345,0,0,0-.895.273.929.929,0,0,0-.324.75H71.563a2.268,2.268,0,0,1,.453-1.359,3,3,0,0,1,1.281-.98,4.669,4.669,0,0,1,1.859-.355,3.689,3.689,0,0,1,2.48.785,2.747,2.747,0,0,1,.918,2.207v3.664a4.041,4.041,0,0,0,.336,1.82V0ZM74.742-1.57a1.945,1.945,0,0,0,.922-.223,1.462,1.462,0,0,0,.625-.6V-3.844h-.844q-1.7,0-1.8,1.172l-.008.133a.9.9,0,0,0,.3.7A1.153,1.153,0,0,0,74.742-1.57Zm5.2-2.719a5.094,5.094,0,0,1,.887-3.148A2.877,2.877,0,0,1,83.25-8.609a2.589,2.589,0,0,1,2.039.922V-12h2.266V0H85.516l-.109-.9A2.657,2.657,0,0,1,83.234.156,2.869,2.869,0,0,1,80.84-1.02,5.258,5.258,0,0,1,79.938-4.289Zm2.258.168A3.337,3.337,0,0,0,82.609-2.3a1.349,1.349,0,0,0,1.2.634,1.511,1.511,0,0,0,1.477-.884V-5.889a1.489,1.489,0,0,0-1.461-.884Q82.2-6.773,82.2-4.121Z" transform="translate(-108.357 -915.875) rotate(-90)" fill="#12263f"/>
      <path id="Rectangle_36588" data-name="Rectangle 36588" d="M-.8-.8H40.8V28.8H-.8ZM39.2.8H.8V27.2H39.2Z" transform="translate(-93.274 -1044.094)" fill="#12263f"/>
      <path id="Rectangle_36589" data-name="Rectangle 36589" d="M-.8-.8H40.8V28.8H-.8ZM39.2.8H.8V27.2H39.2Z" transform="translate(-93.274 -1016.094)" fill="#12263f"/>
      <path id="Rectangle_36590" data-name="Rectangle 36590" d="M-.8-.8H40.8V28.8H-.8ZM39.2.8H.8V27.2H39.2Z" transform="translate(-93.274 -988.094)" fill="#12263f"/>
      <path id="Rectangle_36591" data-name="Rectangle 36591" d="M-.8-.8H40.8V28.8H-.8ZM39.2.8H.8V27.2H39.2Z" transform="translate(-93.274 -960.094)" fill="#12263f"/>
      <path id="Rectangle_36592" data-name="Rectangle 36592" d="M-.8-.8H40.8V28.8H-.8ZM39.2.8H.8V27.2H39.2Z" transform="translate(-93.274 -932.094)" fill="#12263f"/>
      <path id="Rectangle_36593" data-name="Rectangle 36593" d="M-.8-.8H40.8V28.8H-.8ZM39.2.8H.8V27.2H39.2Z" transform="translate(-93.274 -904.094)" fill="#12263f"/>
      <path id="Rectangle_36594" data-name="Rectangle 36594" d="M-.8-.8H40.8V28.8H-.8ZM39.2.8H.8V27.2H39.2Z" transform="translate(-19.274 -1044.094)" fill="#12263f"/>
      <path id="Rectangle_36595" data-name="Rectangle 36595" d="M-.8-.8H40.8V28.8H-.8ZM39.2.8H.8V27.2H39.2Z" transform="translate(-19.274 -1016.094)" fill="#12263f"/>
      <path id="Rectangle_36596" data-name="Rectangle 36596" d="M-.8-.8H40.8V28.8H-.8ZM39.2.8H.8V27.2H39.2Z" transform="translate(-19.274 -988.094)" fill="#12263f"/>
      <path id="Rectangle_36597" data-name="Rectangle 36597" d="M-.8-.8H40.8V28.8H-.8ZM39.2.8H.8V27.2H39.2Z" transform="translate(-19.274 -960.094)" fill="#12263f"/>
      <path id="Rectangle_36598" data-name="Rectangle 36598" d="M-.8-.8H40.8V28.8H-.8ZM39.2.8H.8V27.2H39.2Z" transform="translate(54.726 -1044.094)" fill="#12263f"/>
      <path id="Rectangle_36599" data-name="Rectangle 36599" d="M-.8-.8H40.8V28.8H-.8ZM39.2.8H.8V27.2H39.2Z" transform="translate(54.726 -1016.094)" fill="#12263f"/>
      <path id="Rectangle_36600" data-name="Rectangle 36600" d="M-.8-.8H40.8V28.8H-.8ZM39.2.8H.8V27.2H39.2Z" transform="translate(54.726 -988.094)" fill="#12263f"/>
      <path id="Rectangle_36601" data-name="Rectangle 36601" d="M-.8-.8H40.8V28.8H-.8ZM39.2.8H.8V27.2H39.2Z" transform="translate(54.726 -960.094)" fill="#12263f"/>
      <path id="Rectangle_36602" data-name="Rectangle 36602" d="M-.8-.8H40.8V28.8H-.8ZM39.2.8H.8V27.2H39.2Z" transform="translate(54.726 -932.094)" fill="#12263f"/>
      <path id="Rectangle_36603" data-name="Rectangle 36603" d="M-.8-.8H40.8V28.8H-.8ZM39.2.8H.8V27.2H39.2Z" transform="translate(128.726 -1044.094)" fill="#12263f"/>
      <path id="Rectangle_36604" data-name="Rectangle 36604" d="M-.8-.8H40.8V28.8H-.8ZM39.2.8H.8V27.2H39.2Z" transform="translate(128.726 -1016.094)" fill="#12263f"/>
      <path id="Rectangle_36605" data-name="Rectangle 36605" d="M-.8-.8H40.8V28.8H-.8ZM39.2.8H.8V27.2H39.2Z" transform="translate(128.726 -988.094)" fill="#12263f"/>
      <g id="SECUNDARIO-2" data-name="SECUNDARIO" style="isolation: isolate">
        <path id="Path_156747" data-name="Path 156747" d="M1.016,0V-11.375h3.5A5.315,5.315,0,0,1,7.2-10.7,4.712,4.712,0,0,1,9.047-8.777a5.928,5.928,0,0,1,.664,2.832v.523A5.945,5.945,0,0,1,9.059-2.6,4.672,4.672,0,0,1,7.219-.687,5.355,5.355,0,0,1,4.539,0ZM3.359-9.477v7.594H4.492a2.545,2.545,0,0,0,2.1-.9,4.06,4.06,0,0,0,.742-2.57v-.6a4.124,4.124,0,0,0-.719-2.629,2.537,2.537,0,0,0-2.1-.895ZM13.648,0H11.383V-8.453h2.266Zm-2.4-10.641a1.112,1.112,0,0,1,.34-.836,1.277,1.277,0,0,1,.926-.328,1.28,1.28,0,0,1,.922.328,1.105,1.105,0,0,1,.344.836,1.108,1.108,0,0,1-.348.844,1.283,1.283,0,0,1-.918.328A1.283,1.283,0,0,1,11.6-9.8,1.108,1.108,0,0,1,11.25-10.641Zm8.836,8.3a.727.727,0,0,0-.41-.652,4.659,4.659,0,0,0-1.316-.426q-3.016-.633-3.016-2.562a2.323,2.323,0,0,1,.934-1.879,3.766,3.766,0,0,1,2.441-.754,4.053,4.053,0,0,1,2.574.758,2.388,2.388,0,0,1,.965,1.969H20a1.092,1.092,0,0,0-.312-.8A1.322,1.322,0,0,0,18.711-7a1.351,1.351,0,0,0-.883.258.814.814,0,0,0-.312.656.7.7,0,0,0,.355.605,3.657,3.657,0,0,0,1.2.4,9.8,9.8,0,0,1,1.422.379A2.336,2.336,0,0,1,22.281-2.43a2.2,2.2,0,0,1-.992,1.871,4.28,4.28,0,0,1-2.562.715A4.47,4.47,0,0,1,16.84-.223a3.166,3.166,0,0,1-1.293-1.039,2.414,2.414,0,0,1-.469-1.426h2.141a1.179,1.179,0,0,0,.445.922,1.766,1.766,0,0,0,1.109.32,1.635,1.635,0,0,0,.98-.246A.766.766,0,0,0,20.086-2.336ZM27.625.156A4.15,4.15,0,0,1,24.6-.984,4.054,4.054,0,0,1,23.43-4.023v-.219a5.106,5.106,0,0,1,.492-2.277,3.612,3.612,0,0,1,1.395-1.547,3.914,3.914,0,0,1,2.059-.543,3.508,3.508,0,0,1,2.73,1.094,4.444,4.444,0,0,1,1,3.1v.922H25.719a2.1,2.1,0,0,0,.66,1.328,2,2,0,0,0,1.395.5,2.437,2.437,0,0,0,2.039-.945l1.109,1.242A3.389,3.389,0,0,1,29.547-.246,4.511,4.511,0,0,1,27.625.156Zm-.258-6.945a1.411,1.411,0,0,0-1.09.455,2.357,2.357,0,0,0-.535,1.3h3.141v-.181a1.681,1.681,0,0,0-.406-1.165A1.456,1.456,0,0,0,27.367-6.789Zm7.094-1.664.07.977a2.951,2.951,0,0,1,2.43-1.133,2.453,2.453,0,0,1,2,.789,3.682,3.682,0,0,1,.672,2.359V0H37.375V-5.406a1.465,1.465,0,0,0-.312-1.043,1.4,1.4,0,0,0-1.039-.324,1.553,1.553,0,0,0-1.43.813V0H32.336V-8.453ZM38.945-11.9a2.187,2.187,0,0,1-.516,1.48,1.6,1.6,0,0,1-1.258.6,1.908,1.908,0,0,1-.527-.066,3.539,3.539,0,0,1-.637-.285,3.435,3.435,0,0,0-.586-.27,1.432,1.432,0,0,0-.391-.051.627.627,0,0,0-.465.2.759.759,0,0,0-.191.555L33.063-9.82a2.22,2.22,0,0,1,.512-1.477,1.578,1.578,0,0,1,1.254-.609,1.614,1.614,0,0,1,.441.059,4.861,4.861,0,0,1,.676.285,4.392,4.392,0,0,0,.648.273,1.48,1.48,0,0,0,.375.047.659.659,0,0,0,.473-.191.728.728,0,0,0,.2-.551ZM40.992-4.3a5.013,5.013,0,0,1,.484-2.242A3.546,3.546,0,0,1,42.871-8.07a4.069,4.069,0,0,1,2.113-.539,3.849,3.849,0,0,1,2.793,1.047,4.2,4.2,0,0,1,1.207,2.844L49-4.141A4.418,4.418,0,0,1,47.914-1.02,3.775,3.775,0,0,1,45,.156a3.793,3.793,0,0,1-2.918-1.172A4.5,4.5,0,0,1,40.992-4.2Zm2.258.16A3.16,3.16,0,0,0,43.7-2.3a1.5,1.5,0,0,0,1.3.638,1.5,1.5,0,0,0,1.281-.63,3.457,3.457,0,0,0,.461-2.015,3.128,3.128,0,0,0-.461-1.831,1.5,1.5,0,0,0-1.3-.649,1.474,1.474,0,0,0-1.281.646A3.516,3.516,0,0,0,43.25-4.144Zm10.773-.145a5.094,5.094,0,0,1,.887-3.148,2.877,2.877,0,0,1,2.426-1.172,2.589,2.589,0,0,1,2.039.922V-12h2.266V0H59.6l-.109-.9A2.657,2.657,0,0,1,57.32.156,2.869,2.869,0,0,1,54.926-1.02,5.258,5.258,0,0,1,54.023-4.289Zm2.258.168A3.337,3.337,0,0,0,56.7-2.3a1.349,1.349,0,0,0,1.2.634,1.511,1.511,0,0,0,1.477-.884V-5.889a1.489,1.489,0,0,0-1.461-.884Q56.281-6.773,56.281-4.121Zm11,4.277A4.15,4.15,0,0,1,64.254-.984a4.054,4.054,0,0,1-1.168-3.039v-.219a5.106,5.106,0,0,1,.492-2.277,3.612,3.612,0,0,1,1.395-1.547,3.914,3.914,0,0,1,2.059-.543,3.508,3.508,0,0,1,2.73,1.094,4.444,4.444,0,0,1,1,3.1v.922H65.375a2.1,2.1,0,0,0,.66,1.328,2,2,0,0,0,1.395.5,2.437,2.437,0,0,0,2.039-.945l1.109,1.242A3.389,3.389,0,0,1,69.2-.246,4.511,4.511,0,0,1,67.281.156Zm-.258-6.945a1.411,1.411,0,0,0-1.09.455,2.357,2.357,0,0,0-.535,1.3h3.141v-.181a1.681,1.681,0,0,0-.406-1.165A1.456,1.456,0,0,0,67.023-6.789ZM2.984,10.747l.07.945a2.971,2.971,0,0,1,2.43-1.1A2.255,2.255,0,0,1,7.727,11.88a2.9,2.9,0,0,1,2.539-1.289,2.521,2.521,0,0,1,2.047.8,3.681,3.681,0,0,1,.672,2.41v5.4H10.719V13.809a1.61,1.61,0,0,0-.281-1.051,1.246,1.246,0,0,0-.992-.332,1.409,1.409,0,0,0-1.406.969l.008,5.8H5.789V13.817A1.59,1.59,0,0,0,5.5,12.755a1.259,1.259,0,0,0-.984-.328,1.463,1.463,0,0,0-1.391.8V19.2H.867V10.747ZM14.367,14.9a5.013,5.013,0,0,1,.484-2.242,3.546,3.546,0,0,1,1.395-1.523,4.069,4.069,0,0,1,2.113-.539,3.849,3.849,0,0,1,2.793,1.047,4.2,4.2,0,0,1,1.207,2.844l.016.578a4.418,4.418,0,0,1-1.086,3.121,3.775,3.775,0,0,1-2.914,1.176,3.793,3.793,0,0,1-2.918-1.172A4.5,4.5,0,0,1,14.367,15Zm2.258.16a3.16,3.16,0,0,0,.453,1.843,1.628,1.628,0,0,0,2.578.008,3.457,3.457,0,0,0,.461-2.015,3.128,3.128,0,0,0-.461-1.831,1.5,1.5,0,0,0-1.3-.649,1.474,1.474,0,0,0-1.281.646A3.516,3.516,0,0,0,16.625,15.056Zm10.188,1.387,1.57-5.7h2.359L27.891,19.2H25.734l-2.852-8.453h2.359Zm7.3,2.758H31.852V10.747h2.266Zm-2.4-10.641a1.112,1.112,0,0,1,.34-.836,1.465,1.465,0,0,1,1.848,0,1.193,1.193,0,0,1,0,1.68,1.448,1.448,0,0,1-1.836,0A1.108,1.108,0,0,1,31.719,8.559ZM38.359,19.2H36.094V7.2h2.266Zm4.242,0H40.336V10.747H42.6ZM40.2,8.559a1.112,1.112,0,0,1,.34-.836,1.465,1.465,0,0,1,1.848,0,1.193,1.193,0,0,1,0,1.68,1.448,1.448,0,0,1-1.836,0A1.108,1.108,0,0,1,40.2,8.559ZM49.359,19.2a2.507,2.507,0,0,1-.227-.758A2.732,2.732,0,0,1,47,19.356a3,3,0,0,1-2.059-.719,2.312,2.312,0,0,1-.816-1.812,2.389,2.389,0,0,1,1-2.062A4.915,4.915,0,0,1,48,14.036h1.039v-.484a1.393,1.393,0,0,0-.3-.937,1.183,1.183,0,0,0-.949-.352,1.345,1.345,0,0,0-.895.273.929.929,0,0,0-.324.75H44.313a2.268,2.268,0,0,1,.453-1.359,3,3,0,0,1,1.281-.98,4.669,4.669,0,0,1,1.859-.355,3.689,3.689,0,0,1,2.48.785,2.747,2.747,0,0,1,.918,2.207v3.664a4.041,4.041,0,0,0,.336,1.82V19.2Zm-1.867-1.57a1.945,1.945,0,0,0,.922-.223,1.462,1.462,0,0,0,.625-.6V15.356H48.2q-1.7,0-1.8,1.172l-.008.133a.9.9,0,0,0,.3.7A1.153,1.153,0,0,0,47.492,17.63Zm10.3-4.766a6.134,6.134,0,0,0-.812-.062,1.654,1.654,0,0,0-1.68.867V19.2H53.039V10.747h2.133l.063,1.008a2.092,2.092,0,0,1,1.883-1.164,2.366,2.366,0,0,1,.7.1ZM61.258,19.2H58.992V10.747h2.266Zm-2.4-10.641a1.112,1.112,0,0,1,.34-.836,1.465,1.465,0,0,1,1.848,0,1.193,1.193,0,0,1,0,1.68,1.448,1.448,0,0,1-1.836,0A1.108,1.108,0,0,1,58.859,8.559ZM62.766,14.9a5.013,5.013,0,0,1,.484-2.242,3.546,3.546,0,0,1,1.395-1.523,4.069,4.069,0,0,1,2.113-.539,3.849,3.849,0,0,1,2.793,1.047,4.2,4.2,0,0,1,1.207,2.844l.016.578a4.418,4.418,0,0,1-1.086,3.121,4.209,4.209,0,0,1-5.832,0A4.5,4.5,0,0,1,62.766,15Zm2.258.16a3.16,3.16,0,0,0,.453,1.843,1.628,1.628,0,0,0,2.578.008,3.457,3.457,0,0,0,.461-2.015,3.128,3.128,0,0,0-.461-1.831,1.5,1.5,0,0,0-1.3-.649,1.474,1.474,0,0,0-1.281.646A3.516,3.516,0,0,0,65.023,15.056Z" transform="translate(208.748 -1002.824)" fill="#12263f"/>
      </g>
      <g id="SECUNDARIO-3" data-name="SECUNDARIO" style="isolation: isolate">
        <path id="Path_156748" data-name="Path 156748" d="M1.016,0V-11.375h3.5A5.315,5.315,0,0,1,7.2-10.7,4.712,4.712,0,0,1,9.047-8.777a5.928,5.928,0,0,1,.664,2.832v.523A5.945,5.945,0,0,1,9.059-2.6,4.672,4.672,0,0,1,7.219-.687,5.355,5.355,0,0,1,4.539,0ZM3.359-9.477v7.594H4.492a2.545,2.545,0,0,0,2.1-.9,4.06,4.06,0,0,0,.742-2.57v-.6a4.124,4.124,0,0,0-.719-2.629,2.537,2.537,0,0,0-2.1-.895ZM13.648,0H11.383V-8.453h2.266Zm-2.4-10.641a1.112,1.112,0,0,1,.34-.836,1.277,1.277,0,0,1,.926-.328,1.28,1.28,0,0,1,.922.328,1.105,1.105,0,0,1,.344.836,1.108,1.108,0,0,1-.348.844,1.283,1.283,0,0,1-.918.328A1.283,1.283,0,0,1,11.6-9.8,1.108,1.108,0,0,1,11.25-10.641Zm8.836,8.3a.727.727,0,0,0-.41-.652,4.659,4.659,0,0,0-1.316-.426q-3.016-.633-3.016-2.562a2.323,2.323,0,0,1,.934-1.879,3.766,3.766,0,0,1,2.441-.754,4.053,4.053,0,0,1,2.574.758,2.388,2.388,0,0,1,.965,1.969H20a1.092,1.092,0,0,0-.312-.8A1.322,1.322,0,0,0,18.711-7a1.351,1.351,0,0,0-.883.258.814.814,0,0,0-.312.656.7.7,0,0,0,.355.605,3.657,3.657,0,0,0,1.2.4,9.8,9.8,0,0,1,1.422.379A2.336,2.336,0,0,1,22.281-2.43a2.2,2.2,0,0,1-.992,1.871,4.28,4.28,0,0,1-2.562.715A4.47,4.47,0,0,1,16.84-.223a3.166,3.166,0,0,1-1.293-1.039,2.414,2.414,0,0,1-.469-1.426h2.141a1.179,1.179,0,0,0,.445.922,1.766,1.766,0,0,0,1.109.32,1.635,1.635,0,0,0,.98-.246A.766.766,0,0,0,20.086-2.336ZM27.625.156A4.15,4.15,0,0,1,24.6-.984,4.054,4.054,0,0,1,23.43-4.023v-.219a5.106,5.106,0,0,1,.492-2.277,3.612,3.612,0,0,1,1.395-1.547,3.914,3.914,0,0,1,2.059-.543,3.508,3.508,0,0,1,2.73,1.094,4.444,4.444,0,0,1,1,3.1v.922H25.719a2.1,2.1,0,0,0,.66,1.328,2,2,0,0,0,1.395.5,2.437,2.437,0,0,0,2.039-.945l1.109,1.242A3.389,3.389,0,0,1,29.547-.246,4.511,4.511,0,0,1,27.625.156Zm-.258-6.945a1.411,1.411,0,0,0-1.09.455,2.357,2.357,0,0,0-.535,1.3h3.141v-.181a1.681,1.681,0,0,0-.406-1.165A1.456,1.456,0,0,0,27.367-6.789Zm7.094-1.664.07.977a2.951,2.951,0,0,1,2.43-1.133,2.453,2.453,0,0,1,2,.789,3.682,3.682,0,0,1,.672,2.359V0H37.375V-5.406a1.465,1.465,0,0,0-.312-1.043,1.4,1.4,0,0,0-1.039-.324,1.553,1.553,0,0,0-1.43.813V0H32.336V-8.453ZM38.945-11.9a2.187,2.187,0,0,1-.516,1.48,1.6,1.6,0,0,1-1.258.6,1.908,1.908,0,0,1-.527-.066,3.539,3.539,0,0,1-.637-.285,3.435,3.435,0,0,0-.586-.27,1.432,1.432,0,0,0-.391-.051.627.627,0,0,0-.465.2.759.759,0,0,0-.191.555L33.063-9.82a2.22,2.22,0,0,1,.512-1.477,1.578,1.578,0,0,1,1.254-.609,1.614,1.614,0,0,1,.441.059,4.861,4.861,0,0,1,.676.285,4.392,4.392,0,0,0,.648.273,1.48,1.48,0,0,0,.375.047.659.659,0,0,0,.473-.191.728.728,0,0,0,.2-.551ZM40.992-4.3a5.013,5.013,0,0,1,.484-2.242A3.546,3.546,0,0,1,42.871-8.07a4.069,4.069,0,0,1,2.113-.539,3.849,3.849,0,0,1,2.793,1.047,4.2,4.2,0,0,1,1.207,2.844L49-4.141A4.418,4.418,0,0,1,47.914-1.02,3.775,3.775,0,0,1,45,.156a3.793,3.793,0,0,1-2.918-1.172A4.5,4.5,0,0,1,40.992-4.2Zm2.258.16A3.16,3.16,0,0,0,43.7-2.3a1.5,1.5,0,0,0,1.3.638,1.5,1.5,0,0,0,1.281-.63,3.457,3.457,0,0,0,.461-2.015,3.128,3.128,0,0,0-.461-1.831,1.5,1.5,0,0,0-1.3-.649,1.474,1.474,0,0,0-1.281.646A3.516,3.516,0,0,0,43.25-4.144Zm10.773-.145a5.094,5.094,0,0,1,.887-3.148,2.877,2.877,0,0,1,2.426-1.172,2.589,2.589,0,0,1,2.039.922V-12h2.266V0H59.6l-.109-.9A2.657,2.657,0,0,1,57.32.156,2.869,2.869,0,0,1,54.926-1.02,5.258,5.258,0,0,1,54.023-4.289Zm2.258.168A3.337,3.337,0,0,0,56.7-2.3a1.349,1.349,0,0,0,1.2.634,1.511,1.511,0,0,0,1.477-.884V-5.889a1.489,1.489,0,0,0-1.461-.884Q56.281-6.773,56.281-4.121Zm11,4.277A4.15,4.15,0,0,1,64.254-.984a4.054,4.054,0,0,1-1.168-3.039v-.219a5.106,5.106,0,0,1,.492-2.277,3.612,3.612,0,0,1,1.395-1.547,3.914,3.914,0,0,1,2.059-.543,3.508,3.508,0,0,1,2.73,1.094,4.444,4.444,0,0,1,1,3.1v.922H65.375a2.1,2.1,0,0,0,.66,1.328,2,2,0,0,0,1.395.5,2.437,2.437,0,0,0,2.039-.945l1.109,1.242A3.389,3.389,0,0,1,69.2-.246,4.511,4.511,0,0,1,67.281.156Zm-.258-6.945a1.411,1.411,0,0,0-1.09.455,2.357,2.357,0,0,0-.535,1.3h3.141v-.181a1.681,1.681,0,0,0-.406-1.165A1.456,1.456,0,0,0,67.023-6.789ZM83.633-4.148a5.07,5.07,0,0,1-.887,3.129A2.843,2.843,0,0,1,80.352.156a2.633,2.633,0,0,1-2.07-.891V3.25H76.023v-11.7h2.094l.078.828a2.654,2.654,0,0,1,2.141-.984,2.862,2.862,0,0,1,2.43,1.156,5.207,5.207,0,0,1,.867,3.188Zm-2.258-.164a3.327,3.327,0,0,0-.418-1.82,1.361,1.361,0,0,0-1.215-.641,1.478,1.478,0,0,0-1.461.813V-2.5a1.5,1.5,0,0,0,1.477.836Q81.375-1.664,81.375-4.312ZM89.93,0A2.507,2.507,0,0,1,89.7-.758,2.732,2.732,0,0,1,87.57.156a3,3,0,0,1-2.059-.719A2.312,2.312,0,0,1,84.7-2.375a2.389,2.389,0,0,1,1-2.062,4.915,4.915,0,0,1,2.879-.727h1.039v-.484a1.393,1.393,0,0,0-.3-.937,1.183,1.183,0,0,0-.949-.352,1.345,1.345,0,0,0-.895.273.929.929,0,0,0-.324.75H84.883a2.268,2.268,0,0,1,.453-1.359,3,3,0,0,1,1.281-.98,4.669,4.669,0,0,1,1.859-.355,3.689,3.689,0,0,1,2.48.785,2.747,2.747,0,0,1,.918,2.207v3.664a4.041,4.041,0,0,0,.336,1.82V0ZM88.063-1.57a1.945,1.945,0,0,0,.922-.223,1.462,1.462,0,0,0,.625-.6V-3.844h-.844q-1.7,0-1.8,1.172l-.008.133a.9.9,0,0,0,.3.7A1.153,1.153,0,0,0,88.063-1.57Zm10.125-.766a.727.727,0,0,0-.41-.652,4.659,4.659,0,0,0-1.316-.426q-3.016-.633-3.016-2.562a2.323,2.323,0,0,1,.934-1.879,3.766,3.766,0,0,1,2.441-.754,4.053,4.053,0,0,1,2.574.758,2.388,2.388,0,0,1,.965,1.969H98.1a1.092,1.092,0,0,0-.312-.8A1.322,1.322,0,0,0,96.813-7a1.351,1.351,0,0,0-.883.258.814.814,0,0,0-.312.656.7.7,0,0,0,.355.605,3.657,3.657,0,0,0,1.2.4,9.8,9.8,0,0,1,1.422.379,2.336,2.336,0,0,1,1.789,2.273,2.2,2.2,0,0,1-.992,1.871,4.28,4.28,0,0,1-2.562.715,4.47,4.47,0,0,1-1.887-.379,3.166,3.166,0,0,1-1.293-1.039,2.414,2.414,0,0,1-.469-1.426H95.32a1.179,1.179,0,0,0,.445.922,1.766,1.766,0,0,0,1.109.32,1.635,1.635,0,0,0,.98-.246A.766.766,0,0,0,98.188-2.336ZM104.219,0h-2.266V-8.453h2.266Zm-2.4-10.641a1.112,1.112,0,0,1,.34-.836,1.277,1.277,0,0,1,.926-.328,1.28,1.28,0,0,1,.922.328,1.105,1.105,0,0,1,.344.836A1.108,1.108,0,0,1,104-9.8a1.283,1.283,0,0,1-.918.328,1.283,1.283,0,0,1-.918-.328A1.108,1.108,0,0,1,101.82-10.641ZM108.461,0H106.2V-12h2.266ZM112.7,0h-2.266V-12H112.7Zm1.508-4.3a5.013,5.013,0,0,1,.484-2.242A3.546,3.546,0,0,1,116.09-8.07a4.069,4.069,0,0,1,2.113-.539A3.849,3.849,0,0,1,121-7.562,4.2,4.2,0,0,1,122.2-4.719l.016.578a4.418,4.418,0,0,1-1.086,3.121A3.775,3.775,0,0,1,118.219.156,3.793,3.793,0,0,1,115.3-1.016a4.5,4.5,0,0,1-1.09-3.187Zm2.258.16a3.16,3.16,0,0,0,.453,1.843,1.5,1.5,0,0,0,1.3.638,1.5,1.5,0,0,0,1.281-.63,3.457,3.457,0,0,0,.461-2.015A3.128,3.128,0,0,0,119.5-6.14a1.5,1.5,0,0,0-1.3-.649,1.474,1.474,0,0,0-1.281.646A3.516,3.516,0,0,0,116.469-4.144Z" transform="translate(-27.369 -846.824)" fill="#12263f"/>
      </g>
      <path id="Line_165" data-name="Line 165" d="M85,.8H0V-.8H85Z" transform="translate(-93.274 -1058.5)" fill="#5c22c3"/>
      <path id="Line_166" data-name="Line 166" d="M.8,35H-.8V0H.8Z" transform="translate(-113.033 -1044.094)" fill="#5c22c3"/>
      <path id="Line_167" data-name="Line 167" d="M.8,35H-.8V0H.8Z" transform="translate(-113.274 -911.094)" fill="#5c22c3"/>
      <path id="Line_168" data-name="Line 168" d="M.8,57H-.8V0H.8Z" transform="translate(31.726 -936.094)" fill="#5c22c3"/>
      <path id="Line_169" data-name="Line 169" d="M85,.8H0V-.8H85Z" transform="translate(83.726 -1058.094)" fill="#5c22c3"/>
      <path id="Path_156744" data-name="Path 156744" d="M31.784-872.516l5.942-12.578H25.843Z" fill="#5c22c3"/>
      <path id="Line_170" data-name="Line 170" d="M15.27.8H0V-.8H15.27Z" transform="translate(179.726 -999.246)" fill="#5c22c3"/>
      <path id="Path_156745" data-name="Path 156745" d="M201.573-999.3,189-1005.246v11.883Z" fill="#5c22c3"/>
    </g>
  </g>
</svg>
