<svg xmlns="http://www.w3.org/2000/svg" width="47.627" height="50.75" viewBox="0 0 47.627 50.75">
  <g id="t1-t2" transform="translate(-15.62 0.375)">
    <path id="Path_156439" data-name="Path 156439" d="M39.3,0h.243c.137.05.272.1.405.166q11.2,5.408,22.4,10.813a.787.787,0,0,1,.516.74q.009,13.235,0,26.468a.793.793,0,0,1-.461.8q-9.186,4.443-18.378,8.874c-1.494.705-2.964,1.462-4.472,2.136H39.32c-1.269-.559-2.5-1.2-3.755-1.789Q26.01,43.6,16.453,38.983A.782.782,0,0,1,16,38.189Q16,25,16,11.807a.8.8,0,0,1,.522-.826C24.118,7.328,31.7,3.635,39.3,0m-5.94,4.477c7,3.388,14.014,6.75,21.006,10.152q3.041-1.465,6.078-2.936-10.5-5.087-21.01-10.147Q36.4,3.012,33.362,4.477M27.418,7.388Q37.912,12.44,48.4,17.512,50.5,16.5,52.607,15.477l-.008-.084Q42.156,10.345,31.707,5.306c-1.429.7-2.86,1.387-4.289,2.082m-8.985,4.29c.672.367,1.376.672,2.06,1.015Q27.344,16,34.2,19.308a.751.751,0,0,1,.46.9.739.739,0,0,1-1.041.442Q25.538,16.76,17.465,12.86q0,12.5,0,24.991Q28.088,42.967,38.7,48.1q0-12.494,0-24.986c-.634-.317-1.278-.616-1.915-.929a.731.731,0,1,1,.627-1.319c.676.317,1.346.648,2.019.973q2.559-1.232,5.116-2.469a.734.734,0,1,1,.64,1.317q-2.511,1.213-5.022,2.426,0,12.494,0,24.987Q50.785,42.989,61.4,37.859c.019-8.332,0-16.665.008-25q-3.378,1.63-6.755,3.263,0,4.393,0,8.787a.779.779,0,0,1-.5.747q-2.67,1.288-5.339,2.575a.739.739,0,0,1-1.1-.6c-.017-2.943,0-5.887-.009-8.831Q36.7,13.489,25.688,8.18q-3.624,1.758-7.256,3.5m30.736,7.088q0,3.833,0,7.668c1.342-.639,2.678-1.29,4.015-1.937V16.828Q51.178,17.8,49.169,18.766Z" fill="#6e3dc6"/>
    <path id="Path_156439_-_Outline" data-name="Path 156439 - Outline" d="M39.217-.375h.394l.062.023c.158.057.3.116.435.178l.005,0Q51.307,5.234,62.5,10.637a1.156,1.156,0,0,1,.738,1.091c0,4.776,0,9.631,0,14.327,0,3.972,0,8.078,0,12.118a1.172,1.172,0,0,1-.681,1.159c-3.738,1.808-7.539,3.642-11.216,5.417L44.193,48.2c-.577.272-1.157.556-1.718.83-.9.44-1.831.894-2.763,1.311l-.073.033h-.4l-.072-.032c-.792-.349-1.58-.734-2.343-1.107-.465-.227-.946-.463-1.421-.686l-8.195-3.956L16.3,39.326a1.161,1.161,0,0,1-.676-1.149q0-8.788,0-17.576V11.822a1.17,1.17,0,0,1,.751-1.188c3.106-1.493,6.262-3.019,9.313-4.494C30.094,4.01,34.65,1.808,39.141-.338Zm.261.75h-.091C34.923,2.509,30.395,4.7,26.014,6.816c-3.057,1.478-6.218,3.006-9.331,4.5l-.037.015a.426.426,0,0,0-.274.438l0,.035V20.6q0,8.794,0,17.589v.028a.415.415,0,0,0,.22.418l.024.01,10.921,5.273,8.191,3.955c.476.224.96.461,1.428.689.732.358,1.489.728,2.243,1.063h.079c.9-.4,1.8-.842,2.667-1.267.564-.275,1.146-.56,1.724-.833l7.151-3.452C54.7,42.3,58.5,40.462,62.245,38.653l.018-.008a.421.421,0,0,0,.233-.424v-.033c0-4.044,0-8.157,0-12.133,0-4.7,0-9.556,0-14.334V11.7a.418.418,0,0,0-.281-.375l-.023-.01q-11.2-5.4-22.4-10.812C39.694.46,39.591.417,39.478.375Zm-.042.754.163.079,6.336,3.057c4.811,2.321,9.786,4.721,14.675,7.09l.7.337-.695.338c-1.837.893-3.707,1.794-5.516,2.665l-.726.35-.163-.079c-4.311-2.1-8.7-4.215-12.948-6.262-2.641-1.274-5.372-2.59-8.057-3.89l-.7-.339.7-.337c1.469-.7,2.96-1.425,4.4-2.122l1.672-.808Zm20.15,10.564c-4.664-2.259-9.4-4.542-13.978-6.752L39.436,1.962l-1.509.729c-1.213.587-2.461,1.19-3.7,1.786,2.457,1.188,4.944,2.387,7.356,3.55,4.193,2.022,8.528,4.112,12.787,6.184l.4-.192C56.349,13.259,57.976,12.475,59.587,11.694Zm-27.881-6.8.164.079c7.219,3.482,14.249,6.875,20.893,10.087l.191.092.051.552-.234.114c-1.338.653-2.7,1.309-4.019,1.943l-.356.171-.163-.079-6.845-3.3c-4.631-2.237-9.42-4.55-14.134-6.819l-.7-.336.7-.339,1.891-.917c.786-.381,1.6-.775,2.4-1.165ZM51.831,15.438c-6.415-3.1-13.18-6.367-20.123-9.715-.747.364-1.5.731-2.237,1.086l-1.192.578c4.487,2.161,9.033,4.357,13.436,6.483L48.4,17.1l.031-.015C49.544,16.543,50.693,15.99,51.831,15.438ZM25.688,7.763l.163.079c5.714,2.751,11.519,5.556,17.134,8.267l4.88,2.357.211.1V18.8c0,1.309,0,2.64,0,3.926,0,1.607,0,3.27.007,4.9a.287.287,0,0,0,.088.206.417.417,0,0,0,.285.12.293.293,0,0,0,.157-.043l.036-.02c1.135-.545,2.288-1.1,3.4-1.641l1.935-.934.021-.009a.4.4,0,0,0,.262-.376v-.024q0-3.292,0-6.585V15.89l.211-.1c1.606-.78,3.241-1.569,4.823-2.331l1.933-.932.538-.26v.6c0,3.248,0,6.551,0,9.745,0,5,0,10.169-.008,15.253V38.1l-.212.1C57.8,40,53.987,41.846,50.3,43.628c-3.266,1.578-6.644,3.209-9.969,4.81l-.537.259v-.6q0-6.73,0-13.459,0-5.764,0-11.528v-.236l.212-.1q1.741-.839,3.482-1.681l1.564-.755a.365.365,0,0,0,.2-.222.327.327,0,0,0-.017-.271l-.01-.018a.358.358,0,0,0-.318-.177.334.334,0,0,0-.167.043l-.025.013-2.558,1.234-2.559,1.235-.163.078-.163-.078L38.6,21.85c-.439-.214-.894-.434-1.342-.645l-.018-.009a.3.3,0,0,0-.144-.034.357.357,0,0,0-.326.2l-.01.022a.324.324,0,0,0-.007.257.35.35,0,0,0,.183.2l.02.009c.268.132.543.263.809.391.364.175.741.355,1.109.539l.207.1v.232c0,4.41,0,8.894,0,13.23q0,5.878,0,11.756v.6l-.558-.27C31.566,45.069,24.378,41.6,17.3,38.189l-.212-.1v-.235c-.006-6.017,0-12.135,0-18.051q0-3.47,0-6.941v-.6l.538.259c3.2,1.538,6.447,3.108,9.589,4.626q3.28,1.584,6.56,3.167l.02.01a.289.289,0,0,0,.142.035.367.367,0,0,0,.353-.243l.007-.023a.377.377,0,0,0-.238-.437l-.029-.012c-4.578-2.213-9.217-4.451-13.7-6.615l-.005,0c-.257-.129-.522-.255-.779-.377-.426-.2-.866-.411-1.292-.644l-.644-.352.662-.316c2.348-1.119,4.674-2.246,7.254-3.5ZM47.327,19.039l-4.668-2.255C37.1,14.1,31.349,11.322,25.689,8.6c-2.267,1.1-4.341,2.1-6.412,3.094.2.1.395.19.59.283.26.123.529.251.792.383,4.481,2.162,9.115,4.4,13.688,6.608a1.11,1.11,0,0,1-.406,2.147,1.045,1.045,0,0,1-.5-.124q-3.277-1.58-6.552-3.163c-2.966-1.433-6.027-2.912-9.051-4.367q0,3.172,0,6.344c0,5.839,0,11.874,0,17.815,6.829,3.29,13.763,6.639,20.483,9.886q0-5.579,0-11.158c0-4.26,0-8.663,0-13-.3-.146-.6-.29-.89-.431-.264-.127-.538-.258-.806-.389a1.1,1.1,0,0,1-.586-.634,1.076,1.076,0,0,1,.039-.845,1.111,1.111,0,0,1,1.009-.636,1.058,1.058,0,0,1,.489.119c.45.212.9.432,1.343.645l.508.247,2.395-1.156,2.547-1.229A1.086,1.086,0,0,1,44.9,18.9a1.11,1.11,0,0,1,.98.575,1.076,1.076,0,0,1,.074.884,1.109,1.109,0,0,1-.617.67l-1.53.739q-1.635.79-3.27,1.579,0,5.646,0,11.293,0,6.431,0,12.863c3.15-1.517,6.34-3.058,9.43-4.55,3.62-1.749,7.362-3.556,11.049-5.329.011-5.007.009-10.094.007-15.016,0-3,0-6.093,0-9.148l-1.4.673c-1.512.729-3.072,1.481-4.609,2.227v1.967q0,3.287,0,6.575a1.158,1.158,0,0,1-.717,1.1l-1.925.929c-1.11.536-2.258,1.091-3.389,1.634a1.047,1.047,0,0,1-.534.144,1.16,1.16,0,0,1-.817-.341,1.03,1.03,0,0,1-.307-.735c-.009-1.632-.008-3.3-.007-4.9C47.329,21.519,47.33,20.271,47.327,19.039Zm6.232-2.81v8.5l-.212.1-1.026.5c-.979.474-1.991.965-2.991,1.441l-.536.255v-.594q0-3.835,0-7.668V18.53l.213-.1c1.164-.559,2.44-1.175,4.014-1.937Zm-.75,8.032V17.426c-1.241.6-2.294,1.109-3.265,1.575q0,3.418,0,6.838c.822-.393,1.647-.793,2.45-1.183Z" fill="#6e3dc6"/>
    <path id="Path_156440" data-name="Path 156440" d="M48.593,305.773a.8.8,0,0,1,.741.056c2.082,1.009,4.17,2,6.249,3.019a.732.732,0,1,1-.63,1.319q-3.193-1.538-6.383-3.085A.733.733,0,0,1,48.593,305.773Z" transform="translate(-29.04 -275.85)" fill="#6e3dc6"/>
    <path id="Path_156440_-_Outline" data-name="Path 156440 - Outline" d="M48.883,305.329a1.335,1.335,0,0,1,.621.165c.863.418,1.741.841,2.59,1.249,1.2.575,2.431,1.17,3.644,1.762a1.107,1.107,0,0,1,.592.631,1.085,1.085,0,0,1-.03.85,1.117,1.117,0,0,1-1.015.639,1.059,1.059,0,0,1-.5-.126c-2.042-.983-4.214-2.031-6.369-3.078a1.05,1.05,0,0,1-.609-1,1.077,1.077,0,0,1,.631-.991A.994.994,0,0,1,48.883,305.329Zm6.4,4.547a.367.367,0,0,0,.331-.2l.008-.016a.333.333,0,0,0,0-.263.359.359,0,0,0-.189-.207l-.021-.009c-1.214-.592-2.452-1.188-3.65-1.765-.852-.41-1.733-.834-2.6-1.254l-.014-.007a.442.442,0,0,0-.39-.053l-.032.015a.329.329,0,0,0-.181.312.318.318,0,0,0,.167.305l.014.006c2.159,1.05,4.336,2.1,6.382,3.084l.02.01A.306.306,0,0,0,55.285,309.876Z" transform="translate(-29.04 -275.85)" fill="#6e3dc6"/>
    <path id="Path_156441" data-name="Path 156441" d="M48.649,341.3a.79.79,0,0,1,.609.08c1.074.521,2.152,1.034,3.225,1.559a.731.731,0,1,1-.643,1.313c-1.114-.537-2.232-1.069-3.342-1.618A.734.734,0,0,1,48.649,341.3Z" transform="translate(-29.001 -307.939)" fill="#6e3dc6"/>
    <path id="Path_156441_-_Outline" data-name="Path 156441 - Outline" d="M48.844,340.891a1.291,1.291,0,0,1,.582.151l1.258.607c.641.309,1.3.628,1.955.946a1.113,1.113,0,0,1,.5,1.58,1.114,1.114,0,0,1-.96.535,1.074,1.074,0,0,1-.511-.128l-.81-.39c-.829-.4-1.687-.811-2.526-1.226a1.108,1.108,0,0,1,.212-2.029A.971.971,0,0,1,48.844,340.891Zm3.336,3.069a.371.371,0,0,0,.316-.169l.007-.011a.334.334,0,0,0,.026-.279.346.346,0,0,0-.187-.218l-.022-.01c-.652-.319-1.317-.639-1.961-.949l-1.263-.609-.006,0a.436.436,0,0,0-.317-.06l-.034.01a.325.325,0,0,0-.224.3.318.318,0,0,0,.151.333c.837.414,1.693.825,2.52,1.223l.82.394.02.01A.322.322,0,0,0,52.18,343.96Z" transform="translate(-29.001 -307.939)" fill="#6e3dc6"/>
  </g>
</svg>
