<svg xmlns="http://www.w3.org/2000/svg" xmlns:xlink="http://www.w3.org/1999/xlink" width="337.2" height="335.719" viewBox="0 0 337.2 335.719">
  <defs>
    <filter id="Path_156895" x="0" y="181.563" width="154.157" height="154.156" filterUnits="userSpaceOnUse">
      <feOffset dy="3" input="SourceAlpha"/>
      <feGaussianBlur stdDeviation="3" result="blur"/>
      <feFlood flood-opacity="0.161"/>
      <feComposite operator="in" in2="blur"/>
      <feComposite in="SourceGraphic"/>
    </filter>
    <filter id="Path_156894" x="183.043" y="181.563" width="154.157" height="154.156" filterUnits="userSpaceOnUse">
      <feOffset dy="3" input="SourceAlpha"/>
      <feGaussianBlur stdDeviation="3" result="blur-2"/>
      <feFlood flood-opacity="0.161"/>
      <feComposite operator="in" in2="blur-2"/>
      <feComposite in="SourceGraphic"/>
    </filter>
    <filter id="Ellipse_4762" x="183.043" y="0" width="154.157" height="154.156" filterUnits="userSpaceOnUse">
      <feOffset dy="3" input="SourceAlpha"/>
      <feGaussianBlur stdDeviation="3" result="blur-3"/>
      <feFlood flood-opacity="0.161"/>
      <feComposite operator="in" in2="blur-3"/>
      <feComposite in="SourceGraphic"/>
    </filter>
    <filter id="Path_156896" x="0" y="0" width="154.157" height="154.156" filterUnits="userSpaceOnUse">
      <feOffset dy="3" input="SourceAlpha"/>
      <feGaussianBlur stdDeviation="3" result="blur-4"/>
      <feFlood flood-opacity="0.161"/>
      <feComposite operator="in" in2="blur-4"/>
      <feComposite in="SourceGraphic"/>
    </filter>
  </defs>
  <g id="t2-b1" transform="translate(-1785.269 -1886.48)">
    <g transform="matrix(1, 0, 0, 1, 1785.27, 1886.48)" filter="url(#Path_156895)">
      <path id="Path_156895-2" data-name="Path 156895" d="M68.079,0A68.079,68.079,0,1,1,0,68.079,68.079,68.079,0,0,1,68.079,0Z" transform="translate(9 187.56)" fill="#fff"/>
    </g>
    <g transform="matrix(1, 0, 0, 1, 1785.27, 1886.48)" filter="url(#Path_156894)">
      <path id="Path_156894-2" data-name="Path 156894" d="M68.079,0A68.079,68.079,0,1,1,0,68.079,68.079,68.079,0,0,1,68.079,0Z" transform="translate(192.04 187.56)" fill="#fff"/>
    </g>
    <g transform="matrix(1, 0, 0, 1, 1785.27, 1886.48)" filter="url(#Ellipse_4762)">
      <circle id="Ellipse_4762-2" data-name="Ellipse 4762" cx="68.079" cy="68.079" r="68.079" transform="translate(192.04 6)" fill="#fff"/>
    </g>
    <g transform="matrix(1, 0, 0, 1, 1785.27, 1886.48)" filter="url(#Path_156896)">
      <path id="Path_156896-2" data-name="Path 156896" d="M68.079,0A68.079,68.079,0,1,1,0,68.079,68.079,68.079,0,0,1,68.079,0Z" transform="translate(9 6)" fill="#fff"/>
    </g>
    <g id="Group_108185" data-name="Group 108185" transform="translate(1838.771 1918.301)">
      <g id="Group_108184" data-name="Group 108184">
        <path id="Path_156870" data-name="Path 156870" d="M1858.366,1937.868a4.113,4.113,0,0,1,3.154,1.43,4.562,4.562,0,0,1,1.049,3.121V1963.8c0,.56-.016,1.1.69,1.456a1.135,1.135,0,0,0,1.552-1.045V1934.8a4.287,4.287,0,0,1,2.7-3.951,4.108,4.108,0,0,1,5.548,3.844v29.9c1.077,1.405,2.589.576,2.589-.549v-32.5a4.286,4.286,0,0,1,2.7-3.951,4.108,4.108,0,0,1,5.548,3.844v33.16c1.076,1.405,2.588.576,2.588-.549v-28.8a4.286,4.286,0,0,1,2.7-3.951,4.108,4.108,0,0,1,5.549,3.844v42.1l5.966-12.317c1.539-3.178,6.979-7.537,10.311-5.934h0a2.846,2.846,0,0,1,1.415,3.773l-13.185,27.222-1.858,3.43a26.648,26.648,0,0,1-5.524,7.042h0c-.2.17-.406.34-.615.5a25.682,25.682,0,0,1-2.557,1.734h0q-.382.23-.768.452c-.461.265-.923.529-1.373.812a17.545,17.545,0,0,1-2.632,1.358l-.014.007h0a17.528,17.528,0,0,1-6.7,1.322h0a22.837,22.837,0,0,1-22.875-22.8v-41.861A4.117,4.117,0,0,1,1858.366,1937.868Z" transform="translate(-1854.321 -1927.323)"/>
      </g>
    </g>
    <path id="Path_156871" data-name="Path 156871" d="M1922.631,1937.211a64,64,0,1,0,5.017,24.84A63.578,63.578,0,0,0,1922.631,1937.211Zm-58.793,76.893a52.033,52.033,0,0,1-43.841-80.09l71.877,71.877A51.746,51.746,0,0,1,1863.838,2014.1Zm38.8-17.4-73.46-73.459a52.024,52.024,0,0,1,73.46,73.459Z" transform="translate(-1.491 -1.491)" fill="#f50000"/>
    <g id="Group_108187" data-name="Group 108187" transform="translate(2021.616 1917.578)">
      <g id="Group_108186" data-name="Group 108186" transform="translate(3.084)">
        <path id="Path_156872" data-name="Path 156872" d="M2138.323,1940.746a7.2,7.2,0,1,0-7.2-7.2A7.213,7.213,0,0,0,2138.323,1940.746Z" transform="translate(-2111.924 -1926.347)" fill-rule="evenodd"/>
        <path id="Path_156873" data-name="Path 156873" d="M2130.138,1981.867v32.757a3.37,3.37,0,0,1-3.358,3.361h0a3.371,3.371,0,0,1-3.361-3.361v-32.769a2.443,2.443,0,0,1-2.2-2.422v-20.547l-11.2,17a2.625,2.625,0,0,1-3.627.745h0a2.626,2.626,0,0,1-.746-3.628l15.446-23.433a2.618,2.618,0,0,1,1.65-1.12,2.427,2.427,0,0,1,.917-.18h15.913a2.319,2.319,0,0,1,.269.016,2.626,2.626,0,0,1,2.909,1.953l6.852,27.217a2.629,2.629,0,0,1-1.9,3.181h0a2.628,2.628,0,0,1-3.179-1.9l-2.517-10v10.7a2.44,2.44,0,0,1-2.433,2.434h-.1v32.757a3.37,3.37,0,0,1-3.36,3.361h0a3.37,3.37,0,0,1-3.359-3.361v-32.757Z" transform="translate(-2105.215 -1932.02)" fill-rule="evenodd"/>
      </g>
      <rect id="Rectangle_37309" data-name="Rectangle 37309" width="11.039" height="8.639" transform="translate(0 55.402) rotate(-10.424)"/>
      <rect id="Rectangle_37310" data-name="Rectangle 37310" width="6.32" height="4.947" transform="matrix(0.751, -0.661, 0.661, 0.751, 0.839, 79.122)"/>
    </g>
    <g id="Group_108188" data-name="Group 108188" transform="translate(2012.883 2097.625)">
      <path id="Path_156874" data-name="Path 156874" d="M2114.775,2169.311a81.237,81.237,0,0,1,36.081,10.12c2.225,1.2,3.926,3.083,3.294,5.332l-19.774,70.506a4.454,4.454,0,0,1-5.587,2.843l-36.081-10.119a4.454,4.454,0,0,1-3.294-5.334l19.774-70.5C2109.819,2169.9,2112.253,2169.225,2114.775,2169.311Z" transform="translate(-2089.269 -2169.303)" fill-rule="evenodd"/>
      <path id="Path_156875" data-name="Path 156875" d="M2111.523,2226.526l6.509,1.825a1.289,1.289,0,0,1,1.078,1.419l-.858,3.055a1.288,1.288,0,0,1-1.657.652l-6.51-1.827c-.752-.211-1.237-.849-1.078-1.418l.858-3.056A1.287,1.287,0,0,1,2111.523,2226.526Z" transform="translate(-2094.372 -2184.103)" fill="#fefefe" fill-rule="evenodd"/>
      <path id="Path_156876" data-name="Path 156876" d="M2127.046,2230.88l6.509,1.826a1.289,1.289,0,0,1,1.079,1.417l-.857,3.057a1.289,1.289,0,0,1-1.658.651l-6.51-1.825a1.288,1.288,0,0,1-1.078-1.418l.858-3.056A1.286,1.286,0,0,1,2127.046,2230.88Z" transform="translate(-2098.391 -2185.23)" fill="#fefefe" fill-rule="evenodd"/>
      <path id="Path_156877" data-name="Path 156877" d="M2142.567,2235.234l6.51,1.825a1.289,1.289,0,0,1,1.078,1.418l-.857,3.056a1.289,1.289,0,0,1-1.658.651l-6.51-1.827a1.288,1.288,0,0,1-1.077-1.418l.857-3.055A1.287,1.287,0,0,1,2142.567,2235.234Z" transform="translate(-2102.411 -2186.357)" fill="#fefefe" fill-rule="evenodd"/>
      <path id="Path_156878" data-name="Path 156878" d="M2108.2,2238.383l6.509,1.826c.753.211,1.238.849,1.077,1.418l-.856,3.056a1.292,1.292,0,0,1-1.659.653l-6.51-1.827c-.751-.211-1.237-.849-1.077-1.419l.856-3.056A1.29,1.29,0,0,1,2108.2,2238.383Z" transform="translate(-2093.511 -2187.173)" fill="#fefefe" fill-rule="evenodd"/>
      <path id="Path_156879" data-name="Path 156879" d="M2123.72,2242.738l6.509,1.825c.751.21,1.238.85,1.077,1.418l-.857,3.055a1.287,1.287,0,0,1-1.657.653l-6.51-1.825c-.753-.211-1.238-.851-1.077-1.42l.857-3.055A1.289,1.289,0,0,1,2123.72,2242.738Z" transform="translate(-2097.53 -2188.301)" fill="#fefefe" fill-rule="evenodd"/>
      <path id="Path_156880" data-name="Path 156880" d="M2139.242,2247.09l6.509,1.826c.753.211,1.238.85,1.078,1.419l-.857,3.056a1.29,1.29,0,0,1-1.658.652l-6.51-1.827a1.288,1.288,0,0,1-1.077-1.419l.857-3.055A1.287,1.287,0,0,1,2139.242,2247.09Z" transform="translate(-2101.549 -2189.427)" fill="#fefefe" fill-rule="evenodd"/>
      <path id="Path_156881" data-name="Path 156881" d="M2104.87,2250.243l6.511,1.824a1.291,1.291,0,0,1,1.077,1.421l-.857,3.054a1.289,1.289,0,0,1-1.658.651l-6.509-1.825a1.29,1.29,0,0,1-1.078-1.418l.857-3.055A1.287,1.287,0,0,1,2104.87,2250.243Z" transform="translate(-2092.65 -2190.244)" fill="#fefefe" fill-rule="evenodd"/>
      <path id="Path_156882" data-name="Path 156882" d="M2120.393,2254.6l6.511,1.825c.751.211,1.236.848,1.076,1.418l-.856,3.057a1.29,1.29,0,0,1-1.658.651l-6.509-1.827a1.287,1.287,0,0,1-1.078-1.418l.858-3.054A1.283,1.283,0,0,1,2120.393,2254.6Z" transform="translate(-2096.669 -2191.371)" fill="#fefefe" fill-rule="evenodd"/>
      <path id="Path_156883" data-name="Path 156883" d="M2135.916,2258.949l6.509,1.826c.752.211,1.238.85,1.079,1.418l-.857,3.056a1.289,1.289,0,0,1-1.659.65l-6.509-1.825a1.288,1.288,0,0,1-1.077-1.417l.857-3.056A1.287,1.287,0,0,1,2135.916,2258.949Z" transform="translate(-2100.688 -2192.498)" fill="#fefefe" fill-rule="evenodd"/>
      <path id="Path_156884" data-name="Path 156884" d="M2101.546,2262.1l6.509,1.826a1.289,1.289,0,0,1,1.077,1.418l-.857,3.055a1.287,1.287,0,0,1-1.657.652l-6.51-1.827a1.287,1.287,0,0,1-1.078-1.417l.857-3.056A1.291,1.291,0,0,1,2101.546,2262.1Z" transform="translate(-2091.789 -2193.314)" fill="#fefefe" fill-rule="evenodd"/>
      <path id="Path_156885" data-name="Path 156885" d="M2117.069,2266.453l6.509,1.826a1.288,1.288,0,0,1,1.077,1.419l-.857,3.056a1.289,1.289,0,0,1-1.658.652l-6.509-1.827c-.752-.212-1.238-.848-1.078-1.419l.857-3.055A1.291,1.291,0,0,1,2117.069,2266.453Z" transform="translate(-2095.808 -2194.441)" fill="#fefefe" fill-rule="evenodd"/>
      <path id="Path_156886" data-name="Path 156886" d="M2132.591,2270.807l6.509,1.825c.751.211,1.238.85,1.078,1.418l-.857,3.056a1.288,1.288,0,0,1-1.658.651l-6.509-1.825a1.29,1.29,0,0,1-1.078-1.42l.857-3.055A1.287,1.287,0,0,1,2132.591,2270.807Z" transform="translate(-2099.827 -2195.568)" fill="#fefefe" fill-rule="evenodd"/>
      <path id="Path_156887" data-name="Path 156887" d="M2124.446,2177.327l26.294,7.373a3.372,3.372,0,0,1,2.327,4.144l-7.481,26.677a3.369,3.369,0,0,1-4.143,2.327l-26.292-7.374a3.371,3.371,0,0,1-2.328-4.143l7.483-26.677A3.367,3.367,0,0,1,2124.446,2177.327Z" transform="translate(-2095.335 -2171.349)" fill="#fefefe" fill-rule="evenodd"/>
      <path id="Path_156888" data-name="Path 156888" d="M2142.975,2175.239l6.784,1.9a.832.832,0,0,1,.576,1.024h0a.832.832,0,0,1-1.023.576l-6.785-1.9a.833.833,0,0,1-.575-1.024h0A.832.832,0,0,1,2142.975,2175.239Z" transform="translate(-2102.902 -2170.833)" fill="#fefefe" fill-rule="evenodd"/>
    </g>
    <g id="Group_108189" data-name="Group 108189" transform="translate(1822.159 2113.34)">
      <rect id="Rectangle_37311" data-name="Rectangle 37311" width="68.604" height="11.161" transform="translate(11.773 38.99)"/>
      <rect id="Rectangle_37312" data-name="Rectangle 37312" width="3.283" height="11.161" transform="translate(6.521 38.99)"/>
      <rect id="Rectangle_37313" data-name="Rectangle 37313" width="3.282" height="11.161" transform="translate(0 38.99)"/>
      <path id="Path_156889" data-name="Path 156889" d="M1840.784,2227.4c.058-13.385,12.1-15.677,21.1-17.39,1.332-.252,2.591-.494,3.767-.768l1.192-.277h0c9.713-2.257,16.492-3.836,16.5-18.375h3.152c-.015,17.05-7.793,18.859-18.937,21.452h-.005l-1.186.276c-1.15.269-2.487.525-3.9.794-7.911,1.507-18.486,3.519-18.534,14.3Z" transform="translate(-1834.203 -2190.53)" fill-rule="evenodd"/>
      <path id="Path_156890" data-name="Path 156890" d="M1832.052,2227.379a19.884,19.884,0,0,1,7.759-16.253c4.311-3.424,9.652-5.239,13.986-6.258l1.549-.357c8.828-2.043,16.8-3.887,16.867-14l3.151.012c-.089,12.617-9.21,14.728-19.314,17.065-.3.07-.613.141-1.536.359-3.99.937-8.882,2.587-12.738,5.651a16.868,16.868,0,0,0-6.574,13.8Z" transform="translate(-1831.942 -2190.51)" fill-rule="evenodd"/>
    </g>
    <path id="Path_156891" data-name="Path 156891" d="M2169.631,1937.211a64,64,0,1,0,5.017,24.84A63.574,63.574,0,0,0,2169.631,1937.211Zm-58.793,76.893a52.033,52.033,0,0,1-43.841-80.09l71.877,71.877A51.746,51.746,0,0,1,2110.838,2014.1Zm38.8-17.4-73.46-73.459a52.024,52.024,0,0,1,73.46,73.459Z" transform="translate(-65.448 -1.491)" fill="#f50000"/>
    <path id="Path_156892" data-name="Path 156892" d="M1922.631,2182.211a64,64,0,1,0,5.017,24.84A63.58,63.58,0,0,0,1922.631,2182.211Zm-58.793,76.893a52.033,52.033,0,0,1-43.841-80.09l71.877,71.878A51.747,51.747,0,0,1,1863.838,2259.1Zm38.8-17.4-73.46-73.459a52.024,52.024,0,0,1,73.46,73.459Z" transform="translate(-1.491 -64.93)" fill="#f50000"/>
    <path id="Path_156893" data-name="Path 156893" d="M2169.631,2182.211a64,64,0,1,0,5.017,24.84A63.576,63.576,0,0,0,2169.631,2182.211Zm-58.793,76.893a52.033,52.033,0,0,1-43.841-80.09l71.877,71.878A51.747,51.747,0,0,1,2110.838,2259.1Zm38.8-17.4-73.46-73.459a52.024,52.024,0,0,1,73.46,73.459Z" transform="translate(-65.448 -64.93)" fill="#f50000"/>
  </g>
</svg>
