<svg xmlns="http://www.w3.org/2000/svg" width="400" height="250" viewBox="0 0 400 250">
  <g id="t2-ch1" transform="translate(4694 6340)">
    <rect id="Rectangle_36530" data-name="Rectangle 36530" width="400" height="250" rx="30" transform="translate(-4694 -6340)" fill="#6e3dc6"/>
    <path id="Rectangle_36530_-_Outline" data-name="Rectangle 36530 - Outline" d="M30,3A26.975,26.975,0,0,0,3,30V220a26.975,26.975,0,0,0,27,27H370a26.975,26.975,0,0,0,27-27V30A26.975,26.975,0,0,0,370,3H30m0-3H370a30,30,0,0,1,30,30V220a30,30,0,0,1-30,30H30A30,30,0,0,1,0,220V30A30,30,0,0,1,30,0Z" transform="translate(-4694 -6340)" fill="#854af0"/>
    <g id="_000000ff" data-name="#000000ff" transform="translate(-4555 -6285.599)">
      <path id="Path_156508" data-name="Path 156508" d="M27.088,14.216a5.245,5.245,0,0,1,3.259-.607c1.511.043,3.027-.066,4.538.052a3.264,3.264,0,0,1,2.861,3.06q.477,5.483.906,10.974a2.466,2.466,0,0,0,.429,1.423c1.013,1.374,2.09,2.7,3.077,4.092a12.235,12.235,0,0,1,2.218,6.1,22.093,22.093,0,0,1-.232,4.279q-.623,5.7-1.236,11.4A50.222,50.222,0,0,1,42.247,60c2.652,0,5.3-.007,7.956,0a47.785,47.785,0,0,1-.662-5q-.712-6.547-1.421-13.1a12.516,12.516,0,0,1,.837-6.293,25.947,25.947,0,0,1,3.6-5.428c.489-.686,1.188-1.328,1.207-2.228q.452-5.6.925-11.192a3.321,3.321,0,0,1,2.263-2.984,14.123,14.123,0,0,1,3.29-.171,28.078,28.078,0,0,1,4.047.119,3.3,3.3,0,0,1,2.469,3.036q.477,5.59.925,11.18a2.055,2.055,0,0,0,.4,1.158c1.091,1.509,2.3,2.939,3.335,4.486a12.33,12.33,0,0,1,1.931,8.082c-.56,5.307-1.155,10.609-1.715,15.913A21.915,21.915,0,0,1,71.252,60c2.733-.009,5.463,0,8.194,0-.394-1.819-.491-3.684-.726-5.527a2.349,2.349,0,0,1,.477-2.161,1.768,1.768,0,0,1,2.887.707c.427,1.876.32,3.841.757,5.717A1.944,1.944,0,0,0,84.923,60c3.4,0,6.806.009,10.21,0a1.908,1.908,0,0,0,2.078-1.682c.648-5.629,1.224-11.268,1.846-16.9a8.793,8.793,0,0,0-1.438-5.992c-1.165-1.668-2.462-3.238-3.651-4.887a2.986,2.986,0,0,1-.527-1.653c-.311-3.907-.645-7.814-.965-11.719q-2.5,0-5,0-.505,6-.994,12c-.059,1.193-1.032,2.016-1.665,2.937-1.352,1.91-3.124,3.641-3.7,5.983-.731,2.692.232,5.43.23,8.141A1.757,1.757,0,0,1,78.774,47.6a2.115,2.115,0,0,1-1-1.891c-.251-2.875-.92-5.829-.059-8.666.795-3.153,3.181-5.485,4.994-8.07a3.275,3.275,0,0,0,.356-1.521c.237-3.25.541-6.493.788-9.74a9.5,9.5,0,0,1,.251-1.791,3.233,3.233,0,0,1,2.968-2.289c1.812-.052,3.627-.014,5.442-.019A3.362,3.362,0,0,1,95.32,14.9a4.541,4.541,0,0,1,.761,2.614c.251,3.319.562,6.635.807,9.954a2.9,2.9,0,0,0,.422,1.6c1.12,1.563,2.375,3.029,3.435,4.635a12.408,12.408,0,0,1,1.838,8.194q-.74,6.8-1.476,13.6A40.057,40.057,0,0,1,100.5,60c5.731,0,11.463-.012,17.194,0a3.924,3.924,0,0,1,3.762,3.226v7.019a3.934,3.934,0,0,1-4.03,3.35q-55.631,0-111.262,0a21.861,21.861,0,0,1-3.129-.093A3.935,3.935,0,0,1,0,70.276v-7A3.931,3.931,0,0,1,3.781,60c5.8-.014,11.607,0,17.412,0-.51-2.45-.607-4.963-.925-7.439a18.886,18.886,0,0,1-.256-3.5A1.774,1.774,0,0,1,22.667,48a2.388,2.388,0,0,1,.911,2.016c.259,2.538.55,5.074.807,7.615a2.716,2.716,0,0,0,.712,1.9,2.813,2.813,0,0,0,1.933.482q4.633-.018,9.268,0a3.073,3.073,0,0,0,2-.441,2.4,2.4,0,0,0,.735-1.722c.574-5.463,1.179-10.924,1.767-16.387a8.885,8.885,0,0,0-1.034-5.394c-.833-1.416-1.929-2.655-2.887-3.983-.648-.923-1.6-1.763-1.665-2.963q-.495-5.978-.992-11.961-2.5,0-5,0c-.32,3.9-.657,7.8-.965,11.7a3.09,3.09,0,0,1-.614,1.805c-1.174,1.6-2.422,3.136-3.565,4.756a8.467,8.467,0,0,0-1.468,5.33c.014.821.244,1.815-.446,2.441a1.767,1.767,0,0,1-2.949-.79,12.15,12.15,0,0,1,1.929-8.984c1.032-1.49,2.192-2.885,3.25-4.353a2.475,2.475,0,0,0,.4-1.362c.273-3.575.588-7.147.875-10.72a3.465,3.465,0,0,1,1.428-2.766M57.242,29.092a2.648,2.648,0,0,1-.512,1.459c-1.174,1.589-2.4,3.141-3.561,4.74a8.783,8.783,0,0,0-1.521,6.132q.9,8.334,1.805,16.667a1.9,1.9,0,0,0,1.812,1.888c3.319.057,6.64,0,9.959.028a2.9,2.9,0,0,0,2.171-.524,2.4,2.4,0,0,0,.643-1.656c.581-5.468,1.184-10.931,1.772-16.4a9.03,9.03,0,0,0-.434-4.035c-.69-1.988-2.211-3.5-3.4-5.2-.657-.987-1.725-1.836-1.76-3.112q-.488-5.967-.992-11.932-2.494.007-4.991,0-.509,5.967-.992,11.937M3.582,63.565c-.047,1.881-.014,3.762-.031,5.644.033.346-.09.994.47.842q56.713.018,113.43,0c.541.133.432-.508.455-.84-.019-1.884.021-3.765-.033-5.646-14.463-.047-28.929-.007-43.393-.021C50.846,63.558,27.214,63.513,3.582,63.565Z" transform="translate(0 0)" fill="#fff"/>
      <path id="Path_156509" data-name="Path 156509" d="M34.831,305.089a3.5,3.5,0,0,1,2.887-1.179q7.832,0,15.668,0a3.8,3.8,0,0,1,2.593.735,3.456,3.456,0,0,1,1.234,2.856c0,4.218,0,8.436,0,12.653q3.633,0,7.271,0c0-4.22,0-8.443,0-12.663a3.411,3.411,0,0,1,1.222-2.835,3.815,3.815,0,0,1,2.612-.747c5.3.017,10.6-.007,15.9.012a3.337,3.337,0,0,1,2.842,1.419,5.133,5.133,0,0,1,.593,3.089c-.019,3.909-.007,7.819-.007,11.728q5.882,0,11.764,0a3.459,3.459,0,0,1,2.913,1.255,4,4,0,0,1,.724,2.678c-.017,4.1,0,8.208-.007,12.312q7.184,0,14.371,0a3.889,3.889,0,0,1,4.047,3.43v6.863a3.919,3.919,0,0,1-4.033,3.342q-56.812-.014-113.622-.007A3.916,3.916,0,0,1,0,346.731v-7.022A3.9,3.9,0,0,1,3.791,336.4c4.877-.019,9.752,0,14.629-.007,0-4.182,0-8.364-.007-12.544a3.64,3.64,0,0,1,.835-2.581,3.481,3.481,0,0,1,2.806-1.12q6,.011,11.994,0a21.232,21.232,0,0,1,.157-4.075,1.778,1.778,0,0,1,3.293.138,26.9,26.9,0,0,1,.107,3.938h16.05V307.473q-8.02,0-16.041,0a7.662,7.662,0,0,1-.2,2.529,1.782,1.782,0,0,1-2.759.541c-.633-.5-.6-1.383-.626-2.114a4.721,4.721,0,0,1,.8-3.34m33.209,2.384v12.68q8.024,0,16.048,0V307.471q-8.024,0-16.048,0M21.974,323.718c0,4.227,0,8.452,0,12.68q8.024,0,16.046,0c0-4.225,0-8.452,0-12.677q-8.028-.021-16.053,0m19.606,0q0,6.341,0,12.682,3.783,0,7.567,0c.007-4.223-.009-8.445.009-12.665-2.524-.043-5.05-.007-7.577-.019m11.126,0q0,6.341,0,12.684,8.024,0,16.046,0,0-6.341,0-12.684-8.024,0-16.046,0m19.595.019c.021,4.22,0,8.443.009,12.665q3.786,0,7.567,0,0-6.341,0-12.682c-2.524.012-5.05-.024-7.574.019m11.133-.014q0,6.341,0,12.68,8.02,0,16.046,0c0-4.227,0-8.452,0-12.68q-8.024-.011-16.05,0M3.58,339.965c-.043,2.159-.024,4.322-.009,6.483,11.541.052,23.082.007,34.623.021,26.564-.014,53.131.031,79.695-.021.017-2.161.031-4.322-.009-6.481Q60.731,339.932,3.58,339.965Z" transform="translate(0 -221.441)" fill="#fff"/>
    </g>
    <rect id="Rectangle_36544" data-name="Rectangle 36544" width="250" height="2" transform="translate(-4619 -6118)" fill="#fff"/>
  </g>
</svg>
