<svg xmlns="http://www.w3.org/2000/svg" width="400" height="250" viewBox="0 0 400 250">
  <g id="t2-ch2" transform="translate(4261 6028)">
    <rect id="Rectangle_37395" data-name="Rectangle 37395" width="400" height="250" rx="30" transform="translate(-4261 -6028)" fill="#a86bb3"/>
    <path id="Rectangle_37395_-_Outline" data-name="Rectangle 37395 - Outline" d="M30,3A26.975,26.975,0,0,0,3,30V220a26.975,26.975,0,0,0,27,27H370a26.975,26.975,0,0,0,27-27V30A26.975,26.975,0,0,0,370,3H30m0-3H370a30,30,0,0,1,30,30V220a30,30,0,0,1-30,30H30A30,30,0,0,1,0,220V30A30,30,0,0,1,30,0Z" transform="translate(-4261 -6028)" fill="#cc82d9"/>
    <g id="_000000ff" data-name="#000000ff" transform="translate(-4118 -5960)">
      <path id="Path_156507" data-name="Path 156507" d="M14.557,0h5.067a5.815,5.815,0,0,1,5.285,5.613c.02,7.071,0,14.144.011,21.217q24.719.01,49.443,0,12.617-12.584,25.208-25.2A6.02,6.02,0,0,1,103.087,0h.991a6.138,6.138,0,0,1,3.834,1.9c1.8,1.8,3.6,3.6,5.4,5.4A6.063,6.063,0,0,1,115,10.961v.876a6.059,6.059,0,0,1-1.736,3.7q-5.637,5.657-11.291,11.3c2.54.016,5.081-.022,7.621.018A5.815,5.815,0,0,1,115,32.13v77.553A5.885,5.885,0,0,1,109.722,115H15.033A15.824,15.824,0,0,1,0,100.416V14.6A15.435,15.435,0,0,1,14.557,0M7.318,7.107a11.529,11.529,0,0,0-3.481,8.378q-.01,37.02,0,74.045a15.366,15.366,0,0,1,10.992-5.186c1.5-.036,2.994.022,4.49-.027a1.946,1.946,0,0,0,1.768-2.109q0-38.193,0-76.387a1.915,1.915,0,0,0-1.754-1.97c-1.429-.031-2.862-.02-4.29,0A11.462,11.462,0,0,0,7.318,7.107m94.969-2.758c-.984.948-1.936,1.929-2.9,2.9q4.181,4.191,8.371,8.376c.966-.97,1.954-1.923,2.9-2.913A1.982,1.982,0,0,0,110.589,10q-2.79-2.813-5.606-5.6a1.97,1.97,0,0,0-2.7-.054m-8.457,8.445q4.184,4.195,8.38,8.376c.95-.939,1.891-1.889,2.835-2.835q-4.181-4.2-8.378-8.38c-.943.95-1.9,1.887-2.837,2.839M70.238,36.4q4.188,4.195,8.385,8.385,10.454-10.438,20.884-20.9-4.188-4.191-8.385-8.376Q80.677,25.95,70.238,36.4m-45.319-5.73q-.01,25.888-.007,51.777A5.769,5.769,0,0,1,20.033,88.1c-2.531.247-5.135-.229-7.623.456a11.549,11.549,0,0,0-7.333,5.932,11.025,11.025,0,0,0-.77,8.185,11.917,11.917,0,0,0,8.441,8.12,21.067,21.067,0,0,0,5.447.377q45.494,0,90.992,0a1.938,1.938,0,0,0,1.979-1.988q.013-37.849,0-75.7a3.836,3.836,0,0,0-.222-1.777,1.94,1.94,0,0,0-1.792-1.031q-5.5-.007-11.008,0-8.561,8.558-17.111,17.126a12.278,12.278,0,0,1-2.529,2.185,7.938,7.938,0,0,1-3.441,1.049c-2.188.227-4.366.539-6.556.714-9.418.016-18.838,0-28.256.007q-.007,10.542,0,21.082,23,.007,46,0,.007-4.636,0-9.27a2.2,2.2,0,0,1,.368-1.433A1.915,1.915,0,0,1,90.08,63.34q0,14.383,0,28.766a3.844,3.844,0,0,1-3.814,3.724q-19.11.01-38.22,0A1.92,1.92,0,1,1,48.071,92Q54.7,92,61.33,92q.01-7.665,0-15.33-10.539,0-21.077,0-.007,13.332,0,26.663a1.922,1.922,0,1,1-3.832.013q-.007-25.8,0-51.593c-1.954-.016-3.908.018-5.86-.016a1.912,1.912,0,0,1-1.79-2.089,1.931,1.931,0,0,1,2-1.729q16.344-.007,32.685,0a5.942,5.942,0,0,1-.142-2.078q.35-3.154.7-6.309A7.414,7.414,0,0,1,66.1,35.1c1.473-1.478,2.954-2.954,4.425-4.434q-22.8,0-45.609,0m42.995,8.861c-.348,2.316-.55,4.652-.811,6.976A1.344,1.344,0,0,0,68.719,47.9c2.255-.274,4.524-.454,6.772-.793q-3.757-3.824-7.578-7.578M65.17,76.666q-.01,7.668,0,15.334H86.246q.01-7.668,0-15.334Q75.707,76.669,65.17,76.666Z" fill="#fff"/>
    </g>
    <rect id="Rectangle_37396" data-name="Rectangle 37396" width="250" height="2" transform="translate(-4186 -5806)" fill="#fff"/>
  </g>
</svg>
