<svg xmlns="http://www.w3.org/2000/svg" xmlns:xlink="http://www.w3.org/1999/xlink" width="837" height="427" viewBox="0 0 837 427">
  <defs>
    <filter id="Rectangle_37343" x="0" y="0" width="837" height="427" filterUnits="userSpaceOnUse">
      <feOffset dy="3" input="SourceAlpha"/>
      <feGaussianBlur stdDeviation="3" result="blur"/>
      <feFlood flood-opacity="0.161"/>
      <feComposite operator="in" in2="blur"/>
      <feComposite in="SourceGraphic"/>
    </filter>
  </defs>
  <g id="t2-g1" transform="translate(1863.5 2134.5)">
    <g id="Rectángulo_36445" data-name="Rectángulo 36445">
      <rect id="Rectangle_37342" data-name="Rectangle 37342" width="820" height="410" transform="translate(-1855 -2129)" fill="#fff"/>
      <g transform="matrix(1, 0, 0, 1, -1863.5, -2134.5)" filter="url(#Rectangle_37343)">
        <rect id="Rectangle_37343-2" data-name="Rectangle 37343" width="819" height="409" transform="translate(9 6)" fill="#fff"/>
      </g>
    </g>
    <g id="Rectángulo_36445-2" data-name="Rectángulo 36445">
      <rect id="Rectangle_37344" data-name="Rectangle 37344" width="171" height="296" transform="translate(-1768 -2066)" fill="#e2f0fc"/>
      <rect id="Rectangle_37345" data-name="Rectangle 37345" width="170.791" height="295.278" transform="translate(-1767.896 -2065.639)" fill="#e2f0fc"/>
    </g>
    <g id="Rectángulo_36445-3" data-name="Rectángulo 36445">
      <rect id="Rectangle_37346" data-name="Rectangle 37346" width="183" height="296" transform="translate(-1597 -2066)" fill="#fdfbd2"/>
      <rect id="Rectangle_37347" data-name="Rectangle 37347" width="182.777" height="295.278" transform="translate(-1596.888 -2065.639)" fill="#fdfbd2"/>
    </g>
    <g id="Rectángulo_36445-4" data-name="Rectángulo 36445">
      <rect id="Rectangle_37348" data-name="Rectangle 37348" width="183" height="296" transform="translate(-1414 -2066)" fill="#e2f0fc"/>
      <rect id="Rectangle_37349" data-name="Rectangle 37349" width="182.777" height="295.278" transform="translate(-1413.888 -2065.639)" fill="#e2f0fc"/>
    </g>
    <g id="Rectángulo_36445-5" data-name="Rectángulo 36445">
      <rect id="Rectangle_37350" data-name="Rectangle 37350" width="154" height="296" transform="translate(-1231 -2066)" fill="#fdfbd2"/>
      <rect id="Rectangle_37351" data-name="Rectangle 37351" width="153.812" height="295.278" transform="translate(-1230.906 -2065.639)" fill="#fdfbd2"/>
    </g>
    <path id="Path_157049" data-name="Path 157049" d="M11.973-11.846H7.617V0H4.688V-11.846H.391v-2.373H11.973ZM16.436,0H13.6V-10.566h2.832Zm-3-13.3a1.39,1.39,0,0,1,.425-1.045,1.6,1.6,0,0,1,1.157-.41,1.6,1.6,0,0,1,1.152.41A1.382,1.382,0,0,1,16.6-13.3a1.386,1.386,0,0,1-.435,1.055,1.6,1.6,0,0,1-1.147.41,1.6,1.6,0,0,1-1.147-.41A1.386,1.386,0,0,1,13.438-13.3ZM23.623.2A5.187,5.187,0,0,1,19.839-1.23a5.068,5.068,0,0,1-1.46-3.8V-5.3a6.383,6.383,0,0,1,.615-2.847,4.515,4.515,0,0,1,1.743-1.934,4.893,4.893,0,0,1,2.573-.679,4.385,4.385,0,0,1,3.413,1.367,5.555,5.555,0,0,1,1.245,3.877v1.152H21.24a2.622,2.622,0,0,0,.825,1.66,2.5,2.5,0,0,0,1.743.625,3.046,3.046,0,0,0,2.549-1.182l1.387,1.553a4.237,4.237,0,0,1-1.719,1.4A5.639,5.639,0,0,1,23.623.2ZM23.3-8.486a1.764,1.764,0,0,0-1.362.569,2.946,2.946,0,0,0-.669,1.628H25.2v-.226a2.1,2.1,0,0,0-.508-1.457A1.819,1.819,0,0,0,23.3-8.486Zm8.916-2.08L32.3-9.385a3.713,3.713,0,0,1,3.037-1.377,2.818,2.818,0,0,1,2.8,1.611,3.628,3.628,0,0,1,3.174-1.611,3.152,3.152,0,0,1,2.559,1,4.6,4.6,0,0,1,.84,3.013V0H41.885V-6.738a2.012,2.012,0,0,0-.352-1.313,1.558,1.558,0,0,0-1.24-.415,1.761,1.761,0,0,0-1.758,1.211L38.545,0H35.723V-6.729a1.988,1.988,0,0,0-.361-1.328,1.573,1.573,0,0,0-1.23-.41,1.829,1.829,0,0,0-1.738,1V0H29.57V-10.566ZM56.4-5.186a6.337,6.337,0,0,1-1.108,3.911A3.554,3.554,0,0,1,52.295.2,3.292,3.292,0,0,1,49.707-.918v4.98H46.885V-10.566H49.5l.1,1.035a3.317,3.317,0,0,1,2.676-1.23,3.578,3.578,0,0,1,3.037,1.445A6.509,6.509,0,0,1,56.4-5.332Zm-2.822-.205a4.159,4.159,0,0,0-.522-2.275,1.7,1.7,0,0,0-1.519-.8,1.848,1.848,0,0,0-1.826,1.016v4.326A1.879,1.879,0,0,0,51.553-2.08Q53.574-2.08,53.574-5.391Zm4.131.01a6.267,6.267,0,0,1,.605-2.8,4.432,4.432,0,0,1,1.743-1.9,5.086,5.086,0,0,1,2.642-.674,4.812,4.812,0,0,1,3.491,1.309A5.252,5.252,0,0,1,67.7-5.9l.02.723a5.523,5.523,0,0,1-1.357,3.9A4.718,4.718,0,0,1,62.715.2,4.742,4.742,0,0,1,59.067-1.27a5.62,5.62,0,0,1-1.362-3.984Zm2.822.2a3.95,3.95,0,0,0,.566,2.3,1.868,1.868,0,0,0,1.621.8,1.873,1.873,0,0,0,1.6-.787,4.322,4.322,0,0,0,.576-2.518,3.91,3.91,0,0,0-.576-2.289A1.873,1.873,0,0,0,62.7-8.486a1.842,1.842,0,0,0-1.6.807A4.395,4.395,0,0,0,60.527-5.181Z" transform="translate(-1452.653 -1736.192)" fill="#12263f"/>
    <path id="Path_157044" data-name="Path 157044" d="M6.523-3.525,9.746-14.219h3.262L8.057,0H5L.068-14.219H3.32ZM18.594.2A5.187,5.187,0,0,1,14.81-1.23a5.068,5.068,0,0,1-1.46-3.8V-5.3a6.383,6.383,0,0,1,.615-2.847,4.515,4.515,0,0,1,1.743-1.934,4.893,4.893,0,0,1,2.573-.679,4.385,4.385,0,0,1,3.413,1.367,5.555,5.555,0,0,1,1.245,3.877v1.152H16.211a2.622,2.622,0,0,0,.825,1.66,2.5,2.5,0,0,0,1.743.625,3.046,3.046,0,0,0,2.549-1.182l1.387,1.553A4.237,4.237,0,0,1,21-.308,5.639,5.639,0,0,1,18.594.2Zm-.322-8.682a1.764,1.764,0,0,0-1.362.569,2.946,2.946,0,0,0-.669,1.628h3.926v-.226a2.1,2.1,0,0,0-.508-1.457A1.819,1.819,0,0,0,18.271-8.486Zm8.867-2.08.088,1.221a3.689,3.689,0,0,1,3.037-1.416,3.066,3.066,0,0,1,2.5.986,4.6,4.6,0,0,1,.84,2.949V0H30.781V-6.758a1.831,1.831,0,0,0-.391-1.3,1.749,1.749,0,0,0-1.3-.405A1.942,1.942,0,0,0,27.3-7.451V0H24.482V-10.566Zm11.982-2.6v2.6h1.807V-8.5H39.121v5.273a1.259,1.259,0,0,0,.225.84,1.128,1.128,0,0,0,.859.254,4.5,4.5,0,0,0,.83-.068V-.059A5.81,5.81,0,0,1,39.326.2q-2.969,0-3.027-3V-8.5H34.756v-2.07H36.3v-2.6ZM48.623,0a3.134,3.134,0,0,1-.283-.947A3.415,3.415,0,0,1,45.674.2,3.752,3.752,0,0,1,43.1-.7,2.89,2.89,0,0,1,42.08-2.969a2.986,2.986,0,0,1,1.245-2.578,6.144,6.144,0,0,1,3.6-.908h1.3v-.605a1.741,1.741,0,0,0-.376-1.172,1.479,1.479,0,0,0-1.187-.439,1.682,1.682,0,0,0-1.118.342,1.161,1.161,0,0,0-.405.938H42.314a2.835,2.835,0,0,1,.566-1.7,3.744,3.744,0,0,1,1.6-1.226,5.837,5.837,0,0,1,2.324-.444,4.611,4.611,0,0,1,3.1.981,3.433,3.433,0,0,1,1.147,2.759v4.58a5.052,5.052,0,0,0,.42,2.275V0ZM46.289-1.963a2.431,2.431,0,0,0,1.152-.278,1.828,1.828,0,0,0,.781-.747V-4.8H47.168q-2.119,0-2.256,1.465l-.01.166a1.13,1.13,0,0,0,.371.869A1.441,1.441,0,0,0,46.289-1.963ZM58.945-2.92a.909.909,0,0,0-.513-.815,5.824,5.824,0,0,0-1.646-.532q-3.77-.791-3.77-3.2a2.9,2.9,0,0,1,1.167-2.349,4.708,4.708,0,0,1,3.052-.942,5.067,5.067,0,0,1,3.218.947A2.985,2.985,0,0,1,61.66-7.354H58.838a1.366,1.366,0,0,0-.391-1,1.653,1.653,0,0,0-1.221-.4,1.689,1.689,0,0,0-1.1.322,1.017,1.017,0,0,0-.391.82.87.87,0,0,0,.444.757,4.571,4.571,0,0,0,1.5.5,12.244,12.244,0,0,1,1.777.474,2.92,2.92,0,0,1,2.236,2.842A2.756,2.756,0,0,1,60.449-.7a5.35,5.35,0,0,1-3.2.894,5.588,5.588,0,0,1-2.358-.474,3.957,3.957,0,0,1-1.616-1.3,3.018,3.018,0,0,1-.586-1.782h2.676a1.473,1.473,0,0,0,.557,1.152,2.208,2.208,0,0,0,1.387.4,2.044,2.044,0,0,0,1.226-.308A.957.957,0,0,0,58.945-2.92Z" transform="translate(-1815.036 -1894.438) rotate(-90)" fill="#12263f"/>
    <g id="Grupo_18104" data-name="Grupo 18104">
      <g id="Grupo_18101" data-name="Grupo 18101">
        <path id="Trazado_17643" data-name="Trazado 17643" d="M-1596.893-1767.86a1.752,1.752,0,0,1-1.752-1.751h0v-3.667a1.75,1.75,0,0,1,1.751-1.75,1.749,1.749,0,0,1,1.75,1.75v3.667a1.749,1.749,0,0,1-1.749,1.751Z" fill="#64b5f6"/>
      </g>
      <g id="Grupo_18102" data-name="Grupo 18102">
        <path id="Trazado_17644" data-name="Trazado 17644" d="M-1596.893-1785.775a1.752,1.752,0,0,1-1.752-1.752h0v-7.124a1.751,1.751,0,0,1,1.708-1.793,1.75,1.75,0,0,1,1.793,1.708v7.209A1.751,1.751,0,0,1-1596.893-1785.775Zm0-21.373a1.752,1.752,0,0,1-1.752-1.751h0v-7.126a1.752,1.752,0,0,1,1.708-1.793,1.75,1.75,0,0,1,1.793,1.708v7.211a1.75,1.75,0,0,1-1.749,1.753h0Zm0-21.374a1.752,1.752,0,0,1-1.752-1.751h0v-7.123a1.751,1.751,0,0,1,1.751-1.751,1.75,1.75,0,0,1,1.75,1.751v7.124a1.75,1.75,0,0,1-1.749,1.749Zm0-21.374a1.752,1.752,0,0,1-1.752-1.751h0v-7.125a1.752,1.752,0,0,1,1.708-1.793,1.751,1.751,0,0,1,1.793,1.708v7.207a1.749,1.749,0,0,1-1.746,1.754h0Zm0-21.374a1.75,1.75,0,0,1-1.752-1.749v0h0v-7.125a1.752,1.752,0,0,1,1.708-1.794,1.751,1.751,0,0,1,1.793,1.708v7.211A1.751,1.751,0,0,1-1596.893-1871.27Zm0-21.372a1.753,1.753,0,0,1-1.752-1.752h0v-7.125a1.752,1.752,0,0,1,1.709-1.793,1.751,1.751,0,0,1,1.792,1.708v7.21a1.75,1.75,0,0,1-1.749,1.752Zm0-21.373a1.753,1.753,0,0,1-1.752-1.752h0v-7.124a1.751,1.751,0,0,1,1.708-1.793,1.75,1.75,0,0,1,1.793,1.707v7.21a1.752,1.752,0,0,1-1.749,1.749Zm0-21.374a1.753,1.753,0,0,1-1.752-1.751h0v-7.125a1.75,1.75,0,0,1,1.751-1.75,1.749,1.749,0,0,1,1.75,1.75v7.125a1.75,1.75,0,0,1-1.749,1.75Zm0-21.373a1.752,1.752,0,0,1-1.752-1.752h0v-7.131a1.751,1.751,0,0,1,1.708-1.793,1.75,1.75,0,0,1,1.793,1.707v7.212a1.751,1.751,0,0,1-1.747,1.756h0Zm0-21.375a1.752,1.752,0,0,1-1.752-1.752h0v-7.123a1.751,1.751,0,0,1,1.751-1.75,1.75,1.75,0,0,1,1.75,1.75v7.123a1.751,1.751,0,0,1-1.749,1.751Zm0-21.374a1.752,1.752,0,0,1-1.752-1.752h0v-7.124a1.751,1.751,0,0,1,1.708-1.793,1.75,1.75,0,0,1,1.793,1.708v7.213a1.749,1.749,0,0,1-1.749,1.742Zm0-21.374a1.751,1.751,0,0,1-1.752-1.749v0h0v-7.125a1.751,1.751,0,0,1,1.751-1.75,1.75,1.75,0,0,1,1.75,1.75v7.125a1.75,1.75,0,0,1-1.749,1.75Zm0-21.374a1.752,1.752,0,0,1-1.752-1.751h0v-7.124a1.752,1.752,0,0,1,1.708-1.793,1.751,1.751,0,0,1,1.793,1.708v7.209a1.75,1.75,0,0,1-1.749,1.75Zm0-21.373a1.752,1.752,0,0,1-1.752-1.751h0v-7.125a1.751,1.751,0,0,1,1.751-1.75,1.75,1.75,0,0,1,1.75,1.75v7.125a1.75,1.75,0,0,1-1.749,1.75Z" fill="#64b5f6"/>
      </g>
      <g id="Grupo_18103" data-name="Grupo 18103">
        <path id="Trazado_17645" data-name="Trazado 17645" d="M-1596.893-2085.009a1.752,1.752,0,0,1-1.752-1.751h0v-3.666a1.75,1.75,0,0,1,1.751-1.75,1.749,1.749,0,0,1,1.75,1.75v3.666a1.749,1.749,0,0,1-1.749,1.751Z" fill="#64b5f6"/>
      </g>
    </g>
    <g id="Grupo_18108" data-name="Grupo 18108">
      <g id="Grupo_18105" data-name="Grupo 18105">
        <path id="Trazado_17646" data-name="Trazado 17646" d="M-1414.1-1767.86a1.751,1.751,0,0,1-1.752-1.751h0v-3.667a1.752,1.752,0,0,1,1.794-1.708,1.75,1.75,0,0,1,1.708,1.708v3.667a1.75,1.75,0,0,1-1.749,1.751h0Z" fill="#64b5f6"/>
      </g>
      <g id="Grupo_18106" data-name="Grupo 18106">
        <path id="Trazado_17647" data-name="Trazado 17647" d="M-1414.1-1785.776a1.751,1.751,0,0,1-1.752-1.749v0h0v-7.124a1.751,1.751,0,0,1,1.721-1.781,1.751,1.751,0,0,1,1.781,1.7v7.207a1.752,1.752,0,0,1-1.749,1.752Zm0-21.373a1.751,1.751,0,0,1-1.752-1.751h0v-7.126a1.751,1.751,0,0,1,1.7-1.8,1.752,1.752,0,0,1,1.8,1.7v7.227a1.751,1.751,0,0,1-1.747,1.753h0Zm0-21.374a1.751,1.751,0,0,1-1.752-1.751h0v-7.124a1.752,1.752,0,0,1,1.794-1.708,1.751,1.751,0,0,1,1.708,1.708v7.125A1.751,1.751,0,0,1-1414.1-1828.523Zm0-21.374a1.751,1.751,0,0,1-1.752-1.751h0v-7.125a1.751,1.751,0,0,1,1.7-1.8,1.752,1.752,0,0,1,1.8,1.7v7.224a1.751,1.751,0,0,1-1.748,1.754Zm0-21.374a1.75,1.75,0,0,1-1.752-1.749v0h0v-7.126a1.753,1.753,0,0,1,1.7-1.8,1.753,1.753,0,0,1,1.8,1.7v7.23A1.752,1.752,0,0,1-1414.1-1871.271Zm0-21.373a1.751,1.751,0,0,1-1.752-1.751h0v-7.125a1.752,1.752,0,0,1,1.721-1.782,1.752,1.752,0,0,1,1.781,1.7v7.209a1.75,1.75,0,0,1-1.75,1.749Zm0-21.372a1.752,1.752,0,0,1-1.752-1.752h0v-7.124a1.752,1.752,0,0,1,1.7-1.8,1.752,1.752,0,0,1,1.8,1.7v7.23a1.752,1.752,0,0,1-1.749,1.752Zm0-21.374a1.752,1.752,0,0,1-1.752-1.75v0h0v-7.125a1.753,1.753,0,0,1,1.794-1.709,1.752,1.752,0,0,1,1.708,1.709v7.126a1.751,1.751,0,0,1-1.749,1.752h0Zm0-21.372a1.752,1.752,0,0,1-1.752-1.752h0v-7.132a1.751,1.751,0,0,1,1.718-1.784,1.751,1.751,0,0,1,1.784,1.7v7.21a1.752,1.752,0,0,1-1.749,1.752Zm0-21.375a1.752,1.752,0,0,1-1.752-1.752h0v-7.123a1.752,1.752,0,0,1,1.794-1.708,1.751,1.751,0,0,1,1.708,1.708v7.123a1.753,1.753,0,0,1-1.75,1.75Zm0-21.374a1.751,1.751,0,0,1-1.752-1.749v0h0v-7.124a1.751,1.751,0,0,1,1.7-1.8,1.752,1.752,0,0,1,1.8,1.7v7.23a1.751,1.751,0,0,1-1.75,1.742Zm0-21.374a1.751,1.751,0,0,1-1.752-1.749v0h0v-7.125a1.752,1.752,0,0,1,1.794-1.708,1.751,1.751,0,0,1,1.708,1.708v7.125a1.752,1.752,0,0,1-1.75,1.75Zm0-21.374a1.751,1.751,0,0,1-1.752-1.751h0v-7.124a1.751,1.751,0,0,1,1.718-1.783,1.751,1.751,0,0,1,1.784,1.7v7.207a1.751,1.751,0,0,1-1.75,1.75h0Zm0-21.373a1.751,1.751,0,0,1-1.752-1.751h0v-7.125a1.752,1.752,0,0,1,1.794-1.708,1.751,1.751,0,0,1,1.708,1.708v7.125a1.752,1.752,0,0,1-1.75,1.75Z" fill="#64b5f6"/>
      </g>
      <g id="Grupo_18107" data-name="Grupo 18107">
        <path id="Trazado_17648" data-name="Trazado 17648" d="M-1414.1-2085.008a1.751,1.751,0,0,1-1.752-1.751h0v-3.666a1.752,1.752,0,0,1,1.794-1.708,1.751,1.751,0,0,1,1.708,1.708v3.666a1.749,1.749,0,0,1-1.749,1.751Z" fill="#64b5f6"/>
      </g>
    </g>
    <g id="Grupo_18112" data-name="Grupo 18112">
      <g id="Grupo_18109" data-name="Grupo 18109">
        <path id="Trazado_17649" data-name="Trazado 17649" d="M-1231.307-1767.86a1.751,1.751,0,0,1-1.751-1.751h0v-3.667a1.75,1.75,0,0,1,1.793-1.708,1.751,1.751,0,0,1,1.709,1.708v3.667A1.751,1.751,0,0,1-1231.307-1767.86Z" fill="#64b5f6"/>
      </g>
      <g id="Grupo_18110" data-name="Grupo 18110">
        <path id="Trazado_17650" data-name="Trazado 17650" d="M-1231.306-1785.776a1.751,1.751,0,0,1-1.751-1.752h0v-7.124a1.751,1.751,0,0,1,1.721-1.781,1.752,1.752,0,0,1,1.781,1.7v7.207A1.752,1.752,0,0,1-1231.306-1785.776Zm0-21.373a1.751,1.751,0,0,1-1.751-1.751h0v-7.126a1.751,1.751,0,0,1,1.7-1.8,1.751,1.751,0,0,1,1.8,1.7v7.227a1.753,1.753,0,0,1-1.75,1.753h0Zm0-21.374a1.751,1.751,0,0,1-1.751-1.751h0v-7.124a1.752,1.752,0,0,1,1.7-1.8,1.752,1.752,0,0,1,1.8,1.7v7.229a1.752,1.752,0,0,1-1.751,1.749Zm0-21.374a1.751,1.751,0,0,1-1.751-1.751h0v-7.125a1.751,1.751,0,0,1,1.718-1.784,1.753,1.753,0,0,1,1.784,1.7v7.206a1.751,1.751,0,0,1-1.747,1.754h0Zm0-21.374a1.749,1.749,0,0,1-1.751-1.749v0h0v-7.126a1.752,1.752,0,0,1,1.7-1.8,1.752,1.752,0,0,1,1.8,1.7v7.23A1.752,1.752,0,0,1-1231.306-1871.271Zm0-21.373a1.751,1.751,0,0,1-1.751-1.751h0v-7.125a1.752,1.752,0,0,1,1.721-1.782,1.753,1.753,0,0,1,1.781,1.7v7.209a1.751,1.751,0,0,1-1.751,1.749Zm0-21.372a1.752,1.752,0,0,1-1.751-1.752h0v-7.124a1.751,1.751,0,0,1,1.7-1.8,1.751,1.751,0,0,1,1.8,1.7v7.23a1.754,1.754,0,0,1-1.751,1.748Zm0-21.374a1.752,1.752,0,0,1-1.751-1.752h0v-7.125a1.752,1.752,0,0,1,1.721-1.782,1.753,1.753,0,0,1,1.781,1.7v7.209a1.751,1.751,0,0,1-1.751,1.75Zm0-21.372a1.751,1.751,0,0,1-1.751-1.752h0v-7.132a1.751,1.751,0,0,1,1.718-1.784,1.752,1.752,0,0,1,1.784,1.7v7.21a1.754,1.754,0,0,1-1.75,1.756h0Zm0-21.375a1.751,1.751,0,0,1-1.751-1.752h0v-7.123a1.751,1.751,0,0,1,1.721-1.781,1.752,1.752,0,0,1,1.781,1.7v7.207a1.753,1.753,0,0,1-1.751,1.748Zm0-21.374a1.751,1.751,0,0,1-1.751-1.752h0v-7.124a1.751,1.751,0,0,1,1.718-1.784,1.752,1.752,0,0,1,1.784,1.7v7.212a1.751,1.751,0,0,1-1.751,1.742Zm0-21.374a1.749,1.749,0,0,1-1.751-1.749v0h0v-7.125a1.75,1.75,0,0,1,1.793-1.708,1.752,1.752,0,0,1,1.709,1.708v7.125a1.752,1.752,0,0,1-1.751,1.75Zm0-21.374a1.751,1.751,0,0,1-1.751-1.751h0v-7.124a1.751,1.751,0,0,1,1.718-1.783,1.752,1.752,0,0,1,1.784,1.7v7.207a1.751,1.751,0,0,1-1.751,1.75Zm0-21.373a1.751,1.751,0,0,1-1.751-1.751h0v-7.125a1.751,1.751,0,0,1,1.793-1.708,1.752,1.752,0,0,1,1.709,1.708v7.125a1.752,1.752,0,0,1-1.751,1.75Z" fill="#64b5f6"/>
      </g>
      <g id="Grupo_18111" data-name="Grupo 18111">
        <path id="Trazado_17651" data-name="Trazado 17651" d="M-1231.307-2085.008a1.751,1.751,0,0,1-1.751-1.751h0v-3.666a1.75,1.75,0,0,1,1.793-1.708,1.752,1.752,0,0,1,1.709,1.708v3.666A1.751,1.751,0,0,1-1231.307-2085.008Z" fill="#64b5f6"/>
      </g>
    </g>
    <g id="Grupo_18118" data-name="Grupo 18118">
      <g id="Grupo_18113" data-name="Grupo 18113">
        <path id="Trazado_17652" data-name="Trazado 17652" d="M-1074.066-1767.861h-694.387v-310h3.505v306.5h690.891Z" fill="#5c22c3"/>
      </g>
      <g id="Grupo_18115" data-name="Grupo 18115">
        <g id="Grupo_18114" data-name="Grupo 18114">
          <path id="Trazado_17653" data-name="Trazado 17653" d="M-1775.437-2075.3l8.731-15.12,8.731,15.12Z" fill="#5c22c3"/>
        </g>
      </g>
      <g id="Grupo_18117" data-name="Grupo 18117">
        <g id="Grupo_18116" data-name="Grupo 18116">
          <path id="Trazado_17654" data-name="Trazado 17654" d="M-1076.62-1760.879l15.12-8.731-15.12-8.731Z" fill="#5c22c3"/>
        </g>
      </g>
    </g>
    <g id="Group_108285" data-name="Group 108285">
      <path id="Path_157043" data-name="Path 157043" d="M-1764.951-1769.362a2,2,0,0,1-1.988-1.813,2,2,0,0,1,1.8-2.178c.992-.093,100.493-9.994,210.333-67.619,52.271-27.424,92.639-70.485,131.678-112.129,54.392-58.022,105.768-112.826,180.553-112.826,66.077,0,112.293,32.992,139.428,60.669,29.354,29.941,43.327,60.34,43.464,60.643a2,2,0,0,1-.994,2.647,2,2,0,0,1-2.648-.994c-.136-.3-13.876-30.153-42.776-59.595-26.585-27.084-71.843-59.37-136.474-59.37-73.052,0-123.852,54.19-177.635,111.562-39.266,41.886-79.868,85.2-132.738,112.935-110.575,58.01-210.818,67.966-211.817,68.059C-1764.825-1769.365-1764.888-1769.362-1764.951-1769.362Z" fill="#ba68c8"/>
    </g>
    <path id="Path_157045" data-name="Path 157045" d="M3.946,0H1.31V-12.8H3.946ZM8.561-9.51l.079,1.1a3.32,3.32,0,0,1,2.733-1.274,2.759,2.759,0,0,1,2.25.888,4.142,4.142,0,0,1,.756,2.654V0h-2.54V-6.082a1.648,1.648,0,0,0-.352-1.173,1.574,1.574,0,0,0-1.169-.365,1.747,1.747,0,0,0-1.608.914V0H6.17V-9.51Zm10.784-2.338V-9.51h1.626v1.863H19.345V-2.9a1.133,1.133,0,0,0,.2.756,1.015,1.015,0,0,0,.773.229,4.051,4.051,0,0,0,.747-.062V-.053a5.229,5.229,0,0,1-1.538.229,2.425,2.425,0,0,1-2.725-2.7V-7.646H15.416V-9.51H16.8v-2.338Zm8.385,4.72a6.9,6.9,0,0,0-.914-.07,1.86,1.86,0,0,0-1.89.976V0h-2.54V-9.51h2.4l.07,1.134a2.354,2.354,0,0,1,2.118-1.31,2.662,2.662,0,0,1,.791.114Zm.51,2.285a5.64,5.64,0,0,1,.545-2.522,3.989,3.989,0,0,1,1.569-1.714,4.577,4.577,0,0,1,2.377-.606,4.33,4.33,0,0,1,3.142,1.178,4.727,4.727,0,0,1,1.358,3.2l.018.65a4.97,4.97,0,0,1-1.222,3.511A4.247,4.247,0,0,1,32.748.176a4.268,4.268,0,0,1-3.283-1.318,5.058,5.058,0,0,1-1.226-3.586Zm2.54.18a3.555,3.555,0,0,0,.51,2.073,1.682,1.682,0,0,0,1.459.717,1.686,1.686,0,0,0,1.441-.709,3.89,3.89,0,0,0,.519-2.267,3.519,3.519,0,0,0-.519-2.06,1.686,1.686,0,0,0-1.459-.731,1.658,1.658,0,0,0-1.441.726A3.955,3.955,0,0,0,30.779-4.662Zm7.638-.163a5.731,5.731,0,0,1,1-3.542,3.237,3.237,0,0,1,2.729-1.318,2.913,2.913,0,0,1,2.294,1.037V-13.5h2.549V0H44.692l-.123-1.011A2.989,2.989,0,0,1,42.126.176a3.228,3.228,0,0,1-2.694-1.323A5.916,5.916,0,0,1,38.417-4.825Zm2.54.189a3.754,3.754,0,0,0,.466,2.051,1.517,1.517,0,0,0,1.354.713,1.7,1.7,0,0,0,1.661-.995V-6.625a1.675,1.675,0,0,0-1.644-.995Q40.957-7.62,40.957-4.636ZM54.65-.967a3.185,3.185,0,0,1-2.6,1.143A3,3,0,0,1,49.715-.7a3.752,3.752,0,0,1-.822-2.575V-9.51h2.54v6.151q0,1.487,1.354,1.487a1.834,1.834,0,0,0,1.775-.9V-9.51h2.549V0H54.721Zm8.332-.905a1.666,1.666,0,0,0,1.143-.387,1.355,1.355,0,0,0,.457-1.028h2.382a3.258,3.258,0,0,1-.527,1.771A3.48,3.48,0,0,1,65.017-.268a4.442,4.442,0,0,1-1.991.444,4.129,4.129,0,0,1-3.217-1.3A5.13,5.13,0,0,1,58.632-4.7v-.167A5.071,5.071,0,0,1,59.8-8.376a4.08,4.08,0,0,1,3.208-1.31A4,4,0,0,1,65.87-8.67a3.594,3.594,0,0,1,1.094,2.7H64.582a1.745,1.745,0,0,0-.457-1.206,1.524,1.524,0,0,0-1.16-.464,1.53,1.53,0,0,0-1.34.647,3.749,3.749,0,0,0-.453,2.1v.264a3.8,3.8,0,0,0,.448,2.113A1.549,1.549,0,0,0,62.982-1.872Zm9.387,0a1.666,1.666,0,0,0,1.143-.387,1.355,1.355,0,0,0,.457-1.028h2.382a3.258,3.258,0,0,1-.527,1.771A3.48,3.48,0,0,1,74.4-.268a4.442,4.442,0,0,1-1.991.444,4.129,4.129,0,0,1-3.217-1.3A5.13,5.13,0,0,1,68.019-4.7v-.167a5.071,5.071,0,0,1,1.169-3.507A4.08,4.08,0,0,1,72.4-9.686,4,4,0,0,1,75.256-8.67a3.594,3.594,0,0,1,1.094,2.7H73.969a1.745,1.745,0,0,0-.457-1.206,1.524,1.524,0,0,0-1.16-.464,1.53,1.53,0,0,0-1.34.647,3.749,3.749,0,0,0-.453,2.1v.264a3.8,3.8,0,0,0,.448,2.113A1.549,1.549,0,0,0,72.369-1.872ZM80.481,0H77.933V-9.51h2.549Zm-2.7-11.971a1.251,1.251,0,0,1,.382-.94,1.436,1.436,0,0,1,1.042-.369,1.44,1.44,0,0,1,1.037.369,1.244,1.244,0,0,1,.387.94,1.247,1.247,0,0,1-.391.949,1.443,1.443,0,0,1-1.033.369,1.443,1.443,0,0,1-1.033-.369A1.247,1.247,0,0,1,77.783-11.971Zm4.395,7.128a5.64,5.64,0,0,1,.545-2.522,3.989,3.989,0,0,1,1.569-1.714,4.577,4.577,0,0,1,2.377-.606,4.33,4.33,0,0,1,3.142,1.178,4.727,4.727,0,0,1,1.358,3.2l.018.65a4.97,4.97,0,0,1-1.222,3.511A4.247,4.247,0,0,1,86.687.176,4.268,4.268,0,0,1,83.4-1.143a5.058,5.058,0,0,1-1.226-3.586Zm2.54.18a3.555,3.555,0,0,0,.51,2.073,1.682,1.682,0,0,0,1.459.717,1.686,1.686,0,0,0,1.441-.709,3.89,3.89,0,0,0,.519-2.267,3.519,3.519,0,0,0-.519-2.06,1.686,1.686,0,0,0-1.459-.731,1.658,1.658,0,0,0-1.441.726A3.955,3.955,0,0,0,84.718-4.662ZM87.17-13.5h2.769L87.5-10.775H85.438Zm7.919,3.99.079,1.1A3.32,3.32,0,0,1,97.9-9.686a2.759,2.759,0,0,1,2.25.888,4.142,4.142,0,0,1,.756,2.654V0h-2.54V-6.082a1.648,1.648,0,0,0-.352-1.173,1.574,1.574,0,0,0-1.169-.365,1.747,1.747,0,0,0-1.608.914V0H92.7V-9.51Z" transform="translate(-1738.367 -2078.446)" fill="#12263f"/>
    <path id="Path_157046" data-name="Path 157046" d="M11.188-4.263A4.528,4.528,0,0,1,9.664-1.011,5.355,5.355,0,0,1,6.038.176,4.816,4.816,0,0,1,2.167-1.481,6.793,6.793,0,0,1,.756-6.029v-.782a7.671,7.671,0,0,1,.65-3.252,4.874,4.874,0,0,1,1.859-2.158,5.207,5.207,0,0,1,2.808-.751,5.217,5.217,0,0,1,3.568,1.187,4.866,4.866,0,0,1,1.564,3.331H8.569a2.673,2.673,0,0,0-.69-1.8,2.555,2.555,0,0,0-1.806-.558A2.24,2.24,0,0,0,4.1-9.866a5.3,5.3,0,0,0-.672,2.931v.967a5.667,5.667,0,0,0,.628,3.032,2.2,2.2,0,0,0,1.982.958,2.6,2.6,0,0,0,1.824-.558,2.521,2.521,0,0,0,.69-1.727ZM18.1-7.128a6.9,6.9,0,0,0-.914-.07,1.86,1.86,0,0,0-1.89.976V0h-2.54V-9.51h2.4l.07,1.134a2.354,2.354,0,0,1,2.118-1.31,2.662,2.662,0,0,1,.791.114Zm5.432,7.3a4.668,4.668,0,0,1-3.406-1.283,4.561,4.561,0,0,1-1.314-3.419v-.246a5.745,5.745,0,0,1,.554-2.562,4.064,4.064,0,0,1,1.569-1.74,4.4,4.4,0,0,1,2.316-.611,3.947,3.947,0,0,1,3.072,1.23,5,5,0,0,1,1.121,3.489v1.037H21.384a2.36,2.36,0,0,0,.743,1.494,2.245,2.245,0,0,0,1.569.563,2.742,2.742,0,0,0,2.294-1.063l1.248,1.4A3.813,3.813,0,0,1,25.69-.277,5.075,5.075,0,0,1,23.528.176Zm-.29-7.813a1.587,1.587,0,0,0-1.226.512,2.651,2.651,0,0,0-.6,1.466h3.533v-.2a1.891,1.891,0,0,0-.457-1.311A1.638,1.638,0,0,0,23.238-7.638Zm9.6,5.766a1.666,1.666,0,0,0,1.143-.387,1.355,1.355,0,0,0,.457-1.028h2.382a3.258,3.258,0,0,1-.527,1.771A3.48,3.48,0,0,1,34.871-.268,4.442,4.442,0,0,1,32.88.176a4.129,4.129,0,0,1-3.217-1.3A5.13,5.13,0,0,1,28.485-4.7v-.167a5.071,5.071,0,0,1,1.169-3.507,4.08,4.08,0,0,1,3.208-1.31A4,4,0,0,1,35.723-8.67a3.594,3.594,0,0,1,1.094,2.7H34.436a1.745,1.745,0,0,0-.457-1.206,1.524,1.524,0,0,0-1.16-.464,1.53,1.53,0,0,0-1.34.647,3.749,3.749,0,0,0-.453,2.1v.264a3.8,3.8,0,0,0,.448,2.113A1.549,1.549,0,0,0,32.836-1.872ZM40.948,0H38.4V-9.51h2.549Zm-2.7-11.971a1.251,1.251,0,0,1,.382-.94,1.436,1.436,0,0,1,1.042-.369,1.44,1.44,0,0,1,1.037.369,1.244,1.244,0,0,1,.387.94,1.247,1.247,0,0,1-.391.949,1.443,1.443,0,0,1-1.033.369,1.443,1.443,0,0,1-1.033-.369A1.247,1.247,0,0,1,38.25-11.971ZM45.422-9.51,45.5-8.446a3.342,3.342,0,0,1,2.733-1.239,2.536,2.536,0,0,1,2.522,1.45,3.265,3.265,0,0,1,2.856-1.45,2.836,2.836,0,0,1,2.3.9,4.141,4.141,0,0,1,.756,2.711V0H54.123V-6.064a1.811,1.811,0,0,0-.316-1.182A1.4,1.4,0,0,0,52.69-7.62a1.585,1.585,0,0,0-1.582,1.09L51.117,0h-2.54V-6.056a1.789,1.789,0,0,0-.325-1.2,1.416,1.416,0,0,0-1.107-.369,1.646,1.646,0,0,0-1.564.9V0H43.04V-9.51ZM61.3,0H58.755V-9.51H61.3Zm-2.7-11.971a1.251,1.251,0,0,1,.382-.94,1.436,1.436,0,0,1,1.042-.369,1.44,1.44,0,0,1,1.037.369,1.244,1.244,0,0,1,.387.94,1.247,1.247,0,0,1-.391.949,1.443,1.443,0,0,1-1.033.369A1.443,1.443,0,0,1,59-11.021,1.247,1.247,0,0,1,58.605-11.971ZM67.772.176a4.668,4.668,0,0,1-3.406-1.283,4.561,4.561,0,0,1-1.314-3.419v-.246a5.745,5.745,0,0,1,.554-2.562,4.064,4.064,0,0,1,1.569-1.74,4.4,4.4,0,0,1,2.316-.611,3.947,3.947,0,0,1,3.072,1.23,5,5,0,0,1,1.121,3.489v1.037H65.628a2.36,2.36,0,0,0,.743,1.494,2.245,2.245,0,0,0,1.569.563,2.742,2.742,0,0,0,2.294-1.063l1.248,1.4A3.813,3.813,0,0,1,69.935-.277,5.075,5.075,0,0,1,67.772.176Zm-.29-7.813a1.587,1.587,0,0,0-1.226.512,2.651,2.651,0,0,0-.6,1.466h3.533v-.2a1.891,1.891,0,0,0-.457-1.311A1.638,1.638,0,0,0,67.482-7.638Zm7.98-1.872.079,1.1a3.32,3.32,0,0,1,2.733-1.274,2.759,2.759,0,0,1,2.25.888,4.142,4.142,0,0,1,.756,2.654V0h-2.54V-6.082a1.648,1.648,0,0,0-.352-1.173,1.574,1.574,0,0,0-1.169-.365,1.747,1.747,0,0,0-1.608.914V0h-2.54V-9.51Zm10.784-2.338V-9.51h1.626v1.863H86.247V-2.9a1.133,1.133,0,0,0,.2.756,1.015,1.015,0,0,0,.773.229,4.051,4.051,0,0,0,.747-.062V-.053a5.229,5.229,0,0,1-1.538.229,2.425,2.425,0,0,1-2.725-2.7V-7.646H82.318V-9.51h1.389v-2.338Zm2.382,7a5.64,5.64,0,0,1,.545-2.522,3.989,3.989,0,0,1,1.569-1.714,4.577,4.577,0,0,1,2.377-.606,4.33,4.33,0,0,1,3.142,1.178,4.727,4.727,0,0,1,1.358,3.2l.018.65a4.97,4.97,0,0,1-1.222,3.511A4.247,4.247,0,0,1,93.138.176a4.268,4.268,0,0,1-3.283-1.318,5.058,5.058,0,0,1-1.226-3.586Zm2.54.18a3.555,3.555,0,0,0,.51,2.073,1.682,1.682,0,0,0,1.459.717,1.686,1.686,0,0,0,1.441-.709A3.89,3.89,0,0,0,95.1-4.847a3.519,3.519,0,0,0-.519-2.06,1.686,1.686,0,0,0-1.459-.731,1.658,1.658,0,0,0-1.441.726A3.955,3.955,0,0,0,91.169-4.662Z" transform="translate(-1555.465 -2078.446)" fill="#12263f"/>
    <path id="Path_157047" data-name="Path 157047" d="M4.588-12.8,7.875-3.516l3.27-9.281h3.463V0H11.962V-3.5l.264-6.038L8.771,0H6.961L3.516-9.527,3.779-3.5V0H1.143V-12.8ZM22.254,0A2.821,2.821,0,0,1,22-.853,3.073,3.073,0,0,1,19.6.176a3.376,3.376,0,0,1-2.316-.809,2.6,2.6,0,0,1-.918-2.039,2.687,2.687,0,0,1,1.121-2.32,5.529,5.529,0,0,1,3.239-.817h1.169v-.545a1.567,1.567,0,0,0-.338-1.055,1.331,1.331,0,0,0-1.068-.4,1.513,1.513,0,0,0-1.006.308,1.045,1.045,0,0,0-.365.844h-2.54a2.551,2.551,0,0,1,.51-1.529,3.37,3.37,0,0,1,1.441-1.1,5.253,5.253,0,0,1,2.092-.4A4.15,4.15,0,0,1,23.41-8.8a3.09,3.09,0,0,1,1.033,2.483V-2.2A4.546,4.546,0,0,0,24.82-.149V0Zm-2.1-1.767a2.188,2.188,0,0,0,1.037-.25,1.645,1.645,0,0,0,.7-.672V-4.324h-.949q-1.907,0-2.03,1.318l-.009.149a1.017,1.017,0,0,0,.334.782A1.3,1.3,0,0,0,20.153-1.767ZM26-4.825a5.731,5.731,0,0,1,1-3.542,3.237,3.237,0,0,1,2.729-1.318,2.913,2.913,0,0,1,2.294,1.037V-13.5h2.549V0H32.273L32.15-1.011A2.989,2.989,0,0,1,29.707.176a3.228,3.228,0,0,1-2.694-1.323A5.916,5.916,0,0,1,26-4.825Zm2.54.189A3.754,3.754,0,0,0,29-2.585a1.517,1.517,0,0,0,1.354.713,1.7,1.7,0,0,0,1.661-.995V-6.625a1.675,1.675,0,0,0-1.644-.995Q28.538-7.62,28.538-4.636ZM42.231-.967A3.185,3.185,0,0,1,39.63.176,3,3,0,0,1,37.3-.7a3.752,3.752,0,0,1-.822-2.575V-9.51h2.54v6.151q0,1.487,1.354,1.487a1.834,1.834,0,0,0,1.775-.9V-9.51h2.549V0H42.3Zm9.721-6.161a6.9,6.9,0,0,0-.914-.07,1.86,1.86,0,0,0-1.89.976V0h-2.54V-9.51h2.4l.07,1.134A2.354,2.354,0,0,1,51.2-9.686a2.662,2.662,0,0,1,.791.114Zm5.432,7.3a4.668,4.668,0,0,1-3.406-1.283,4.561,4.561,0,0,1-1.314-3.419v-.246a5.745,5.745,0,0,1,.554-2.562,4.064,4.064,0,0,1,1.569-1.74A4.4,4.4,0,0,1,57.1-9.686a3.947,3.947,0,0,1,3.072,1.23,5,5,0,0,1,1.121,3.489v1.037H55.239a2.36,2.36,0,0,0,.743,1.494,2.245,2.245,0,0,0,1.569.563,2.742,2.742,0,0,0,2.294-1.063l1.248,1.4A3.813,3.813,0,0,1,59.546-.277,5.075,5.075,0,0,1,57.384.176Zm-.29-7.813a1.587,1.587,0,0,0-1.226.512,2.651,2.651,0,0,0-.6,1.466H58.8v-.2a1.891,1.891,0,0,0-.457-1.311A1.638,1.638,0,0,0,57.094-7.638Zm8.561,5.59H70.3V0H62.411V-1.547l4.474-5.915H62.543V-9.51h7.62v1.5Z" transform="translate(-1360.588 -2078.446)" fill="#12263f"/>
    <g id="_000000ff" data-name=" 000000ff" opacity="0.55" style="mix-blend-mode: multiply;isolation: isolate">
      <path id="Trazado_157043" data-name="Trazado 157043" d="M-1682.473-1983.226h.276a5.078,5.078,0,0,1,1.984,1.1,63.034,63.034,0,0,1,15.525,15.882,75.567,75.567,0,0,1,12.648,46.014c-.04,2.231-.363,4.443-.548,6.664a36.893,36.893,0,0,1,10.441,10.314,1.837,1.837,0,0,1-.253,2.3,1.8,1.8,0,0,1-2.547-.01c-.02-.021-.04-.041-.059-.063-.995-1.165-1.775-2.5-2.842-3.609a33.986,33.986,0,0,0-5.374-4.9,74.272,74.272,0,0,1-7.967,22.426,43.032,43.032,0,0,1,8.95,1.485,23.945,23.945,0,0,1,10.922,6.249,30.548,30.548,0,0,0-.535-14.727,8.4,8.4,0,0,1-.531-2.09,1.819,1.819,0,0,1,1.9-1.739,1.82,1.82,0,0,1,1.642,1.228c2.629,7.156,2.272,15.136.039,22.346a1.939,1.939,0,0,1-1.5,1.193h-.475a2.168,2.168,0,0,1-1.458-1.206,15.6,15.6,0,0,0-7.509-6.432c-4.475-2.04-9.448-2.629-14.319-2.707-5.769-.034-11.541,0-17.311-.015-.015,2.522-.007,5.046,0,7.567a2.417,2.417,0,0,1-.57,1.864,1.842,1.842,0,0,1-2.5.043,2.342,2.342,0,0,1-.617-1.887q.011-3.793,0-7.585c-5.393.015-10.787-.036-16.18.028-5.789.119-11.828,1.086-16.729,4.364a13.632,13.632,0,0,0-4.538,4.921,2.2,2.2,0,0,1-1.283,1.045h-.525a1.907,1.907,0,0,1-1.526-1.193,39.32,39.32,0,0,1-1.748-13.642,31.138,31.138,0,0,1,5.243-15.5,37.761,37.761,0,0,1,10.282-10.075c-.221-2.509-.555-5.009-.567-7.529a19.728,19.728,0,0,1,0-3.216,1.826,1.826,0,0,1,2.874-.95c.829.617.715,1.752.763,2.666a72,72,0,0,0,9.714,35.409q7.11,0,14.22,0c.011-3.706-.01-7.412.009-11.118a1.894,1.894,0,0,1,1.232-1.9,1.825,1.825,0,0,1,2.414,1.7c.058,3.771,0,7.546.023,11.316q8.007.008,16.018,0a71.64,71.64,0,0,0,9.463-30.265,72.547,72.547,0,0,0-10.676-44.965,60.461,60.461,0,0,0-15.746-16.729,60.183,60.183,0,0,0-15.985,17.092,58.15,58.15,0,0,0,26.321,1.312,12.5,12.5,0,0,1,2.36-.346,1.816,1.816,0,0,1,1.635,1.98,1.818,1.818,0,0,1-1.459,1.61,61.532,61.532,0,0,1-30.785-1.3,71.712,71.712,0,0,0-8.485,28.29,3.2,3.2,0,0,1-.759,2.262,1.84,1.84,0,0,1-2.592-.219,1.659,1.659,0,0,1-.114-.151,3.825,3.825,0,0,1-.192-2.459,76.79,76.79,0,0,1,3.663-17.469c4.452-13.336,12.823-25.551,24.4-33.67a4.849,4.849,0,0,1,1.844-1m-40.214,88.8a30.494,30.494,0,0,0-.64,15.052,23.929,23.929,0,0,1,11.137-6.309,43.493,43.493,0,0,1,8.719-1.43,75.229,75.229,0,0,1-7.958-22.425A30.4,30.4,0,0,0-1722.687-1894.423Z" fill="#64b5f6"/>
      <path id="Trazado_157044" data-name="Trazado 157044" d="M-1685.663-1948.016a19.282,19.282,0,0,1,21.6,16.65,19.283,19.283,0,0,1-16.65,21.6,19.282,19.282,0,0,1-21.6-16.65,19.282,19.282,0,0,1,4.743-15.319,19.242,19.242,0,0,1,11.907-6.277m.435,3.652a15.622,15.622,0,0,0-12.047,8.738,15.564,15.564,0,0,0,5.623,19.795,15.6,15.6,0,0,0,17.047-.119,15.572,15.572,0,0,0,4.358-21.587,15.573,15.573,0,0,0-14.981-6.827Z" fill="#64b5f6"/>
      <path id="Trazado_157045" data-name="Trazado 157045" d="M-1685.248-1941.81a13.045,13.045,0,0,1,14.923,10.849,13.042,13.042,0,0,1-1.182,7.8,13.049,13.049,0,0,1-17.466,5.956,13.046,13.046,0,0,1-5.935-5.915,13.009,13.009,0,0,1,2.566-15.112,1.826,1.826,0,0,1,2.967,1.01c.251,1.032-.617,1.8-1.195,2.522a9.359,9.359,0,0,0,1.585,13.14,9.361,9.361,0,0,0,8.1,1.7,9.36,9.36,0,0,0,6.715-11.409c-.021-.083-.044-.166-.068-.249a9.37,9.37,0,0,0-11.307-6.472,2.362,2.362,0,0,1-2.068-.172,1.831,1.831,0,0,1-.413-2.555,1.784,1.784,0,0,1,.23-.261A5.8,5.8,0,0,1-1685.248-1941.81Z" fill="#64b5f6"/>
    </g>
    <g id="_000000ff-2" data-name=" 000000ff" opacity="0.55" style="mix-blend-mode: multiply;isolation: isolate">
      <path id="Trazado_157043-2" data-name="Trazado 157043" d="M-1331.231-1979.425a12.546,12.546,0,0,1,9.886-3.513,12.47,12.47,0,0,1,8.317,4.338,7.252,7.252,0,0,1,6.646-1.142,7.23,7.23,0,0,1,4.755,5.344,12.506,12.506,0,0,1,8.46,3.417,12.556,12.556,0,0,1,3.84,10.05,7.268,7.268,0,0,1,5.478,3.851,7.25,7.25,0,0,1-.4,7.178,12.593,12.593,0,0,1,3.563,8.5,12.567,12.567,0,0,1-4.379,9.7,7.269,7.269,0,0,1,1.137,6.634,7.245,7.245,0,0,1-5.348,4.761,12.5,12.5,0,0,1-3.311,8.354,12.551,12.551,0,0,1-10.149,3.952,7.307,7.307,0,0,1-2.87,4.877,7.289,7.289,0,0,1-5.987,1.159c.014,4.511-.018,9.027.016,13.54a9.14,9.14,0,0,0,3.961,7.169,12.914,12.914,0,0,0,2.933,1.4c1.858.7,3.711,1.421,5.566,2.13a4.035,4.035,0,0,0,1.637.223c2.392-.014,4.786-.005,7.178-.005a7.589,7.589,0,0,1-.532-7.444,4.944,4.944,0,0,1,4.514-2.4,19.869,19.869,0,0,0-1.365-2.012,1.79,1.79,0,0,1,.8-2.538,1.8,1.8,0,0,1,2.038.364,8.938,8.938,0,0,1,2.264,4.254,4.945,4.945,0,0,1,3.781,1.084,5.792,5.792,0,0,1,1.744,4.832,8.5,8.5,0,0,1-1.259,3.856q5.19-.006,10.384,0v3.638h-109.138v-3.638l10.375,0a7.922,7.922,0,0,1-1.1-5.9,4.761,4.761,0,0,1,2.558-3.419,6.167,6.167,0,0,1,2.521-.523,15.45,15.45,0,0,0-1.277-1.878,1.779,1.779,0,0,1,.436-2.513,1.808,1.808,0,0,1,2.326.218,8.943,8.943,0,0,1,2.249,4.239,4.8,4.8,0,0,1,4.809,2.33,7.636,7.636,0,0,1-.541,7.444c2.553-.007,5.109,0,7.662,0a5.059,5.059,0,0,0,1.955-.525c2.074-.825,4.179-1.569,6.244-2.417a9.165,9.165,0,0,0,5.429-8.2c.021-2.349,0-4.7.007-7.049h3.638c-.016,2.5.032,5-.023,7.5a12.92,12.92,0,0,1-6.741,10.688q14.047-.006,28.1,0a12.91,12.91,0,0,1-6.237-7.628,14.543,14.543,0,0,1-.545-4.656q.009-11.375,0-22.747a11.237,11.237,0,0,1-7.762,2.231,11.457,11.457,0,0,1-6.794-3.108q.006,7.039,0,14.079h-3.638c0-1.19,0-2.376,0-3.563a7.126,7.126,0,0,1-9.45-3.5,7.094,7.094,0,0,1-.507-1.549,12.512,12.512,0,0,1-8.479-3.426,12.544,12.544,0,0,1-3.826-10.041,7.257,7.257,0,0,1-5.55-3.995,7.227,7.227,0,0,1,.47-7.033,12.444,12.444,0,0,1,.155-17.6c.213-.21.434-.411.662-.6a7.257,7.257,0,0,1-1.14-6.632,7.218,7.218,0,0,1,5.348-4.761,12.487,12.487,0,0,1,4.589-9.559,12.655,12.655,0,0,1,8.878-2.751,7.243,7.243,0,0,1,3.856-5.477,7.238,7.238,0,0,1,7.174.4m2.278,2.91c-.55.6-1.039,1.46-1.951,1.494-1.282.157-1.823-1.276-2.894-1.667a3.5,3.5,0,0,0-4.6,1.867c-.45.934-.118,1.967-.125,2.946a1.8,1.8,0,0,1-2.29,1.476,8.907,8.907,0,0,0-7.96,1.567,8.733,8.733,0,0,0-3.292,6.743c-.005.612.091,1.219.095,1.829a1.726,1.726,0,0,1-1.657,1.716,4.8,4.8,0,0,0-2.4.459,3.5,3.5,0,0,0-1.425,4.555,5.3,5.3,0,0,0,1.687,1.764,1.756,1.756,0,0,1,.126,2.479c-.035.038-.072.075-.11.111a13.763,13.763,0,0,1-1.2.832,8.74,8.74,0,0,0-2.184,12.166,8.791,8.791,0,0,0,1.176,1.365c.4.37.846.684,1.21,1.091a1.743,1.743,0,0,1-.091,2.326,4.367,4.367,0,0,0-1.348,2.044,3.5,3.5,0,0,0,2.535,4.245c1.053.33,2.237-.414,3.206.246a1.88,1.88,0,0,1,.691,2.162,8.9,8.9,0,0,0,.794,6.587,8.749,8.749,0,0,0,6.616,4.45,17.123,17.123,0,0,0,2.763-.037,1.737,1.737,0,0,1,1.668,1.31,18.351,18.351,0,0,0,.214,2.08,3.484,3.484,0,0,0,2.861,2.417,3.38,3.38,0,0,0,3.392-1.641c.1-1.744,0-3.493.036-5.239a6.98,6.98,0,0,1-4.242-.944,6.378,6.378,0,0,1-3.006-6.1,1.836,1.836,0,0,1,1.553-1.608,1.762,1.762,0,0,1,2.023,1.589,3.983,3.983,0,0,0,.539,2.247,2.884,2.884,0,0,0,4.461.239c.518-.655,1.141-1.451,2.092-1.3,1.1.059,1.53,1.194,2.13,1.928a7.633,7.633,0,0,0,9.463,1.942,8.5,8.5,0,0,0,2.581-2.2,1.747,1.747,0,0,1,2.413-.327,5.466,5.466,0,0,0,1.764,1.214,2.872,2.872,0,0,0,3.433-1.51c.441-.827.091-1.768.15-2.646a1.821,1.821,0,0,1,2.54-1.3,2.2,2.2,0,0,1,1.146,1.935,6.423,6.423,0,0,1-2.849,6.221,6.883,6.883,0,0,1-4.363,1.018c0,2.167.011,4.332-.009,6.5a3.53,3.53,0,0,0,4.27-.561,3.671,3.671,0,0,0,.895-3.393,1.8,1.8,0,0,1,1.656-2.187,17.726,17.726,0,0,1,1.944.33,8.752,8.752,0,0,0,9.84-7.505,8.866,8.866,0,0,0,.078-1.079c0-.6-.091-1.2-.1-1.805a1.726,1.726,0,0,1,1.644-1.73,4.909,4.909,0,0,0,2.394-.459,3.494,3.494,0,0,0,1.505-4.393,4.978,4.978,0,0,0-1.766-1.935,1.754,1.754,0,0,1-.116-2.478c.035-.038.071-.075.109-.11.409-.352.891-.6,1.328-.918a8.733,8.733,0,0,0,3.619-7.069,8.84,8.84,0,0,0-3.476-7.01,1.849,1.849,0,0,1-.675-2.385c.5-.759,1.343-1.3,1.58-2.228a3.5,3.5,0,0,0-2.319-4.416c-1.094-.416-2.344.389-3.363-.289a1.869,1.869,0,0,1-.691-2.15,8.921,8.921,0,0,0-.946-6.863,8.72,8.72,0,0,0-7.4-4.235c-.682-.007-1.359.122-2.039.075a1.775,1.775,0,0,1-1.515-1.869,3.782,3.782,0,0,0-.925-2.82,3.486,3.486,0,0,0-4.888-.207c-.63.594-1.021,1.594-1.992,1.687a1.89,1.89,0,0,1-1.94-1.073,8.79,8.79,0,0,0-4.06-3.672,8.777,8.777,0,0,0-10.014,2.1m-35.34,94.215a5.026,5.026,0,0,0,2.262,4.5,2.436,2.436,0,0,1,2.672,0,4.933,4.933,0,0,0,2.228-4.69c-.057-.55-.434-1.167-1.055-1.142-.864-.1-1.5.639-2.3.794-1.068.136-1.848-1.026-2.935-.791a1.379,1.379,0,0,0-.871,1.332m76.394.021a5.023,5.023,0,0,0,2.265,4.479,2.431,2.431,0,0,1,2.669,0,5,5,0,0,0,2.258-4.492c-.043-.539-.273-1.217-.878-1.319-.939-.234-1.639.58-2.494.764-1.076.148-1.862-1.03-2.951-.787a1.4,1.4,0,0,0-.869,1.358Z" fill="#64b5f6"/>
      <path id="Trazado_157044-2" data-name="Trazado 157044" d="M-1318.862-1968.455h3.638v3.638h-3.638Z" fill="#64b5f6"/>
      <path id="Trazado_157045-2" data-name="Trazado 157045" d="M-1341.847-1966.211a1.8,1.8,0,0,1,2.328.009,8.743,8.743,0,0,1,2.374,4.352,4.941,4.941,0,0,1,3.886,1.176,5.958,5.958,0,0,1,1.626,4.963,8.307,8.307,0,0,1-5.9,7.178c-.828.059-1.664.007-2.494.037a8.192,8.192,0,0,1-5.83-9.936,4.857,4.857,0,0,1,4.975-3.481,15.016,15.016,0,0,0-1.274-1.876,1.777,1.777,0,0,1,.3-2.422m-.609,9.341a4.993,4.993,0,0,0,2.253,4.492,2.437,2.437,0,0,1,2.669,0,4.938,4.938,0,0,0,2.231-4.734,1.129,1.129,0,0,0-1.071-1.1c-1.007-.107-1.717.966-2.731.791-.848-.2-1.56-.975-2.485-.782a1.379,1.379,0,0,0-.866,1.335Z" fill="#64b5f6"/>
      <path id="Trazado_157046" data-name="Trazado 157046" d="M-1305.472-1958.93a1.8,1.8,0,0,1,2.321,0,8.726,8.726,0,0,1,2.385,4.359,4.97,4.97,0,0,1,3.775,1.08c1.666,1.4,2,3.822,1.628,5.857a8.724,8.724,0,0,1-3.227,5.145,5.454,5.454,0,0,1-3.874,1.256,5.468,5.468,0,0,1-3.925-1.267,8.671,8.671,0,0,1-3.233-5.136c-.359-1.99-.061-4.336,1.521-5.75a5.158,5.158,0,0,1,3.6-1.249,15.7,15.7,0,0,0-1.283-1.885,1.772,1.772,0,0,1,.31-2.407m-.612,9.317a4.972,4.972,0,0,0,2.267,4.5,2.433,2.433,0,0,1,2.662.005,4.965,4.965,0,0,0,2.258-4.493c-.043-.536-.279-1.219-.889-1.314-.937-.225-1.637.591-2.492.768-1.073.139-1.855-1.03-2.944-.788a1.37,1.37,0,0,0-.862,1.318Z" fill="#64b5f6"/>
      <path id="Trazado_157047" data-name="Trazado 157047" d="M-1328.855-1940.932a1.812,1.812,0,0,1,2.174.3,8.968,8.968,0,0,1,2.267,4.258,4.945,4.945,0,0,1,3.765,1.09,5.928,5.928,0,0,1,1.728,5.2,8.21,8.21,0,0,1-6.071,7.046c-1.1-.088-2.26.223-3.285-.291-3.884-1.512-6.221-6.353-4.618-10.277a4.908,4.908,0,0,1,4.743-2.844,19.852,19.852,0,0,0-1.362-2.01,1.784,1.784,0,0,1,.659-2.472m-.887,9.748a5.052,5.052,0,0,0,2.272,4.272,2.437,2.437,0,0,1,2.671,0,4.961,4.961,0,0,0,2.229-4.739,1.126,1.126,0,0,0-1.062-1.093c-1.008-.114-1.717.957-2.729.789-.855-.187-1.566-.978-2.5-.783-.67.18-.861.948-.882,1.556Z" fill="#64b5f6"/>
      <path id="Trazado_157048" data-name="Trazado 157048" d="M-1351.6-1937.533h3.638v3.638h-3.638Z" fill="#64b5f6"/>
      <path id="Trazado_157049" data-name="Trazado 157049" d="M-1304.31-1932.076h3.637v3.638h-3.637Z" fill="#64b5f6"/>
    </g>
    <g id="_000000ff-2-2" data-name=" 000000ff-2" style="mix-blend-mode: multiply;isolation: isolate">
      <path id="Trazado_157050" data-name="Trazado 157050" d="M-1191.444-1980.924q1.278-1.281,2.558-2.555,19.266,19.243,38.518,38.5,9.02-9.051,18.062-18.086,10.856,10.833,21.69,21.681c0-2.152,0-4.3,0-6.452,1.206,0,2.411-.005,3.617,0q0,6.318,0,12.638-6.32,0-12.64,0c-.005-1.207-.007-2.413,0-3.617,2.161-.005,4.32,0,6.481-.005q-9.574-9.564-19.15-19.123-9.031,9.029-18.064,18.064Q-1170.92-1960.386-1191.444-1980.924Z" fill="#fd9c80"/>
      <path id="Trazado_157051" data-name="Trazado 157051" d="M-1206.431-1956.887q9.035-.006,18.068,0,.014,39.786.005,79.573c1.208-.009,2.417.028,3.623-.024q-.025-34.344-.006-68.689c6.017-.017,12.031.009,18.048-.011.059,4.861.009,9.726.026,14.589q0,27.057,0,54.113c1.2,0,2.41,0,3.615,0q.006-21.69,0-43.38,9.045-.006,18.092,0,.008,21.69,0,43.38c1.205.006,2.411,0,3.615,0q.014-27.121.007-54.24c6.023,0,12.047-.011,18.07.005q0,27.116,0,54.231c1.2.008,2.408.006,3.614,0q.01-12.654.005-25.307,9.034-.006,18.068,0,.01,12.651,0,25.3c1.2.011,2.411,0,3.618.006v3.619h-112.106v-3.619c1.207,0,2.411.005,3.618-.006q.006-39.774,0-79.547m3.619,3.617q-.006,37.967,0,75.934c3.617,0,7.237.013,10.854-.009v-75.923q-5.425-.006-10.854,0m21.692,10.839q0,32.547,0,65.095,5.425,0,10.854,0,0-32.546,0-65.093-5.429-.01-10.856,0m43.386,14.477q-.006,25.3,0,50.609c3.617.022,7.236.007,10.856.009q0-25.309,0-50.62-5.425,0-10.854,0m-21.7,10.858q.006,19.89,0,39.78,5.429.009,10.856,0,0-19.89,0-39.78-5.429-.011-10.86,0m43.408,18.072c0,7.222.011,14.441-.005,21.662,3.618.063,7.239.011,10.861.026q.006-10.845,0-21.69c-3.62,0-7.237-.006-10.856,0Z" fill="#fd9c80"/>
    </g>
    <g id="_000000ff-3" data-name=" 000000ff-3" style="mix-blend-mode: multiply;isolation: isolate">
      <path id="Trazado_157052" data-name="Trazado 157052" d="M-1490.766-1982.519h4.675a37.5,37.5,0,0,1,15.756,4.721c.741.352,1.562.925,1.521,1.851a1.715,1.715,0,0,1-2.656,1.411,33.655,33.655,0,0,0-24.226-3.816,34.5,34.5,0,0,0-19.2,11.7,33.376,33.376,0,0,0-7.495,19.148,2.953,2.953,0,0,1-.488,1.927,1.692,1.692,0,0,1-2.389.138,1.692,1.692,0,0,1-.561-1.416,36.9,36.9,0,0,1,15.99-28.96A38.128,38.128,0,0,1-1490.766-1982.519Z" fill="#fb9969"/>
      <path id="Trazado_157053" data-name="Trazado 157053" d="M-1491.607-1975.574a30.591,30.591,0,0,1,33.491,27.386,30.613,30.613,0,0,1-.055,6.616,29.815,29.815,0,0,1-5.594,14.354,31.1,31.1,0,0,1-15.084,10.977,30.062,30.062,0,0,1-26.606-3.507,1.852,1.852,0,0,1-1.074-2.11,1.708,1.708,0,0,1,2.642-.923,27.345,27.345,0,0,0,36.952-5.891,26.492,26.492,0,0,0,5.5-14.566,27.162,27.162,0,0,0-25.177-29.012,27.161,27.161,0,0,0-29.012,25.177c-.01.132-.018.265-.026.4a1.7,1.7,0,0,1-1.714,1.677,1.7,1.7,0,0,1-1.678-1.715c0-.054,0-.108.01-.162A30.523,30.523,0,0,1-1491.607-1975.574Z" fill="#fb9969"/>
      <path id="Trazado_157054" data-name="Trazado 157054" d="M-1465.316-1973.934a1.7,1.7,0,0,1,2.2,2.025,1.7,1.7,0,0,1-2.712.885A1.707,1.707,0,0,1-1465.316-1973.934Z" fill="#fb9969"/>
      <path id="Trazado_157055" data-name="Trazado 157055" d="M-1489.081-1968.841a1.7,1.7,0,0,1,2.2,2.023,1.706,1.706,0,0,1-2.727.876A1.707,1.707,0,0,1-1489.081-1968.841Z" fill="#fb9969"/>
      <path id="Trazado_157056" data-name="Trazado 157056" d="M-1461.8-1968.1a1.7,1.7,0,0,1,2.663-.1,37.277,37.277,0,0,1,7.96,21.645v2.746a39.384,39.384,0,0,1-1.831,10.35,36.542,36.542,0,0,1-11,16.425,38.189,38.189,0,0,1-25.588,9.212,36.627,36.627,0,0,1-19.752-6.341c-.635-.459-1.486-.853-1.64-1.7a1.7,1.7,0,0,1,1.321-2.01c.046-.01.093-.017.141-.023a2.485,2.485,0,0,1,1.738.683,33.236,33.236,0,0,0,20.546,5.967,34.738,34.738,0,0,0,25.526-13.048,33.384,33.384,0,0,0,7.137-20.65,33.694,33.694,0,0,0-7.054-20.939A1.769,1.769,0,0,1-1461.8-1968.1Z" fill="#fb9969"/>
      <path id="Trazado_157057" data-name="Trazado 157057" d="M-1504.825-1962.324a1.706,1.706,0,0,1,2.36,1.857,1.7,1.7,0,0,1-2.727,1.006A1.706,1.706,0,0,1-1504.825-1962.324Z" fill="#fb9969"/>
      <path id="Trazado_157058" data-name="Trazado 157058" d="M-1473.633-1962.315a1.706,1.706,0,0,1,2.407,1.651,1.706,1.706,0,0,1-2.664,1.273A1.705,1.705,0,0,1-1473.633-1962.315Z" fill="#fb9969"/>
      <path id="Trazado_157059" data-name="Trazado 157059" d="M-1490.221-1960.242a1.736,1.736,0,0,1,1.28-1.85,1.7,1.7,0,0,1,2.057,1.238,1.7,1.7,0,0,1,.05.4c.017,3.488.008,6.977,0,10.466a5.37,5.37,0,0,1,3.119,3.123c1.8.009,3.593-.012,5.388.009a1.689,1.689,0,0,1,1.695,1.684,1.689,1.689,0,0,1-1.684,1.694h0c-1.791.015-3.582.017-5.371,0a5.442,5.442,0,0,1-2.737,2.939,5.108,5.108,0,0,1-5.607-.893,5.258,5.258,0,0,1-.331-7.135,5.883,5.883,0,0,1,2.15-1.432c-.03-3.41-.005-6.823-.013-10.235m1.135,13.473a1.7,1.7,0,0,0-1.035,2.162,1.7,1.7,0,0,0,2.162,1.035,1.7,1.7,0,0,0,1.074-2.036,1.7,1.7,0,0,0-2.092-1.195C-1489.013-1946.793-1489.05-1946.781-1489.086-1946.769Z" fill="#fb9969"/>
      <path id="Trazado_157060" data-name="Trazado 157060" d="M-1534.28-1958.031a1.7,1.7,0,0,1,2.689-.093c2.277,2.875,3.983,6.447,3.822,10.19a6.694,6.694,0,0,1-3.192,5.762c-.008,1.025,0,2.052,0,3.077,4.9-3.075,11.045-3.192,16.559-2.044a1.719,1.719,0,0,1,1.481,1.708c-.007.9-.8,1.484-1.324,2.116a26.56,26.56,0,0,1-8.837,6.619,14.3,14.3,0,0,1-7.877.982q0,2.781,0,5.56a18.468,18.468,0,0,1,7.455-3.281,33.707,33.707,0,0,1,13.045.843,1.721,1.721,0,0,1,1.027,2.754,39.484,39.484,0,0,1-6.583,6.749,18.113,18.113,0,0,1-6.574,3.459c-2.71.751-5.713,1.118-8.374-.007,0,2.154,0,4.306,0,6.46a17.408,17.408,0,0,1,7.538-3.251,30.28,30.28,0,0,1,13.11.859,1.7,1.7,0,0,1,.876,2.714,39.461,39.461,0,0,1-6.576,6.74,18.076,18.076,0,0,1-6.432,3.421c-2.75.781-5.808,1.178-8.518.034.006,3.1-.011,6.211.009,9.316a17.029,17.029,0,0,1,8.174,3.187,17.558,17.558,0,0,1,5.56,6.907c1.156-.008,2.315-.055,3.469.015a1.685,1.685,0,0,1,1.441,1.9,1.447,1.447,0,0,1-.036.186,1.841,1.841,0,0,1-1.337,1.282H-1551.6a1.807,1.807,0,0,1-1.384-1.295,1.685,1.685,0,0,1,1.234-2.038,1.707,1.707,0,0,1,.173-.033c1.063-.076,2.133-.006,3.2-.032a17.039,17.039,0,0,1,13.991-10.09c.06-3.124.007-6.25.028-9.375-2.759,1.245-5.916.832-8.732.017-4.414-1.252-7.931-4.44-10.959-7.75a29.138,29.138,0,0,1-2.113-2.579,1.685,1.685,0,0,1,.942-2.506,31.76,31.76,0,0,1,11.336-1.133,17.921,17.921,0,0,1,9.522,3.625c0-2.218,0-4.433,0-6.651-3.714,1.589-8.013.728-11.481-1.095a30.376,30.376,0,0,1-9.392-7.985,7.674,7.674,0,0,1-1.108-1.6,1.707,1.707,0,0,1,1.111-2.144,1.386,1.386,0,0,1,.156-.042,32.024,32.024,0,0,1,11.188-1.086,17.928,17.928,0,0,1,9.524,3.624c0-2.022,0-4.043,0-6.065a10.735,10.735,0,0,1-6.806.091,23.261,23.261,0,0,1-10.623-7.085,11.717,11.717,0,0,1-1.409-1.753,1.692,1.692,0,0,1,.826-2.246,1.678,1.678,0,0,1,.324-.112,28.9,28.9,0,0,1,8.359-.708,16.907,16.907,0,0,1,9.327,3.257c0-1.129,0-2.256,0-3.385a6.415,6.415,0,0,1-3.489-5.49c-.339-3.811,1.305-7.518,3.567-10.5m1.331,4.225a9.693,9.693,0,0,0-1.566,5.469,4.64,4.64,0,0,0,.94,2.793.993.993,0,0,0,1.4.107c.019-.016.037-.033.055-.05a4.469,4.469,0,0,0,.98-2.867,9.8,9.8,0,0,0-1.668-5.486l-.142.034m-15.317,15.434a19.769,19.769,0,0,0,6.534,4.609,10.751,10.751,0,0,0,5.5.716c.516-.119,1.221-.435,1.14-1.074a3.129,3.129,0,0,0-1.191-1.689,13.127,13.127,0,0,0-4.443-2.241,20.642,20.642,0,0,0-7.544-.321m22.233.7a11.154,11.154,0,0,0-4.665,2.755c-.447.416-.227,1.069-.241,1.6a4.347,4.347,0,0,0,2.529.407,14.351,14.351,0,0,0,5.237-1.481,19.771,19.771,0,0,0,4.974-3.845,19.465,19.465,0,0,0-7.834.56m-25.588,13.847a29.527,29.527,0,0,0,6.069,5.358,14.931,14.931,0,0,0,6.073,2.095,6.1,6.1,0,0,0,4.005-.62,1.849,1.849,0,0,0,.742-2.124,6.071,6.071,0,0,0-2.743-2.975,14.822,14.822,0,0,0-6.2-2.159,29.971,29.971,0,0,0-7.949.425m23.846,1.6a6.562,6.562,0,0,0-2.92,2.952,1.865,1.865,0,0,0,.67,2.27,6.2,6.2,0,0,0,4.187.611,14.882,14.882,0,0,0,5.9-2.062,29.423,29.423,0,0,0,6.055-5.331,27.484,27.484,0,0,0-7.538-.5,14.64,14.64,0,0,0-6.351,2.057m-23.842,15.378a29.732,29.732,0,0,0,5.912,5.261,14.849,14.849,0,0,0,6.218,2.19,6.1,6.1,0,0,0,4.015-.62,1.868,1.868,0,0,0,.687-2.281,6.623,6.623,0,0,0-2.975-2.986,14.7,14.7,0,0,0-5.912-1.988,29.9,29.9,0,0,0-7.945.424m29.338-.371a14.812,14.812,0,0,0-4.817,1.592,8.893,8.893,0,0,0-3.179,2.531,2.307,2.307,0,0,0-.363,2.379,3.083,3.083,0,0,0,2.328,1.32,12.394,12.394,0,0,0,5.188-.632,17.921,17.921,0,0,0,6.971-4.444,21.12,21.12,0,0,0,2.252-2.383,29.123,29.123,0,0,0-8.38-.363m-15.876,24.255a13.492,13.492,0,0,0-6.417,5.7q11.762,0,23.521,0a13.5,13.5,0,0,0-6.224-5.612A13.809,13.809,0,0,0-1538.155-1882.969Z" fill="#fb9969"/>
      <path id="Trazado_157061" data-name="Trazado 157061" d="M-1511.16-1946.769a1.7,1.7,0,0,1,2.2,2.029,1.7,1.7,0,0,1-2.72.87A1.707,1.707,0,0,1-1511.16-1946.769Z" fill="#fb9969"/>
      <path id="Trazado_157062" data-name="Trazado 157062" d="M-1467.022-1946.767a1.7,1.7,0,0,1,2.209,2.01,1.705,1.705,0,0,1-2.736.878A1.705,1.705,0,0,1-1467.022-1946.767Z" fill="#fb9969"/>
      <path id="Trazado_157063" data-name="Trazado 157063" d="M-1504.815-1931.116a1.705,1.705,0,0,1,2.352,1.854,1.7,1.7,0,0,1-2.746,1A1.705,1.705,0,0,1-1504.815-1931.116Z" fill="#fb9969"/>
      <path id="Trazado_157064" data-name="Trazado 157064" d="M-1473.792-1931.021a1.708,1.708,0,0,1,2.566,1.346,1.707,1.707,0,0,1-2.534,1.583A1.715,1.715,0,0,1-1473.792-1931.021Z" fill="#fb9969"/>
      <path id="Trazado_157065" data-name="Trazado 157065" d="M-1489.092-1924.7a1.7,1.7,0,0,1,2.207,2.022,1.706,1.706,0,0,1-2.721.877A1.706,1.706,0,0,1-1489.092-1924.7Z" fill="#fb9969"/>
      <path id="Trazado_157066" data-name="Trazado 157066" d="M-1559.825-1875.838a1.761,1.761,0,0,1,1.691-1.424,1.7,1.7,0,0,1,1.7,1.709,1.73,1.73,0,0,1-.013.2,1.813,1.813,0,0,1-1.371,1.481h-.573a1.924,1.924,0,0,1-1.432-1.386Z" fill="#fb9969"/>
      <path id="Trazado_157067" data-name="Trazado 157067" d="M-1508.878-1875.348a1.694,1.694,0,0,1,1.46-1.9,1.694,1.694,0,0,1,1.9,1.461,1.71,1.71,0,0,1,0,.441,1.822,1.822,0,0,1-1.369,1.477h-.579A1.785,1.785,0,0,1-1508.878-1875.348Z" fill="#fb9969"/>
    </g>
    <path id="Path_157297" data-name="Path 157297" d="M1.143,17V4.2H5.08a5.98,5.98,0,0,1,3.019.76,5.3,5.3,0,0,1,2.079,2.162,6.669,6.669,0,0,1,.747,3.186V10.9a6.688,6.688,0,0,1-.734,3.173,5.256,5.256,0,0,1-2.07,2.153A6.025,6.025,0,0,1,5.106,17ZM3.779,6.339v8.543H5.054a2.863,2.863,0,0,0,2.364-1.011,4.567,4.567,0,0,0,.835-2.892V10.3a4.64,4.64,0,0,0-.809-2.958A2.854,2.854,0,0,0,5.08,6.339ZM17.051,17.176a4.668,4.668,0,0,1-3.406-1.283,4.561,4.561,0,0,1-1.314-3.419v-.246a5.745,5.745,0,0,1,.554-2.562,4.064,4.064,0,0,1,1.569-1.74,4.4,4.4,0,0,1,2.316-.611,3.947,3.947,0,0,1,3.072,1.23,5,5,0,0,1,1.121,3.489v1.037H14.906a2.36,2.36,0,0,0,.743,1.494,2.245,2.245,0,0,0,1.569.563,2.742,2.742,0,0,0,2.294-1.063l1.248,1.4a3.813,3.813,0,0,1-1.547,1.261A5.075,5.075,0,0,1,17.051,17.176Zm-.29-7.813a1.587,1.587,0,0,0-1.226.512,2.651,2.651,0,0,0-.6,1.466h3.533v-.2a1.891,1.891,0,0,0-.457-1.311A1.638,1.638,0,0,0,16.761,9.362Zm9.6,5.766a1.666,1.666,0,0,0,1.143-.387,1.355,1.355,0,0,0,.457-1.028H30.34a3.258,3.258,0,0,1-.527,1.771,3.48,3.48,0,0,1-1.419,1.248,4.442,4.442,0,0,1-1.991.444,4.129,4.129,0,0,1-3.217-1.3A5.13,5.13,0,0,1,22.008,12.3v-.167a5.071,5.071,0,0,1,1.169-3.507,4.08,4.08,0,0,1,3.208-1.31A4,4,0,0,1,29.246,8.33a3.594,3.594,0,0,1,1.094,2.7H27.958A1.745,1.745,0,0,0,27.5,9.826a1.7,1.7,0,0,0-2.5.183,3.749,3.749,0,0,0-.453,2.1v.264A3.8,3.8,0,0,0,25,14.485,1.549,1.549,0,0,0,26.358,15.128ZM34.471,17H31.922V3.5h2.549Zm4.772,0H36.694V7.49h2.549Zm-2.7-11.971a1.251,1.251,0,0,1,.382-.94,1.648,1.648,0,0,1,2.079,0,1.244,1.244,0,0,1,.387.94A1.247,1.247,0,0,1,39,5.979a1.629,1.629,0,0,1-2.065,0A1.247,1.247,0,0,1,36.545,5.029Zm8.35,8.868L46.661,7.49h2.654L46.107,17H43.682L40.474,7.49h2.654Zm9.8,3.278a4.668,4.668,0,0,1-3.406-1.283,4.561,4.561,0,0,1-1.314-3.419v-.246a5.745,5.745,0,0,1,.554-2.562A4.064,4.064,0,0,1,52.1,7.925a4.4,4.4,0,0,1,2.316-.611,3.947,3.947,0,0,1,3.072,1.23,5,5,0,0,1,1.121,3.489v1.037H52.55a2.36,2.36,0,0,0,.743,1.494,2.245,2.245,0,0,0,1.569.563,2.742,2.742,0,0,0,2.294-1.063l1.248,1.4a3.813,3.813,0,0,1-1.547,1.261A5.075,5.075,0,0,1,54.694,17.176ZM54.4,9.362a1.587,1.587,0,0,0-1.226.512,2.651,2.651,0,0,0-.6,1.466h3.533v-.2a1.891,1.891,0,0,0-.457-1.311A1.638,1.638,0,0,0,54.4,9.362Z" transform="translate(-1175 -2096)" fill="#12263f"/>
  </g>
</svg>
