<svg xmlns="http://www.w3.org/2000/svg" width="100" height="100" viewBox="0 0 100 100">
  <g id="t2-ic2" transform="translate(1908 1210)">
    <rect id="Rectangle_35974" data-name="Rectangle 35974" width="100" height="100" rx="10" transform="translate(-1908 -1210)" fill="#f9f024"/>
    <g id="_000000ff" data-name="#000000ff" transform="translate(-1895 -1197)">
      <path id="Path_156514" data-name="Path 156514" d="M1.1,0H73.887A1.258,1.258,0,0,1,75,1.1V5.918a1.279,1.279,0,0,1-1.459,1.115q-36.04,0-72.078,0A1.283,1.283,0,0,1,0,5.931V1.115A1.255,1.255,0,0,1,1.1,0M2.344,2.344V4.688H72.656V2.344Z" fill="#12263f"/>
      <path id="Path_156515" data-name="Path 156515" d="M51.918,64.324a1.468,1.468,0,0,1,1.107-.352q8.424,0,16.849,0a1.649,1.649,0,0,1,1.261.36,1.672,1.672,0,0,1,.353,1.257c-.009,3.759,0,7.519,0,11.278a24.42,24.42,0,0,1,2.621.054,1.211,1.211,0,0,1,.9,1.042v4.824a1.23,1.23,0,0,1-1.315,1.106q-35.6.022-71.19.007a7.948,7.948,0,0,1-1.7-.081A1.236,1.236,0,0,1,0,82.795V77.978a1.2,1.2,0,0,1,1.162-1.1c1.564-.044,3.132,0,4.7-.016,0-2.588,0-5.177,0-7.765a1.652,1.652,0,0,1,.357-1.258,1.475,1.475,0,0,1,1.109-.353q17.284,0,34.569,0a1.471,1.471,0,0,1,1.122.359,1.877,1.877,0,0,1,.353,1.4c-.012,2.54,0,5.079-.006,7.617h8.2c0-3.757,0-7.513,0-11.271a1.652,1.652,0,0,1,.36-1.27m1.988,1.994V76.865h3.516V66.318H53.906m5.859,0V76.865h3.516V66.318H59.766m5.859,0V76.865h3.516V66.318H65.625M8.2,69.834v7.031h4.688V69.834H8.2m7.031,0v7.031h4.688V69.834H15.234m7.031,0v7.031h4.688V69.834H22.266m7.031,0v7.031h4.688V69.834H29.3m7.031,0v7.031h4.688V69.834H36.328M2.344,79.209v2.344H72.656V79.209Z" transform="translate(0 -54.599)" fill="#12263f"/>
      <path id="Path_156516" data-name="Path 156516" d="M41.033,217.107a1.151,1.151,0,0,1,1.137-1.132c1.323-.05,2.647,0,3.971-.023.527.016,1.156-.062,1.557.362a1.673,1.673,0,0,1,.353,1.258q-.007,1.881,0,3.763c.489.511,1.21.995,1.165,1.793.018,1.907,0,3.813.006,5.72h2.344c.006-1.906-.01-3.813,0-5.719-.048-.8.677-1.282,1.166-1.793.019-1.409-.029-2.818.018-4.226a1.19,1.19,0,0,1,1.3-1.147c1.521,0,3.044-.026,4.564.012a1.152,1.152,0,0,1,1.135,1.134c.048,1.408,0,2.818.019,4.228.489.51,1.207.992,1.165,1.787.018,1.907,0,3.816.006,5.725h2.344c.006-1.91-.012-3.819.006-5.729-.045-.794.678-1.273,1.165-1.783.019-1.408-.029-2.815.018-4.222a1.153,1.153,0,0,1,1.131-1.14c1.131-.051,2.265,0,3.4-.019a7.677,7.677,0,0,1,1.7.083,1.206,1.206,0,0,1,.781,1.225c.022,1.356-.006,2.714.007,4.072.492.511,1.21,1,1.165,1.8.018,1.9,0,3.809.006,5.713a6.669,6.669,0,0,1,1.557.085A1.238,1.238,0,0,1,75,229.95v4.819a1.279,1.279,0,0,1-1.459,1.112q-36.116-.009-72.233-.007A1.233,1.233,0,0,1,0,234.781v-4.818a1.227,1.227,0,0,1,1.3-1.109c2.691-.016,5.38,0,8.071-.006.009-1.564-.015-3.129.007-4.693a2.339,2.339,0,0,1,.923-1.853,3.02,3.02,0,0,1,1.414-.519v-4.654h2.344q0,2.329,0,4.658.593.13,1.172.316c.385-.123.776-.23,1.172-.316,0-1.553,0-3.105,0-4.658H18.75c0,1.553,0,3.105,0,4.658.4.086.787.193,1.173.316.384-.125.775-.23,1.17-.316q0-2.329,0-4.658h2.344q0,2.329,0,4.658.593.13,1.172.316.578-.187,1.172-.316,0-2.329,0-4.658h2.344v4.654a2.433,2.433,0,0,1,2.336,2.367c.022,1.566,0,3.132.007,4.7h9.375c0-1.806,0-3.612,0-5.418a1.872,1.872,0,0,1,.223-1.085,8.376,8.376,0,0,1,.952-1.009c.019-1.409-.029-2.82.019-4.228m2.326,1.194c-.013,1.178.025,2.355-.015,3.532-.028.728-.71,1.148-1.156,1.635,0,1.793,0,3.586,0,5.38h4.688c0-1.794,0-3.589,0-5.382a8.8,8.8,0,0,1-.952-1,1.8,1.8,0,0,1-.22-1.077c0-1.028,0-2.057,0-3.085H43.359m11.719,0c-.013,1.175.023,2.351-.015,3.524-.023.732-.709,1.154-1.156,1.642q0,2.692,0,5.38h4.688q0-2.689,0-5.38a8.89,8.89,0,0,1-.951-1,1.8,1.8,0,0,1-.223-1.088c0-1.027,0-2.052,0-3.078H55.078m11.719,0c-.013,1.176.025,2.354-.015,3.53-.026.728-.709,1.15-1.154,1.635-.006,1.794,0,3.587,0,5.382h4.688c0-1.794,0-3.587,0-5.38a9.071,9.071,0,0,1-.954-1,1.85,1.85,0,0,1-.22-1.1c0-1.022,0-2.043,0-3.066H66.8m-55.078,5.859v4.688h2.344v-4.687H11.719m4.688,0v4.688H18.75v-4.687H16.406m4.688,0v4.688h2.344v-4.687H21.094m4.688,0v4.688h2.344v-4.687H25.781M2.344,231.192v2.344H72.656v-2.344Z" transform="translate(0 -184.317)" fill="#12263f"/>
      <path id="Path_156517" data-name="Path 156517" d="M41.016,368h2.344c0,.853-.01,1.707.015,2.559a3.721,3.721,0,0,1,1.862,1.573,4.216,4.216,0,0,1,.472,2.312c-.009,2.149,0,4.3,0,6.447h2.344q0-3.371,0-6.738a3.875,3.875,0,0,1,.422-1.939,3.727,3.727,0,0,1,1.91-1.657c.022-.853.012-1.7.013-2.556h2.344c0,.85,0,1.7.007,2.547A3.607,3.607,0,0,1,55.077,374c0,2.3,0,4.591,0,6.888h2.344c0-2.294,0-4.588,0-6.883a3.573,3.573,0,0,1,2.326-3.445c.028-.854.015-1.708.016-2.562h2.344c0,.85-.006,1.7.007,2.549A3.6,3.6,0,0,1,64.452,374c0,2.3,0,4.6,0,6.894H66.8q0-3.371,0-6.74a3.884,3.884,0,0,1,.416-1.928,3.747,3.747,0,0,1,1.919-1.67c.018-.851.009-1.7.01-2.553h2.344c0,.85,0,1.7.007,2.547a3.582,3.582,0,0,1,2.323,3.158c.035,2.379,0,4.758.016,7.137A1.383,1.383,0,0,1,75,381.986v4.822a1.193,1.193,0,0,1-1.006,1.08c-1.225.085-2.455.009-3.681.034v1.172H67.969v-1.172H7.031v1.172H4.688v-1.172c-1.226-.026-2.455.051-3.678-.034A1.2,1.2,0,0,1,0,386.826V382a1.375,1.375,0,0,1,1.169-1.162c.012-2.675-.009-5.35.009-8.023a1.206,1.206,0,0,1,.778-1.222,6.828,6.828,0,0,1,1.566-.085c10.5.01,21-.007,31.5.009a1.215,1.215,0,0,1,1.3,1.305c.016,2.688,0,5.376.006,8.064h2.344q0-3.368,0-6.737a3.885,3.885,0,0,1,.417-1.934,3.792,3.792,0,0,1,1.92-1.673c.012-.85.007-1.7.007-2.547m.278,5.123a1.723,1.723,0,0,0-.281,1.175c.007,2.2,0,4.395,0,6.593h2.344c0-2.2,0-4.4,0-6.6a1.726,1.726,0,0,0-.283-1.172,1.165,1.165,0,0,0-1.786,0m9.374,0a1.744,1.744,0,0,0-.28,1.182c.007,2.194,0,4.39,0,6.584h2.344c0-2.194,0-4.39,0-6.584a1.744,1.744,0,0,0-.283-1.185,1.165,1.165,0,0,0-1.787,0m9.371,0a1.754,1.754,0,0,0-.275,1.17c.007,2.2,0,4.395,0,6.592h2.344c0-2.2,0-4.395,0-6.592a1.751,1.751,0,0,0-.281-1.178,1.168,1.168,0,0,0-1.793.007m9.379,0a1.718,1.718,0,0,0-.28,1.167c.007,2.2,0,4.4,0,6.6h2.344c0-2.2,0-4.392,0-6.589a1.742,1.742,0,0,0-.284-1.184,1.166,1.166,0,0,0-1.786.006m-65.9.735V376.2H9.375v-2.344H3.516m8.2,0V376.2h5.859v-2.344H11.719m8.2,0V376.2h5.859v-2.344H19.922m8.2,0V376.2h5.859v-2.344H28.125M3.516,378.547v2.344H9.375v-2.344H3.516m8.2,0v2.344h5.859v-2.344H11.719m8.2,0v2.344h5.859v-2.344H19.922m8.2,0v2.344h5.859v-2.344H28.125M2.344,383.234v2.344H72.656v-2.344Z" transform="translate(0 -314.094)" fill="#12263f"/>
    </g>
  </g>
</svg>
