<svg xmlns="http://www.w3.org/2000/svg" width="100" height="100" viewBox="0 0 100 100">
  <g id="t2-ic1" transform="translate(-369.758 -10368)">
    <rect id="Rectangle_35972" data-name="Rectangle 35972" width="100" height="100" rx="10" transform="translate(369.758 10368)" fill="#f9f024"/>
    <g id="_000000ff" data-name="#000000ff" transform="translate(380.76 10373.008)">
      <path id="Path_156518" data-name="Path 156518" d="M17.454,12a18.451,18.451,0,0,1,11.26-4c2.366-.011,4.734,0,7.1,0A10.894,10.894,0,0,1,46.521,16.9a7.443,7.443,0,0,1-.308,4.354,6.133,6.133,0,0,1-4.345,3.556c.068,1.346-.248,2.811.463,4.038.706,1.275,1.9,2.386,1.943,3.933a3.926,3.926,0,0,1-2.406,3.787c-.073,1.669.225,3.414-.4,5.011A6.083,6.083,0,0,1,37.3,45.3a10.528,10.528,0,0,1-2.687.187c-.006.475,0,.95.014,1.424a18.208,18.208,0,0,1,12.428,9.459c6.388.014,12.776-.011,19.164.012A3.637,3.637,0,0,1,69.683,60q.007,9.682,0,19.362a3.65,3.65,0,0,1-3.615,3.624q-18.15.011-36.3,0a33.018,33.018,0,0,1-7.56-.452A18.224,18.224,0,0,1,22.5,46.906c.02-1.005.011-2.012.006-3.019A18.51,18.51,0,0,1,17.454,12m3.83.357a16.078,16.078,0,0,0,1.229,28.909V37.625c-.943-.718-1.905-1.412-2.841-2.138a5.244,5.244,0,0,1,2.839-9.344c0-1.151,0-2.3,0-3.45,1.3-.225,2.6-.407,3.893-.673a4.545,4.545,0,0,0,3.376-4.35c.8,0,1.607,0,2.41,0a7.111,7.111,0,0,1-2,4.846,4.356,4.356,0,0,0,3.6-1.887,4.8,4.8,0,0,0,.823-2.96h2.418a7.266,7.266,0,0,1-1.653,4.862,4.544,4.544,0,0,0,3.248-1.9,4.8,4.8,0,0,0,.826-2.963c.806,0,1.612,0,2.418,0a7.211,7.211,0,0,1-1.65,4.847,4.282,4.282,0,0,0,2.032-.386A3.635,3.635,0,0,0,44.265,19.2a8.462,8.462,0,0,0-8.452-8.781c-2.418,0-4.837-.011-7.256,0a15.962,15.962,0,0,0-7.274,1.934m3.648,12.573v3.629c-.762.012-1.526-.027-2.288.018a2.818,2.818,0,0,0-1.415,5.065c1.229.933,2.474,1.846,3.7,2.78q0,5.45,0,10.9c-.018.318.231.55.381.8,1.089,1.616,2.161,3.243,3.246,4.861,1.2-1.81,2.428-3.6,3.6-5.423.08-.686.009-1.38.032-2.07H27.351V43.071c2.876-.008,5.75.014,8.626-.009A3.636,3.636,0,0,0,39.438,39.6c.024-1.512,0-3.024.009-4.536.572-.3,1.163-.558,1.722-.874a1.4,1.4,0,0,0,.541-1.845,16.9,16.9,0,0,1-1.988-3.458,13.971,13.971,0,0,1-.275-3.963H24.932M23.107,49.192c.463,3.038.9,6.08,1.418,9.107.826-1.081,1.693-2.129,2.537-3.193-1.315-1.972-2.614-3.957-3.955-5.913m6.952,5.915q1.284,1.6,2.56,3.2c.472-3.033.95-6.064,1.394-9.1-1.346,1.949-2.637,3.936-3.954,5.9M14.447,54.2a15.826,15.826,0,0,0,8.989,26.119,27.622,27.622,0,0,0,5.123.253h7.26V75.73H27.505A12.111,12.111,0,0,1,15.258,63.8c-.008-1.668,0-3.335,0-5h2.419c0,1.612,0,3.223,0,4.835A9.532,9.532,0,0,0,19,68.505a9.7,9.7,0,0,0,8.2,4.8c3.022.009,6.045,0,9.067,0a4.254,4.254,0,0,1,4.386-2.387c0-3.641,0-7.282,0-10.922A3.688,3.688,0,0,1,44.3,56.357a15.954,15.954,0,0,0-7.944-6.417c-.733,4.725-1.451,9.451-2.185,14.176q-2.81-3.5-5.614-7.011c-1.875,2.328-3.725,4.678-5.611,7-.741-4.729-1.459-9.462-2.189-14.193A15.765,15.765,0,0,0,14.447,54.2m28.629,5.957c.006,4.019-.012,8.038.009,12.056a7.015,7.015,0,0,1,.747,1.093,4.357,4.357,0,0,1,1.953.336,3.663,3.663,0,0,1,2.129,3.452,13.26,13.26,0,0,1-.21,3.479c6.122-.009,12.245.009,18.366-.009a1.228,1.228,0,0,0,1.2-1.343V60.144a1.225,1.225,0,0,0-1.2-1.341c-2.02-.018-4.041,0-6.061-.008q0,3.629,0,7.257H50.333q0-3.629,0-7.257c-2.021.006-4.041-.011-6.063.008a1.225,1.225,0,0,0-1.194,1.35M52.752,58.8v4.838H57.59V58.8H52.752M38.233,75.271c.009,1.764,0,3.53,0,5.3,2.02-.006,4.04.011,6.06-.008a1.2,1.2,0,0,0,1.188-1.179c.018-.819.017-1.637,0-2.455a1.19,1.19,0,0,0-1.042-1.176c-.7-.051-1.411-.006-2.117-.02-.5-.845-.736-2.08-1.826-2.359A1.87,1.87,0,0,0,38.233,75.271Z" fill="#12263f"/>
      <path id="Path_156519" data-name="Path 156519" d="M304,456h2.419v2.419H304Z" transform="translate(-251.248 -380.27)" fill="#12263f"/>
      <path id="Path_156520" data-name="Path 156520" d="M336,456h2.419v2.419H336Z" transform="translate(-278.41 -380.27)" fill="#12263f"/>
      <path id="Path_156521" data-name="Path 156521" d="M368,456h2.419v2.419H368Z" transform="translate(-305.572 -380.27)" fill="#12263f"/>
    </g>
  </g>
</svg>
