<svg xmlns="http://www.w3.org/2000/svg" xmlns:xlink="http://www.w3.org/1999/xlink" width="400" height="227" viewBox="0 0 400 227">
  <defs>
    <clipPath id="clip-path">
      <path id="Path_156760" data-name="Path 156760" d="M1457.425-895.938l-55.154-55.154,16.97-16.97,55.155,55.154Zm-54.363-119.97-55.154-55.154-16.97,16.97,55.154,55.154Zm-10,103-55.154-55.154-16.97,16.97,55.154,55.154Zm162.667,0-55.154-55.154-16.971,16.97,55.155,55.154Zm81.333,0-55.154-55.154-16.97,16.97,55.154,55.154Zm-145-103-55.154-55.154-16.97,16.97,55.154,55.154Zm89,0-55.154-55.154-16.97,16.97,55.154,55.154ZM1663-996.5V-1050h-23v76.5h42v-23Z" fill="none"/>
    </clipPath>
  </defs>
  <g id="t2-m2" transform="translate(-1293 1097)">
    <rect id="Rectangle_36795" data-name="Rectangle 36795" width="400" height="227" transform="translate(1293 -1097)" fill="#ebf6ff"/>
    <path id="Path_156759" data-name="Path 156759" d="M1457.425-895.938l-55.154-55.154,16.97-16.97,55.155,55.154Zm-54.363-119.97-55.154-55.154-16.97,16.97,55.154,55.154Zm-10,103-55.154-55.154-16.97,16.97,55.154,55.154Zm162.667,0-55.154-55.154-16.971,16.97,55.155,55.154Zm81.333,0-55.154-55.154-16.97,16.97,55.154,55.154Zm-145-103-55.154-55.154-16.97,16.97,55.154,55.154Zm89,0-55.154-55.154-16.97,16.97,55.154,55.154ZM1663-996.5V-1050h-23v76.5h42v-23Z" fill="#ba68c8"/>
    <g id="Group_107746" data-name="Group 107746">
      <g id="Group_107745" data-name="Group 107745" clip-path="url(#clip-path)">
        <g id="Group_107744" data-name="Group 107744" opacity="0.4" style="mix-blend-mode: multiply;isolation: isolate">
          <g id="Group_107717" data-name="Group 107717">
            <g id="Group_107692" data-name="Group 107692">
              <rect id="Rectangle_36796" data-name="Rectangle 36796" width="368.07" height="0.62" transform="matrix(0.707, -0.707, 0.707, 0.707, 1496.309, -764.68)" fill="#ba68c8"/>
            </g>
            <g id="Group_107693" data-name="Group 107693">
              <rect id="Rectangle_36797" data-name="Rectangle 36797" width="368.07" height="0.62" transform="translate(1486.572 -774.417) rotate(-45)" fill="#ba68c8"/>
            </g>
            <g id="Group_107694" data-name="Group 107694">
              <rect id="Rectangle_36798" data-name="Rectangle 36798" width="368.07" height="0.62" transform="translate(1476.847 -784.143) rotate(-45)" fill="#ba68c8"/>
            </g>
            <g id="Group_107695" data-name="Group 107695">
              <rect id="Rectangle_36799" data-name="Rectangle 36799" width="368.07" height="0.62" transform="matrix(0.707, -0.707, 0.707, 0.707, 1467.134, -793.855)" fill="#ba68c8"/>
            </g>
            <g id="Group_107696" data-name="Group 107696">
              <rect id="Rectangle_36800" data-name="Rectangle 36800" width="368.07" height="0.62" transform="translate(1457.396 -803.593) rotate(-45)" fill="#ba68c8"/>
            </g>
            <g id="Group_107697" data-name="Group 107697">
              <rect id="Rectangle_36801" data-name="Rectangle 36801" width="368.07" height="0.62" transform="matrix(0.707, -0.707, 0.707, 0.707, 1447.659, -813.33)" fill="#ba68c8"/>
            </g>
            <g id="Group_107698" data-name="Group 107698">
              <rect id="Rectangle_36802" data-name="Rectangle 36802" width="368.07" height="0.62" transform="matrix(0.707, -0.707, 0.707, 0.707, 1437.959, -823.03)" fill="#ba68c8"/>
            </g>
            <g id="Group_107699" data-name="Group 107699">
              <rect id="Rectangle_36803" data-name="Rectangle 36803" width="368.07" height="0.62" transform="translate(1428.222 -832.768) rotate(-45)" fill="#ba68c8"/>
            </g>
            <g id="Group_107700" data-name="Group 107700">
              <rect id="Rectangle_36804" data-name="Rectangle 36804" width="368.07" height="0.62" transform="matrix(0.707, -0.707, 0.707, 0.707, 1418.484, -842.505)" fill="#ba68c8"/>
            </g>
            <g id="Group_107701" data-name="Group 107701">
              <rect id="Rectangle_36805" data-name="Rectangle 36805" width="368.07" height="0.62" transform="matrix(0.707, -0.707, 0.707, 0.707, 1408.784, -852.206)" fill="#ba68c8"/>
            </g>
            <g id="Group_107702" data-name="Group 107702">
              <rect id="Rectangle_36806" data-name="Rectangle 36806" width="368.07" height="0.62" transform="translate(1399.046 -861.943) rotate(-45)" fill="#ba68c8"/>
            </g>
            <g id="Group_107703" data-name="Group 107703">
              <rect id="Rectangle_36807" data-name="Rectangle 36807" width="368.07" height="0.62" transform="matrix(0.707, -0.707, 0.707, 0.707, 1389.309, -871.68)" fill="#ba68c8"/>
            </g>
            <g id="Group_107704" data-name="Group 107704">
              <rect id="Rectangle_36808" data-name="Rectangle 36808" width="368.07" height="0.62" transform="translate(1379.596 -881.393) rotate(-45)" fill="#ba68c8"/>
            </g>
            <g id="Group_107705" data-name="Group 107705">
              <rect id="Rectangle_36809" data-name="Rectangle 36809" width="368.07" height="0.62" transform="translate(1369.871 -891.118) rotate(-45)" fill="#ba68c8"/>
            </g>
            <g id="Group_107706" data-name="Group 107706">
              <rect id="Rectangle_36810" data-name="Rectangle 36810" width="368.07" height="0.62" transform="matrix(0.707, -0.707, 0.707, 0.707, 1360.134, -900.856)" fill="#ba68c8"/>
            </g>
            <g id="Group_107707" data-name="Group 107707">
              <rect id="Rectangle_36811" data-name="Rectangle 36811" width="368.07" height="0.62" transform="translate(1350.421 -910.568) rotate(-45)" fill="#ba68c8"/>
            </g>
            <g id="Group_107708" data-name="Group 107708">
              <rect id="Rectangle_36812" data-name="Rectangle 36812" width="368.07" height="0.62" transform="matrix(0.707, -0.707, 0.707, 0.707, 1340.708, -920.281)" fill="#ba68c8"/>
            </g>
            <g id="Group_107709" data-name="Group 107709">
              <rect id="Rectangle_36813" data-name="Rectangle 36813" width="368.07" height="0.62" transform="translate(1330.971 -930.018) rotate(-45)" fill="#ba68c8"/>
            </g>
            <g id="Group_107710" data-name="Group 107710">
              <rect id="Rectangle_36814" data-name="Rectangle 36814" width="368.07" height="0.62" transform="translate(1321.246 -939.743) rotate(-45)" fill="#ba68c8"/>
            </g>
            <g id="Group_107711" data-name="Group 107711">
              <rect id="Rectangle_36815" data-name="Rectangle 36815" width="368.07" height="0.62" transform="matrix(0.707, -0.707, 0.707, 0.707, 1311.533, -949.456)" fill="#ba68c8"/>
            </g>
            <g id="Group_107712" data-name="Group 107712">
              <rect id="Rectangle_36816" data-name="Rectangle 36816" width="368.07" height="0.62" transform="translate(1301.796 -959.193) rotate(-45)" fill="#ba68c8"/>
            </g>
            <g id="Group_107713" data-name="Group 107713">
              <rect id="Rectangle_36817" data-name="Rectangle 36817" width="368.07" height="0.62" transform="matrix(0.707, -0.707, 0.707, 0.707, 1292.059, -968.931)" fill="#ba68c8"/>
            </g>
            <g id="Group_107714" data-name="Group 107714">
              <rect id="Rectangle_36818" data-name="Rectangle 36818" width="368.07" height="0.62" transform="matrix(0.707, -0.707, 0.707, 0.707, 1282.358, -978.631)" fill="#ba68c8"/>
            </g>
            <g id="Group_107715" data-name="Group 107715">
              <rect id="Rectangle_36819" data-name="Rectangle 36819" width="368.07" height="0.62" transform="translate(1272.621 -988.369) rotate(-45)" fill="#ba68c8"/>
            </g>
            <g id="Group_107716" data-name="Group 107716">
              <rect id="Rectangle_36820" data-name="Rectangle 36820" width="368.07" height="0.62" transform="matrix(0.707, -0.707, 0.707, 0.707, 1262.883, -998.106)" fill="#ba68c8"/>
            </g>
          </g>
          <g id="Group_107743" data-name="Group 107743">
            <g id="Group_107718" data-name="Group 107718">
              <rect id="Rectangle_36821" data-name="Rectangle 36821" width="368.07" height="0.62" transform="translate(1491.858 -769.6) rotate(-45)" fill="#ba68c8"/>
            </g>
            <g id="Group_107719" data-name="Group 107719">
              <rect id="Rectangle_36822" data-name="Rectangle 36822" width="368.07" height="0.62" transform="matrix(0.707, -0.707, 0.707, 0.707, 1482.121, -779.337)" fill="#ba68c8"/>
            </g>
            <g id="Group_107720" data-name="Group 107720">
              <rect id="Rectangle_36823" data-name="Rectangle 36823" width="368.07" height="0.62" transform="matrix(0.707, -0.707, 0.707, 0.707, 1472.421, -789.038)" fill="#ba68c8"/>
            </g>
            <g id="Group_107721" data-name="Group 107721">
              <rect id="Rectangle_36824" data-name="Rectangle 36824" width="368.07" height="0.62" transform="translate(1462.683 -798.775) rotate(-45)" fill="#ba68c8"/>
            </g>
            <g id="Group_107722" data-name="Group 107722">
              <rect id="Rectangle_36825" data-name="Rectangle 36825" width="368.07" height="0.62" transform="matrix(0.707, -0.707, 0.707, 0.707, 1452.946, -808.512)" fill="#ba68c8"/>
            </g>
            <g id="Group_107723" data-name="Group 107723">
              <rect id="Rectangle_36826" data-name="Rectangle 36826" width="368.07" height="0.62" transform="translate(1443.233 -818.225) rotate(-45)" fill="#ba68c8"/>
            </g>
            <g id="Group_107724" data-name="Group 107724">
              <rect id="Rectangle_36827" data-name="Rectangle 36827" width="368.07" height="0.62" transform="matrix(0.707, -0.707, 0.707, 0.707, 1433.52, -827.938)" fill="#ba68c8"/>
            </g>
            <g id="Group_107725" data-name="Group 107725">
              <rect id="Rectangle_36828" data-name="Rectangle 36828" width="368.07" height="0.62" transform="matrix(0.707, -0.707, 0.707, 0.707, 1423.771, -837.687)" fill="#ba68c8"/>
            </g>
            <g id="Group_107726" data-name="Group 107726">
              <rect id="Rectangle_36829" data-name="Rectangle 36829" width="368.07" height="0.62" transform="translate(1414.058 -847.4) rotate(-45)" fill="#ba68c8"/>
            </g>
            <g id="Group_107727" data-name="Group 107727">
              <rect id="Rectangle_36830" data-name="Rectangle 36830" width="368.07" height="0.62" transform="matrix(0.707, -0.707, 0.707, 0.707, 1404.345, -857.113)" fill="#ba68c8"/>
            </g>
            <g id="Group_107728" data-name="Group 107728">
              <rect id="Rectangle_36831" data-name="Rectangle 36831" width="368.07" height="0.62" transform="translate(1394.608 -866.85) rotate(-45)" fill="#ba68c8"/>
            </g>
            <g id="Group_107729" data-name="Group 107729">
              <rect id="Rectangle_36832" data-name="Rectangle 36832" width="368.07" height="0.62" transform="translate(1384.883 -876.575) rotate(-45)" fill="#ba68c8"/>
            </g>
            <g id="Group_107730" data-name="Group 107730">
              <rect id="Rectangle_36833" data-name="Rectangle 36833" width="368.07" height="0.62" transform="matrix(0.707, -0.707, 0.707, 0.707, 1375.17, -886.288)" fill="#ba68c8"/>
            </g>
            <g id="Group_107731" data-name="Group 107731">
              <rect id="Rectangle_36834" data-name="Rectangle 36834" width="368.07" height="0.62" transform="translate(1365.433 -896.026) rotate(-45)" fill="#ba68c8"/>
            </g>
            <g id="Group_107732" data-name="Group 107732">
              <rect id="Rectangle_36835" data-name="Rectangle 36835" width="368.07" height="0.62" transform="matrix(0.707, -0.707, 0.707, 0.707, 1355.695, -905.763)" fill="#ba68c8"/>
            </g>
            <g id="Group_107733" data-name="Group 107733">
              <rect id="Rectangle_36836" data-name="Rectangle 36836" width="368.07" height="0.62" transform="matrix(0.707, -0.707, 0.707, 0.707, 1345.995, -915.463)" fill="#ba68c8"/>
            </g>
            <g id="Group_107734" data-name="Group 107734">
              <rect id="Rectangle_36837" data-name="Rectangle 36837" width="368.07" height="0.62" transform="translate(1336.257 -925.201) rotate(-45)" fill="#ba68c8"/>
            </g>
            <g id="Group_107735" data-name="Group 107735">
              <rect id="Rectangle_36838" data-name="Rectangle 36838" width="368.07" height="0.62" transform="matrix(0.707, -0.707, 0.707, 0.707, 1326.52, -934.938)" fill="#ba68c8"/>
            </g>
            <g id="Group_107736" data-name="Group 107736">
              <rect id="Rectangle_36839" data-name="Rectangle 36839" width="368.07" height="0.62" transform="translate(1316.808 -944.651) rotate(-45)" fill="#ba68c8"/>
            </g>
            <g id="Group_107737" data-name="Group 107737">
              <rect id="Rectangle_36840" data-name="Rectangle 36840" width="368.07" height="0.62" transform="translate(1307.082 -954.376) rotate(-45)" fill="#ba68c8"/>
            </g>
            <g id="Group_107738" data-name="Group 107738">
              <rect id="Rectangle_36841" data-name="Rectangle 36841" width="368.07" height="0.62" transform="matrix(0.707, -0.707, 0.707, 0.707, 1297.345, -964.113)" fill="#ba68c8"/>
            </g>
            <g id="Group_107739" data-name="Group 107739">
              <rect id="Rectangle_36842" data-name="Rectangle 36842" width="368.07" height="0.62" transform="translate(1287.632 -973.826) rotate(-45)" fill="#ba68c8"/>
            </g>
            <g id="Group_107740" data-name="Group 107740">
              <rect id="Rectangle_36843" data-name="Rectangle 36843" width="368.07" height="0.62" transform="translate(1277.907 -983.551) rotate(-45)" fill="#ba68c8"/>
            </g>
            <g id="Group_107741" data-name="Group 107741">
              <rect id="Rectangle_36844" data-name="Rectangle 36844" width="368.07" height="0.62" transform="translate(1268.182 -993.276) rotate(-45)" fill="#ba68c8"/>
            </g>
            <g id="Group_107742" data-name="Group 107742">
              <rect id="Rectangle_36845" data-name="Rectangle 36845" width="368.07" height="0.62" transform="translate(1258.457 -1003.001) rotate(-45)" fill="#ba68c8"/>
            </g>
          </g>
        </g>
      </g>
    </g>
    <rect id="Rectangle_36846" data-name="Rectangle 36846" width="384" height="3" transform="translate(1300.999 -1089.498)" fill="#12263f"/>
    <rect id="Rectangle_36847" data-name="Rectangle 36847" width="25" height="3" transform="translate(1303.999 -1089.497) rotate(90)" fill="#12263f"/>
    <rect id="Rectangle_36848" data-name="Rectangle 36848" width="117" height="3" transform="translate(1685 -1089.5) rotate(90)" fill="#12263f"/>
    <rect id="Rectangle_36849" data-name="Rectangle 36849" width="384" height="3" transform="translate(1685 -877.502) rotate(-180)" fill="#12263f"/>
    <rect id="Rectangle_36850" data-name="Rectangle 36850" width="46.992" height="3" transform="translate(1682.001 -877.507) rotate(-90)" fill="#12263f"/>
    <rect id="Rectangle_36851" data-name="Rectangle 36851" width="141.998" height="3" transform="translate(1300.999 -877.5) rotate(-90)" fill="#12263f"/>
    <path id="Rectangle_36852" data-name="Rectangle 36852" d="M-.8-.8H78.8V24.8H-.8ZM77.2.8H.8V23.2H77.2Z" transform="translate(1347.908 -1071.063) rotate(45)" fill="#12263f"/>
    <path id="Rectangle_36853" data-name="Rectangle 36853" d="M-.8-.8H78.8V24.8H-.8ZM77.2.8H.8V23.2H77.2Z" transform="translate(1337.908 -968.062) rotate(45)" fill="#12263f"/>
    <path id="Rectangle_36854" data-name="Rectangle 36854" d="M-.8-.8H78.8V24.8H-.8ZM77.2.8H.8V23.2H77.2Z" transform="translate(1419.241 -968.062) rotate(45)" fill="#12263f"/>
    <path id="Rectangle_36855" data-name="Rectangle 36855" d="M-.8-.8H78.8V24.8H-.8ZM77.2.8H.8V23.2H77.2Z" transform="translate(1500.575 -968.063) rotate(45)" fill="#12263f"/>
    <path id="Rectangle_36856" data-name="Rectangle 36856" d="M-.8-.8H78.8V24.8H-.8ZM77.2.8H.8V23.2H77.2Z" transform="translate(1581.908 -968.062) rotate(45)" fill="#12263f"/>
    <path id="Rectangle_36857" data-name="Rectangle 36857" d="M-.8-.8H78.8V24.8H-.8ZM77.2.8H.8V23.2H77.2Z" transform="translate(1436.908 -1071.063) rotate(45)" fill="#12263f"/>
    <path id="Rectangle_36858" data-name="Rectangle 36858" d="M-.8-.8H78.8V24.8H-.8ZM77.2.8H.8V23.2H77.2Z" transform="translate(1525.908 -1071.063) rotate(45)" fill="#12263f"/>
    <path id="Path_156761" data-name="Path 156761" d="M1682.8-972.7h-43.6v-78.1h24.6v53.5h19Zm-42-1.6h40.4v-21.4h-19v-53.5h-21.4Z" fill="#12263f"/>
  </g>
</svg>
