<svg xmlns="http://www.w3.org/2000/svg" xmlns:xlink="http://www.w3.org/1999/xlink" width="400" height="227" viewBox="0 0 400 227">
  <defs>
    <clipPath id="clip-path">
      <path id="Path_156763" data-name="Path 156763" d="M1813-1047a16,16,0,0,1-16,16,16,16,0,0,1-16-16,16,16,0,0,1,16-16A16,16,0,0,1,1813-1047Zm61.5-26a22.5,22.5,0,0,0-22.5,22.5,22.5,22.5,0,0,0,22.5,22.5,22.5,22.5,0,0,0,22.5-22.5A22.5,22.5,0,0,0,1874.5-1073Zm52,54c-47.22,0-85.5,15.446-85.5,34.5s38.28,34.5,85.5,34.5,85.5-15.446,85.5-34.5S1973.72-1019,1926.5-1019Zm132-54a39.5,39.5,0,0,0-39.5,39.5,39.5,39.5,0,0,0,39.5,39.5,39.5,39.5,0,0,0,39.5-39.5A39.5,39.5,0,0,0,2058.5-1073ZM1802-963a36,36,0,0,0-36,36,36,36,0,0,0,36,36,36,36,0,0,0,36-36A36,36,0,0,0,1802-963Zm140.5,29a21.5,21.5,0,0,0-21.5,21.5,21.5,21.5,0,0,0,21.5,21.5,21.5,21.5,0,0,0,21.5-21.5A21.5,21.5,0,0,0,1942.5-934Zm124,0a21.5,21.5,0,0,0-21.5,21.5,21.5,21.5,0,0,0,21.5,21.5,21.5,21.5,0,0,0,21.5-21.5A21.5,21.5,0,0,0,2066.5-934Z" fill="none"/>
    </clipPath>
  </defs>
  <g id="t2-m3" transform="translate(-1732 1097)">
    <rect id="Rectangle_36859" data-name="Rectangle 36859" width="400" height="227" transform="translate(1732 -1097)" fill="#ebf6ff"/>
    <g id="Group_107747" data-name="Group 107747">
      <rect id="Rectangle_36860" data-name="Rectangle 36860" width="384" height="3" transform="translate(1739.999 -1089.498)" fill="#12263f"/>
      <rect id="Rectangle_36861" data-name="Rectangle 36861" width="25" height="3" transform="translate(1742.999 -1089.497) rotate(90)" fill="#12263f"/>
      <rect id="Rectangle_36862" data-name="Rectangle 36862" width="117" height="3" transform="translate(2124 -1089.5) rotate(90)" fill="#12263f"/>
      <rect id="Rectangle_36863" data-name="Rectangle 36863" width="384" height="3" transform="translate(2124 -877.502) rotate(-180)" fill="#12263f"/>
      <rect id="Rectangle_36864" data-name="Rectangle 36864" width="46.992" height="3" transform="translate(2121.001 -877.507) rotate(-90)" fill="#12263f"/>
      <rect id="Rectangle_36865" data-name="Rectangle 36865" width="141.998" height="3" transform="translate(1739.999 -877.5) rotate(-90)" fill="#12263f"/>
    </g>
    <path id="Path_156762" data-name="Path 156762" d="M1813-1047a16,16,0,0,1-16,16,16,16,0,0,1-16-16,16,16,0,0,1,16-16A16,16,0,0,1,1813-1047Zm61.5-26a22.5,22.5,0,0,0-22.5,22.5,22.5,22.5,0,0,0,22.5,22.5,22.5,22.5,0,0,0,22.5-22.5A22.5,22.5,0,0,0,1874.5-1073Zm52,54c-47.22,0-85.5,15.446-85.5,34.5s38.28,34.5,85.5,34.5,85.5-15.446,85.5-34.5S1973.72-1019,1926.5-1019Zm132-54a39.5,39.5,0,0,0-39.5,39.5,39.5,39.5,0,0,0,39.5,39.5,39.5,39.5,0,0,0,39.5-39.5A39.5,39.5,0,0,0,2058.5-1073ZM1802-963a36,36,0,0,0-36,36,36,36,0,0,0,36,36,36,36,0,0,0,36-36A36,36,0,0,0,1802-963Zm140.5,29a21.5,21.5,0,0,0-21.5,21.5,21.5,21.5,0,0,0,21.5,21.5,21.5,21.5,0,0,0,21.5-21.5A21.5,21.5,0,0,0,1942.5-934Zm124,0a21.5,21.5,0,0,0-21.5,21.5,21.5,21.5,0,0,0,21.5,21.5,21.5,21.5,0,0,0,21.5-21.5A21.5,21.5,0,0,0,2066.5-934Z" fill="#fff505"/>
    <g id="Group_107802" data-name="Group 107802">
      <g id="Group_107801" data-name="Group 107801" clip-path="url(#clip-path)">
        <g id="Group_107800" data-name="Group 107800" opacity="0.4" style="mix-blend-mode: multiply;isolation: isolate">
          <g id="Group_107773" data-name="Group 107773">
            <g id="Group_107748" data-name="Group 107748">
              <rect id="Rectangle_36866" data-name="Rectangle 36866" width="368.07" height="0.62" transform="matrix(0.707, -0.707, 0.707, 0.707, 1923.866, -734.456)" fill="#f7931e"/>
            </g>
            <g id="Group_107749" data-name="Group 107749">
              <rect id="Rectangle_36867" data-name="Rectangle 36867" width="368.07" height="0.62" transform="translate(1914.129 -744.193) rotate(-45)" fill="#f7931e"/>
            </g>
            <g id="Group_107750" data-name="Group 107750">
              <rect id="Rectangle_36868" data-name="Rectangle 36868" width="368.07" height="0.62" transform="translate(1904.404 -753.919) rotate(-45)" fill="#f7931e"/>
            </g>
            <g id="Group_107751" data-name="Group 107751">
              <rect id="Rectangle_36869" data-name="Rectangle 36869" width="368.07" height="0.62" transform="matrix(0.707, -0.707, 0.707, 0.707, 1894.691, -763.631)" fill="#f7931e"/>
            </g>
            <g id="Group_107752" data-name="Group 107752">
              <rect id="Rectangle_36870" data-name="Rectangle 36870" width="368.07" height="0.62" transform="translate(1884.954 -773.368) rotate(-45)" fill="#f7931e"/>
            </g>
            <g id="Group_107753" data-name="Group 107753">
              <rect id="Rectangle_36871" data-name="Rectangle 36871" width="368.07" height="0.62" transform="matrix(0.707, -0.707, 0.707, 0.707, 1875.216, -783.106)" fill="#f7931e"/>
            </g>
            <g id="Group_107754" data-name="Group 107754">
              <rect id="Rectangle_36872" data-name="Rectangle 36872" width="368.07" height="0.62" transform="matrix(0.707, -0.707, 0.707, 0.707, 1865.516, -792.806)" fill="#f7931e"/>
            </g>
            <g id="Group_107755" data-name="Group 107755">
              <rect id="Rectangle_36873" data-name="Rectangle 36873" width="368.07" height="0.62" transform="translate(1855.779 -802.544) rotate(-45)" fill="#f7931e"/>
            </g>
            <g id="Group_107756" data-name="Group 107756">
              <rect id="Rectangle_36874" data-name="Rectangle 36874" width="368.07" height="0.62" transform="matrix(0.707, -0.707, 0.707, 0.707, 1846.041, -812.281)" fill="#f7931e"/>
            </g>
            <g id="Group_107757" data-name="Group 107757">
              <rect id="Rectangle_36875" data-name="Rectangle 36875" width="368.07" height="0.62" transform="matrix(0.707, -0.707, 0.707, 0.707, 1836.341, -821.982)" fill="#f7931e"/>
            </g>
            <g id="Group_107758" data-name="Group 107758">
              <rect id="Rectangle_36876" data-name="Rectangle 36876" width="368.07" height="0.62" transform="translate(1826.603 -831.719) rotate(-45)" fill="#f7931e"/>
            </g>
            <g id="Group_107759" data-name="Group 107759">
              <rect id="Rectangle_36877" data-name="Rectangle 36877" width="368.07" height="0.62" transform="matrix(0.707, -0.707, 0.707, 0.707, 1816.866, -841.456)" fill="#f7931e"/>
            </g>
            <g id="Group_107760" data-name="Group 107760">
              <rect id="Rectangle_36878" data-name="Rectangle 36878" width="368.07" height="0.62" transform="translate(1807.153 -851.169) rotate(-45)" fill="#f7931e"/>
            </g>
            <g id="Group_107761" data-name="Group 107761">
              <rect id="Rectangle_36879" data-name="Rectangle 36879" width="368.07" height="0.62" transform="translate(1797.428 -860.894) rotate(-45)" fill="#f7931e"/>
            </g>
            <g id="Group_107762" data-name="Group 107762">
              <rect id="Rectangle_36880" data-name="Rectangle 36880" width="368.07" height="0.62" transform="matrix(0.707, -0.707, 0.707, 0.707, 1787.691, -870.631)" fill="#f7931e"/>
            </g>
            <g id="Group_107763" data-name="Group 107763">
              <rect id="Rectangle_36881" data-name="Rectangle 36881" width="368.07" height="0.62" transform="translate(1777.978 -880.344) rotate(-45)" fill="#f7931e"/>
            </g>
            <g id="Group_107764" data-name="Group 107764">
              <rect id="Rectangle_36882" data-name="Rectangle 36882" width="368.07" height="0.62" transform="matrix(0.707, -0.707, 0.707, 0.707, 1768.266, -890.057)" fill="#f7931e"/>
            </g>
            <g id="Group_107765" data-name="Group 107765">
              <rect id="Rectangle_36883" data-name="Rectangle 36883" width="368.07" height="0.62" transform="translate(1758.528 -899.794) rotate(-45)" fill="#f7931e"/>
            </g>
            <g id="Group_107766" data-name="Group 107766">
              <rect id="Rectangle_36884" data-name="Rectangle 36884" width="368.07" height="0.62" transform="translate(1748.803 -909.519) rotate(-45)" fill="#f7931e"/>
            </g>
            <g id="Group_107767" data-name="Group 107767">
              <rect id="Rectangle_36885" data-name="Rectangle 36885" width="368.07" height="0.62" transform="matrix(0.707, -0.707, 0.707, 0.707, 1739.09, -919.232)" fill="#f7931e"/>
            </g>
            <g id="Group_107768" data-name="Group 107768">
              <rect id="Rectangle_36886" data-name="Rectangle 36886" width="368.07" height="0.62" transform="translate(1729.353 -928.969) rotate(-45)" fill="#f7931e"/>
            </g>
            <g id="Group_107769" data-name="Group 107769">
              <rect id="Rectangle_36887" data-name="Rectangle 36887" width="368.07" height="0.62" transform="matrix(0.707, -0.707, 0.707, 0.707, 1719.616, -938.707)" fill="#f7931e"/>
            </g>
            <g id="Group_107770" data-name="Group 107770">
              <rect id="Rectangle_36888" data-name="Rectangle 36888" width="368.07" height="0.62" transform="matrix(0.707, -0.707, 0.707, 0.707, 1709.915, -948.407)" fill="#f7931e"/>
            </g>
            <g id="Group_107771" data-name="Group 107771">
              <rect id="Rectangle_36889" data-name="Rectangle 36889" width="368.07" height="0.62" transform="translate(1700.178 -958.145) rotate(-45)" fill="#f7931e"/>
            </g>
            <g id="Group_107772" data-name="Group 107772">
              <rect id="Rectangle_36890" data-name="Rectangle 36890" width="368.07" height="0.62" transform="matrix(0.707, -0.707, 0.707, 0.707, 1690.441, -967.882)" fill="#f7931e"/>
            </g>
          </g>
          <g id="Group_107799" data-name="Group 107799">
            <g id="Group_107774" data-name="Group 107774">
              <rect id="Rectangle_36891" data-name="Rectangle 36891" width="368.07" height="0.62" transform="translate(1919.415 -739.376) rotate(-45)" fill="#f7931e"/>
            </g>
            <g id="Group_107775" data-name="Group 107775">
              <rect id="Rectangle_36892" data-name="Rectangle 36892" width="368.07" height="0.62" transform="matrix(0.707, -0.707, 0.707, 0.707, 1909.678, -749.113)" fill="#f7931e"/>
            </g>
            <g id="Group_107776" data-name="Group 107776">
              <rect id="Rectangle_36893" data-name="Rectangle 36893" width="368.07" height="0.62" transform="matrix(0.707, -0.707, 0.707, 0.707, 1899.978, -758.814)" fill="#f7931e"/>
            </g>
            <g id="Group_107777" data-name="Group 107777">
              <rect id="Rectangle_36894" data-name="Rectangle 36894" width="368.07" height="0.62" transform="translate(1890.24 -768.551) rotate(-45)" fill="#f7931e"/>
            </g>
            <g id="Group_107778" data-name="Group 107778">
              <rect id="Rectangle_36895" data-name="Rectangle 36895" width="368.07" height="0.62" transform="matrix(0.707, -0.707, 0.707, 0.707, 1880.503, -778.288)" fill="#f7931e"/>
            </g>
            <g id="Group_107779" data-name="Group 107779">
              <rect id="Rectangle_36896" data-name="Rectangle 36896" width="368.07" height="0.62" transform="translate(1870.79 -788.001) rotate(-45)" fill="#f7931e"/>
            </g>
            <g id="Group_107780" data-name="Group 107780">
              <rect id="Rectangle_36897" data-name="Rectangle 36897" width="368.07" height="0.62" transform="matrix(0.707, -0.707, 0.707, 0.707, 1861.077, -797.714)" fill="#f7931e"/>
            </g>
            <g id="Group_107781" data-name="Group 107781">
              <rect id="Rectangle_36898" data-name="Rectangle 36898" width="368.07" height="0.62" transform="matrix(0.707, -0.707, 0.707, 0.707, 1851.328, -807.463)" fill="#f7931e"/>
            </g>
            <g id="Group_107782" data-name="Group 107782">
              <rect id="Rectangle_36899" data-name="Rectangle 36899" width="368.07" height="0.62" transform="translate(1841.615 -817.176) rotate(-45)" fill="#f7931e"/>
            </g>
            <g id="Group_107783" data-name="Group 107783">
              <rect id="Rectangle_36900" data-name="Rectangle 36900" width="368.07" height="0.62" transform="matrix(0.707, -0.707, 0.707, 0.707, 1831.902, -826.889)" fill="#f7931e"/>
            </g>
            <g id="Group_107784" data-name="Group 107784">
              <rect id="Rectangle_36901" data-name="Rectangle 36901" width="368.07" height="0.62" transform="translate(1822.165 -836.626) rotate(-45)" fill="#f7931e"/>
            </g>
            <g id="Group_107785" data-name="Group 107785">
              <rect id="Rectangle_36902" data-name="Rectangle 36902" width="368.07" height="0.62" transform="translate(1812.44 -846.351) rotate(-45)" fill="#f7931e"/>
            </g>
            <g id="Group_107786" data-name="Group 107786">
              <rect id="Rectangle_36903" data-name="Rectangle 36903" width="368.07" height="0.62" transform="matrix(0.707, -0.707, 0.707, 0.707, 1802.727, -856.064)" fill="#f7931e"/>
            </g>
            <g id="Group_107787" data-name="Group 107787">
              <rect id="Rectangle_36904" data-name="Rectangle 36904" width="368.07" height="0.62" transform="translate(1792.99 -865.802) rotate(-45)" fill="#f7931e"/>
            </g>
            <g id="Group_107788" data-name="Group 107788">
              <rect id="Rectangle_36905" data-name="Rectangle 36905" width="368.07" height="0.62" transform="matrix(0.707, -0.707, 0.707, 0.707, 1783.253, -875.539)" fill="#f7931e"/>
            </g>
            <g id="Group_107789" data-name="Group 107789">
              <rect id="Rectangle_36906" data-name="Rectangle 36906" width="368.07" height="0.62" transform="matrix(0.707, -0.707, 0.707, 0.707, 1773.552, -885.239)" fill="#f7931e"/>
            </g>
            <g id="Group_107790" data-name="Group 107790">
              <rect id="Rectangle_36907" data-name="Rectangle 36907" width="368.07" height="0.62" transform="translate(1763.815 -894.976) rotate(-45)" fill="#f7931e"/>
            </g>
            <g id="Group_107791" data-name="Group 107791">
              <rect id="Rectangle_36908" data-name="Rectangle 36908" width="368.07" height="0.62" transform="matrix(0.707, -0.707, 0.707, 0.707, 1754.077, -904.714)" fill="#f7931e"/>
            </g>
            <g id="Group_107792" data-name="Group 107792">
              <rect id="Rectangle_36909" data-name="Rectangle 36909" width="368.07" height="0.62" transform="translate(1744.365 -914.427) rotate(-45)" fill="#f7931e"/>
            </g>
            <g id="Group_107793" data-name="Group 107793">
              <rect id="Rectangle_36910" data-name="Rectangle 36910" width="368.07" height="0.62" transform="translate(1734.64 -924.152) rotate(-45)" fill="#f7931e"/>
            </g>
            <g id="Group_107794" data-name="Group 107794">
              <rect id="Rectangle_36911" data-name="Rectangle 36911" width="368.07" height="0.62" transform="matrix(0.707, -0.707, 0.707, 0.707, 1724.902, -933.889)" fill="#f7931e"/>
            </g>
            <g id="Group_107795" data-name="Group 107795">
              <rect id="Rectangle_36912" data-name="Rectangle 36912" width="368.07" height="0.62" transform="translate(1715.189 -943.602) rotate(-45)" fill="#f7931e"/>
            </g>
            <g id="Group_107796" data-name="Group 107796">
              <rect id="Rectangle_36913" data-name="Rectangle 36913" width="368.07" height="0.62" transform="translate(1705.464 -953.327) rotate(-45)" fill="#f7931e"/>
            </g>
            <g id="Group_107797" data-name="Group 107797">
              <rect id="Rectangle_36914" data-name="Rectangle 36914" width="368.07" height="0.62" transform="translate(1695.739 -963.052) rotate(-45)" fill="#f7931e"/>
            </g>
            <g id="Group_107798" data-name="Group 107798">
              <rect id="Rectangle_36915" data-name="Rectangle 36915" width="368.07" height="0.62" transform="translate(1686.014 -972.777) rotate(-45)" fill="#f7931e"/>
            </g>
          </g>
        </g>
      </g>
    </g>
    <path id="Ellipse_4750" data-name="Ellipse 4750" d="M16-.8A16.8,16.8,0,0,1,27.879,27.879,16.8,16.8,0,0,1,4.121,4.121,16.69,16.69,0,0,1,16-.8Zm0,32A15.2,15.2,0,1,0,.8,16,15.217,15.217,0,0,0,16,31.2Z" transform="translate(1781 -1063)" fill="#12263f"/>
    <path id="Ellipse_4751" data-name="Ellipse 4751" d="M22.5-.8a23.306,23.306,0,0,1,9.07,44.769A23.306,23.306,0,0,1,13.43,1.031,23.155,23.155,0,0,1,22.5-.8Zm0,45A21.7,21.7,0,1,0,.8,22.5,21.725,21.725,0,0,0,22.5,44.2Z" transform="translate(1852 -1073)" fill="#12263f"/>
    <path id="Ellipse_4752" data-name="Ellipse 4752" d="M85.5-.8a199.354,199.354,0,0,1,33.415,2.723,133.581,133.581,0,0,1,27.342,7.44c7.946,3.206,14.2,6.951,18.576,11.129a25.079,25.079,0,0,1,5.143,6.693,15.582,15.582,0,0,1,0,14.63,25.079,25.079,0,0,1-5.143,6.693c-4.38,4.178-10.63,7.923-18.576,11.129a133.581,133.581,0,0,1-27.342,7.44A199.354,199.354,0,0,1,85.5,69.8a199.354,199.354,0,0,1-33.415-2.723,133.581,133.581,0,0,1-27.342-7.44c-7.946-3.206-14.2-6.951-18.576-11.129a25.079,25.079,0,0,1-5.143-6.693,15.582,15.582,0,0,1,0-14.63,25.079,25.079,0,0,1,5.143-6.693c4.38-4.178,10.63-7.923,18.576-11.129a133.581,133.581,0,0,1,27.342-7.44A199.354,199.354,0,0,1,85.5-.8Zm0,69c22.738,0,44.1-3.568,60.158-10.047,7.758-3.13,13.838-6.765,18.071-10.8,4.294-4.1,6.471-8.42,6.471-12.85s-2.177-8.754-6.471-12.85c-4.233-4.038-10.313-7.673-18.071-10.8C129.6,4.368,108.238.8,85.5.8S41.4,4.368,25.342,10.847c-7.758,3.13-13.838,6.765-18.07,10.8C2.977,25.746.8,30.07.8,34.5s2.177,8.754,6.471,12.85c4.233,4.038,10.313,7.673,18.07,10.8C41.4,64.632,62.762,68.2,85.5,68.2Z" transform="translate(1841 -1019)" fill="#12263f"/>
    <path id="Ellipse_4753" data-name="Ellipse 4753" d="M39.5-.8A40.31,40.31,0,0,1,55.187,76.633,40.31,40.31,0,0,1,23.813,2.367,40.048,40.048,0,0,1,39.5-.8Zm0,79A38.7,38.7,0,1,0,.8,39.5,38.744,38.744,0,0,0,39.5,78.2Z" transform="translate(2019 -1073)" fill="#12263f"/>
    <path id="Ellipse_4754" data-name="Ellipse 4754" d="M36-.8A36.81,36.81,0,0,1,50.324,69.908,36.809,36.809,0,0,1,21.676,2.092,36.571,36.571,0,0,1,36-.8Zm0,72A35.2,35.2,0,1,0,.8,36,35.24,35.24,0,0,0,36,71.2Z" transform="translate(1766 -963)" fill="#12263f"/>
    <path id="Ellipse_4755" data-name="Ellipse 4755" d="M21.5-.8a22.306,22.306,0,0,1,8.68,42.847A22.306,22.306,0,0,1,12.82.953,22.161,22.161,0,0,1,21.5-.8Zm0,43A20.7,20.7,0,1,0,.8,21.5,20.723,20.723,0,0,0,21.5,42.2Z" transform="translate(1921 -934)" fill="#12263f"/>
    <path id="Ellipse_4756" data-name="Ellipse 4756" d="M21.5-.8a22.306,22.306,0,0,1,8.68,42.847A22.306,22.306,0,0,1,12.82.953,22.161,22.161,0,0,1,21.5-.8Zm0,43A20.7,20.7,0,1,0,.8,21.5,20.723,20.723,0,0,0,21.5,42.2Z" transform="translate(2045 -934)" fill="#12263f"/>
  </g>
</svg>
