<svg xmlns="http://www.w3.org/2000/svg" width="400.379" height="250" viewBox="0 0 400.379 250">
  <g id="ch-3" transform="translate(1215.379 -5186.387)">
    <rect id="Rectangle_37366" data-name="Rectangle 37366" width="400" height="250" rx="30" transform="translate(-1215 5186.387)" fill="#e2f0fc"/>
    <path id="Rectangle_37366_-_Outline" data-name="Rectangle 37366 - Outline" d="M30,3A26.975,26.975,0,0,0,3,30V220a26.975,26.975,0,0,0,27,27H370a26.975,26.975,0,0,0,27-27V30A26.975,26.975,0,0,0,370,3H30m0-3H370a30,30,0,0,1,30,30V220a30,30,0,0,1-30,30H30A30,30,0,0,1,0,220V30A30,30,0,0,1,30,0Z" transform="translate(-1215 5186.387)" fill="#75baf1"/>
    <path id="Rectangle_37367" data-name="Rectangle 37367" d="M0,0H400a0,0,0,0,1,0,0V25a30,30,0,0,1-30,30H30A30,30,0,0,1,0,25V0A0,0,0,0,1,0,0Z" transform="translate(-1215.379 5381.387)" fill="#75baf1"/>
    <path id="Path_157290" data-name="Path 157290" d="M28.964,5.359l1.493,10.85L35.7,5.359h4.9L37.891,21H34.2l.666-3.835,1.59-7.068L30.973,21H28.534L26.762,9.688l-.988,7.842L25.161,21H21.487L24.194,5.359ZM45.915,21.215a5.4,5.4,0,0,1-2.777-.736,4.636,4.636,0,0,1-1.842-2.02,5.426,5.426,0,0,1-.494-2.852l.032-.3a7.125,7.125,0,0,1,1.993-4.539A5.512,5.512,0,0,1,47,9.162a4.5,4.5,0,0,1,2.557.758,4.238,4.238,0,0,1,1.558,2.033,6.228,6.228,0,0,1,.322,2.91l-.2,1.474H44.314a2.266,2.266,0,0,0,.516,1.482,1.894,1.894,0,0,0,1.439.6A3.658,3.658,0,0,0,49.03,17.24l1.482,1.96a4.373,4.373,0,0,1-1.832,1.462,6.432,6.432,0,0,1-2.573.552Zm.859-9.26a1.818,1.818,0,0,0-1.305.47,3.946,3.946,0,0,0-.961,1.646h3.534l.064-.31a2.358,2.358,0,0,0,.021-.705A1.244,1.244,0,0,0,46.774,11.955Zm13.481.7a10.111,10.111,0,0,0-1.1-.107,2.729,2.729,0,0,0-2.428,1.1L55.422,21H51.888l2.02-11.623,3.3-.011-.269,1.525A3.227,3.227,0,0,1,59.622,9.13a5.064,5.064,0,0,1,1.1.15Zm4.984,5.769A1.521,1.521,0,0,0,66.433,18a2.1,2.1,0,0,0,.548-1.147l3.309-.011a4.35,4.35,0,0,1-.757,2.288,4.577,4.577,0,0,1-1.869,1.563,5.526,5.526,0,0,1-2.519.521,4.364,4.364,0,0,1-3.577-1.67,5.777,5.777,0,0,1-1.021-4.206l.032-.258a7.787,7.787,0,0,1,.988-3.121,5.654,5.654,0,0,1,2.089-2.1,5.419,5.419,0,0,1,2.9-.7,4.322,4.322,0,0,1,3.207,1.294,4.59,4.59,0,0,1,1.133,3.378l-3.309-.011q.054-1.837-1.321-1.869-1.869-.064-2.148,3.137l-.1,1.092L64,16.591Q64,18.39,65.24,18.422Zm10.925-7.777a3.8,3.8,0,0,1,3-1.493,3.021,3.021,0,0,1,2.594,1.278,4.866,4.866,0,0,1,.607,3.352L81.16,21H77.626l1.214-7.27a3.763,3.763,0,0,0,.021-.688,1.073,1.073,0,0,0-1.182-1.1,2.289,2.289,0,0,0-1.7.7L74.5,21H70.966L73.834,4.5h3.534ZM89.754,21a3.152,3.152,0,0,1-.15-1.053,3.585,3.585,0,0,1-2.847,1.268,3.5,3.5,0,0,1-2.514-1.01,3.035,3.035,0,0,1-.935-2.4A3.409,3.409,0,0,1,84.888,14.9a7.445,7.445,0,0,1,4.168-1.015l1.182.021.129-.655.043-.569a.923.923,0,0,0-.978-1.01A1.358,1.358,0,0,0,88,12.954l-3.545.011a3.367,3.367,0,0,1,.763-2.036A4.52,4.52,0,0,1,87.149,9.6a6.737,6.737,0,0,1,2.594-.435,5.2,5.2,0,0,1,2.315.553,3.446,3.446,0,0,1,1.488,1.45,3.7,3.7,0,0,1,.376,2.143l-.87,5.468L93,19.442a2.936,2.936,0,0,0,.2,1.354l-.011.2Zm-2.02-2.342a2.28,2.28,0,0,0,1.9-.956l.354-1.869-.913-.011a2.406,2.406,0,0,0-1.461.5,1.894,1.894,0,0,0-.72,1.305.951.951,0,0,0,.167.725A.85.85,0,0,0,87.734,18.658ZM99.873,9.366l-.247,1.4a4.131,4.131,0,0,1,3.362-1.611,2.775,2.775,0,0,1,2.4,1.2,5.013,5.013,0,0,1,.575,3.335L104.739,21h-3.545l1.235-7.346a3.8,3.8,0,0,0,.021-.688q-.075-1.022-1.2-1.022a2.209,2.209,0,0,0-1.708.828L98.09,21H94.556l2.02-11.623Zm7.477,5.8a8.454,8.454,0,0,1,1.676-4.4,4.153,4.153,0,0,1,3.5-1.6,3.168,3.168,0,0,1,2.46,1.246L116.115,4.5h3.545L116.8,21h-3.147l.15-1.257a3.627,3.627,0,0,1-2.89,1.482,3.2,3.2,0,0,1-2.626-1.241,5.471,5.471,0,0,1-1.015-3.271,10.061,10.061,0,0,1,.043-1.321Zm3.523.247a8.436,8.436,0,0,0-.075,1.2q0,1.783,1.2,1.815a2.254,2.254,0,0,0,1.858-1l.795-4.458a1.431,1.431,0,0,0-1.418-1.021,1.807,1.807,0,0,0-1.6.854A5.508,5.508,0,0,0,110.873,15.414ZM122.6,21h-3.545l2.02-11.623h3.545ZM121.39,6.444a1.639,1.639,0,0,1,.553-1.311,1.986,1.986,0,0,1,1.391-.526,2.051,2.051,0,0,1,1.38.473,1.611,1.611,0,0,1,.575,1.235,1.642,1.642,0,0,1-.548,1.316,1.993,1.993,0,0,1-1.4.521,2.076,2.076,0,0,1-1.37-.467A1.592,1.592,0,0,1,121.39,6.444ZM131.4,17.67q.14-.709-1.1-1.063l-.763-.193a5.873,5.873,0,0,1-2.739-1.386,2.743,2.743,0,0,1-.816-2.116,3.371,3.371,0,0,1,1.488-2.723,5.662,5.662,0,0,1,3.5-1.026A5.246,5.246,0,0,1,134.3,10.2a3.4,3.4,0,0,1,1.294,2.75l-3.523-.011q.043-1.375-1.214-1.375a1.731,1.731,0,0,0-1,.317,1.231,1.231,0,0,0-.548.843q-.183.87,1.536,1.192a8.927,8.927,0,0,1,2.31.822A3.448,3.448,0,0,1,134.4,15.9a2.872,2.872,0,0,1,.4,1.654,3.106,3.106,0,0,1-.687,1.88,4.452,4.452,0,0,1-1.9,1.321,6.791,6.791,0,0,1-2.691.462,5.462,5.462,0,0,1-2.336-.526,4.166,4.166,0,0,1-1.687-1.4,3.641,3.641,0,0,1-.628-2.036l3.287.021A1.358,1.358,0,0,0,129.7,18.8a2.03,2.03,0,0,0,1.117-.3A1.278,1.278,0,0,0,131.4,17.67ZM139.619,21h-3.545l2.02-11.623h3.545ZM138.405,6.444a1.639,1.639,0,0,1,.553-1.311,1.986,1.986,0,0,1,1.391-.526,2.051,2.051,0,0,1,1.38.473,1.611,1.611,0,0,1,.575,1.235,1.642,1.642,0,0,1-.548,1.316,1.993,1.993,0,0,1-1.4.521,2.076,2.076,0,0,1-1.37-.467A1.592,1.592,0,0,1,138.405,6.444Zm8.7,2.922-.247,1.4a4.131,4.131,0,0,1,3.362-1.611,2.775,2.775,0,0,1,2.4,1.2,5.013,5.013,0,0,1,.575,3.335L151.973,21h-3.545l1.235-7.346a3.8,3.8,0,0,0,.021-.688q-.075-1.022-1.2-1.022a2.209,2.209,0,0,0-1.708.828L145.323,21h-3.534l2.02-11.623Zm7.5,5.8A8.831,8.831,0,0,1,155.566,12a5.579,5.579,0,0,1,1.9-2.143,4.565,4.565,0,0,1,2.578-.7,3.174,3.174,0,0,1,2.643,1.257l.376-1.042,3.266.011-1.9,11.172a5.46,5.46,0,0,1-2.073,3.728,6.6,6.6,0,0,1-4.361,1.3,6.227,6.227,0,0,1-2.245-.462,4.837,4.837,0,0,1-1.858-1.332l1.676-2.084a3.042,3.042,0,0,0,2.428,1.214,2.841,2.841,0,0,0,2.986-2.5l.086-.354a3.634,3.634,0,0,1-2.653,1.16,3.584,3.584,0,0,1-1.966-.564,3.708,3.708,0,0,1-1.332-1.6,6.2,6.2,0,0,1-.548-2.32A10.087,10.087,0,0,1,154.6,15.167Zm3.491,1.149a2.819,2.819,0,0,0,.354,1.536,1.2,1.2,0,0,0,1.031.569,2.362,2.362,0,0,0,1.815-.773l.913-4.931a1.566,1.566,0,0,0-1.439-.773,2.057,2.057,0,0,0-1.729.875,4.72,4.72,0,0,0-.881,2.358Q158.1,15.854,158.1,16.316Zm14.47-1.214a7.1,7.1,0,0,1,1.192-4.351,3.925,3.925,0,0,1,3.33-1.59,3.338,3.338,0,0,1,2.621,1.225V4.5h3.631V21h-3.255l-.183-1.246a3.428,3.428,0,0,1-2.836,1.461,3.918,3.918,0,0,1-3.287-1.59A7.325,7.325,0,0,1,172.565,15.1Zm3.62.226q0,3.094,1.8,3.094a1.782,1.782,0,0,0,1.719-1.01V12.986a1.734,1.734,0,0,0-1.7-1.031q-1.676,0-1.815,2.707Zm14.835,5.887a5.975,5.975,0,0,1-4.329-1.6,5.509,5.509,0,0,1-1.654-4.152v-.3a7.138,7.138,0,0,1,.661-3.147,4.834,4.834,0,0,1,1.928-2.111,5.821,5.821,0,0,1,3.008-.747,5.031,5.031,0,0,1,3.867,1.52,5.973,5.973,0,0,1,1.418,4.238v1.407h-7.2a2.609,2.609,0,0,0,.849,1.536,2.525,2.525,0,0,0,1.7.559,3.254,3.254,0,0,0,2.686-1.2l1.654,1.955a4.624,4.624,0,0,1-1.917,1.488A6.48,6.48,0,0,1,191.021,21.215Zm-.408-9.26q-1.59,0-1.891,2.105h3.652v-.279a1.793,1.793,0,0,0-.44-1.348A1.753,1.753,0,0,0,190.612,11.955Zm18.326,5.779a.836.836,0,0,0-.483-.741,7.353,7.353,0,0,0-1.837-.58,8.376,8.376,0,0,1-2.234-.79,3.743,3.743,0,0,1-1.343-1.187,2.835,2.835,0,0,1-.462-1.6A3.212,3.212,0,0,1,203.9,10.2a5.443,5.443,0,0,1,3.459-1.037,6.03,6.03,0,0,1,3.7,1.042,3.258,3.258,0,0,1,1.4,2.739H208.82q0-1.4-1.472-1.4a1.459,1.459,0,0,0-.956.317.981.981,0,0,0-.387.79.9.9,0,0,0,.473.784,4.466,4.466,0,0,0,1.509.494,13.042,13.042,0,0,1,1.821.462q2.621.9,2.621,3.233a3.044,3.044,0,0,1-1.413,2.589,6.2,6.2,0,0,1-3.658,1,6.322,6.322,0,0,1-2.664-.537,4.455,4.455,0,0,1-1.826-1.461,3.308,3.308,0,0,1-.655-1.944H205.6a1.4,1.4,0,0,0,.537,1.176,2.209,2.209,0,0,0,1.321.371,1.738,1.738,0,0,0,1.112-.3A.962.962,0,0,0,208.938,17.734Zm10.807,3.48a5.975,5.975,0,0,1-4.329-1.6,5.509,5.509,0,0,1-1.654-4.152v-.3a7.138,7.138,0,0,1,.661-3.147,4.834,4.834,0,0,1,1.928-2.111,5.821,5.821,0,0,1,3.008-.747,5.031,5.031,0,0,1,3.867,1.52,5.973,5.973,0,0,1,1.418,4.238v1.407h-7.2a2.609,2.609,0,0,0,.849,1.536,2.525,2.525,0,0,0,1.7.559,3.254,3.254,0,0,0,2.686-1.2l1.654,1.955a4.624,4.624,0,0,1-1.917,1.488A6.48,6.48,0,0,1,219.745,21.215Zm-.408-9.26q-1.59,0-1.891,2.105H221.1v-.279a1.793,1.793,0,0,0-.44-1.348A1.753,1.753,0,0,0,219.337,11.955Zm6.306,3.147a7.1,7.1,0,0,1,1.192-4.351,3.925,3.925,0,0,1,3.33-1.59,3.338,3.338,0,0,1,2.621,1.225V4.5h3.631V21h-3.255l-.183-1.246a3.428,3.428,0,0,1-2.836,1.461,3.918,3.918,0,0,1-3.287-1.59A7.325,7.325,0,0,1,225.643,15.1Zm3.62.226q0,3.094,1.8,3.094a1.782,1.782,0,0,0,1.719-1.01V12.986a1.734,1.734,0,0,0-1.7-1.031q-1.676,0-1.815,2.707ZM245.4,19.743a3.732,3.732,0,0,1-3.1,1.472,3.661,3.661,0,0,1-2.9-1.112,4.676,4.676,0,0,1-.983-3.2V9.377h3.62v7.552a1.3,1.3,0,0,0,1.45,1.493,1.892,1.892,0,0,0,1.772-.892V9.377H248.9V21H245.5Zm10.4-1.321a1.61,1.61,0,0,0,1.182-.414,1.517,1.517,0,0,0,.408-1.155h3.395a4.018,4.018,0,0,1-1.37,3.137,5.1,5.1,0,0,1-3.529,1.225,5.158,5.158,0,0,1-4-1.59,6.264,6.264,0,0,1-1.461-4.4v-.15a7.08,7.08,0,0,1,.65-3.11,4.732,4.732,0,0,1,1.875-2.073,5.589,5.589,0,0,1,2.9-.725,5.03,5.03,0,0,1,3.6,1.257,4.458,4.458,0,0,1,1.332,3.405h-3.395a1.987,1.987,0,0,0-.44-1.386,1.52,1.52,0,0,0-1.182-.483q-1.407,0-1.644,1.794a12.659,12.659,0,0,0-.075,1.568,4.972,4.972,0,0,0,.419,2.428A1.45,1.45,0,0,0,255.8,18.422Zm11.43,0a1.61,1.61,0,0,0,1.182-.414,1.517,1.517,0,0,0,.408-1.155h3.395a4.018,4.018,0,0,1-1.37,3.137,5.1,5.1,0,0,1-3.529,1.225,5.158,5.158,0,0,1-4-1.59,6.264,6.264,0,0,1-1.461-4.4v-.15a7.08,7.08,0,0,1,.65-3.11,4.732,4.732,0,0,1,1.875-2.073,5.589,5.589,0,0,1,2.9-.725,5.03,5.03,0,0,1,3.6,1.257,4.458,4.458,0,0,1,1.332,3.405h-3.395a1.987,1.987,0,0,0-.44-1.386,1.52,1.52,0,0,0-1.182-.483q-1.407,0-1.644,1.794a12.656,12.656,0,0,0-.075,1.568,4.972,4.972,0,0,0,.419,2.428A1.45,1.45,0,0,0,267.226,18.422ZM277.56,21h-3.631V9.377h3.631ZM273.714,6.369a1.63,1.63,0,0,1,.559-1.275,2.364,2.364,0,0,1,2.9,0,1.63,1.63,0,0,1,.559,1.275,1.63,1.63,0,0,1-.559,1.275,2.364,2.364,0,0,1-2.9,0A1.63,1.63,0,0,1,273.714,6.369Zm5.618,8.712a6.86,6.86,0,0,1,.677-3.1,4.84,4.84,0,0,1,1.944-2.089,5.856,5.856,0,0,1,2.976-.73,5.344,5.344,0,0,1,4.114,1.617,6.2,6.2,0,0,1,1.5,4.4v.129a6.019,6.019,0,0,1-1.509,4.313,5.359,5.359,0,0,1-4.087,1.6,5.42,5.42,0,0,1-3.985-1.488,5.819,5.819,0,0,1-1.622-4.034Zm3.62.226a4.325,4.325,0,0,0,.5,2.363,1.682,1.682,0,0,0,1.493.752q1.934,0,1.977-2.976v-.365q0-3.126-2-3.126-1.815,0-1.966,2.7ZM285.423,4.5h3.824l-2.986,3.373-2.954-.005Zm10.044,4.877.118,1.364A3.942,3.942,0,0,1,298.9,9.162a3.316,3.316,0,0,1,2.712,1.085,5.165,5.165,0,0,1,.929,3.266V21h-3.631V13.663a1.961,1.961,0,0,0-.354-1.294,1.64,1.64,0,0,0-1.289-.414,1.726,1.726,0,0,0-1.579.838V21h-3.62V9.377Z" transform="translate(-1177.379 5395.387)" fill="#12263f"/>
    <g id="stand" transform="translate(-1107.948 5221)">
      <g id="_000000ff" data-name="#000000ff" transform="translate(39.948)">
        <path id="Path_157082" data-name="Path 157082" d="M54.811,0H130.8a5.932,5.932,0,0,1,4.716,2.832c3.255,5.325,6.473,10.677,9.716,16.013a2.92,2.92,0,0,1,.372,1.716c-.02,3.265,0,6.532-.01,9.8a12.1,12.1,0,0,1-13.379,12.1,17.682,17.682,0,0,1-3.35-.879q0,12.254,0,24.507c4.214.015,8.431-.017,12.645.012a4.131,4.131,0,0,1,4.07,3.982c.039,2.5.01,5,.015,7.5a4.212,4.212,0,0,1-1.738,3.566,5,5,0,0,1-2.623.817q-.007,13.729,0,27.461a4.664,4.664,0,0,1,3.017,1.136A4.224,4.224,0,0,1,145.6,113.8c0,2.5.024,5.01-.015,7.513a4.16,4.16,0,0,1-3.908,3.992H43.969a4.2,4.2,0,0,1-3.524-2.205,6.36,6.36,0,0,1-.489-3.169c.027-2.129-.027-4.261.02-6.387a4.072,4.072,0,0,1,1.238-2.888,4.639,4.639,0,0,1,3.2-1.224q0-13.729,0-27.461a4.5,4.5,0,0,1-3.553-1.625,5.029,5.029,0,0,1-.9-3.5c.037-2.293-.039-4.584.034-6.874A4.209,4.209,0,0,1,44.6,66.086q6.086.007,12.17,0,0-12.254,0-24.507a17.771,17.771,0,0,1-3.336.879,12.1,12.1,0,0,1-13.387-12.1c-.007-3.353,0-6.706-.007-10.058a4.062,4.062,0,0,1,.94-2.406c3.059-5.012,6.074-10.051,9.143-15.061A5.937,5.937,0,0,1,54.811,0M53.147,4.9q-3.994,6.611-8.005,13.218,2.61,0,5.22,0,5.3,0,10.607,0Q63.6,10.894,66.223,3.671q-3.594,0-7.183,0c-1.393.02-2.787-.042-4.178.024a2.111,2.111,0,0,0-1.716,1.2M70.128,3.673Q67.511,10.9,64.879,18.115q2.68,0,5.355,0,5.385,0,10.773,0,.874-7.221,1.752-14.444H75.473c-1.782,0-3.563,0-5.345,0m16.326,0q-.877,7.221-1.745,14.441c1.809,0,3.617,0,5.426,0q5.4,0,10.8,0-.874-7.221-1.75-14.444-3.664,0-7.322,0-2.705-.007-5.408,0m16.431,0q.877,7.224,1.752,14.444,2.716,0,5.433,0,5.345,0,10.695,0-2.621-7.224-5.249-14.441-3.6-.007-7.2,0h-5.435m16.536,0q2.625,7.221,5.254,14.441c1.777,0,3.551,0,5.328,0q5.249,0,10.5,0-4-6.615-8.01-13.225A2.115,2.115,0,0,0,130.774,3.7c-1.995-.064-3.992,0-5.986-.024-1.789,0-3.578,0-5.367,0M43.715,21.791c.015,2.934-.024,5.869.017,8.8a8.328,8.328,0,0,0,16.637.5c.115-3.1.015-6.2.054-9.3-3.735-.015-7.469,0-11.2-.007-1.835,0-3.668,0-5.5,0m20.376,0c.01,2.925-.022,5.849.015,8.774a8.4,8.4,0,0,0,3.453,6.7,8.615,8.615,0,0,0,6.321,1.5,8.969,8.969,0,0,0,3.933-1.88,8.418,8.418,0,0,0,2.971-6.287c.039-2.932,0-5.869.017-8.8H64.091m20.383,0c.007,2.929-.024,5.861.015,8.791a8.327,8.327,0,0,0,16.634.514c.113-3.1.02-6.2.049-9.3q-5.635,0-11.265,0-2.716-.007-5.433,0m20.369,0c.022,3.008-.037,6.018.029,9.023a8.324,8.324,0,0,0,16.624.269c.113-3.093.02-6.194.049-9.292h-16.7m20.374,0c.022,2.988-.034,5.974.027,8.959a8.381,8.381,0,0,0,4.207,7,8.28,8.28,0,0,0,11.4-3.181,8.891,8.891,0,0,0,1.079-4.474c0-2.768,0-5.536,0-8.306q-5.605-.007-11.213,0c-1.833,0-3.666,0-5.5,0M80.561,39.362a12.068,12.068,0,0,1-9.537,3.091,18.2,18.2,0,0,1-3.284-.871q-.007,12.254,0,24.507c10.981.01,21.962-.012,32.943.012a2,2,0,0,1,2.009,1.755,1.973,1.973,0,0,1-2.019,1.894c-12.753.027-25.508,0-38.261.012-3.13,0-6.258,0-9.388,0Q70.27,83.912,87.516,98.06a8.484,8.484,0,0,0,3.6,2.019,7.249,7.249,0,0,0,6.343-1.537q17.521-14.408,35.07-28.78-12.147,0-24.292,0a2.549,2.549,0,0,1-1.762-.465,2.461,2.461,0,0,1-.69-1.444,1.981,1.981,0,0,1,1.735-1.735c3.456-.076,6.916-.007,10.372-.034q0-12.254,0-24.507a12.771,12.771,0,0,1-5.01.942,12.1,12.1,0,0,1-9.867-5.621,12.166,12.166,0,0,1-9.444,5.6,11.986,11.986,0,0,1-10.9-5.592,19.022,19.022,0,0,1-2.11,2.452m41.075-.252a13.908,13.908,0,0,0-.066,2.259c-.007,8.228.017,16.458-.012,24.688.607.024,1.214.042,1.823.037s1.207,0,1.811,0q.011-13.469,0-26.937a23.55,23.55,0,0,1-1.711-2.075l.015-.213c-.639.734-1.226,1.51-1.862,2.247m-61.194.042q0,13.469,0,26.937c.592,0,1.187,0,1.779,0l1.835,0q.015-13.472,0-26.947a22.082,22.082,0,0,1-1.823-2.225,18.811,18.811,0,0,1-1.8,2.234M43.656,70.193c-.064,1.8,0,3.607-.024,5.413a11.057,11.057,0,0,0,.135,2.606c4.608.086,9.221.022,13.832.039-.071-.054-.21-.159-.281-.21q-1.608-1.333-3.228-2.648c-2.278-1.862-4.53-3.761-6.835-5.585-.874-.105-1.764-.027-2.646-.049-.343.027-.945-.076-.952.433m84.326,8.059h11.343a15.983,15.983,0,0,0,2.538-.091c.149-2.4.02-4.8.071-7.2-.061-.394.152-1.079-.4-1.175-1.065-.066-2.134,0-3.2-.024q-5.176,4.244-10.347,8.49m-79.9,3.673v27.544H58.5q28.05.007,56.1.01a1.832,1.832,0,1,1-.007,3.651q-30.27.033-60.541.01-4.721,0-9.444,0c-.345.034-.888-.088-.952.4-.044,2.543-.039,5.09,0,7.633-.027.524.6.445.95.467,3.11-.01,6.223,0,9.334-.007q43.688,0,87.375,0c.732.083.617-.749.622-1.224-.059-2.393.093-4.794-.083-7.183a18.723,18.723,0,0,0-2.54-.078q-8.678,0-17.356,0a2.035,2.035,0,0,1-2.266-1.818,1.958,1.958,0,0,1,1.838-1.835c5.342-.046,10.69,0,16.037-.02q-.007-12.863,0-25.723V81.925q-6.843,0-13.688,0a.889.889,0,0,0-.727.281q-11.215,9.218-22.446,18.418A15.014,15.014,0,0,1,97.163,103a10.681,10.681,0,0,1-8.563.088c-2.095-.859-3.71-2.5-5.462-3.874Q72.592,90.565,62.05,81.92C57.4,81.928,52.738,81.92,48.083,81.925Z" transform="translate(-39.948)"/>
      </g>
      <g id="_d65b5bff" data-name="#d65b5bff" transform="translate(45.142 3.664)">
        <path id="Path_157083" data-name="Path 157083" d="M69.175,16.2A2.111,2.111,0,0,1,70.891,15c1.39-.066,2.785,0,4.178-.024-2.866,4.831-5.9,9.564-8.678,14.444q-2.61,0-5.22,0Q65.168,22.81,69.175,16.2Z" transform="translate(-61.17 -14.971)" fill="#ab88eb"/>
        <path id="Path_157084" data-name="Path 157084" d="M224.595,15q2.7,0,5.408,0c-.5,4.821-1.138,9.63-1.728,14.444-1.809,0-3.617,0-5.426,0Q223.716,22.222,224.595,15Z" transform="translate(-183.282 -14.992)" fill="#ab88eb"/>
        <path id="Path_157085" data-name="Path 157085" d="M364.69,15c1.789,0,3.578,0,5.367,0,1.676,4.838,3.524,9.613,5.215,14.446-1.777,0-3.551,0-5.328,0Q367.312,22.221,364.69,15Z" transform="translate(-290.41 -14.991)" fill="#ab88eb"/>
        <path id="Path_157086" data-name="Path 157086" d="M77.742,89.03c3.735.007,7.469-.007,11.2.007-.039,3.1.061,6.2-.054,9.3a8.4,8.4,0,0,1-7.114,7.682,13.291,13.291,0,0,1-3.11-3.945,10.826,10.826,0,0,1-.952-4.978C77.72,94.407,77.715,91.72,77.742,89.03Z" transform="translate(-73.665 -70.906)" fill="#ab88eb"/>
        <path id="Path_157087" data-name="Path 157087" d="M244.09,89.034q5.631,0,11.265,0c-.029,3.1.064,6.2-.049,9.3a8.371,8.371,0,0,1-7.215,7.687c-.6-.7-1.26-1.344-1.848-2.053a10.354,10.354,0,0,1-2.132-6.375C244.07,94.744,244.134,91.888,244.09,89.034Z" transform="translate(-199.324 -70.908)" fill="#ab88eb"/>
        <path id="Path_157088" data-name="Path 157088" d="M410.8,89.03q5.605,0,11.213,0c0,2.77,0,5.538,0,8.306a8.891,8.891,0,0,1-1.079,4.474,8.439,8.439,0,0,1-6.094,4.209,13.063,13.063,0,0,1-3.015-3.781,10.189,10.189,0,0,1-1.035-4.65C410.79,94.737,410.787,91.884,410.8,89.03Z" transform="translate(-325.228 -70.906)" fill="#ab88eb"/>
        <path id="Path_157089" data-name="Path 157089" d="M93.38,285.062c3.13,0,6.258,0,9.388,0q17.47,14.456,35.052,28.78a7.248,7.248,0,0,1-6.343,1.537,8.484,8.484,0,0,1-3.6-2.019Q110.633,299.2,93.38,285.062Z" transform="translate(-85.497 -218.962)" fill="#ab88eb"/>
      </g>
      <g id="_f46262ff" data-name="#f46262ff" transform="translate(50.362 3.665)">
        <path id="Path_157090" data-name="Path 157090" d="M91.178,15q3.59,0,7.183,0-2.625,7.224-5.254,14.444-5.3,0-10.607,0C85.28,24.561,88.312,19.828,91.178,15Z" transform="translate(-82.5 -14.991)" fill="#d1b8ff"/>
        <path id="Path_157091" data-name="Path 157091" d="M246.748,15q3.66-.007,7.322,0,.877,7.224,1.75,14.444-5.4.007-10.8,0C245.61,24.631,246.249,19.822,246.748,15Z" transform="translate(-205.247 -14.992)" fill="#d1b8ff"/>
        <path id="Path_157092" data-name="Path 157092" d="M386.62,14.981c1.995.02,3.992-.039,5.986.024a2.115,2.115,0,0,1,1.718,1.194q4,6.615,8.01,13.225-5.249,0-10.5,0C390.144,24.594,388.3,19.82,386.62,14.981Z" transform="translate(-312.193 -14.975)" fill="#d1b8ff"/>
        <path id="Path_157093" data-name="Path 157093" d="M172.02,277.27c1.03,0,2.063,0,3.1,0a2.461,2.461,0,0,0,.69,1.444,2.549,2.549,0,0,0,1.762.465q12.143-.015,24.292,0-17.536,14.39-35.07,28.78-17.54-14.375-35.052-28.78c12.753-.007,25.508.015,38.261-.012A1.973,1.973,0,0,0,172.02,277.27Z" transform="translate(-119.69 -213.079)" fill="#d1b8ff"/>
      </g>
      <g id="_ffde55ff" data-name="#ffde55ff" transform="translate(64.879 3.67)">
        <path id="Path_157094" data-name="Path 157094" d="M147.069,15c1.782,0,3.563,0,5.345,0-1.74,4.816-3.519,9.62-5.24,14.444q-2.676,0-5.355,0Q144.441,22.218,147.069,15Z" transform="translate(-141.82 -14.997)" fill="#fff973"/>
        <path id="Path_157095" data-name="Path 157095" d="M297.12,15h5.435q.9,7.221,1.75,14.446-2.716,0-5.433,0Q297.995,22.223,297.12,15Z" transform="translate(-259.114 -14.999)" fill="#fff973"/>
        <path id="Path_157096" data-name="Path 157096" d="M160.9,89.03h11.25c-.015,2.934.022,5.871-.017,8.8a8.418,8.418,0,0,1-2.971,6.287,8.969,8.969,0,0,1-3.933,1.88,9.909,9.909,0,0,1-4.315-8.171C160.873,94.9,160.91,91.962,160.9,89.03Z" transform="translate(-156.226 -70.912)" fill="#fff973"/>
        <path id="Path_157097" data-name="Path 157097" d="M327.42,89.03h11.245c-.029,3.1.064,6.2-.049,9.292a8.367,8.367,0,0,1-7.124,7.692,13.424,13.424,0,0,1-2.991-3.732,10.976,10.976,0,0,1-1.079-5.2C327.42,94.4,327.432,91.715,327.42,89.03Z" transform="translate(-281.998 -70.912)" fill="#fff973"/>
      </g>
      <g id="_ffeb99ff" data-name="#ffeb99ff" transform="translate(70.234 3.67)">
        <path id="Path_157098" data-name="Path 157098" d="M168.94,15h7.286q-.877,7.224-1.752,14.444-5.385,0-10.773,0C165.42,24.62,167.2,19.816,168.94,15Z" transform="translate(-163.7 -14.999)" fill="#fffba8"/>
        <path id="Path_157099" data-name="Path 157099" d="M319.33,15q3.6,0,7.2,0,2.617,7.224,5.249,14.441-5.349,0-10.695,0Q320.232,22.216,319.33,15Z" transform="translate(-281.243 -14.997)" fill="#fffba8"/>
      </g>
      <g id="_bf4c4cff" data-name="#bf4c4cff" transform="translate(43.712 21.787)">
        <path id="Path_157100" data-name="Path 157100" d="M55.332,89.03c1.835-.007,3.668,0,5.5,0-.027,2.69-.022,5.377-.027,8.066a10.826,10.826,0,0,0,.952,4.978,13.291,13.291,0,0,0,3.11,3.945,8.37,8.37,0,0,1-9.522-8.186C55.307,94.9,55.346,91.964,55.332,89.03Z" transform="translate(-55.329 -89.026)" fill="#6e3dc6"/>
        <path id="Path_157101" data-name="Path 157101" d="M221.874,89.031q2.716,0,5.433,0c.044,2.854-.02,5.71.022,8.563a10.354,10.354,0,0,0,2.132,6.375c.587.71,1.246,1.356,1.848,2.053a8.351,8.351,0,0,1-9.42-8.2C221.849,94.893,221.881,91.961,221.874,89.031Z" transform="translate(-181.112 -89.028)" fill="#6e3dc6"/>
        <path id="Path_157102" data-name="Path 157102" d="M388.362,89.03c1.833-.007,3.666,0,5.5,0-.015,2.854-.012,5.707-.012,8.561a10.189,10.189,0,0,0,1.035,4.65,13.063,13.063,0,0,0,3.015,3.781,8.512,8.512,0,0,1-5.3-1.028,8.381,8.381,0,0,1-4.207-7C388.327,95,388.384,92.018,388.362,89.03Z" transform="translate(-306.857 -89.026)" fill="#6e3dc6"/>
      </g>
      <g id="_ffcd00ff" data-name="#ffcd00ff" transform="translate(64.087 21.788)">
        <path id="Path_157103" data-name="Path 157103" d="M138.589,89.03h5.46c.012,2.932-.024,5.866.015,8.8A9.909,9.909,0,0,0,148.378,106a8.615,8.615,0,0,1-6.321-1.5,8.4,8.4,0,0,1-3.453-6.7C138.567,94.879,138.6,91.954,138.589,89.03Z" transform="translate(-138.586 -89.03)" fill="#f9f024"/>
        <path id="Path_157104" data-name="Path 157104" d="M305.11,89.03h5.457c.012,2.685,0,5.369,0,8.054a10.976,10.976,0,0,0,1.079,5.2,13.424,13.424,0,0,0,2.991,3.732,8.358,8.358,0,0,1-9.5-7.961C305.073,95.048,305.132,92.038,305.11,89.03Z" transform="translate(-264.355 -89.03)" fill="#f9f024"/>
      </g>
      <g id="_444346ff" data-name="#444346ff" transform="translate(60.441 36.863)">
        <path id="Path_157105" data-name="Path 157105" d="M373.493,152.877c.636-.737,1.224-1.512,1.862-2.247l-.015.213c-.042.529-.083,1.06-.1,1.591-.007,9.143.012,18.284-.007,27.427-.609,0-1.216-.012-1.823-.037.029-8.23,0-16.46.012-24.688A13.91,13.91,0,0,1,373.493,152.877Z" transform="translate(-312.298 -150.63)" fill="#444346"/>
        <path id="Path_157106" data-name="Path 157106" d="M123.686,153.084a18.811,18.811,0,0,0,1.8-2.234c0,9.725.039,19.449-.015,29.174-.592,0-1.187,0-1.779,0Q123.672,166.553,123.686,153.084Z" transform="translate(-123.684 -150.796)" fill="#444346"/>
      </g>
      <g id="_57565cff" data-name="#57565cff" transform="translate(62.226 36.917)">
        <path id="Path_157107" data-name="Path 157107" d="M130.995,150.85a22.081,22.081,0,0,0,1.823,2.225q0,13.476,0,26.947l-1.835,0C131.034,170.3,131,160.576,130.995,150.85Z" transform="translate(-130.98 -150.85)" fill="#57565c"/>
        <path id="Path_157108" data-name="Path 157108" d="M380.877,153.091c.012-.531.054-1.062.1-1.591a23.553,23.553,0,0,0,1.711,2.075q0,13.469,0,26.937c-.6,0-1.209,0-1.811,0C380.89,171.374,380.87,162.234,380.877,153.091Z" transform="translate(-319.715 -151.341)" fill="#57565c"/>
      </g>
      <g id="_bdebffff" data-name="#bdebffff" transform="translate(43.622 69.752)">
        <path id="Path_157109" data-name="Path 157109" d="M54.994,285.46c.007-.509.609-.406.952-.433.881.022,1.772-.056,2.646.049,2.305,1.823,4.557,3.722,6.835,5.585a11.087,11.087,0,0,0-.139,2.67,14.22,14.22,0,0,0,3.367-.022c.071.051.21.157.281.21-4.611-.017-9.224.046-13.832-.039a11.057,11.057,0,0,1-.135-2.606C54.989,289.067,54.93,287.261,54.994,285.46Z" transform="translate(-54.959 -285.019)" fill="#fff973"/>
        <path id="Path_157110" data-name="Path 157110" d="M115.731,342.161a13.207,13.207,0,0,1,2.834.083,12.043,12.043,0,0,1,1.926,1.471q9.812,8.039,19.615,16.081a21.4,21.4,0,0,0,4.471,3.159,12.494,12.494,0,0,0,11.147-.2,19.149,19.149,0,0,0,3.443-2.423q10.1-8.274,20.185-16.556a10.882,10.882,0,0,1,2.07-1.549,15.264,15.264,0,0,1,2.614-.081c3.568,0,7.139.017,10.707-.007q0,12.859,0,25.723c-5.347.015-10.695-.027-16.037.02a1.958,1.958,0,0,0-1.838,1.835q-1.553-.007-3.106-.012a1.976,1.976,0,0,0-1.982-1.833q-28.05-.033-56.1-.01c-.037-7.611,0-15.225-.017-22.838Q115.638,343.594,115.731,342.161Z" transform="translate(-100.805 -328.15)" fill="#fff973"/>
        <path id="Path_157111" data-name="Path 157111" d="M55,462.7c.064-.485.607-.362.952-.4q4.724.007,9.444,0c-.262,2.822-.047,5.661-.115,8.487-3.11,0-6.223,0-9.334.007-.352-.022-.976.056-.95-.467C54.964,467.787,54.959,465.239,55,462.7Z" transform="translate(-54.968 -418.914)" fill="#fff973"/>
      </g>
      <g id="_d7f3ffff" data-name="#d7f3ffff" transform="translate(53.918 69.756)">
        <path id="Path_157112" data-name="Path 157112" d="M399.67,293.53q5.172-4.247,10.347-8.49c1.067.022,2.136-.042,3.2.024.556.1.343.781.4,1.175-.051,2.4.078,4.8-.071,7.2a15.983,15.983,0,0,1-2.538.091Z" transform="translate(-325.606 -285.033)" fill="#fffba8"/>
        <path id="Path_157113" data-name="Path 157113" d="M97.085,310.74a11.087,11.087,0,0,1,.139-2.67q1.623,1.314,3.228,2.648A14.22,14.22,0,0,1,97.085,310.74Z" transform="translate(-97.054 -302.432)" fill="#fffba8"/>
        <path id="Path_157114" data-name="Path 157114" d="M159.7,454.84q1.553,0,3.106.012a2.035,2.035,0,0,0,2.266,1.818q8.678,0,17.356,0a18.725,18.725,0,0,1,2.54.078c.176,2.389.024,4.789.083,7.183,0,.475.11,1.307-.622,1.224q-43.688.018-87.375,0c.069-2.827-.147-5.665.115-8.487q30.27-.007,60.541-.01A1.97,1.97,0,0,0,159.7,454.84Z" transform="translate(-97.033 -413.284)" fill="#fffba8"/>
      </g>
      <g id="_92d8ffff" data-name="#92d8ffff" transform="translate(48.083 81.92)">
        <path id="Path_157115" data-name="Path 157115" d="M73.19,334.745c4.655,0,9.312,0,13.967,0q10.554,8.63,21.088,17.29c1.752,1.378,3.367,3.015,5.462,3.874a10.681,10.681,0,0,0,8.563-.088,15.014,15.014,0,0,0,3.536-2.371q11.222-9.214,22.446-18.418a.889.889,0,0,1,.727-.281q6.843,0,13.688,0v1.821c-3.568.024-7.139.012-10.707.007a15.267,15.267,0,0,0-2.614.081,10.879,10.879,0,0,0-2.07,1.549q-10.1,8.274-20.185,16.556a19.149,19.149,0,0,1-3.443,2.423,12.494,12.494,0,0,1-11.147.2,21.4,21.4,0,0,1-4.471-3.159q-9.816-8.028-19.615-16.081a12.04,12.04,0,0,0-1.926-1.471,13.209,13.209,0,0,0-2.834-.083q-.1,1.432-.064,2.868c.02,7.613-.02,15.227.017,22.838H73.19Z" transform="translate(-73.19 -334.74)" fill="#f9f024"/>
      </g>
    </g>
  </g>
</svg>
