<svg xmlns="http://www.w3.org/2000/svg" width="400" height="250" viewBox="0 0 400 250">
  <g id="ch-5" transform="translate(1426 -5566.387)">
    <rect id="Rectangle_37369" data-name="Rectangle 37369" width="400" height="250" rx="30" transform="translate(-1426 5566.387)" fill="#e2f0fc"/>
    <path id="Rectangle_37369_-_Outline" data-name="Rectangle 37369 - Outline" d="M30,3A26.975,26.975,0,0,0,3,30V220a26.975,26.975,0,0,0,27,27H370a26.975,26.975,0,0,0,27-27V30A26.975,26.975,0,0,0,370,3H30m0-3H370a30,30,0,0,1,30,30V220a30,30,0,0,1-30,30H30A30,30,0,0,1,0,220V30A30,30,0,0,1,30,0Z" transform="translate(-1426 5566.387)" fill="#75baf1"/>
    <path id="Rectangle_37370" data-name="Rectangle 37370" d="M0,0H400a0,0,0,0,1,0,0V25a30,30,0,0,1-30,30H30A30,30,0,0,1,0,25V0A0,0,0,0,1,0,0Z" transform="translate(-1426 5761.387)" fill="#75baf1"/>
    <path id="Path_157292" data-name="Path 157292" d="M66.116,15.693V21H62.345V5.359h6.241a7.269,7.269,0,0,1,3.174.661A4.979,4.979,0,0,1,73.9,7.9a5.134,5.134,0,0,1,.757,2.766,4.526,4.526,0,0,1-1.638,3.658,6.8,6.8,0,0,1-4.5,1.37Zm0-2.911h2.471a2.33,2.33,0,0,0,1.67-.548,2.035,2.035,0,0,0,.575-1.547,2.516,2.516,0,0,0-.591-1.751,2.092,2.092,0,0,0-1.611-.666H66.116ZM82.927,21a4.087,4.087,0,0,1-.344-1.042,3.366,3.366,0,0,1-2.793,1.257A4.124,4.124,0,0,1,77,20.221a3.163,3.163,0,0,1-1.149-2.5,3.251,3.251,0,0,1,1.4-2.857,7.114,7.114,0,0,1,4.061-.967h1.117v-.615q0-1.608-1.386-1.608a1.133,1.133,0,0,0-1.289,1.274h-3.62a3.245,3.245,0,0,1,1.434-2.736,6.027,6.027,0,0,1,3.658-1.051,5.284,5.284,0,0,1,3.513,1.085,3.772,3.772,0,0,1,1.321,2.976v5.146a5.269,5.269,0,0,0,.494,2.449V21Zm-2.267-2.363a2.019,2.019,0,0,0,1.123-.29,1.818,1.818,0,0,0,.639-.655V15.833H81.37q-1.891,0-1.891,1.7a1.036,1.036,0,0,0,.333.8A1.205,1.205,0,0,0,80.661,18.637Zm14.427-5.983L93.9,12.567A2.142,2.142,0,0,0,91.7,13.642V21h-3.62V9.377h3.395L91.6,10.87a2.8,2.8,0,0,1,2.546-1.708,3.53,3.53,0,0,1,1.01.129ZM102.618,21a4.087,4.087,0,0,1-.344-1.042,3.366,3.366,0,0,1-2.793,1.257,4.124,4.124,0,0,1-2.793-.994,3.163,3.163,0,0,1-1.149-2.5,3.251,3.251,0,0,1,1.4-2.857A7.114,7.114,0,0,1,101,13.9h1.117v-.615q0-1.608-1.386-1.608a1.133,1.133,0,0,0-1.289,1.274h-3.62a3.245,3.245,0,0,1,1.434-2.736,6.027,6.027,0,0,1,3.658-1.051,5.284,5.284,0,0,1,3.513,1.085,3.772,3.772,0,0,1,1.321,2.976v5.146a5.269,5.269,0,0,0,.494,2.449V21Zm-2.267-2.363a2.019,2.019,0,0,0,1.123-.29,1.818,1.818,0,0,0,.639-.655V15.833H101.06q-1.891,0-1.891,1.7a1.036,1.036,0,0,0,.333.8A1.205,1.205,0,0,0,100.351,18.637Zm18.5,2.578a5.975,5.975,0,0,1-4.329-1.6,5.509,5.509,0,0,1-1.654-4.152v-.3a7.138,7.138,0,0,1,.661-3.147,4.834,4.834,0,0,1,1.928-2.111,5.821,5.821,0,0,1,3.008-.747,5.031,5.031,0,0,1,3.867,1.52,5.973,5.973,0,0,1,1.418,4.238v1.407h-7.2a2.609,2.609,0,0,0,.849,1.536,2.525,2.525,0,0,0,1.7.559,3.254,3.254,0,0,0,2.686-1.2l1.654,1.955a4.624,4.624,0,0,1-1.917,1.488A6.48,6.48,0,0,1,118.849,21.215Zm-.408-9.26q-1.59,0-1.891,2.105H120.2v-.279a1.793,1.793,0,0,0-.44-1.348A1.753,1.753,0,0,0,118.441,11.955ZM129.022,21h-3.631V4.5h3.631Zm12.622-2.578a1.61,1.61,0,0,0,1.182-.414,1.517,1.517,0,0,0,.408-1.155h3.395a4.018,4.018,0,0,1-1.37,3.137,5.1,5.1,0,0,1-3.529,1.225,5.158,5.158,0,0,1-4-1.59,6.264,6.264,0,0,1-1.461-4.4v-.15a7.08,7.08,0,0,1,.65-3.11A4.732,4.732,0,0,1,138.8,9.887a5.589,5.589,0,0,1,2.9-.725,5.03,5.03,0,0,1,3.6,1.257,4.458,4.458,0,0,1,1.332,3.405h-3.395a1.987,1.987,0,0,0-.44-1.386,1.52,1.52,0,0,0-1.182-.483q-1.407,0-1.644,1.794a12.659,12.659,0,0,0-.075,1.568,4.972,4.972,0,0,0,.419,2.428A1.45,1.45,0,0,0,141.644,18.422ZM151.978,21h-3.631V4.5h3.631Zm6.048,0H154.4V9.377h3.631ZM154.18,6.369a1.63,1.63,0,0,1,.559-1.275,2.364,2.364,0,0,1,2.9,0,1.63,1.63,0,0,1,.559,1.275,1.63,1.63,0,0,1-.559,1.275,2.364,2.364,0,0,1-2.9,0A1.63,1.63,0,0,1,154.18,6.369Zm11.7,14.846a5.975,5.975,0,0,1-4.329-1.6,5.509,5.509,0,0,1-1.654-4.152v-.3a7.138,7.138,0,0,1,.661-3.147,4.834,4.834,0,0,1,1.928-2.111,5.821,5.821,0,0,1,3.008-.747,5.031,5.031,0,0,1,3.867,1.52,5.973,5.973,0,0,1,1.418,4.238v1.407h-7.2a2.609,2.609,0,0,0,.849,1.536,2.525,2.525,0,0,0,1.7.559,3.254,3.254,0,0,0,2.686-1.2l1.654,1.955a4.624,4.624,0,0,1-1.917,1.488A6.48,6.48,0,0,1,165.878,21.215Zm-.408-9.26q-1.59,0-1.891,2.105h3.652v-.279a1.793,1.793,0,0,0-.44-1.348A1.753,1.753,0,0,0,165.47,11.955Zm10.087-2.578.118,1.364a3.942,3.942,0,0,1,3.319-1.579,3.316,3.316,0,0,1,2.712,1.085,5.165,5.165,0,0,1,.929,3.266V21h-3.631V13.663a1.961,1.961,0,0,0-.354-1.294,1.64,1.64,0,0,0-1.289-.414,1.726,1.726,0,0,0-1.579.838V21h-3.62V9.377Zm13.3-2.89v2.89h1.912v2.514h-1.912v5.317a1.358,1.358,0,0,0,.236.913,1.268,1.268,0,0,0,.935.258,5.311,5.311,0,0,0,.9-.064V20.9a6.681,6.681,0,0,1-2.041.312,3.792,3.792,0,0,1-2.761-.881,3.61,3.61,0,0,1-.892-2.675V11.891h-1.482V9.377h1.482V6.487Zm8.959,14.728a5.975,5.975,0,0,1-4.329-1.6,5.509,5.509,0,0,1-1.654-4.152v-.3a7.138,7.138,0,0,1,.661-3.147,4.834,4.834,0,0,1,1.928-2.111,5.821,5.821,0,0,1,3.008-.747,5.031,5.031,0,0,1,3.867,1.52,5.973,5.973,0,0,1,1.418,4.238v1.407h-7.2a2.609,2.609,0,0,0,.849,1.536,2.525,2.525,0,0,0,1.7.559,3.254,3.254,0,0,0,2.686-1.2l1.654,1.955a4.624,4.624,0,0,1-1.917,1.488A6.48,6.48,0,0,1,197.815,21.215Zm-.408-9.26q-1.59,0-1.891,2.105h3.652v-.279a1.793,1.793,0,0,0-.44-1.348A1.753,1.753,0,0,0,197.407,11.955Zm22.559,3.255a8.423,8.423,0,0,1-1.665,4.447,4.166,4.166,0,0,1-3.5,1.568,3.082,3.082,0,0,1-2.643-1.439L211.715,21h-3.2l2.868-16.5h3.534l-1.149,5.833a3.508,3.508,0,0,1,2.61-1.171,3.274,3.274,0,0,1,2.664,1.219,5.317,5.317,0,0,1,1.01,3.26A11.825,11.825,0,0,1,220,14.984ZM216.453,15a11.123,11.123,0,0,0,.1-1.244q0-1.727-1.235-1.8a2.117,2.117,0,0,0-1.837.933l-.838,4.633a1.421,1.421,0,0,0,1.461.912q1.729.054,2.181-2.252l.15-.954ZM227.8,19.732a3.847,3.847,0,0,1-3.137,1.493,3.045,3.045,0,0,1-2.573-1.192,4.4,4.4,0,0,1-.671-3.137l1.257-7.52h3.534l-1.278,7.572a2.523,2.523,0,0,0,0,.57.936.936,0,0,0,1.042.914,2.283,2.283,0,0,0,1.9-.882l1.439-8.174h3.556L230.847,21H227.56Zm10.291-3.846,3.008-6.51h3.9L238.184,22.74a5.824,5.824,0,0,1-1.756,2.283,3.992,3.992,0,0,1-2.369.7,6.689,6.689,0,0,1-1.558-.236l.269-2.589h.408a2.926,2.926,0,0,0,1.149-.209,1.75,1.75,0,0,0,.827-.811l.5-.967L233.8,9.377h3.652Zm11.462,5.328a5.4,5.4,0,0,1-2.777-.736,4.636,4.636,0,0,1-1.842-2.02,5.426,5.426,0,0,1-.494-2.852l.032-.3a7.125,7.125,0,0,1,1.993-4.539,5.512,5.512,0,0,1,4.173-1.606,4.5,4.5,0,0,1,2.557.758,4.238,4.238,0,0,1,1.558,2.033,6.228,6.228,0,0,1,.322,2.91l-.2,1.474h-6.918a2.266,2.266,0,0,0,.516,1.482,1.894,1.894,0,0,0,1.439.6,3.658,3.658,0,0,0,2.761-1.182l1.482,1.96a4.373,4.373,0,0,1-1.832,1.462,6.432,6.432,0,0,1-2.573.552Zm.859-9.26a1.818,1.818,0,0,0-1.305.47,3.946,3.946,0,0,0-.961,1.646h3.534l.064-.31a2.358,2.358,0,0,0,.021-.705A1.244,1.244,0,0,0,250.409,11.955Zm13.481.7a10.111,10.111,0,0,0-1.1-.107,2.729,2.729,0,0,0-2.428,1.1L259.056,21h-3.534l2.02-11.623,3.3-.011-.269,1.525a3.227,3.227,0,0,1,2.686-1.762,5.065,5.065,0,0,1,1.1.15Z" transform="translate(-1388 5775.387)" fill="#12263f"/>
    <g id="user-experience" transform="translate(-1288 5601.387)">
      <g id="_a6f5cfff" data-name="#a6f5cfff" transform="translate(1.917 3.659)">
        <path id="Path_157146" data-name="Path 157146" d="M13.933,18.107A12.51,12.51,0,0,1,22.279,15q14.627-.007,29.25,0a23.4,23.4,0,0,1,3.013,2.4,14.418,14.418,0,0,1,4.123,10.039c-.01,9.6.01,19.2,0,28.8a14.437,14.437,0,0,1-4.489,10.4c-.844.771-1.8,1.41-2.693,2.118a17.685,17.685,0,0,0-2.274.059,1.933,1.933,0,0,0-1.388,1.342c-2.154.583-4.394.354-6.595.522-1.149-.688-2.1-2.013-3.569-1.925q-7.568.015-15.136,0a13.288,13.288,0,0,1-4.679-.781A12.494,12.494,0,0,1,9.7,56.7c-.034-5.119-.012-10.237-.01-15.353a2.443,2.443,0,0,0-.4-1.62,2.412,2.412,0,0,0-1.435-.688q-.007-3.048,0-6.1a1.914,1.914,0,0,0,1.759-1.356c.19-1.7-.024-3.418.122-5.121a12.391,12.391,0,0,1,4.194-8.358" transform="translate(-7.858 -14.998)" fill="#fff973"/>
      </g>
      <g id="_8aedbdff" data-name="#8aedbdff" transform="translate(35.288 3.65)">
        <path id="Path_157147" data-name="Path 157147" d="M186.724,14.974a18.311,18.311,0,0,1,6.865.751,12.5,12.5,0,0,1,8.2,11.442c.029,9.517,0,19.035.015,28.55a12.619,12.619,0,0,1-9.408,12.6,21.457,21.457,0,0,1-5.714.41c.9-.708,1.849-1.347,2.693-2.118a14.437,14.437,0,0,0,4.489-10.4c.007-9.6-.012-19.2,0-28.8a14.418,14.418,0,0,0-4.123-10.039A23.4,23.4,0,0,0,186.724,14.974Z" transform="translate(-176.423 -14.962)" fill="#f9f024"/>
        <path id="Path_157148" data-name="Path 157148" d="M144.64,241.582c2.2-.168,4.44.061,6.595-.522-.059,1.783-.007,3.569-.024,5.355C149.022,244.8,146.826,243.2,144.64,241.582Z" transform="translate(-144.64 -185.899)" fill="#f9f024"/>
      </g>
      <g id="_ffffffff" data-name="#ffffffff" transform="translate(27.752 17.619)">
        <path id="Path_157149" data-name="Path 157149" d="M119.57,72.242c.41-.146.364.385.368.634.01,2.613-.024,5.228.015,7.841a1.822,1.822,0,0,0,1.9,1.7q4.9.022,9.8-.007c.412-.076.866.3.673.739-1.081,4.352-2.23,8.69-3.32,13.043-.159.434-.139,1.254-.808,1.174q-4.871.015-9.744,0c-2.027-.056-4.406-1.3-4.684-3.494-.044-3,0-6.011-.02-9.015a5.677,5.677,0,0,1,.869-2.571C116.283,78.944,117.867,75.563,119.57,72.242Z" transform="translate(-113.751 -72.217)" fill="#fff"/>
      </g>
      <g id="_b36212ff" data-name="#b36212ff" transform="translate(36.293 21.843)">
        <path id="Path_157150" data-name="Path 157150" d="M176.78,92.492a37.083,37.083,0,0,1,51.493,31.541c.188,2.535-.051,5.119.566,7.607a34.568,34.568,0,0,0,1.905,4.933,41.758,41.758,0,0,1,2.3,8.4,4.126,4.126,0,0,0,.52,1.686,2.286,2.286,0,0,0,1.681.676,51.315,51.315,0,0,1,.3,6.509,2.5,2.5,0,0,0-1.41.639,3.2,3.2,0,0,0-.573,1.993,41.882,41.882,0,0,1-3.618,14.124,44.045,44.045,0,0,0-18.513-18.51,30.783,30.783,0,0,0,4.445-5.6,28.81,28.81,0,0,0-3.32-34.468,1.982,1.982,0,0,0-2.22-.661,3.778,3.778,0,0,0-1.508,1.944,33.954,33.954,0,0,1-15.19,15.309c-8.354,4.206-18.1,4.994-27.242,3.491a5.727,5.727,0,0,0-2.852-.127,1.951,1.951,0,0,0-1,2.1,28.867,28.867,0,0,0,8.546,18.027,43.916,43.916,0,0,0-18.452,18.369,43.147,43.147,0,0,1-.146-35.413c.9.629,1.749,1.339,2.674,1.94a1.836,1.836,0,0,0,2.471-.468,2.824,2.824,0,0,0,.364-1.752c-.017-2,0-4-.012-6a30.15,30.15,0,0,0,5.706-.3,16.335,16.335,0,0,0,10.1-6.543,15.913,15.913,0,0,0,3-9.332C176.788,105.891,176.8,99.192,176.78,92.492Z" transform="translate(-148.76 -89.53)" fill="#12263f"/>
      </g>
      <g id="_ffd54dff" data-name="#ffd54dff" transform="translate(18.019 26.477)">
        <path id="Path_157151" data-name="Path 157151" d="M75.689,108.774a3.049,3.049,0,0,1,3.647.991,3.423,3.423,0,0,1,.59,2.3c-.09,3.5-.022,7,0,10.5a3.123,3.123,0,0,1-1.061,2.513,3.027,3.027,0,0,1-3.767.139,3.11,3.11,0,0,1-1.242-2.674c0-3.66-.012-7.322.007-10.981A3.05,3.05,0,0,1,75.689,108.774Z" transform="translate(-73.856 -108.527)" fill="#ab88eb"/>
      </g>
      <g id="_ffd8d0ff" data-name="#ffd8d0ff" transform="translate(53.981 48.648)">
        <path id="Path_157152" data-name="Path 157152" d="M266.2,199.4a25.187,25.187,0,0,1-35.249,35.273c-4.845-3.986-8.644-9.508-9.693-15.778,9.822,1.5,20.245.5,29.164-4.079A37.192,37.192,0,0,0,266.2,199.4Z" transform="translate(-221.26 -199.4)" fill="#ffd8d0"/>
      </g>
      <g id="_ff8acbff" data-name="#ff8acbff" transform="translate(38.796 86.988)">
        <path id="Path_157153" data-name="Path 157153" d="M165.282,371.215a40.044,40.044,0,0,1,16.595-14.665,28.873,28.873,0,0,0,34.259,0,40.075,40.075,0,0,1,22.86,36.2c-26.656-.1-53.318-.032-79.976-.046A39.971,39.971,0,0,1,165.282,371.215Z" transform="translate(-159.02 -356.55)" fill="#be79ca"/>
      </g>
      <g id="_000000ff" data-name="#000000ff">
        <path id="Path_157144" data-name="Path 157144" d="M15.265,0H49.129a16.254,16.254,0,0,1,10.73,5,16.008,16.008,0,0,1,4.452,10.583c.034,1.747,0,3.5.015,5.243a40.771,40.771,0,0,1,55.225,37.479c.029,2.223.024,4.535.991,6.592a45.086,45.086,0,0,1,3.786,12.674,1.833,1.833,0,0,1-1.554,2.071,2.286,2.286,0,0,1-1.681-.676,4.126,4.126,0,0,1-.52-1.686,41.758,41.758,0,0,0-2.3-8.4,34.567,34.567,0,0,1-1.905-4.933c-.617-2.489-.378-5.072-.566-7.607a36.88,36.88,0,0,0-6.026-17.812A37.024,37.024,0,0,0,64.313,24.8c.022,6.7.007,13.4.01,20.1a15.913,15.913,0,0,1-3,9.332,16.335,16.335,0,0,1-10.1,6.543,30.15,30.15,0,0,1-5.707.3c.007,2,0,4,.012,6a2.824,2.824,0,0,1-.364,1.752,1.836,1.836,0,0,1-2.471.468c-.925-.6-1.771-1.31-2.674-1.94a43.147,43.147,0,0,0,.146,35.413A43.916,43.916,0,0,1,58.619,84.409a28.867,28.867,0,0,1-8.546-18.027,1.951,1.951,0,0,1,1-2.1,5.727,5.727,0,0,1,2.852.127c9.139,1.5,18.888.715,27.242-3.491a33.954,33.954,0,0,0,15.19-15.309,3.778,3.778,0,0,1,1.508-1.944,1.981,1.981,0,0,1,2.22.661A28.81,28.81,0,0,1,103.4,78.8a30.783,30.783,0,0,1-4.445,5.6,44.045,44.045,0,0,1,18.513,18.51,41.883,41.883,0,0,0,3.618-14.124,3.2,3.2,0,0,1,.573-1.993,2.5,2.5,0,0,1,1.41-.639,1.945,1.945,0,0,1,1.732,1.905,45.058,45.058,0,0,1-5.382,19.1,44.685,44.685,0,0,1,2.935,13.367,16.42,16.42,0,0,1,0,3.155,1.834,1.834,0,0,1-1.425,1.237h-.583a1.82,1.82,0,0,1-1.578-1.722,40.075,40.075,0,0,0-22.86-36.2,28.873,28.873,0,0,1-34.259,0A40.041,40.041,0,0,0,38.8,123.145a1.823,1.823,0,0,1-1.535,1.769h-.583a1.754,1.754,0,0,1-1.527-1.693,43.331,43.331,0,0,1,3.057-16.17,46.833,46.833,0,0,1-5.56-23.856A46.086,46.086,0,0,1,37.011,65.15c-1.574-1.166-3.162-2.313-4.726-3.491A2.068,2.068,0,0,0,31,61.073q-7.326,0-14.655,0a16.215,16.215,0,0,1-14.4-8.61A18.662,18.662,0,0,1,0,45.479V29.726A2.036,2.036,0,0,1,1.92,27.7a2.412,2.412,0,0,1,1.435.688,2.443,2.443,0,0,1,.4,1.62c0,5.116-.024,10.235.01,15.353A12.494,12.494,0,0,0,11.9,56.633a13.288,13.288,0,0,0,4.679.781q7.568,0,15.136,0c1.466-.088,2.42,1.237,3.569,1.925,2.186,1.618,4.382,3.22,6.57,4.833.017-1.786-.034-3.572.024-5.355a1.933,1.933,0,0,1,1.388-1.342,17.685,17.685,0,0,1,2.274-.059A21.457,21.457,0,0,0,51.258,57a12.619,12.619,0,0,0,9.408-12.6c-.012-9.515.015-19.032-.015-28.55a12.5,12.5,0,0,0-8.2-11.442,18.311,18.311,0,0,0-6.865-.751q-14.624,0-29.25,0A12.47,12.47,0,0,0,3.8,15.126c-.146,1.7.068,3.423-.122,5.121A1.914,1.914,0,0,1,1.918,21.6a2.618,2.618,0,0,1-1.4-.647,2.421,2.421,0,0,1-.434-1.676c0-1.22,0-2.437.017-3.657A15.946,15.946,0,0,1,4.426,5.138,16.287,16.287,0,0,1,15.265,0M98.923,48.648A37.192,37.192,0,0,1,83.146,64.065c-8.92,4.579-19.342,5.577-29.164,4.079,1.049,6.27,4.848,11.791,9.693,15.778A25.186,25.186,0,0,0,98.923,48.648Z"/>
        <path id="Path_157145" data-name="Path 157145" d="M74.721,59.4A3.9,3.9,0,0,1,82.07,60.86c.056,2.206,0,4.411.022,6.617,2.669.012,5.338-.012,8.007-.015a4.24,4.24,0,0,1,2.523.673,4.463,4.463,0,0,1,1.718,4.8C93.156,77.521,92,82.117,90.8,86.7a4.134,4.134,0,0,1-3.874,3.033c-3.33.029-6.663.007-9.993.01A9.374,9.374,0,0,1,71.2,87.663a6.813,6.813,0,0,1-6.7,2.986,6.72,6.72,0,0,1-5.631-6.365c-.027-3.816-.007-7.629-.01-11.442a6.7,6.7,0,0,1,8.1-6.57,6.982,6.982,0,0,1,3.46,1.92q2.148-4.4,4.3-8.8m3.342,1.557c-1.7,3.32-3.286,6.7-4.948,10.044a5.677,5.677,0,0,0-.869,2.571c.015,3-.024,6.011.02,9.015.278,2.193,2.657,3.438,4.684,3.494q4.871.022,9.744,0c.668.081.649-.739.808-1.174,1.091-4.352,2.24-8.69,3.32-13.043.193-.439-.261-.815-.673-.739q-4.9.022-9.8.007a1.822,1.822,0,0,1-1.9-1.7c-.039-2.613,0-5.228-.015-7.841,0-.249.041-.781-.368-.634M64.345,70.033a3.05,3.05,0,0,0-1.822,2.786c-.02,3.66,0,7.322-.007,10.981a3.11,3.11,0,0,0,1.242,2.674,3.027,3.027,0,0,0,3.767-.139,3.123,3.123,0,0,0,1.061-2.513c-.024-3.5-.093-7,0-10.5a3.423,3.423,0,0,0-.59-2.3A3.049,3.049,0,0,0,64.345,70.033Z" transform="translate(-44.493 -43.309)"/>
      </g>
    </g>
  </g>
</svg>
