<svg xmlns="http://www.w3.org/2000/svg" width="295" height="280" viewBox="0 0 295 280">
  <g id="ch-6" transform="translate(-180 -17631.387)">
    <rect id="Rectangle_36442" data-name="Rectangle 36442" width="295" height="280" rx="30" transform="translate(180 17631.387)" fill="#e2f0fc"/>
    <path id="Rectangle_36442_-_Outline" data-name="Rectangle 36442 - Outline" d="M30,3A26.975,26.975,0,0,0,3,30V250a26.975,26.975,0,0,0,27,27H265a26.975,26.975,0,0,0,27-27V30A26.975,26.975,0,0,0,265,3H30m0-3H265a30,30,0,0,1,30,30V250a30,30,0,0,1-30,30H30A30,30,0,0,1,0,250V30A30,30,0,0,1,30,0Z" transform="translate(180 17631.387)" fill="#75baf1"/>
    <path id="Path_156384" data-name="Path 156384" d="M105,0H400V45a30,30,0,0,1-30,30H135a30,30,0,0,1-30-30Z" transform="translate(75 17836.387)" fill="#75baf1"/>
    <path id="Path_157293" data-name="Path 157293" d="M66.328,15.693V21H62.558V5.359H68.8a7.269,7.269,0,0,1,3.174.661A4.979,4.979,0,0,1,74.111,7.9a5.134,5.134,0,0,1,.757,2.766,4.526,4.526,0,0,1-1.638,3.658,6.8,6.8,0,0,1-4.5,1.37Zm0-2.911H68.8a2.33,2.33,0,0,0,1.67-.548,2.035,2.035,0,0,0,.575-1.547,2.516,2.516,0,0,0-.591-1.751,2.092,2.092,0,0,0-1.611-.666H66.328Zm17.413-.129-1.192-.086a2.142,2.142,0,0,0-2.191,1.074V21h-3.62V9.377h3.395l.118,1.493A2.8,2.8,0,0,1,82.8,9.162a3.53,3.53,0,0,1,1.01.129Zm.462,2.428a6.86,6.86,0,0,1,.677-3.1,4.84,4.84,0,0,1,1.944-2.089,5.856,5.856,0,0,1,2.976-.73,5.344,5.344,0,0,1,4.114,1.617,6.2,6.2,0,0,1,1.5,4.4v.129a6.019,6.019,0,0,1-1.509,4.313,5.359,5.359,0,0,1-4.087,1.6,5.42,5.42,0,0,1-3.985-1.488,5.819,5.819,0,0,1-1.622-4.034Zm3.62.226a4.325,4.325,0,0,0,.5,2.363,1.682,1.682,0,0,0,1.493.752q1.934,0,1.977-2.976v-.365q0-3.126-2-3.126-1.815,0-1.966,2.7Zm8.733-.2a7.1,7.1,0,0,1,1.192-4.351,3.925,3.925,0,0,1,3.33-1.59,3.338,3.338,0,0,1,2.621,1.225V4.5h3.631V21h-3.255l-.183-1.246a3.428,3.428,0,0,1-2.836,1.461,3.918,3.918,0,0,1-3.287-1.59A7.325,7.325,0,0,1,96.557,15.1Zm3.62.226q0,3.094,1.8,3.094a1.782,1.782,0,0,0,1.719-1.01V12.986a1.734,1.734,0,0,0-1.7-1.031q-1.676,0-1.815,2.707Zm16.135,4.415a3.732,3.732,0,0,1-3.1,1.472,3.661,3.661,0,0,1-2.9-1.112,4.676,4.676,0,0,1-.983-3.2V9.377h3.62v7.552a1.3,1.3,0,0,0,1.45,1.493,1.892,1.892,0,0,0,1.772-.892V9.377h3.642V21h-3.395Zm10.4-1.321a1.61,1.61,0,0,0,1.182-.414,1.517,1.517,0,0,0,.408-1.155h3.395a4.018,4.018,0,0,1-1.37,3.137,5.1,5.1,0,0,1-3.529,1.225,5.158,5.158,0,0,1-4-1.59,6.264,6.264,0,0,1-1.461-4.4v-.15a7.08,7.08,0,0,1,.65-3.11,4.732,4.732,0,0,1,1.875-2.073,5.589,5.589,0,0,1,2.9-.725,5.03,5.03,0,0,1,3.6,1.257,4.458,4.458,0,0,1,1.332,3.405H128.3a1.987,1.987,0,0,0-.44-1.386,1.52,1.52,0,0,0-1.182-.483q-1.407,0-1.644,1.794a12.658,12.658,0,0,0-.075,1.568,4.972,4.972,0,0,0,.419,2.428A1.45,1.45,0,0,0,126.71,18.422ZM137.441,6.487v2.89h1.912v2.514h-1.912v5.317a1.358,1.358,0,0,0,.236.913,1.268,1.268,0,0,0,.935.258,5.311,5.311,0,0,0,.9-.064V20.9a6.681,6.681,0,0,1-2.041.312,3.792,3.792,0,0,1-2.761-.881,3.61,3.61,0,0,1-.892-2.675V11.891h-1.482V9.377h1.482V6.487ZM140,15.081a6.86,6.86,0,0,1,.677-3.1,4.84,4.84,0,0,1,1.944-2.089,5.856,5.856,0,0,1,2.976-.73,5.344,5.344,0,0,1,4.114,1.617,6.2,6.2,0,0,1,1.5,4.4v.129A6.019,6.019,0,0,1,149.7,19.62a5.359,5.359,0,0,1-4.087,1.6,5.42,5.42,0,0,1-3.985-1.488,5.819,5.819,0,0,1-1.622-4.034Zm3.62.226a4.325,4.325,0,0,0,.5,2.363,1.682,1.682,0,0,0,1.493.752q1.934,0,1.977-2.976v-.365q0-3.126-2-3.126-1.815,0-1.966,2.7Zm14.212-.2a7.1,7.1,0,0,1,1.192-4.351,3.925,3.925,0,0,1,3.33-1.59,3.338,3.338,0,0,1,2.621,1.225V4.5H168.6V21H165.35l-.183-1.246a3.428,3.428,0,0,1-2.836,1.461,3.918,3.918,0,0,1-3.287-1.59A7.325,7.325,0,0,1,157.83,15.1Zm3.62.226q0,3.094,1.8,3.094a1.782,1.782,0,0,0,1.719-1.01V12.986a1.734,1.734,0,0,0-1.7-1.031q-1.676,0-1.815,2.707Zm14.835,5.887a5.975,5.975,0,0,1-4.329-1.6,5.509,5.509,0,0,1-1.654-4.152v-.3a7.138,7.138,0,0,1,.661-3.147,4.834,4.834,0,0,1,1.928-2.111,5.821,5.821,0,0,1,3.008-.747,5.031,5.031,0,0,1,3.867,1.52,5.973,5.973,0,0,1,1.418,4.238v1.407h-7.2a2.609,2.609,0,0,0,.849,1.536,2.525,2.525,0,0,0,1.7.559,3.254,3.254,0,0,0,2.686-1.2l1.654,1.955a4.624,4.624,0,0,1-1.917,1.488A6.48,6.48,0,0,1,176.285,21.215Zm-.408-9.26q-1.59,0-1.891,2.105h3.652v-.279a1.793,1.793,0,0,0-.44-1.348A1.753,1.753,0,0,0,175.877,11.955ZM65.286,48H61.655V31.5h3.631Zm8.776,0a4.087,4.087,0,0,1-.344-1.042,3.366,3.366,0,0,1-2.793,1.257,4.124,4.124,0,0,1-2.793-.994,3.163,3.163,0,0,1-1.149-2.5,3.251,3.251,0,0,1,1.4-2.857A7.114,7.114,0,0,1,72.44,40.9h1.117v-.615q0-1.608-1.386-1.608a1.133,1.133,0,0,0-1.289,1.274h-3.62A3.245,3.245,0,0,1,68.7,37.214a6.027,6.027,0,0,1,3.658-1.051,5.284,5.284,0,0,1,3.513,1.085,3.772,3.772,0,0,1,1.321,2.976v5.146a5.269,5.269,0,0,0,.494,2.449V48ZM71.8,45.637a2.019,2.019,0,0,0,1.123-.29,1.818,1.818,0,0,0,.639-.655V42.833H72.5q-1.891,0-1.891,1.7a1.036,1.036,0,0,0,.333.8A1.205,1.205,0,0,0,71.8,45.637Zm10.721-9.26.118,1.364a3.942,3.942,0,0,1,3.319-1.579,3.316,3.316,0,0,1,2.712,1.085,5.165,5.165,0,0,1,.929,3.266V48H85.965V40.663a1.961,1.961,0,0,0-.354-1.294,1.64,1.64,0,0,0-1.289-.414,1.726,1.726,0,0,0-1.579.838V48h-3.62V36.377Zm13.353,8.83h5.3V48H91.293V45.98l5.156-6.811H91.519V36.377h9.528v1.955ZM109.469,48a4.087,4.087,0,0,1-.344-1.042,3.366,3.366,0,0,1-2.793,1.257,4.124,4.124,0,0,1-2.793-.994,3.163,3.163,0,0,1-1.149-2.5,3.251,3.251,0,0,1,1.4-2.857,7.114,7.114,0,0,1,4.061-.967h1.117v-.615q0-1.608-1.386-1.608a1.133,1.133,0,0,0-1.289,1.274h-3.62a3.245,3.245,0,0,1,1.434-2.736,6.027,6.027,0,0,1,3.658-1.051,5.284,5.284,0,0,1,3.513,1.085,3.772,3.772,0,0,1,1.321,2.976v5.146a5.269,5.269,0,0,0,.494,2.449V48ZM107.2,45.637a2.019,2.019,0,0,0,1.123-.29,1.818,1.818,0,0,0,.639-.655V42.833h-1.053q-1.891,0-1.891,1.7a1.036,1.036,0,0,0,.333.8A1.205,1.205,0,0,0,107.2,45.637Zm10.817-9.26.118,1.364a4,4,0,0,1,3.319-1.579,2.942,2.942,0,0,1,2.976,1.751,3.868,3.868,0,0,1,3.416-1.751q3.534,0,3.631,4.275V48h-3.631V40.663a2.216,2.216,0,0,0-.3-1.3,1.28,1.28,0,0,0-1.1-.408,1.715,1.715,0,0,0-1.6.956l.011.15V48h-3.631V40.685a2.329,2.329,0,0,0-.29-1.321,1.277,1.277,0,0,0-1.106-.408,1.736,1.736,0,0,0-1.59.956V48h-3.62V36.377ZM137.366,48h-3.631V36.377h3.631Zm-3.846-14.631a1.63,1.63,0,0,1,.559-1.275,2.364,2.364,0,0,1,2.9,0,1.735,1.735,0,0,1,0,2.551,2.364,2.364,0,0,1-2.9,0A1.63,1.63,0,0,1,133.521,33.369Zm11.7,14.846a5.975,5.975,0,0,1-4.329-1.6,5.509,5.509,0,0,1-1.654-4.152v-.3a7.138,7.138,0,0,1,.661-3.147,4.834,4.834,0,0,1,1.928-2.111,5.821,5.821,0,0,1,3.008-.747,5.031,5.031,0,0,1,3.867,1.52,5.973,5.973,0,0,1,1.418,4.238v1.407h-7.2a2.609,2.609,0,0,0,.849,1.536,2.525,2.525,0,0,0,1.7.559,3.254,3.254,0,0,0,2.686-1.2l1.654,1.955a4.624,4.624,0,0,1-1.917,1.488A6.48,6.48,0,0,1,145.219,48.215Zm-.408-9.26q-1.59,0-1.891,2.105h3.652v-.279a1.793,1.793,0,0,0-.44-1.348A1.753,1.753,0,0,0,144.811,38.955ZM154.9,36.377l.118,1.364a3.942,3.942,0,0,1,3.319-1.579,3.316,3.316,0,0,1,2.712,1.085,5.165,5.165,0,0,1,.929,3.266V48h-3.631V40.663a1.961,1.961,0,0,0-.354-1.294,1.64,1.64,0,0,0-1.289-.414,1.726,1.726,0,0,0-1.579.838V48H151.5V36.377Zm13.3-2.89v2.89h1.912v2.514H168.2v5.317a1.358,1.358,0,0,0,.236.913,1.268,1.268,0,0,0,.935.258,5.311,5.311,0,0,0,.9-.064V47.9a6.681,6.681,0,0,1-2.041.312,3.792,3.792,0,0,1-2.761-.881,3.61,3.61,0,0,1-.892-2.675V38.891h-1.482V36.377h1.482v-2.89Zm2.557,8.594a6.86,6.86,0,0,1,.677-3.1,4.84,4.84,0,0,1,1.944-2.089,5.856,5.856,0,0,1,2.976-.73,5.344,5.344,0,0,1,4.114,1.617,6.2,6.2,0,0,1,1.5,4.4v.129a6.019,6.019,0,0,1-1.509,4.313,5.359,5.359,0,0,1-4.087,1.6,5.42,5.42,0,0,1-3.985-1.488,5.819,5.819,0,0,1-1.622-4.034Zm3.62.226a4.325,4.325,0,0,0,.5,2.363,1.682,1.682,0,0,0,1.493.752q1.934,0,1.977-2.976v-.365q0-3.126-2-3.126-1.815,0-1.966,2.7Z" transform="translate(205.758 17847.387)" fill="#12263f"/>
    <g id="new-product" transform="translate(238.049 17671)">
      <g id="_000000ff" data-name="#000000ff" transform="translate(35.709)">
        <path id="Path_157154" data-name="Path 157154" d="M48.588,0h64.189a4.331,4.331,0,0,1,3.806,4.157c.032,5.533,0,11.069.015,16.6a5.135,5.135,0,0,0,.666,1.923q3.319,7.315,6.619,14.641a19.646,19.646,0,0,1,1.869,8.859,2.147,2.147,0,0,1,2.23,1.178c1.354,3.952,2.615,7.941,3.928,11.908a1.227,1.227,0,0,0,.5.705c3.33,2.452,6.695,4.867,10.01,7.339a1.843,1.843,0,0,1,.634,2.162q-1.859,5.83-3.745,11.652a1.366,1.366,0,0,0,0,.964q1.874,5.826,3.745,11.652a1.9,1.9,0,0,1-.756,2.266q-4.644,3.425-9.315,6.809c-.4.317-.937.571-1.069,1.113-1.286,3.911-2.557,7.829-3.857,11.735a1.82,1.82,0,0,1-1.744,1.317c-4.077.041-8.156.046-12.233.054-.686-.088-1.193.434-1.71.79-2.681,1.954-5.382,3.879-8.068,5.828a9.792,9.792,0,0,1-1.991,1.259h-.725a7.427,7.427,0,0,1-1.191-.693c-3.118-2.254-6.26-4.472-9.373-6.729a1.514,1.514,0,0,0-1.069-.388q-24.881.007-49.768,0a4.319,4.319,0,0,1-4.008-2.347,7.337,7.337,0,0,1-.464-3.513q0-19.637,0-39.275a8.646,8.646,0,0,1,.149-2.369,2.1,2.1,0,0,1,1.681-1.174,1.971,1.971,0,0,1,1.83,2.052q.011,11.114,0,22.226,1.5,0,3,0H61.185c1.13-3.5,2.237-7,3.379-10.488a1.491,1.491,0,0,0,.1-.859c-.29-1.056-.671-2.086-1.008-3.128a11.666,11.666,0,0,1-2.537.612c-3.313.156-6.638.029-9.956.037a8.2,8.2,0,0,1-2.925-15.841,4.412,4.412,0,0,1,3.067.1,10.184,10.184,0,0,1,1.552-6.294,8.692,8.692,0,0,1,9.9-3.069A8.118,8.118,0,0,1,65.1,48.843a1.83,1.83,0,0,1,2.952,1.174c.163.888-.559,1.525-.983,2.206a5.778,5.778,0,0,0-.7,2.049,9.014,9.014,0,0,1,4.482-.976,13.246,13.246,0,0,1,2.918.612c.722-2.164,1.4-4.345,2.149-6.5a1.813,1.813,0,0,1,1.82-1.181q6.108-.04,12.216-.051c.61.056,1.056-.415,1.525-.725,3.106-2.262,6.231-4.5,9.349-6.748a1.871,1.871,0,0,1,2.335.037q4.9,3.524,9.8,7.068a1.446,1.446,0,0,0,.869.361c2.757.02,5.516.02,8.276.037a19.111,19.111,0,0,0-.278-3.521,16.054,16.054,0,0,0-1.242-3.786q-3.5-7.74-6.995-15.478-30.953,0-61.905,0c-1.281,0-2.559-.027-3.838.024-2.357,5.367-4.828,10.681-7.212,16.036a15.19,15.19,0,0,0-1.249,6.143V61.488a1.994,1.994,0,0,1-1.83,2.171,1.944,1.944,0,0,1-1.82-1.937c-.024-5.363,0-10.727-.01-16.09A18.883,18.883,0,0,1,37.4,37.74q3.294-7.315,6.6-14.626a16.394,16.394,0,0,0,.81-1.9,12.411,12.411,0,0,0,.059-1.952c-.007-4.879,0-9.759-.007-14.638a4.591,4.591,0,0,1,.59-2.51A4.525,4.525,0,0,1,48.588,0m-.032,4.209c-.054,2.74,0,5.484-.024,8.224,15.27.027,30.543-.007,45.815.02a1.843,1.843,0,0,1,1.791,2.093A1.892,1.892,0,0,1,94.1,16.112q-22.777.011-45.559.012.026,1.808,0,3.616,32.2.029,64.4.01-.007-1.819,0-3.635c-3.359-.01-6.719.02-10.076-.015a1.824,1.824,0,0,1-.022-3.647c3.364-.024,6.731,0,10.1-.01-.017-2.759.039-5.524-.024-8.283-.037-.5-.627-.522-1-.505-20.823.017-41.648-.012-62.471.017-.364-.041-.893.073-.881.537M92.376,49.3a2.243,2.243,0,0,1-1.466.529c-4,.032-8-.007-12,.076-1.205,3.779-2.471,7.541-3.7,11.313a2.165,2.165,0,0,1-.873,1.213q-4.816,3.524-9.63,7.061c1.149,3.555,2.281,7.114,3.433,10.669a3.181,3.181,0,0,1,.271,2.02c-1.222,3.852-2.469,7.7-3.7,11.547,3.247,2.384,6.509,4.748,9.747,7.146a2.021,2.021,0,0,1,.759,1.113l3.725,11.452q5.874,0,11.747,0a2.268,2.268,0,0,1,1.542.429c3.233,2.32,6.485,4.614,9.705,6.951,3.018-2.105,5.97-4.3,8.966-6.441.605-.415,1.186-1.005,1.974-.988,4.033-.029,8.068-.024,12.1-.059,1.239-3.782,2.5-7.561,3.733-11.345a2.2,2.2,0,0,1,.971-1.274c3.008-2.181,5.992-4.4,9.005-6.577.183-.183.639-.329.439-.671-1.193-3.757-2.423-7.507-3.608-11.267-.3-.82.178-1.627.388-2.408,1.086-3.452,2.262-6.878,3.286-10.349-3.15-2.235-6.233-4.565-9.366-6.824a2.4,2.4,0,0,1-1.113-1.378q-1.87-5.676-3.733-11.357c-4.028-.024-8.053-.029-12.081-.056-.8.027-1.386-.566-2-.986Q106.43,45.6,101.95,42.39c-3.184,2.31-6.385,4.6-9.573,6.909M56.315,58.37c-1.476,1.6-1.542,3.979-1.169,6.011l.1.093c2.313.751,4.621,1.527,6.924,2.31,3.05-2.193,6.055-4.448,9.1-6.646.959-.564.925-1.825,1.332-2.752a4.932,4.932,0,0,0-5.777,1.225,1.962,1.962,0,0,1-2.623.783c-.744-.564-1.2-1.464-2.076-1.874a5.023,5.023,0,0,0-5.809.849M46.722,71.24a4.651,4.651,0,0,0,4.443,3.984q4.26.033,8.519.029a6.945,6.945,0,0,0,2.85-.52c-.466-1.481-.947-2.957-1.425-4.435-1.127-.376-2.257-.749-3.384-1.13-.278.729-.471,1.632-1.247,2a1.838,1.838,0,0,1-2.564-1.012A3.192,3.192,0,0,1,54.246,68c-1.6-.486-3.152-1.139-4.77-1.52a4.731,4.731,0,0,0-2.754,4.76M39.378,96.381q.007,1.815,0,3.635c3.445.012,6.887.007,10.33.02a1.817,1.817,0,0,1,.256,3.625c-2.523.066-5.048,0-7.57.029q-1.508-.007-3.015,0c0,3.006-.01,6.014,0,9.022a.653.653,0,0,0,.764.729q17.467.015,34.939,0-1.585-4.878-3.174-9.754c-1.588,0-3.177-.015-4.762.007-2.981-.037-5.965.02-8.946-.024a1.815,1.815,0,0,1,0-3.63c2.962-.032,5.926-.022,8.888-.029-1.661-1.2-3.311-2.418-4.962-3.633Q50.756,96.355,39.378,96.381Z" transform="translate(-35.709)"/>
        <path id="Path_157155" data-name="Path 157155" d="M144.685,111.944a9.094,9.094,0,0,1,3.825-.439q12.8,0,25.61,0a5.614,5.614,0,0,1,5.1,3.116,5.687,5.687,0,0,1-.383,5.658,6.338,6.338,0,0,1-2.947,2.21,10.053,10.053,0,0,1-2.242.244c-8.951-.017-17.9.015-26.852-.017a5.608,5.608,0,0,1-2.11-10.771m1.242,3.46a1.958,1.958,0,0,0-.815,2.54,2.021,2.021,0,0,0,1.942,1.122q13.423.015,26.849,0a2.032,2.032,0,0,0,2.2-1.574,1.945,1.945,0,0,0-1.954-2.325q-13.54-.015-27.083,0A2.224,2.224,0,0,0,145.927,115.4Z" transform="translate(-115.51 -84.295)"/>
        <path id="Path_157156" data-name="Path 157156" d="M212.927,218.84a1.88,1.88,0,0,1,1.408-2.059A28.58,28.58,0,0,1,232.64,220.5a28.775,28.775,0,1,1-36.318,43.656,28.822,28.822,0,0,1,9.454-44.893,1.886,1.886,0,0,1,2.525.888,1.908,1.908,0,0,1-.964,2.41,25.6,25.6,0,0,0-7.971,5.968,25.248,25.248,0,0,0-6.429,16.158,25.119,25.119,0,0,0,36.542,22.987A25.125,25.125,0,0,0,217.5,220.192c-.983,0-1.957.181-2.94.159A1.892,1.892,0,0,1,212.927,218.84Z" transform="translate(-151.802 -163.7)"/>
        <path id="Path_157157" data-name="Path 157157" d="M279.252,304.19a1.8,1.8,0,0,1,1.639-1.818c1.547-.054,3.094,0,4.638-.024a2.276,2.276,0,0,1,2.125.734,1.832,1.832,0,0,1-1.152,2.891c-1.2.093-2.4.012-3.6.039-.007.815-.017,1.632.029,2.449a16.377,16.377,0,0,1,3.579.107,1.84,1.84,0,0,1,.1,3.335,15.141,15.141,0,0,1-3.706.19v2.262c1.115.015,2.232-.029,3.347.015a1.817,1.817,0,0,1,.022,3.633c-1.72.029-3.438.012-5.155.007a1.828,1.828,0,0,1-1.866-1.842Q279.233,310.182,279.252,304.19Z" transform="translate(-219.827 -228.576)"/>
        <path id="Path_157158" data-name="Path 157158" d="M219.252,304.238a1.828,1.828,0,0,1,1.654-1.849,1.868,1.868,0,0,1,1.732.868c1.708,2.371,3.374,4.775,5.1,7.136.129-2.127-.017-4.265.073-6.395a1.82,1.82,0,0,1,3.628.244c.02,3.9,0,7.8.01,11.7a1.966,1.966,0,0,1-.759,1.757,1.838,1.838,0,0,1-2.569-.437c-1.752-2.425-3.457-4.882-5.214-7.3-.01,2.079.017,4.157-.007,6.236a1.823,1.823,0,1,1-3.645,0Q219.233,310.215,219.252,304.238Z" transform="translate(-174.465 -228.606)"/>
        <path id="Path_157159" data-name="Path 157159" d="M325.316,304.713a1.839,1.839,0,0,1,1.115-2.208,1.82,1.82,0,0,1,2.408,1.261c.459,1.866.827,3.757,1.276,5.628.637-1.881,1.259-3.764,1.9-5.643a1.851,1.851,0,0,1,1.5-1.347,1.829,1.829,0,0,1,2.008,1.227c.671,1.91,1.264,3.847,1.952,5.753.422-1.883.817-3.774,1.274-5.648a1.825,1.825,0,0,1,2.818-1.008,1.854,1.854,0,0,1,.686,2.018c-.864,3.908-1.747,7.814-2.618,11.72a1.874,1.874,0,0,1-1.52,1.557,1.827,1.827,0,0,1-2.023-1.21c-.776-2.259-1.515-4.528-2.281-6.79-.888,2.308-1.549,4.7-2.425,7.014a1.828,1.828,0,0,1-3.34-.21C327.087,312.8,326.226,308.75,325.316,304.713Z" transform="translate(-254.608 -228.608)"/>
      </g>
      <g id="_f4f3f4ff" data-name="#f4f3f4ff" transform="translate(39.378 3.651)">
        <path id="Path_157160" data-name="Path 157160" d="M88.293,15.522c-.012-.464.517-.578.881-.537,20.823-.029,41.648,0,62.471-.017.376-.017.966,0,1,.505.063,2.759.007,5.524.024,8.283-3.367.007-6.734-.015-10.1.01a1.824,1.824,0,0,0,.022,3.647c3.357.034,6.717,0,10.076.015q-.007,1.819,0,3.635-32.2-.007-64.4-.01.026-1.808,0-3.616,22.781-.033,45.559-.012a1.892,1.892,0,0,0,2.042-1.566,1.843,1.843,0,0,0-1.791-2.093c-15.273-.027-30.545.007-45.815-.02C88.293,21.006,88.239,18.262,88.293,15.522Z" transform="translate(-79.115 -14.964)" fill="#f4f3f4"/>
        <path id="Path_157161" data-name="Path 157161" d="M50.75,395.007q11.378-.029,22.755,0c1.652,1.215,3.3,2.432,4.962,3.633-2.962.007-5.926,0-8.888.029a1.922,1.922,0,0,0-1.788,1.82c-1.6.015-3.194,0-4.789.012a1.948,1.948,0,0,0-1.923-1.84c-3.442-.012-6.885-.007-10.33-.02Q50.757,396.824,50.75,395.007Z" transform="translate(-50.75 -302.277)" fill="#f4f3f4"/>
      </g>
      <g id="_98db7cff" data-name="#98db7cff" transform="translate(37.546 23.418)">
        <path id="Path_157162" data-name="Path 157162" d="M53.533,96.015c1.278-.051,2.557-.022,3.838-.024-1.008,2.3-2.223,4.509-3.216,6.819-1.53,2.986-2.881,6.055-4.391,9.049a13.96,13.96,0,0,0-1.649,5.838c-.046,15.858.054,31.719-.041,47.579q-1.5,0-3,0-.007-11.11,0-22.226A1.971,1.971,0,0,0,43.24,141c.007-1.591,0-3.179,0-4.77a1.994,1.994,0,0,0,1.83-2.171V118.195a15.19,15.19,0,0,1,1.249-6.143C48.7,106.7,51.176,101.383,53.533,96.015Z" transform="translate(-43.24 -95.985)" fill="#75baf1"/>
        <path id="Path_157163" data-name="Path 157163" d="M157.266,126.769a2.225,2.225,0,0,1,1.137-.239q13.54.007,27.083,0a1.945,1.945,0,0,1,1.954,2.325,2.032,2.032,0,0,1-2.2,1.574q-13.423,0-26.849,0a2.021,2.021,0,0,1-1.942-1.122A1.958,1.958,0,0,1,157.266,126.769Z" transform="translate(-128.688 -119.078)" fill="#75baf1"/>
        <path id="Path_157164" data-name="Path 157164" d="M207.911,146.136a12.878,12.878,0,0,0,2.127-.381,6.012,6.012,0,0,1,4.338,1.056c2.786,2.01,5.56,4.035,8.358,6.024a4.315,4.315,0,0,0,2.679.471c1.688-.051,3.381.056,5.07-.032l.212-.437a19.111,19.111,0,0,1,.278,3.521c-2.759-.017-5.519-.017-8.276-.037a1.446,1.446,0,0,1-.869-.361q-4.893-3.542-9.8-7.068a1.871,1.871,0,0,0-2.335-.037c-3.118,2.245-6.243,4.487-9.349,6.748-.468.31-.915.781-1.525.725q-6.108.015-12.216.051a1.813,1.813,0,0,0-1.82,1.181c-.751,2.154-1.427,4.335-2.149,6.5a13.247,13.247,0,0,0-2.918-.612c.364-1.63.993-3.181,1.486-4.772a8.4,8.4,0,0,1,1.474-3.176,7.23,7.23,0,0,1,2.23-1.679,9.974,9.974,0,0,1,4.148-.5q4.271-.026,8.544-.027c.971.051,1.666-.717,2.41-1.217a55.233,55.233,0,0,0,4.953-3.733A6.339,6.339,0,0,0,207.911,146.136Z" transform="translate(-146.423 -133.57)" fill="#75baf1"/>
        <path id="Path_157165" data-name="Path 157165" d="M130.2,321.282a11.663,11.663,0,0,0,2.537-.612c.337,1.042.717,2.071,1.008,3.128a1.491,1.491,0,0,1-.1.859c-1.142,3.491-2.249,6.992-3.379,10.488H127.08c1.086-3.516,2.274-7,3.338-10.525.3-1.037-.354-1.993-.537-2.981A2.755,2.755,0,0,1,130.2,321.282Z" transform="translate(-106.625 -265.853)" fill="#75baf1"/>
        <path id="Path_157166" data-name="Path 157166" d="M50.74,425q1.508-.007,3.015,0c.041,1.625,0,3.25.012,4.877.032.507-.02,1.12.4,1.5a2.153,2.153,0,0,0,1.518.376c8.378-.024,16.756-.007,25.134,0,.349-.044.817.041,1.015-.332.3-.451-.032-1-.137-1.464a29.491,29.491,0,0,0-1.1-3.052A16.914,16.914,0,0,0,78.511,425c1.586-.022,3.174-.007,4.762-.007q1.592,4.875,3.174,9.754-17.471,0-34.939,0a.653.653,0,0,1-.764-.729C50.73,431.009,50.745,428,50.74,425Z" transform="translate(-48.908 -344.722)" fill="#75baf1"/>
      </g>
      <g id="_b8eb7cff" data-name="#b8eb7cff" transform="translate(42.379 23.421)">
        <path id="Path_157167" data-name="Path 157167" d="M72.348,96Q103.3,96,134.253,96q3.5,7.736,6.995,15.478a16.053,16.053,0,0,1,1.242,3.786l-.212.437c-1.688.088-3.381-.02-5.07.032a4.315,4.315,0,0,1-2.679-.471c-2.8-1.988-5.572-4.013-8.358-6.024a6.012,6.012,0,0,0-4.338-1.056,12.878,12.878,0,0,1-2.127.381,5.687,5.687,0,0,0,.383-5.658,5.614,5.614,0,0,0-5.1-3.116q-12.8,0-25.61,0a9.094,9.094,0,0,0-3.825.439A5.608,5.608,0,0,0,87.664,111c8.949.032,17.9,0,26.852.017a10.052,10.052,0,0,0,2.242-.244,55.239,55.239,0,0,1-4.953,3.733c-.744.5-1.439,1.269-2.41,1.217q-4.271,0-8.544.027a9.974,9.974,0,0,0-4.148.5,7.23,7.23,0,0,0-2.23,1.679A8.4,8.4,0,0,0,93,121.1c-.493,1.591-1.122,3.142-1.486,4.772a9.014,9.014,0,0,0-4.482.976,5.778,5.778,0,0,1,.7-2.049c.425-.681,1.147-1.317.983-2.206a1.83,1.83,0,0,0-2.952-1.174,8.118,8.118,0,0,0-2.342,4.933,8.692,8.692,0,0,0-9.9,3.069,10.184,10.184,0,0,0-1.552,6.294,4.412,4.412,0,0,0-3.067-.1,8.2,8.2,0,0,0,2.925,15.841c3.318-.007,6.643.12,9.956-.037a2.757,2.757,0,0,0-.317.356c.183.988.842,1.944.537,2.981-1.064,3.521-2.252,7.009-3.338,10.525H63.05c.1-15.861,0-31.721.041-47.579a13.96,13.96,0,0,1,1.649-5.838c1.51-2.994,2.862-6.063,4.391-9.049C70.125,100.511,71.34,98.306,72.348,96Z" transform="translate(-63.05 -96)" fill="#9ed4ff"/>
        <path id="Path_157168" data-name="Path 157168" d="M72.347,417.532c1.6-.01,3.191,0,4.789-.012a1.924,1.924,0,0,0,1.783,1.81c2.981.044,5.965-.012,8.946.024a16.912,16.912,0,0,1,2.091,1.888,29.488,29.488,0,0,1,1.1,3.052c.1.464.439,1.012.137,1.464-.2.373-.666.288-1.015.332-8.378,0-16.756-.02-25.134,0a2.153,2.153,0,0,1-1.518-.376c-.422-.376-.371-.988-.4-1.5-.007-1.627.029-3.252-.012-4.877,2.523-.024,5.048.037,7.57-.029A1.954,1.954,0,0,0,72.347,417.532Z" transform="translate(-63.095 -339.078)" fill="#9ed4ff"/>
      </g>
      <g id="_ffdc70ff" data-name="#ffdc70ff" transform="translate(46.682 42.39)">
        <path id="Path_157169" data-name="Path 157169" d="M182.239,180.659c3.189-2.308,6.39-4.6,9.573-6.909q4.49,3.2,8.949,6.446c.612.42,1.2,1.012,2,.986,4.028.027,8.054.032,12.081.056q1.874,5.676,3.733,11.357a2.4,2.4,0,0,0,1.113,1.378c3.133,2.259,6.216,4.589,9.366,6.824-1.025,3.472-2.2,6.9-3.286,10.349-.21.781-.686,1.588-.388,2.408,1.186,3.76,2.415,7.509,3.608,11.267.2.342-.256.488-.439.671-3.013,2.176-6,4.4-9.005,6.577a2.2,2.2,0,0,0-.971,1.273c-1.237,3.784-2.493,7.563-3.733,11.345-4.035.034-8.071.029-12.1.059-.788-.017-1.369.573-1.974.988-3,2.14-5.948,4.335-8.966,6.441-3.22-2.337-6.473-4.631-9.705-6.951a2.268,2.268,0,0,0-1.542-.429q-5.874.007-11.747,0l-3.725-11.452a2.02,2.02,0,0,0-.759-1.113c-3.238-2.4-6.5-4.762-9.747-7.146,1.234-3.85,2.481-7.695,3.7-11.547a3.181,3.181,0,0,0-.271-2.02c-1.152-3.555-2.284-7.114-3.433-10.669q4.816-3.528,9.63-7.061a2.164,2.164,0,0,0,.873-1.213c1.227-3.772,2.493-7.534,3.7-11.313,4-.083,8-.044,12-.076a2.243,2.243,0,0,0,1.466-.529M186.7,186.5a30.4,30.4,0,0,0-4.626,1.315,1.886,1.886,0,0,0-2.525-.888,28.932,28.932,0,1,0,8.559-2.486A1.88,1.88,0,0,0,186.7,186.5Z" transform="translate(-136.544 -173.75)" fill="#be79ca"/>
        <path id="Path_157170" data-name="Path 157170" d="M80.726,277.25a4.731,4.731,0,0,1,2.754-4.76c1.618.381,3.174,1.034,4.77,1.52a3.192,3.192,0,0,0-.332,2.159,1.838,1.838,0,0,0,2.564,1.013c.776-.371.969-1.274,1.247-2,1.127.381,2.257.754,3.384,1.13.478,1.478.959,2.954,1.425,4.435a6.945,6.945,0,0,1-2.85.52q-4.26,0-8.519-.029A4.651,4.651,0,0,1,80.726,277.25Z" transform="translate(-80.686 -248.4)" fill="#be79ca"/>
      </g>
      <g id="_ff7d92ff" data-name="#ff7d92ff" transform="translate(54.955 55.14)">
        <path id="Path_157171" data-name="Path 157171" d="M219.649,227.325a30.4,30.4,0,0,1,4.626-1.315,1.892,1.892,0,0,0,1.635,1.51c.983.022,1.957-.161,2.94-.159a25.152,25.152,0,1,1-18.134,8.341,25.6,25.6,0,0,1,7.971-5.968,1.909,1.909,0,0,0,.964-2.41m2.925,19.159q-.018,5.991,0,11.979a1.828,1.828,0,0,0,1.866,1.842c1.718,0,3.435.022,5.155-.007a1.817,1.817,0,0,0-.022-3.633c-1.115-.044-2.232,0-3.347-.015v-2.262a15.144,15.144,0,0,0,3.706-.19,1.84,1.84,0,0,0-.1-3.335,16.375,16.375,0,0,0-3.579-.107c-.046-.817-.037-1.635-.029-2.449,1.2-.027,2.4.054,3.6-.039a1.832,1.832,0,0,0,1.152-2.891,2.276,2.276,0,0,0-2.125-.734c-1.544.027-3.091-.029-4.638.024a1.8,1.8,0,0,0-1.639,1.818m-14.638.017q-.018,5.976,0,11.957a1.823,1.823,0,1,0,3.645,0c.024-2.079,0-4.157.007-6.236,1.757,2.423,3.462,4.879,5.214,7.3a1.838,1.838,0,0,0,2.569.437,1.966,1.966,0,0,0,.759-1.757c-.01-3.9.01-7.8-.01-11.7a1.82,1.82,0,0,0-3.628-.244c-.09,2.13.056,4.267-.073,6.395-1.722-2.362-3.389-4.765-5.1-7.136a1.868,1.868,0,0,0-1.732-.869,1.828,1.828,0,0,0-1.654,1.849m25.922.473c.91,4.038,1.771,8.088,2.723,12.116a1.828,1.828,0,0,0,3.34.21c.876-2.313,1.537-4.706,2.425-7.014.766,2.262,1.505,4.531,2.281,6.79a1.827,1.827,0,0,0,2.023,1.21,1.874,1.874,0,0,0,1.52-1.557c.871-3.906,1.754-7.812,2.618-11.72a1.854,1.854,0,0,0-.686-2.018A1.825,1.825,0,0,0,247.283,246c-.456,1.874-.851,3.764-1.274,5.648-.688-1.905-1.281-3.843-1.952-5.753a1.829,1.829,0,0,0-2.008-1.227,1.851,1.851,0,0,0-1.5,1.347c-.639,1.879-1.261,3.762-1.9,5.643-.449-1.871-.817-3.762-1.276-5.628a1.82,1.82,0,0,0-2.408-1.261A1.839,1.839,0,0,0,233.858,246.974Z" transform="translate(-182.395 -226.01)" fill="#f9f024"/>
        <path id="Path_157172" data-name="Path 157172" d="M115.955,234.841a5.023,5.023,0,0,1,5.809-.849c.873.41,1.332,1.31,2.076,1.874a1.962,1.962,0,0,0,2.623-.783,4.932,4.932,0,0,1,5.777-1.225c-.407.927-.373,2.188-1.332,2.752-3.047,2.2-6.053,4.452-9.1,6.646-2.3-.783-4.611-1.559-6.924-2.31l-.1-.093C114.413,238.82,114.479,236.444,115.955,234.841Z" transform="translate(-114.594 -231.611)" fill="#f9f024"/>
      </g>
    </g>
  </g>
</svg>
