<svg xmlns="http://www.w3.org/2000/svg" width="295" height="280" viewBox="0 0 295 280">
  <g id="ch-8" transform="translate(1426 -5928.387)">
    <rect id="Rectangle_37371" data-name="Rectangle 37371" width="295" height="280" rx="30" transform="translate(-1426 5928.387)" fill="#e2f0fc"/>
    <path id="Rectangle_37371_-_Outline" data-name="Rectangle 37371 - Outline" d="M30,3A26.975,26.975,0,0,0,3,30V250a26.975,26.975,0,0,0,27,27H265a26.975,26.975,0,0,0,27-27V30A26.975,26.975,0,0,0,265,3H30m0-3H265a30,30,0,0,1,30,30V250a30,30,0,0,1-30,30H30A30,30,0,0,1,0,250V30A30,30,0,0,1,30,0Z" transform="translate(-1426 5928.387)" fill="#75baf1"/>
    <path id="Path_157143" data-name="Path 157143" d="M105,0H400V45a30,30,0,0,1-30,30H135a30,30,0,0,1-30-30Z" transform="translate(-1531 6133.387)" fill="#75baf1"/>
    <path id="Path_157296" data-name="Path 157296" d="M66.328,15.693V21H62.558V5.359H68.8a7.269,7.269,0,0,1,3.174.661A4.979,4.979,0,0,1,74.111,7.9a5.134,5.134,0,0,1,.757,2.766,4.526,4.526,0,0,1-1.638,3.658,6.8,6.8,0,0,1-4.5,1.37Zm0-2.911H68.8a2.33,2.33,0,0,0,1.67-.548,2.035,2.035,0,0,0,.575-1.547,2.516,2.516,0,0,0-.591-1.751,2.092,2.092,0,0,0-1.611-.666H66.328Zm17.413-.129-1.192-.086a2.142,2.142,0,0,0-2.191,1.074V21h-3.62V9.377h3.395l.118,1.493A2.8,2.8,0,0,1,82.8,9.162a3.53,3.53,0,0,1,1.01.129Zm.462,2.428a6.86,6.86,0,0,1,.677-3.1,4.84,4.84,0,0,1,1.944-2.089,5.856,5.856,0,0,1,2.976-.73,5.344,5.344,0,0,1,4.114,1.617,6.2,6.2,0,0,1,1.5,4.4v.129a6.019,6.019,0,0,1-1.509,4.313,5.359,5.359,0,0,1-4.087,1.6,5.42,5.42,0,0,1-3.985-1.488,5.819,5.819,0,0,1-1.622-4.034Zm3.62.226a4.325,4.325,0,0,0,.5,2.363,1.682,1.682,0,0,0,1.493.752q1.934,0,1.977-2.976v-.365q0-3.126-2-3.126-1.815,0-1.966,2.7Zm8.733-.2a7.1,7.1,0,0,1,1.192-4.351,3.925,3.925,0,0,1,3.33-1.59,3.338,3.338,0,0,1,2.621,1.225V4.5h3.631V21h-3.255l-.183-1.246a3.428,3.428,0,0,1-2.836,1.461,3.918,3.918,0,0,1-3.287-1.59A7.325,7.325,0,0,1,96.557,15.1Zm3.62.226q0,3.094,1.8,3.094a1.782,1.782,0,0,0,1.719-1.01V12.986a1.734,1.734,0,0,0-1.7-1.031q-1.676,0-1.815,2.707Zm16.135,4.415a3.732,3.732,0,0,1-3.1,1.472,3.661,3.661,0,0,1-2.9-1.112,4.676,4.676,0,0,1-.983-3.2V9.377h3.62v7.552a1.3,1.3,0,0,0,1.45,1.493,1.892,1.892,0,0,0,1.772-.892V9.377h3.642V21h-3.395Zm10.4-1.321a1.61,1.61,0,0,0,1.182-.414,1.517,1.517,0,0,0,.408-1.155h3.395a4.018,4.018,0,0,1-1.37,3.137,5.1,5.1,0,0,1-3.529,1.225,5.158,5.158,0,0,1-4-1.59,6.264,6.264,0,0,1-1.461-4.4v-.15a7.08,7.08,0,0,1,.65-3.11,4.732,4.732,0,0,1,1.875-2.073,5.589,5.589,0,0,1,2.9-.725,5.03,5.03,0,0,1,3.6,1.257,4.458,4.458,0,0,1,1.332,3.405H128.3a1.987,1.987,0,0,0-.44-1.386,1.52,1.52,0,0,0-1.182-.483q-1.407,0-1.644,1.794a12.658,12.658,0,0,0-.075,1.568,4.972,4.972,0,0,0,.419,2.428A1.45,1.45,0,0,0,126.71,18.422ZM137.441,6.487v2.89h1.912v2.514h-1.912v5.317a1.358,1.358,0,0,0,.236.913,1.268,1.268,0,0,0,.935.258,5.311,5.311,0,0,0,.9-.064V20.9a6.681,6.681,0,0,1-2.041.312,3.792,3.792,0,0,1-2.761-.881,3.61,3.61,0,0,1-.892-2.675V11.891h-1.482V9.377h1.482V6.487ZM140,15.081a6.86,6.86,0,0,1,.677-3.1,4.84,4.84,0,0,1,1.944-2.089,5.856,5.856,0,0,1,2.976-.73,5.344,5.344,0,0,1,4.114,1.617,6.2,6.2,0,0,1,1.5,4.4v.129A6.019,6.019,0,0,1,149.7,19.62a5.359,5.359,0,0,1-4.087,1.6,5.42,5.42,0,0,1-3.985-1.488,5.819,5.819,0,0,1-1.622-4.034Zm3.62.226a4.325,4.325,0,0,0,.5,2.363,1.682,1.682,0,0,0,1.493.752q1.934,0,1.977-2.976v-.365q0-3.126-2-3.126-1.815,0-1.966,2.7Zm14.212-.2a7.1,7.1,0,0,1,1.192-4.351,3.925,3.925,0,0,1,3.33-1.59,3.338,3.338,0,0,1,2.621,1.225V4.5H168.6V21H165.35l-.183-1.246a3.428,3.428,0,0,1-2.836,1.461,3.918,3.918,0,0,1-3.287-1.59A7.325,7.325,0,0,1,157.83,15.1Zm3.62.226q0,3.094,1.8,3.094a1.782,1.782,0,0,0,1.719-1.01V12.986a1.734,1.734,0,0,0-1.7-1.031q-1.676,0-1.815,2.707Zm14.835,5.887a5.975,5.975,0,0,1-4.329-1.6,5.509,5.509,0,0,1-1.654-4.152v-.3a7.138,7.138,0,0,1,.661-3.147,4.834,4.834,0,0,1,1.928-2.111,5.821,5.821,0,0,1,3.008-.747,5.031,5.031,0,0,1,3.867,1.52,5.973,5.973,0,0,1,1.418,4.238v1.407h-7.2a2.609,2.609,0,0,0,.849,1.536,2.525,2.525,0,0,0,1.7.559,3.254,3.254,0,0,0,2.686-1.2l1.654,1.955a4.624,4.624,0,0,1-1.917,1.488A6.48,6.48,0,0,1,176.285,21.215Zm-.408-9.26q-1.59,0-1.891,2.105h3.652v-.279a1.793,1.793,0,0,0-.44-1.348A1.753,1.753,0,0,0,175.877,11.955ZM50.945,36.377l.118,1.364a4,4,0,0,1,3.319-1.579,2.942,2.942,0,0,1,2.976,1.751,3.868,3.868,0,0,1,3.416-1.751q3.534,0,3.631,4.275V48H60.774V40.663a2.216,2.216,0,0,0-.3-1.3,1.28,1.28,0,0,0-1.1-.408,1.715,1.715,0,0,0-1.6.956l.011.15V48H54.157V40.685a2.329,2.329,0,0,0-.29-1.321,1.277,1.277,0,0,0-1.106-.408,1.736,1.736,0,0,0-1.59.956V48h-3.62V36.377ZM73.021,48a4.087,4.087,0,0,1-.344-1.042,3.366,3.366,0,0,1-2.793,1.257,4.124,4.124,0,0,1-2.793-.994,3.163,3.163,0,0,1-1.149-2.5,3.251,3.251,0,0,1,1.4-2.857A7.114,7.114,0,0,1,71.4,40.9h1.117v-.615q0-1.608-1.386-1.608a1.133,1.133,0,0,0-1.289,1.274h-3.62a3.245,3.245,0,0,1,1.434-2.736,6.027,6.027,0,0,1,3.658-1.051,5.284,5.284,0,0,1,3.513,1.085,3.772,3.772,0,0,1,1.321,2.976v5.146a5.269,5.269,0,0,0,.494,2.449V48Zm-2.267-2.363a2.019,2.019,0,0,0,1.123-.29,1.818,1.818,0,0,0,.639-.655V42.833H71.463q-1.891,0-1.891,1.7a1.036,1.036,0,0,0,.333.8A1.205,1.205,0,0,0,70.754,45.637Zm10.721-9.26.118,1.364a3.942,3.942,0,0,1,3.319-1.579,3.316,3.316,0,0,1,2.712,1.085,5.165,5.165,0,0,1,.929,3.266V48H84.923V40.663a1.961,1.961,0,0,0-.354-1.294,1.64,1.64,0,0,0-1.289-.414,1.726,1.726,0,0,0-1.579.838V48H78.08V36.377Zm13.3-2.89v2.89h1.912v2.514H94.773v5.317a1.358,1.358,0,0,0,.236.913,1.268,1.268,0,0,0,.935.258,5.311,5.311,0,0,0,.9-.064V47.9a6.681,6.681,0,0,1-2.041.312,3.792,3.792,0,0,1-2.761-.881,3.61,3.61,0,0,1-.892-2.675V38.891H89.671V36.377h1.482v-2.89Zm8.959,14.728a5.975,5.975,0,0,1-4.329-1.6,5.509,5.509,0,0,1-1.654-4.152v-.3a7.138,7.138,0,0,1,.661-3.147,4.834,4.834,0,0,1,1.928-2.111,5.821,5.821,0,0,1,3.008-.747,5.031,5.031,0,0,1,3.867,1.52,5.973,5.973,0,0,1,1.418,4.238v1.407h-7.2a2.609,2.609,0,0,0,.849,1.536,2.525,2.525,0,0,0,1.7.559,3.254,3.254,0,0,0,2.686-1.2l1.654,1.955a4.624,4.624,0,0,1-1.917,1.488A6.48,6.48,0,0,1,103.732,48.215Zm-.408-9.26q-1.59,0-1.891,2.105h3.652v-.279a1.793,1.793,0,0,0-.44-1.348A1.753,1.753,0,0,0,103.324,38.955Zm10.087-2.578.118,1.364a3.942,3.942,0,0,1,3.319-1.579,3.316,3.316,0,0,1,2.712,1.085,5.165,5.165,0,0,1,.929,3.266V48h-3.631V40.663a1.961,1.961,0,0,0-.354-1.294,1.64,1.64,0,0,0-1.289-.414,1.726,1.726,0,0,0-1.579.838V48h-3.62V36.377ZM126.313,48h-3.631V36.377h3.631Zm-3.846-14.631a1.63,1.63,0,0,1,.559-1.275,2.364,2.364,0,0,1,2.9,0,1.735,1.735,0,0,1,0,2.551,2.364,2.364,0,0,1-2.9,0A1.63,1.63,0,0,1,122.467,33.369Zm9.5,3.008.118,1.364a4,4,0,0,1,3.319-1.579,2.942,2.942,0,0,1,2.976,1.751,3.868,3.868,0,0,1,3.416-1.751q3.534,0,3.631,4.275V48h-3.631V40.663a2.216,2.216,0,0,0-.3-1.3,1.28,1.28,0,0,0-1.1-.408,1.715,1.715,0,0,0-1.6.956l.011.15V48h-3.631V40.685a2.329,2.329,0,0,0-.29-1.321,1.277,1.277,0,0,0-1.106-.408,1.736,1.736,0,0,0-1.59.956V48h-3.62V36.377ZM151.31,48h-3.631V36.377h3.631Zm-3.846-14.631a1.63,1.63,0,0,1,.559-1.275,2.364,2.364,0,0,1,2.9,0,1.735,1.735,0,0,1,0,2.551,2.364,2.364,0,0,1-2.9,0A1.63,1.63,0,0,1,147.464,33.369Zm11.7,14.846a5.975,5.975,0,0,1-4.329-1.6,5.509,5.509,0,0,1-1.654-4.152v-.3a7.138,7.138,0,0,1,.661-3.147,4.834,4.834,0,0,1,1.928-2.111,5.821,5.821,0,0,1,3.008-.747,5.031,5.031,0,0,1,3.867,1.52,5.973,5.973,0,0,1,1.418,4.238v1.407h-7.2a2.609,2.609,0,0,0,.849,1.536,2.525,2.525,0,0,0,1.7.559,3.254,3.254,0,0,0,2.686-1.2l1.654,1.955a4.624,4.624,0,0,1-1.917,1.488A6.48,6.48,0,0,1,159.162,48.215Zm-.408-9.26q-1.59,0-1.891,2.105h3.652v-.279a1.793,1.793,0,0,0-.44-1.348A1.753,1.753,0,0,0,158.754,38.955Zm10.087-2.578.118,1.364a3.942,3.942,0,0,1,3.319-1.579,3.316,3.316,0,0,1,2.712,1.085,5.165,5.165,0,0,1,.929,3.266V48h-3.631V40.663a1.961,1.961,0,0,0-.354-1.294,1.64,1.64,0,0,0-1.289-.414,1.726,1.726,0,0,0-1.579.838V48h-3.62V36.377Zm13.3-2.89v2.89h1.912v2.514H182.14v5.317a1.358,1.358,0,0,0,.236.913,1.268,1.268,0,0,0,.935.258,5.311,5.311,0,0,0,.9-.064V47.9a6.681,6.681,0,0,1-2.041.312,3.792,3.792,0,0,1-2.761-.881,3.61,3.61,0,0,1-.892-2.675V38.891h-1.482V36.377h1.482v-2.89Zm2.557,8.594a6.86,6.86,0,0,1,.677-3.1,4.84,4.84,0,0,1,1.944-2.089,5.856,5.856,0,0,1,2.976-.73,5.344,5.344,0,0,1,4.114,1.617,6.2,6.2,0,0,1,1.5,4.4v.129A6.019,6.019,0,0,1,194.4,46.62a5.359,5.359,0,0,1-4.087,1.6,5.42,5.42,0,0,1-3.985-1.488,5.819,5.819,0,0,1-1.622-4.034Zm3.62.226a4.325,4.325,0,0,0,.5,2.363,1.682,1.682,0,0,0,1.493.752q1.934,0,1.977-2.976v-.365q0-3.126-2-3.126-1.815,0-1.966,2.7Z" transform="translate(-1400 6144.387)" fill="#12263f"/>
    <g id="botella-de-cerveza" transform="translate(-1377.903 5968.051)">
      <g id="_000000ff" data-name="#000000ff" transform="translate(48.903)">
        <path id="Path_157173" data-name="Path 157173" d="M96.862,0H101.8c1.87.424,4.073.619,5.365,2.222A3.392,3.392,0,0,1,107.59,5.1a3.8,3.8,0,0,1,1.08,2.97c-.02,1.071-1.115,1.685-1.341,2.651.08,2.156.91,4.192,1.427,6.268A64.058,64.058,0,0,1,111.5,38.068a33,33,0,0,0-.178,3.4,4.26,4.26,0,0,0,.927.922,25.073,25.073,0,0,1,4.195,4.546,25.4,25.4,0,0,1,3.473-3.358,52.133,52.133,0,0,1,.712-15.535c.58-3.161,1.536-6.231,2.366-9.331a6.889,6.889,0,0,0,.339-2.548c-.41-.734-1.093-1.368-1.168-2.249a3.882,3.882,0,0,1,.927-2.646,4.007,4.007,0,0,1,.293-2.395,4.81,4.81,0,0,1,3-1.888,21.789,21.789,0,0,1,6.455-.354c1.724.19,3.651.534,4.843,1.912a3.235,3.235,0,0,1,.5,2.69,4.231,4.231,0,0,1,.951,2.429,3.983,3.983,0,0,1-1.258,2.47,30.368,30.368,0,0,0,1.361,5.97,59.662,59.662,0,0,1,2.339,13.267,63.3,63.3,0,0,1-.188,8.219,21.186,21.186,0,0,1,7.716,11.767,36.513,36.513,0,0,1,.724,10.494c-.444,5.865-1.278,11.694-1.79,17.554-.256,2.509-.376,5.031-.583,7.543,0,2.936-.315,5.863-.258,8.8.041,4.4.278,8.8.622,13.184a4.65,4.65,0,0,1-2.366,4.546c-1.251.7-2.724.532-4.1.544q-11.479-.007-22.956,0c.032,1.456.263,3.039-.5,4.36a5.448,5.448,0,0,1-3.183,2.483H84.169a5.167,5.167,0,0,1-3.268-2.49c-.756-1.324-.515-2.9-.488-4.356q-12.456-.007-24.914,0a4.55,4.55,0,0,1-4.29-3.156,8.414,8.414,0,0,1-.124-3.153,128.467,128.467,0,0,0,.344-17.81c-.178-7.758-1.175-15.464-2-23.173-.58-5.407-1-11,.524-16.3A21.235,21.235,0,0,1,57.448,43.58a57.948,57.948,0,0,1-.219-7.97,58.968,58.968,0,0,1,2.295-13.3,32.021,32.021,0,0,0,1.414-6.182,3.914,3.914,0,0,1-1.261-2.473,4.189,4.189,0,0,1,.956-2.407,3.09,3.09,0,0,1,1-3.187c2.217-1.636,5.153-1.5,7.775-1.478,1.992.1,4.251.349,5.716,1.856a3.365,3.365,0,0,1,.612,2.831,3.711,3.711,0,0,1,.89,2.848c-.127.863-.91,1.424-1.168,2.219.063,1.992.854,3.873,1.322,5.794A55.3,55.3,0,0,1,78.9,43.565a31.793,31.793,0,0,1,3.509,3.368,23.506,23.506,0,0,1,4.431-4.77c.259-.276.729-.488.671-.936,0-1.39-.21-2.773-.234-4.163a61.855,61.855,0,0,1,1.927-16.83c.615-2.519,1.4-4.992,2.022-7.511a6.537,6.537,0,0,0,.229-2.244c-.485-.861-1.371-1.583-1.327-2.658a3.921,3.921,0,0,1,1.1-2.714,3.343,3.343,0,0,1,.415-2.88C92.907.658,95.043.456,96.862,0M95.35,4.382A3.891,3.891,0,0,1,94.426,7.7a5.454,5.454,0,0,1,.936,4.268,70.384,70.384,0,0,1-1.844,7.323,58.066,58.066,0,0,0-2.031,21.675,5.27,5.27,0,0,1-.027,2.1,3.231,3.231,0,0,1-1.207,1.39,20.5,20.5,0,0,0-5.79,6.685c-2.434,4.524-2.748,9.813-2.458,14.845,2.67.02,5.343,0,8.014.012a2.115,2.115,0,0,1,1.471,1.583,1.948,1.948,0,0,1-1.851,2.285c-2.434.029-4.868,0-7.3.012.9,8.45,1.975,16.888,2.368,25.382,5.063.024,10.128.007,15.191.01a10.214,10.214,0,0,1,2.217.107,1.947,1.947,0,0,1,1.168,2.651,2.126,2.126,0,0,1-1.444,1.134c-5.655-.015-11.311,0-16.966-.01.117,4.968.076,9.94-.215,14.9q14.753.026,29.511,0c-.3-4.96-.344-9.93-.215-14.9-1.468,0-2.936,0-4.4,0a2.189,2.189,0,0,1-1.4-1.358,1.945,1.945,0,0,1,1.744-2.5c1.4-.056,2.807,0,4.212-.022.393-8.5,1.471-16.939,2.373-25.392-6.268-.007-12.533.01-18.8-.01a1.939,1.939,0,1,1,.029-3.878c6.365-.037,12.733,0,19.1-.017.276-4.848.007-9.926-2.2-14.342a21,21,0,0,0-6.416-7.477,2.433,2.433,0,0,1-.924-2.47,57.63,57.63,0,0,0-1.724-21.473c-.651-2.641-1.566-5.219-2.039-7.9a5.631,5.631,0,0,1,.89-4.607,3.91,3.91,0,0,1-.924-3.322,17.177,17.177,0,0,0-8.119,0m-30.516,6.4a4.04,4.04,0,0,1-.79,2.851,5.49,5.49,0,0,1,.69,4.187c-.527,2.8-1.493,5.49-2.129,8.262a50.438,50.438,0,0,0-1.214,17.559,2.484,2.484,0,0,1-.876,2.544,18.7,18.7,0,0,0-5.687,6.555c-2.066,4.078-2.192,8.789-1.88,13.257l.078,0c1.966.007,3.931,0,5.9,0a2.2,2.2,0,0,1,2.149.9,1.947,1.947,0,0,1-1.446,2.968c-2.1.049-4.2,0-6.307.02.78,7.114,1.644,14.225,1.995,21.378,4.948.01,9.894-.017,14.84.012a1.937,1.937,0,0,1,1.692,2.641c-.178.566-.715.871-1.171,1.19-5.07.073-10.138.012-15.208.032q.165,6.413-.176,12.823,12.858,0,25.719,0c.083-4.273,0-8.548-.188-12.818-1.271,0-2.539-.007-3.809-.02a2.482,2.482,0,0,1-1.241-1.246,1.939,1.939,0,0,1,1.493-2.578c1.1-.083,2.2-.012,3.3-.034C80.091,84.109,79.155,77,78.423,69.879c-3.9,0-7.8,0-11.7,0A1.941,1.941,0,1,1,66.749,66c3.79-.017,7.58.01,11.369-.007-.31-5.16.046-10.511,2.173-15.291a18.835,18.835,0,0,0-3.878-4.046,2.757,2.757,0,0,1-1.5-2.275c.129-1.946.341-3.89.322-5.846a58.639,58.639,0,0,0-2.885-17.576c-.607-2.353-1.575-5.112-.046-7.316a3.893,3.893,0,0,1-.8-2.853,17.924,17.924,0,0,0-6.677,0m62.47,0a4.023,4.023,0,0,1-.793,2.856,5.243,5.243,0,0,1,.741,3.9c-.373,2.327-1.151,4.563-1.736,6.843a51.77,51.77,0,0,0-1.851,16.822c.034,1.141.258,2.273.232,3.417a2.734,2.734,0,0,1-1.351,1.922,19.424,19.424,0,0,0-4.017,4.141c2.134,4.785,2.473,10.138,2.18,15.305q.852.015,1.71.01a2.016,2.016,0,0,1,1.107,3c-.663,1.073-2.056.878-3.129.88C119.669,77,118.728,84.1,118.252,91.24c4.777.01,9.555-.017,14.33.015a1.944,1.944,0,0,1,1.827,2.39,2.349,2.349,0,0,1-1.285,1.458c-5.041.068-10.082.01-15.125.032-.2,4.265-.271,8.533-.183,12.8q12.855.007,25.711,0c-.234-4.268-.278-8.543-.183-12.815-1.319.027-2.639.007-3.956-.039a2.462,2.462,0,0,1-1.2-1.439,1.932,1.932,0,0,1,1.685-2.38c1.21-.066,2.424-.007,3.636-.027.349-7.148,1.222-14.252,2-21.361-5.448-.007-10.894.01-16.339-.007a1.958,1.958,0,0,1-1.939-2.341,2.068,2.068,0,0,1,1.519-1.536q8.56,0,17.12,0a28.89,28.89,0,0,0-.9-10.857,17.415,17.415,0,0,0-5.96-8.4,4.336,4.336,0,0,1-1.439-1.468,4.174,4.174,0,0,1-.093-2.109A50.015,50.015,0,0,0,136.379,26.8c-.634-2.936-1.644-5.775-2.249-8.716a5.681,5.681,0,0,1,.641-4.453,4.022,4.022,0,0,1-.788-2.858,18.04,18.04,0,0,0-6.68,0M55.019,111.857c.012.734-.512,2.324.727,2.209q12.507,0,25.014,0,.055-1.1.112-2.207-12.928,0-25.853,0m62.931,0c.037.736.076,1.471.112,2.209q12.514,0,25.029,0c1.224.1.693-1.483.71-2.209q-12.924,0-25.85,0m-32.711,9.094c8.867.024,17.734,0,26.6.012.8-.085,1.746.224,2.446-.256.534-.8.146-1.851.122-2.748q-15,.029-30.006,0C84.4,118.929,83.722,120.892,85.239,120.951Z" transform="translate(-48.903)"/>
        <path id="Path_157174" data-name="Path 157174" d="M239.819,105.165a4.8,4.8,0,1,1-3.426,4.229,4.783,4.783,0,0,1,3.426-4.229m.924,3.8a.907.907,0,1,0,1.327.851A.912.912,0,0,0,240.743,108.965Z" transform="translate(-190.655 -79.368)"/>
        <path id="Path_157175" data-name="Path 157175" d="M113.211,120.316a4.475,4.475,0,1,1-3,2.1,4.475,4.475,0,0,1,3-2.1m.493,3.926c-.637.427.146,1.483.739.922C115.027,124.709,114.264,123.767,113.7,124.243Z" transform="translate(-94.787 -90.913)"/>
        <path id="Path_157176" data-name="Path 157176" d="M369.357,120.323a4.476,4.476,0,1,1-3.156,2.444,4.487,4.487,0,0,1,3.156-2.444m.512,3.926c-.627.439.156,1.461.734.924C371.2,124.734,370.447,123.744,369.869,124.249Z" transform="translate(-288.485 -90.914)"/>
        <path id="Path_157177" data-name="Path 157177" d="M99.99,296.018a8.421,8.421,0,1,1-6.107,5.316,8.468,8.468,0,0,1,6.107-5.316m.478,3.919a4.509,4.509,0,1,0,5.733,5.219,4.513,4.513,0,0,0-5.733-5.219Z" transform="translate(-82.52 -223.688)"/>
        <path id="Path_157178" data-name="Path 157178" d="M356.136,296.029a8.428,8.428,0,0,1,10.128,6.672,8.418,8.418,0,1,1-10.128-6.672m.468,3.929a4.506,4.506,0,1,0,5.531,2.531A4.543,4.543,0,0,0,356.6,299.958Z" transform="translate(-276.239 -223.689)"/>
        <path id="Path_157179" data-name="Path 157179" d="M225.827,302.271a9.239,9.239,0,1,1-6.065,3.9,9.256,9.256,0,0,1,6.065-3.9m.451,3.9a5.316,5.316,0,1,0,6.341,4.26A5.342,5.342,0,0,0,226.278,306.168Z" transform="translate(-176.878 -228.458)"/>
      </g>
      <g id="_8ce19cff" data-name="#8ce19cff" transform="translate(52.82 3.896)">
        <path id="Path_157180" data-name="Path 157180" d="M197.707,16.462a17.177,17.177,0,0,1,8.118,0,3.91,3.91,0,0,0,.924,3.322,5.631,5.631,0,0,0-.89,4.607c.473,2.683,1.388,5.26,2.039,7.9a57.63,57.63,0,0,1,1.724,21.473,2.433,2.433,0,0,0,.924,2.47,21,21,0,0,1,6.416,7.477c2.212,4.417,2.48,9.494,2.2,14.342-8.931-.122-17.861-.027-26.792.024-2.67-.012-5.343.007-8.014-.012-.29-5.031.024-10.321,2.458-14.845a20.5,20.5,0,0,1,5.79-6.685,3.232,3.232,0,0,0,1.207-1.39,5.27,5.27,0,0,0,.027-2.1,58.066,58.066,0,0,1,2.031-21.675,70.388,70.388,0,0,0,1.844-7.323,5.454,5.454,0,0,0-.936-4.268,3.891,3.891,0,0,0,.924-3.314m2.717,21.414a4.8,4.8,0,1,0,4.77,1.258A4.8,4.8,0,0,0,200.424,37.876Z" transform="translate(-155.177 -15.975)" fill="#f9f024"/>
        <path id="Path_157181" data-name="Path 157181" d="M76.978,43.245a17.924,17.924,0,0,1,6.677,0,3.893,3.893,0,0,0,.8,2.853c-1.529,2.2-.561,4.963.046,7.316A58.64,58.64,0,0,1,87.382,71c.02,1.956-.193,3.9-.322,5.846a2.757,2.757,0,0,0,1.5,2.275,18.835,18.835,0,0,1,3.878,4.046c-2.127,4.78-2.483,10.13-2.173,15.291-3.634-.124-7.272-.037-10.908-.054-4.729.168-9.457-.139-14.184.056l-.078,0c-.312-4.468-.185-9.179,1.88-13.257a18.7,18.7,0,0,1,5.687-6.555,2.484,2.484,0,0,0,.876-2.544,50.438,50.438,0,0,1,1.214-17.559c.637-2.773,1.6-5.465,2.129-8.262a5.49,5.49,0,0,0-.69-4.187,4.04,4.04,0,0,0,.79-2.851m2.492,18.622a4.477,4.477,0,1,0,4.3,1.568A4.475,4.475,0,0,0,79.471,61.867Z" transform="translate(-64.964 -36.359)" fill="#f9f024"/>
        <path id="Path_157182" data-name="Path 157182" d="M343.185,43.236a18.04,18.04,0,0,1,6.68,0,4.022,4.022,0,0,0,.788,2.858,5.681,5.681,0,0,0-.641,4.453c.6,2.941,1.614,5.78,2.249,8.716a50.015,50.015,0,0,1,1.093,16.359,4.174,4.174,0,0,0,.093,2.109,4.336,4.336,0,0,0,1.439,1.468,17.415,17.415,0,0,1,5.96,8.4,28.889,28.889,0,0,1,.9,10.857q-8.56,0-17.12,0c-2.107-.02-4.217-.034-6.324.007q-.856,0-1.71-.01c.293-5.168-.046-10.521-2.18-15.305A19.424,19.424,0,0,1,338.427,79a2.734,2.734,0,0,0,1.351-1.922c.027-1.144-.2-2.275-.232-3.417A51.768,51.768,0,0,1,341.4,56.839c.585-2.28,1.363-4.517,1.736-6.843a5.243,5.243,0,0,0-.741-3.9,4.023,4.023,0,0,0,.793-2.856m2.47,18.627a4.476,4.476,0,1,0,4.314,1.536A4.483,4.483,0,0,0,345.655,61.863Z" transform="translate(-268.699 -36.35)" fill="#f9f024"/>
        <path id="Path_157183" data-name="Path 157183" d="M112.6,312.057a4.506,4.506,0,1,1-3.065,3.261A4.521,4.521,0,0,1,112.6,312.057Z" transform="translate(-98.573 -239.703)" fill="#be79ca"/>
        <path id="Path_157184" data-name="Path 157184" d="M368.724,312.053a4.509,4.509,0,1,1-3.051,3.473A4.542,4.542,0,0,1,368.724,312.053Z" transform="translate(-292.275 -239.68)" fill="#be79ca"/>
        <path id="Path_157185" data-name="Path 157185" d="M238.413,318.251a5.32,5.32,0,1,1-4.18,4.682A5.359,5.359,0,0,1,238.413,318.251Z" transform="translate(-192.929 -244.437)" fill="#be79ca"/>
        <path id="Path_157186" data-name="Path 157186" d="M75.276,389.992c5.07-.02,10.138.041,15.208-.032,2.112.063,4.226.051,6.338.015,1.271.012,2.539.024,3.809.02.193,4.27.271,8.545.188,12.818q-12.858,0-25.719,0Q75.444,396.409,75.276,389.992Z" transform="translate(-72.628 -298.755)" fill="#f9f024"/>
        <path id="Path_157187" data-name="Path 157187" d="M331.55,389.949c5.043-.022,10.084.037,15.125-.032,2.088.051,4.178.076,6.265-.017,1.317.046,2.636.066,3.956.039-.1,4.273-.051,8.548.183,12.815q-12.855-.007-25.711,0C331.28,398.482,331.355,394.214,331.55,389.949Z" transform="translate(-266.371 -298.71)" fill="#f9f024"/>
        <path id="Path_157188" data-name="Path 157188" d="M195.51,421.475c.29-4.963.332-9.935.215-14.9,5.655.01,11.311,0,16.966.01,2.57.012,5.141.029,7.714-.012,1.466,0,2.934.01,4.4,0-.129,4.968-.083,9.938.215,14.9Q210.264,421.506,195.51,421.475Z" transform="translate(-163.673 -311.315)" fill="#f9f024"/>
        <path id="Path_157189" data-name="Path 157189" d="M73.67,458.667q12.928,0,25.853,0-.059,1.1-.112,2.207-12.507.007-25.014,0C73.158,460.991,73.682,459.4,73.67,458.667Z" transform="translate(-71.471 -350.705)" fill="#be79ca"/>
        <path id="Path_157190" data-name="Path 157190" d="M332.03,458.664q12.924,0,25.85,0c-.017.727.515,2.307-.71,2.21q-12.514,0-25.029,0C332.106,460.135,332.067,459.4,332.03,458.664Z" transform="translate(-266.9 -350.703)" fill="#be79ca"/>
        <path id="Path_157191" data-name="Path 157191" d="M194.833,486.682c-1.517-.059-.839-2.022-.834-2.987q15,.007,30.006,0c.024.9.412,1.946-.122,2.748-.7.48-1.646.171-2.446.256C212.567,486.682,203.7,486.707,194.833,486.682Z" transform="translate(-162.413 -369.627)" fill="#be79ca"/>
      </g>
      <g id="_eef0f5ff" data-name="#eef0f5ff" transform="translate(53.026 29.483)">
        <path id="Path_157192" data-name="Path 157192" d="M252.8,121.007a.907.907,0,1,1-.015,1.6A.916.916,0,0,1,252.8,121.007Z" transform="translate(-206.839 -120.893)" fill="#eef0f5"/>
        <path id="Path_157193" data-name="Path 157193" d="M125.735,136.265c.561-.476,1.324.466.739.922C125.882,137.748,125.1,136.692,125.735,136.265Z" transform="translate(-110.942 -132.417)" fill="#eef0f5"/>
        <path id="Path_157194" data-name="Path 157194" d="M381.9,136.256c.578-.5,1.332.485.734.924C382.059,137.717,381.276,136.7,381.9,136.256Z" transform="translate(-304.641 -132.404)" fill="#eef0f5"/>
        <path id="Path_157195" data-name="Path 157195" d="M65.81,270.382c4.726-.2,9.455.112,14.184-.056,3.636.017,7.275-.071,10.908.054-3.79.017-7.58-.01-11.369.007a1.941,1.941,0,1,0-.027,3.878c3.9.01,7.8,0,11.7,0,.732,7.124,1.668,14.23,2.146,21.378-1.1.022-2.207-.049-3.3.034a1.939,1.939,0,0,0-1.492,2.578A2.482,2.482,0,0,0,89.8,299.5c-2.112.037-4.226.049-6.338-.015.456-.32.993-.624,1.171-1.19a1.937,1.937,0,0,0-1.692-2.641c-4.946-.029-9.891,0-14.84-.012-.351-7.153-1.214-14.264-1.995-21.378,2.1-.02,4.2.029,6.307-.02a1.947,1.947,0,0,0,1.446-2.968,2.2,2.2,0,0,0-2.149-.9c-1.966,0-3.931.01-5.9,0m13.347,6.338a8.44,8.44,0,1,0,6.521,1.263A8.495,8.495,0,0,0,79.157,276.72Z" transform="translate(-65.81 -233.872)" fill="#eef0f5"/>
        <path id="Path_157196" data-name="Path 157196" d="M193.682,270.37c8.931-.051,17.861-.146,26.792-.024-6.365.02-12.733-.02-19.1.017a1.939,1.939,0,1,0-.029,3.878c6.265.019,12.53,0,18.8.01-.9,8.453-1.98,16.893-2.373,25.392-1.4.022-2.809-.034-4.212.022a1.945,1.945,0,0,0-1.744,2.5,2.189,2.189,0,0,0,1.4,1.358c-2.573.041-5.143.024-7.714.012a2.126,2.126,0,0,0,1.444-1.134,1.947,1.947,0,0,0-1.168-2.651,10.216,10.216,0,0,0-2.217-.107c-5.063,0-10.128.015-15.191-.01-.393-8.494-1.471-16.932-2.368-25.382,2.434-.012,4.868.017,7.3-.012a1.948,1.948,0,0,0,1.851-2.285,2.115,2.115,0,0,0-1.471-1.583m7.833,7.814a9.228,9.228,0,0,0-3.324,16.93,9.227,9.227,0,1,0,3.324-16.93Z" transform="translate(-156.689 -233.853)" fill="#eef0f5"/>
        <path id="Path_157197" data-name="Path 157197" d="M337.438,270.557c2.107-.041,4.217-.027,6.324-.007a2.068,2.068,0,0,0-1.519,1.536,1.958,1.958,0,0,0,1.939,2.341c5.446.017,10.891,0,16.339.007-.776,7.109-1.649,14.213-2,21.361-1.212.019-2.427-.039-3.636.027a1.932,1.932,0,0,0-1.685,2.38,2.462,2.462,0,0,0,1.2,1.439c-2.088.093-4.178.068-6.265.017a2.349,2.349,0,0,0,1.285-1.458,1.944,1.944,0,0,0-1.827-2.39c-4.775-.032-9.552,0-14.33-.015.476-7.143,1.417-14.242,2.146-21.361,1.073,0,2.466.193,3.129-.88a2.016,2.016,0,0,0-1.107-3m6.38,6.338a8.513,8.513,0,0,0-5.282,3.743,8.411,8.411,0,0,0-.785,7.353,8.421,8.421,0,1,0,6.068-11.1Z" transform="translate(-268.044 -234.038)" fill="#eef0f5"/>
      </g>
    </g>
  </g>
</svg>
