<svg xmlns="http://www.w3.org/2000/svg" width="145" height="145" viewBox="0 0 145 145">
  <g id="ic-card2" transform="translate(-727.758 -15780)">
    <circle id="Ellipse_4747" data-name="Ellipse 4747" cx="72.5" cy="72.5" r="72.5" transform="translate(727.758 15780)" fill="#fff"/>
    <path id="Ellipse_4747_-_Outline" data-name="Ellipse 4747 - Outline" d="M72.5,3A69.161,69.161,0,0,0,33.644,14.868,69.712,69.712,0,0,0,8.46,45.448a69.4,69.4,0,0,0,6.407,65.908A69.712,69.712,0,0,0,45.448,136.54a69.4,69.4,0,0,0,65.908-6.407A69.712,69.712,0,0,0,136.54,99.552a69.4,69.4,0,0,0-6.407-65.908A69.712,69.712,0,0,0,99.552,8.46,69.062,69.062,0,0,0,72.5,3m0-3A72.5,72.5,0,1,1,0,72.5,72.5,72.5,0,0,1,72.5,0Z" transform="translate(727.758 15780)" fill="#f9f024"/>
    <g id="corazones" transform="translate(760.758 15813)">
      <g id="_000000ff" data-name="#000000ff">
        <path id="Path_156588" data-name="Path 156588" d="M.978,0h.4A14.365,14.365,0,0,1,2.862.742,33.6,33.6,0,0,0,7.984,2.753a83.664,83.664,0,0,0,14.056,2.8c-.53-.931-1.3-1.7-1.861-2.613a1.167,1.167,0,0,1,1.986-1.211c1.012,1.3,1.958,2.659,2.992,3.945.481-.858.861-1.769,1.345-2.623a1.165,1.165,0,0,1,2.037,1.122c-.291.647-.641,1.266-.939,1.909,3.273.267,6.556.411,9.839.456-.669-.714-1.394-1.373-2.063-2.089a1.166,1.166,0,0,1,1.664-1.631c1.039,1,2.027,2.048,3.07,3.041.47-.928.908-1.872,1.4-2.784A1.165,1.165,0,0,1,43.556,4.2c-.372.791-.781,1.564-1.17,2.345,4.745-.072,9.489-.338,14.209-.839-.361-.5-.873-.863-1.253-1.345a1.165,1.165,0,0,1,1.7-1.567c.542.492,1.033,1.037,1.563,1.542.589-.856,1.141-1.739,1.739-2.589a1.166,1.166,0,0,1,1.93,1.309c-.441.711-.936,1.389-1.381,2.1A63.321,63.321,0,0,0,75.534,1.489C76.6,1.077,77.584.47,78.628,0h.392A1.337,1.337,0,0,1,80,.972v.4a1.4,1.4,0,0,1-.719.894A41.146,41.146,0,0,1,68.466,6.136c-2.806.648-5.648,1.131-8.5,1.528,0,1.622,0,3.242,0,4.864a8.537,8.537,0,0,1,5.622,3.6c1.88,2.719,2.256,6.17,2.03,9.392A15.692,15.692,0,0,1,75.9,28.173a8.632,8.632,0,0,1,3.323,4.939,10.064,10.064,0,0,1-1.161,7.259,13.261,13.261,0,0,1-5.667,5.3,19.317,19.317,0,0,1-6.764,1.672A32.744,32.744,0,0,1,48,43.42c-.741-.327-.852-1.2-1.119-1.872a32.664,32.664,0,0,1-1.2-16.722,19.482,19.482,0,0,1,2.666-6.8,12.567,12.567,0,0,1,9.264-5.609c.025-1.484,0-2.967.013-4.452a160.812,160.812,0,0,1-16.433.953q-.014,18.5,0,37a10.953,10.953,0,0,1,6.248,2.567,13.513,13.513,0,0,1,4.573,7.773,26.827,26.827,0,0,1-.355,11.3,35.212,35.212,0,0,1-4.114,9.987c-.248.4-.508.875-1.009,1A35.464,35.464,0,0,1,37.459,80H35.983a27.945,27.945,0,0,1-10.722-2.289,13.877,13.877,0,0,1-5.85-4.622,11.744,11.744,0,0,1-2.334-7.619,8.807,8.807,0,0,1,2.614-5.784,10.686,10.686,0,0,1,6.233-2.712,19.772,19.772,0,0,1,4.9.111,15.37,15.37,0,0,1,3.348-8.223,8.971,8.971,0,0,1,4.675-2.786q-.035-18.572,0-37.145c-4.231-.069-8.461-.223-12.677-.6-.028,3.058.011,6.117-.02,9.175a10.193,10.193,0,0,1,5.334,1.973A13.221,13.221,0,0,1,36.52,30.787a28.863,28.863,0,0,1-5.07,14.43,33.008,33.008,0,0,1-4.345,5.3,2.1,2.1,0,0,1-1.472.4,35.129,35.129,0,0,1-10.83-1.2,1.218,1.218,0,0,1-.861-1.388l-.3-.156.33,0a1.3,1.3,0,0,1,1.191-.752c.539.073,1.056.255,1.587.366a33.645,33.645,0,0,0,9,.767,31.4,31.4,0,0,0,7.692-13.239c.784-3.091,1.2-6.48-.034-9.513-1.177-3.02-3.9-5.672-7.252-5.917,0,1.063,0,2.127,0,3.189a3.855,3.855,0,0,1,2.38,1.681,3.67,3.67,0,0,1-2.6,5.57A3.676,3.676,0,0,1,23.8,23.388c.019-1.053.008-2.108.006-3.163a9.865,9.865,0,0,0-5.044,5.084A22.767,22.767,0,0,0,17.5,28.438a1.18,1.18,0,0,1-1.572.687,14.867,14.867,0,0,0-7.972-1.4,6.329,6.329,0,0,0-4.317,2.636,8.132,8.132,0,0,0-1.17,5.7,10.982,10.982,0,0,0,3.625,6.608A23.068,23.068,0,0,0,10.5,45.592a1.224,1.224,0,0,1,.5,1.561,1.275,1.275,0,0,1-1.828.392,24.371,24.371,0,0,1-4.761-3.219A13.6,13.6,0,0,1,0,35.414V33.97a9.677,9.677,0,0,1,3.083-6.517,9.633,9.633,0,0,1,6.6-2.212A17.809,17.809,0,0,1,15.677,26.5a16.119,16.119,0,0,1,4.467-6.827,9.012,9.012,0,0,1,3.65-1.894c.02-3.225.028-6.45,0-9.675A108.587,108.587,0,0,1,12.2,6.283,42.278,42.278,0,0,1,.717,2.256,1.313,1.313,0,0,1,0,1.219V1.127A1.3,1.3,0,0,1,.978,0M52.184,17.2a11.692,11.692,0,0,0-3.375,5.15c-1.881,5.3-1.645,11.139-.261,16.523.183.752.416,1.489.663,2.223.066.18.108.414.325.477a33.344,33.344,0,0,0,6.7,2.525,25.769,25.769,0,0,0,13.006.255,11.038,11.038,0,0,0,6.384-4.506,8.315,8.315,0,0,0,1.437-5.52,6.3,6.3,0,0,0-2.687-4.341,13.679,13.679,0,0,0-7.17-2.125c-.6-.045-1.356.08-1.773-.47-.431-.492-.211-1.18-.18-1.763A13.468,13.468,0,0,0,64,18.03a6.264,6.264,0,0,0-4.033-3.1c0,1.108-.013,2.217.008,3.327a3.662,3.662,0,0,1,2.248,2.5,3.67,3.67,0,1,1-6.88-.589,3.79,3.79,0,0,1,2.281-2.012c-.022-1.127.011-2.253-.019-3.378a9.869,9.869,0,0,0-5.42,2.425m5.848,3.334a1.341,1.341,0,0,0,.03,2.337,1.323,1.323,0,1,0-.03-2.337M24.748,25.55a1.325,1.325,0,1,0,1.987,1.172,1.333,1.333,0,0,0-1.987-1.172M41.177,48.292c.014,1.091-.009,2.181.013,3.272A3.677,3.677,0,1,1,36.9,53.911a3.775,3.775,0,0,1,1.936-2.119c-.034-1.084.063-2.177-.047-3.253a6.715,6.715,0,0,0-3.422,2.6,15.117,15.117,0,0,0-2.327,7.317,1.214,1.214,0,0,1-1.019,1.148,18.479,18.479,0,0,1-1.867-.238c-2.855-.352-6.02-.175-8.4,1.619l-.008.073c-2.027,1.467-2.648,4.258-2.18,6.617a10.7,10.7,0,0,0,5.359,7.242A21.486,21.486,0,0,0,29.784,76.8a31.164,31.164,0,0,0,15.687-.389c.3-.5.594-.994.861-1.506,2.722-5.166,4.327-11.111,3.573-16.969a11.809,11.809,0,0,0-2.138-5.684,9.325,9.325,0,0,0-6.592-3.964m-1.433,5.683a1.327,1.327,0,1,0,1.928,1.361A1.336,1.336,0,0,0,39.744,53.975Z"/>
      </g>
      <g id="_ffcbd1ff" data-name="#ffcbd1ff" transform="translate(47.454 14.777)">
        <path id="Path_156589" data-name="Path 156589" d="M308.438,96.995a9.869,9.869,0,0,1,5.42-2.425c.03,1.125,0,2.252.019,3.378a3.79,3.79,0,0,0-2.281,2.013,3.67,3.67,0,1,0,6.88.589,3.662,3.662,0,0,0-2.248-2.5c-.02-1.109,0-2.219-.008-3.327a6.264,6.264,0,0,1,4.033,3.1,13.468,13.468,0,0,1,1.25,7.6c-.031.583-.252,1.27.18,1.763.417.55,1.169.425,1.773.47a13.679,13.679,0,0,1,7.17,2.125,6.3,6.3,0,0,1,2.687,4.341,11.8,11.8,0,0,1-3.987,5.167,15.58,15.58,0,0,1-8.078,2.733c-1.4.061-2.809.041-4.214.02a35.521,35.521,0,0,1-12.231-3.373c-1.384-5.384-1.62-11.227.261-16.523A11.692,11.692,0,0,1,308.438,96.995Z" transform="translate(-303.707 -94.57)" fill="#fff966"/>
      </g>
      <g id="_ff95a2ff" data-name="#ff95a2ff" transform="translate(2.377 19.887)">
        <path id="Path_156590" data-name="Path 156590" d="M38.99,127.28c3.35.245,6.075,2.9,7.252,5.917,1.239,3.033.819,6.422.034,9.513a31.4,31.4,0,0,1-7.692,13.239,33.645,33.645,0,0,1-9-.767c-.531-.111-1.048-.292-1.588-.366a1.3,1.3,0,0,0-1.191.752l-.33,0c-.892-.308-1.773-.645-2.637-1.025a1.224,1.224,0,0,0-.5-1.561,23.068,23.068,0,0,1-4.409-2.927A10.982,10.982,0,0,1,15.3,143.45a8.132,8.132,0,0,1,1.17-5.7,6.329,6.329,0,0,1,4.317-2.636,14.867,14.867,0,0,1,7.972,1.4,1.18,1.18,0,0,0,1.572-.687A22.766,22.766,0,0,1,31.6,132.7a9.865,9.865,0,0,1,5.044-5.084c0,1.055.013,2.109-.006,3.163a3.713,3.713,0,0,0-1.855,2.092,3.674,3.674,0,0,0,3.987,4.848,3.67,3.67,0,0,0,2.6-5.57,3.855,3.855,0,0,0-2.38-1.681C38.993,129.407,38.988,128.342,38.99,127.28Z" transform="translate(-15.212 -127.28)" fill="#f9f024"/>
        <path id="Path_156591" data-name="Path 156591" d="M335.233,224.867a11.8,11.8,0,0,0,3.987-5.167,8.315,8.315,0,0,1-1.437,5.52,11.038,11.038,0,0,1-6.384,4.506,25.769,25.769,0,0,1-13.006-.255,33.344,33.344,0,0,1-6.7-2.525c-.217-.062-.259-.3-.325-.477-.247-.734-.48-1.472-.663-2.223a35.521,35.521,0,0,0,12.231,3.373c1.4.02,2.809.041,4.214-.02A15.58,15.58,0,0,0,335.233,224.867Z" transform="translate(-264.538 -205.259)" fill="#f9f024"/>
      </g>
      <g id="_fe5578ff" data-name="#fe5578ff" transform="translate(21.606 48.292)">
        <path id="Path_156592" data-name="Path 156592" d="M157.849,309.07a9.325,9.325,0,0,1,6.592,3.964,11.809,11.809,0,0,1,2.138,5.684c.753,5.858-.852,11.8-3.573,16.969a38.732,38.732,0,0,1-6.967.559,25.739,25.739,0,0,1-11.562-2.819,11.808,11.808,0,0,1-5.716-6.917,9.561,9.561,0,0,1-.344-4.669l.008-.073c2.381-1.794,5.547-1.97,8.4-1.619a18.474,18.474,0,0,0,1.867.237,1.214,1.214,0,0,0,1.019-1.148,15.117,15.117,0,0,1,2.327-7.317,6.715,6.715,0,0,1,3.422-2.6c.109,1.077.012,2.169.047,3.253a3.775,3.775,0,0,0-1.936,2.119,3.677,3.677,0,0,0,1.178,4.117,3.734,3.734,0,0,0,4.512.044,3.682,3.682,0,0,0-1.4-6.508C157.839,311.251,157.863,310.161,157.849,309.07Z" transform="translate(-138.278 -309.07)" fill="#e994f7"/>
      </g>
      <g id="_fe3f67ff" data-name="#fe3f67ff" transform="translate(19.416 61.064)">
        <path id="Path_156593" data-name="Path 156593" d="M124.41,397.427c-.469-2.359.153-5.15,2.18-6.617a9.561,9.561,0,0,0,.344,4.669,11.808,11.808,0,0,0,5.716,6.917,25.739,25.739,0,0,0,11.563,2.819,38.729,38.729,0,0,0,6.967-.559c-.267.512-.561,1.011-.861,1.506a31.165,31.165,0,0,1-15.687.389,21.488,21.488,0,0,1-4.861-1.881A10.7,10.7,0,0,1,124.41,397.427Z" transform="translate(-124.262 -390.81)" fill="#be79ca"/>
      </g>
    </g>
  </g>
</svg>
