<svg xmlns="http://www.w3.org/2000/svg" width="145" height="145" viewBox="0 0 145 145">
  <g id="ic-card1" transform="translate(-307.758 -15780)">
    <circle id="Ellipse_4746" data-name="Ellipse 4746" cx="72.5" cy="72.5" r="72.5" transform="translate(307.758 15780)" fill="#fff"/>
    <path id="Ellipse_4746_-_Outline" data-name="Ellipse 4746 - Outline" d="M72.5,3A69.161,69.161,0,0,0,33.644,14.868,69.712,69.712,0,0,0,8.46,45.448a69.4,69.4,0,0,0,6.407,65.908A69.712,69.712,0,0,0,45.448,136.54a69.4,69.4,0,0,0,65.908-6.407A69.712,69.712,0,0,0,136.54,99.552a69.4,69.4,0,0,0-6.407-65.908A69.712,69.712,0,0,0,99.552,8.46,69.062,69.062,0,0,0,72.5,3m0-3A72.5,72.5,0,1,1,0,72.5,72.5,72.5,0,0,1,72.5,0Z" transform="translate(307.758 15780)" fill="#f9f024"/>
    <g id="idea" transform="translate(340.758 15813)">
      <g id="_000000ff" data-name="#000000ff">
        <path id="Path_156523" data-name="Path 156523" d="M197.653,0h.431a17.106,17.106,0,0,1,1.992,1.073c.983.586,2,1.119,2.966,1.733a1.163,1.163,0,0,1-.092,1.973,1.356,1.356,0,0,1-1.43-.161c-1.38-.816-2.78-1.6-4.156-2.411A1.171,1.171,0,0,1,196.794.8,1.358,1.358,0,0,1,197.653,0Z" transform="translate(-165.989)"/>
        <path id="Path_156524" data-name="Path 156524" d="M262.107,0h1.1a14.1,14.1,0,0,1,12.044,20.416,14.385,14.385,0,0,1-5.589,5.953c-.808.459-.688,1.484-.677,2.273a3.79,3.79,0,0,1,0,7.189,7.465,7.465,0,0,1-.355,3.241,3.707,3.707,0,0,1-3.338,2.1c-1.814,0-3.63.016-5.445-.008a3.688,3.688,0,0,1-3.275-2.253,8.364,8.364,0,0,1-.284-3.092,3.786,3.786,0,0,1,0-7.183,6.23,6.23,0,0,0-.092-1.564c-.159-.483-.631-.742-1.033-1A14.136,14.136,0,0,1,250.157,7.5a1.406,1.406,0,0,1,.581-.642,1.832,1.832,0,0,1,1.158-.017l.081-.091-.062.106c.209.3.514.577.52.969a2.128,2.128,0,0,1-.312.994,11.782,11.782,0,0,0,3.8,14.958,5.827,5.827,0,0,1,2.184,1.886,4.915,4.915,0,0,1,.531,2.82q1.413,0,2.83,0,0-4.013,0-8.022c-.784-.067-1.82.261-2.367-.486a1.169,1.169,0,0,1,.891-1.841c1.514-.045,3.031,0,4.547-.02.517.012,1.144-.064,1.527.366a1.175,1.175,0,0,1-.4,1.9,8.131,8.131,0,0,1-1.85.081q0,4.01,0,8.022,1.416,0,2.828,0a4.859,4.859,0,0,1,.552-2.852,4.213,4.213,0,0,1,1.537-1.45A11.77,11.77,0,1,0,256.438,4.1c-.584.334-1.069.814-1.648,1.153a1.294,1.294,0,0,1-1.391-.23,1.253,1.253,0,0,1,.109-1.675A14.183,14.183,0,0,1,262.107,0m-4.88,30.834a1.421,1.421,0,0,0,.288,2.822c3.428.008,6.858.019,10.286-.009a1.409,1.409,0,0,0,.03-2.817c-3.533-.02-7.07-.044-10.6,0M258.633,36c.008.55-.023,1.1.017,1.65A1.327,1.327,0,0,0,260,38.825q2.655.019,5.311-.009a1.314,1.314,0,0,0,1.3-1.156c.044-.548.011-1.1.02-1.648C263.966,36.008,261.3,36,258.633,36Z" transform="translate(-209.693)"/>
        <path id="Path_156525" data-name="Path 156525" d="M442.682,0h.356a1.241,1.241,0,0,1,.978.958,1.223,1.223,0,0,1-.68,1.3c-1.492.842-2.956,1.741-4.467,2.55a1.164,1.164,0,0,1-1.645-1.2c.069-.706.8-.984,1.333-1.3C439.941,1.558,441.25.659,442.682,0Z" transform="translate(-368.894)"/>
        <path id="Path_156526" data-name="Path 156526" d="M11.561,101.37a11.478,11.478,0,0,1,6.4-1.97q5.156,0,10.314,0a11.532,11.532,0,0,1,11.153,8.352c.706,2.386.366,4.9.448,7.344a3.882,3.882,0,0,1,2.58,3.458c.016,1.773.008,3.547,0,5.32a3.775,3.775,0,0,1-2.291,3.455,7.367,7.367,0,0,1-2.928.3,14.236,14.236,0,0,1-6.423,10.687c-.006,1.7,0,3.4,0,5.094,1.4,0,2.792,0,4.189,0a11.423,11.423,0,0,1,6.911,2.444,11.563,11.563,0,0,1,4.138,6.5,27.117,27.117,0,0,1,.292,5.73c-.048,1.212.189,2.506-.367,3.639a3.851,3.851,0,0,1-3.094,2.145H12.494a1.384,1.384,0,0,1-1.011-1.164,1.272,1.272,0,0,1,1.317-1.177c9.85-.016,19.7.014,29.553-.014a1.444,1.444,0,0,0,1.611-1.15c.081-.966.009-1.939.033-2.906a17.371,17.371,0,0,0-.386-5.137,9.221,9.221,0,0,0-6.862-6.356,21.672,21.672,0,0,0-4.434-.209c.814.916,1.67,1.794,2.467,2.723a2.466,2.466,0,0,1-.531,3.545c-3.181,2.141-6.38,4.256-9.566,6.389a5.485,5.485,0,0,1-1.261.733,1.322,1.322,0,0,1-1.078-.283q-4.68-3.131-9.372-6.25a4.608,4.608,0,0,1-1.6-1.367,2.465,2.465,0,0,1,.289-2.884c.781-.878,1.589-1.733,2.375-2.606a16.522,16.522,0,0,0-5.277.428,9.222,9.222,0,0,0-6.4,8.153c-.048,1.878-.012,3.759-.02,5.639A1.422,1.422,0,0,0,3.577,161.5c1.519.08,3.042-.027,4.561.045A1.259,1.259,0,0,1,9.222,162.7a1.38,1.38,0,0,1-1.009,1.166H3.43a3.873,3.873,0,0,1-3.43-3.4v-6.161a11.894,11.894,0,0,1,1.544-5.136A11.607,11.607,0,0,1,8.509,143.8c2.286-.641,4.681-.317,7.02-.4,0-1.7.016-3.4-.011-5.106a14.171,14.171,0,0,1-6.411-10.672c-.644,0-1.289.027-1.93-.041A3.756,3.756,0,0,1,4.092,125.1a7.589,7.589,0,0,1-.209-2.486c.017-1.406-.03-2.816.019-4.222A3.85,3.85,0,0,1,6.469,115.1c.087-2.425-.255-4.911.428-7.278a11.562,11.562,0,0,1,4.664-6.452m-.12,3.139a9.183,9.183,0,0,0-2.627,6.4c0,1.341,0,2.681,0,4.023q5.36.007,10.72,0a10.967,10.967,0,0,0,3.411-.292,6.6,6.6,0,0,0,4.627-5.633c.059-.552-.016-1.238.5-1.6A1.175,1.175,0,0,1,29.9,108a8.523,8.523,0,0,1-.347,3.061,3.957,3.957,0,0,0,3.717,3.858c1.4.058,2.792-.07,4.189-.011-.023-1.652.02-3.3-.022-4.956a9.233,9.233,0,0,0-2.359-5.217,9.45,9.45,0,0,0-7.114-3c-3.334,0-6.67,0-10,0a9.213,9.213,0,0,0-6.522,2.769m9.822,12.758c-3.286.016-6.572,0-9.858.006,0,3.187-.014,6.377.009,9.564a11.767,11.767,0,0,0,23.528-.316q.007-4.624,0-9.248a12.828,12.828,0,0,1-2.781-.152,6.432,6.432,0,0,1-4.2-3.141,9.034,9.034,0,0,1-6.7,3.286M6.233,118.7q-.016,2.58,0,5.161a1.4,1.4,0,0,0,1.1,1.38,14.239,14.239,0,0,0,1.733.041q0-4.005,0-8.008c-.52,0-1.042-.025-1.564.016A1.4,1.4,0,0,0,6.233,118.7m31.056-1.425v8a15.688,15.688,0,0,0,1.627-.03,1.394,1.394,0,0,0,1.194-1.37c.011-1.727.008-3.453,0-5.18a1.415,1.415,0,0,0-.9-1.327,7.806,7.806,0,0,0-1.92-.1m-19.4,27.008c.289.756.7,1.462,1.031,2.2,2.836,0,5.67,0,8.506,0,.363-.969,1.161-1.836,1.048-2.923-.008-1.339,0-2.678,0-4.017a14.24,14.24,0,0,1-10.6,0c.013,1.581-.028,3.164.017,4.744M13.323,150c2.281,1.6,4.623,3.1,6.938,4.65q-1.917-4.013-3.859-8.014-1.547,1.676-3.078,3.364m16.622-3.364c-1.286,2.673-2.583,5.339-3.858,8.019,2.322-1.52,4.612-3.084,6.933-4.6-.964-1.189-2.048-2.278-3.075-3.414m-9.889,2.191q1.559,3.237,3.119,6.475c1.033-2.161,2.084-4.312,3.114-6.475Q23.172,148.823,20.056,148.828Z" transform="translate(0 -83.867)"/>
        <path id="Path_156527" data-name="Path 156527" d="M464.083,117.811a1.162,1.162,0,0,1,.892-1.82c1.723-.03,3.448-.011,5.172-.008a1.21,1.21,0,0,1,1.245.973v.356a1.206,1.206,0,0,1-1.092.991c-1.562.052-3.127,0-4.689.025C465.067,118.336,464.406,118.331,464.083,117.811Z" transform="translate(-391.392 -97.853)"/>
        <path id="Path_156528" data-name="Path 156528" d="M437.856,215.524a1.226,1.226,0,0,1,1.253.084c1.445.838,2.9,1.664,4.338,2.509a1.169,1.169,0,1,1-1.194,2.008c-1.361-.773-2.709-1.569-4.07-2.342a1.758,1.758,0,0,1-.839-.741A1.173,1.173,0,0,1,437.856,215.524Z" transform="translate(-368.917 -181.734)"/>
        <path id="Path_156529" data-name="Path 156529" d="M108.354,232.009a1.17,1.17,0,0,1,1.6.916,10.164,10.164,0,0,1-.016,1.717,1.174,1.174,0,0,1-1.878.65c-.6-.466-.4-1.3-.434-1.955A1.26,1.26,0,0,1,108.354,232.009Z" transform="translate(-90.801 -195.681)"/>
        <path id="Path_156530" data-name="Path 156530" d="M174.708,231.976a1.167,1.167,0,0,1,1.509.912,11.656,11.656,0,0,1,.012,1.567,1.151,1.151,0,0,1-.9,1.069,1.164,1.164,0,0,1-1.4-.939,11.2,11.2,0,0,1-.014-1.57A1.149,1.149,0,0,1,174.708,231.976Z" transform="translate(-146.718 -195.677)"/>
        <path id="Path_156531" data-name="Path 156531" d="M127.379,273.369a1.22,1.22,0,0,1,1.306.609,1.41,1.41,0,0,0,1.748.534c.512-.186.678-.786,1.138-1.041a1.179,1.179,0,0,1,1.67.733,1.289,1.289,0,0,1-.269,1.133,3.751,3.751,0,0,1-6.4-.345A1.17,1.17,0,0,1,127.379,273.369Z" transform="translate(-106.698 -230.629)"/>
      </g>
      <g id="_ffdc40ff" data-name="#ffdc40ff" transform="translate(41.175 2.35)">
        <path id="Path_156532" data-name="Path 156532" d="M269.09,16.784a11.77,11.77,0,1,1,12.284,20.081,4.213,4.213,0,0,0-1.538,1.45,4.859,4.859,0,0,0-.552,2.852q-1.413,0-2.828,0,0-4.01,0-8.022a8.131,8.131,0,0,0,1.85-.081,1.175,1.175,0,0,0,.4-1.9c-.383-.43-1.009-.353-1.527-.366-1.516.023-3.033-.025-4.547.02a1.169,1.169,0,0,0-.891,1.841c.547.747,1.583.419,2.367.486q0,4.01,0,8.022-1.416,0-2.83,0a4.915,4.915,0,0,0-.531-2.82,5.827,5.827,0,0,0-2.184-1.886,11.782,11.782,0,0,1-3.8-14.958,2.128,2.128,0,0,0,.313-.994c-.006-.392-.311-.672-.52-.969l.062-.106a15.207,15.207,0,0,1,1.422-1.727,1.294,1.294,0,0,0,1.391.23C268.021,17.6,268.506,17.118,269.09,16.784Z" transform="translate(-263.52 -15.038)" fill="#f9f024"/>
      </g>
      <g id="_575151ff" data-name="#575151ff" transform="translate(8.811 17.867)">
        <path id="Path_156533" data-name="Path 156533" d="M59.023,117.125a9.213,9.213,0,0,1,6.522-2.769c3.334,0,6.67,0,10,0a9.45,9.45,0,0,1,7.114,3,9.233,9.233,0,0,1,2.359,5.217c.042,1.652,0,3.3.022,4.956-1.4-.059-2.794.069-4.189.011a3.957,3.957,0,0,1-3.717-3.858,8.523,8.523,0,0,0,.347-3.061,1.175,1.175,0,0,0-1.828-.589c-.52.359-.445,1.045-.5,1.6a6.6,6.6,0,0,1-4.627,5.633,10.967,10.967,0,0,1-3.411.292q-5.36,0-10.72,0c0-1.342,0-2.683,0-4.023A9.182,9.182,0,0,1,59.023,117.125Z" transform="translate(-56.393 -114.35)" fill="#727997"/>
      </g>
      <g id="_fadbbdff" data-name="#fadbbdff" transform="translate(11.402 30.114)">
        <path id="Path_156534" data-name="Path 156534" d="M82.833,196.016a9.034,9.034,0,0,0,6.7-3.286,6.432,6.432,0,0,0,4.2,3.141,12.827,12.827,0,0,0,2.781.152q0,4.624,0,9.248a11.767,11.767,0,0,1-23.528.316c-.023-3.188,0-6.377-.009-9.564,3.286,0,6.572.009,9.858-.006m-3.709,2.928a1.26,1.26,0,0,0-.731,1.328c.03.655-.161,1.489.434,1.955a1.174,1.174,0,0,0,1.878-.65,10.164,10.164,0,0,0,.016-1.717,1.17,1.17,0,0,0-1.6-.916m10.436-.03a1.149,1.149,0,0,0-.8,1.039,11.207,11.207,0,0,0,.014,1.57,1.164,1.164,0,0,0,1.4.939,1.151,1.151,0,0,0,.9-1.069,11.653,11.653,0,0,0-.013-1.567,1.167,1.167,0,0,0-1.509-.913m-7.308,6.442a1.171,1.171,0,0,0-.811,1.623,3.751,3.751,0,0,0,6.4.345,1.289,1.289,0,0,0,.269-1.133,1.179,1.179,0,0,0-1.67-.733c-.459.255-.625.855-1.138,1.041a1.41,1.41,0,0,1-1.748-.534A1.22,1.22,0,0,0,82.252,205.357Z" transform="translate(-72.973 -192.73)" fill="#fadbbd"/>
        <path id="Path_156535" data-name="Path 156535" d="M297.8,197.186c3.533-.048,7.07-.025,10.6,0a1.409,1.409,0,0,1-.03,2.817c-3.428.028-6.858.017-10.286.009a1.421,1.421,0,0,1-.288-2.822Z" transform="translate(-261.666 -196.465)" fill="#e8e8e8"/>
        <path id="Path_156536" data-name="Path 156536" d="M313.2,230.407c2.666,0,5.333.006,8,.009-.009.548.023,1.1-.02,1.648a1.314,1.314,0,0,1-1.3,1.156q-2.655.03-5.311.009a1.328,1.328,0,0,1-1.352-1.173C313.174,231.508,313.205,230.957,313.2,230.407Z" transform="translate(-275.659 -224.519)" fill="#afafaf"/>
        <path id="Path_156537" data-name="Path 156537" d="M85.27,405.094q1.533-1.688,3.078-3.364,1.936,4,3.859,8.014C89.893,408.2,87.551,406.689,85.27,405.094Z" transform="translate(-83.349 -369.074)" fill="#fff"/>
        <path id="Path_156538" data-name="Path 156538" d="M170.818,401.73c1.027,1.136,2.111,2.225,3.075,3.414-2.32,1.52-4.611,3.084-6.933,4.6C168.235,407.069,169.532,404.4,170.818,401.73Z" transform="translate(-152.274 -369.074)" fill="#fff"/>
        <path id="Path_156539" data-name="Path 156539" d="M128.36,415.74q3.117,0,6.233,0c-1.03,2.163-2.081,4.314-3.114,6.475Q129.923,418.976,128.36,415.74Z" transform="translate(-119.706 -380.893)" fill="#f9f024"/>
      </g>
      <g id="_ffb795ff" data-name="#ffb795ff" transform="translate(6.225 33.399)">
        <path id="Path_156540" data-name="Path 156540" d="M39.846,215.2a1.4,1.4,0,0,1,1.264-1.411c.522-.041,1.044-.012,1.564-.016q0,4,0,8.008a14.24,14.24,0,0,1-1.733-.041,1.4,1.4,0,0,1-1.1-1.38Q39.829,217.781,39.846,215.2Z" transform="translate(-39.837 -213.766)" fill="#ffb795"/>
        <path id="Path_156541" data-name="Path 156541" d="M238.65,213.766a7.8,7.8,0,0,1,1.92.1,1.415,1.415,0,0,1,.9,1.327c.006,1.727.009,3.453,0,5.18a1.394,1.394,0,0,1-1.194,1.37,15.686,15.686,0,0,1-1.627.03Z" transform="translate(-207.586 -213.756)" fill="#ffb795"/>
        <path id="Path_156542" data-name="Path 156542" d="M114.391,361.054c-.045-1.58,0-3.163-.017-4.744a14.24,14.24,0,0,0,10.6,0c0,1.339,0,2.678,0,4.017.113,1.087-.686,1.955-1.048,2.923-2.836,0-5.67,0-8.506,0C115.088,362.516,114.68,361.81,114.391,361.054Z" transform="translate(-102.723 -334.036)" fill="#ffb795"/>
      </g>
      <g id="_66d8c0ff" data-name="#66d8c0ff" transform="translate(2.34 61.876)">
        <path id="Path_156543" data-name="Path 156543" d="M21.4,396.447a16.522,16.522,0,0,1,5.277-.428c-.786.873-1.594,1.728-2.375,2.606a2.465,2.465,0,0,0-.289,2.884,4.608,4.608,0,0,0,1.6,1.367Q30.3,406,34.98,409.127a1.323,1.323,0,0,0,1.078.283,5.488,5.488,0,0,0,1.261-.733c3.186-2.133,6.384-4.248,9.566-6.389a2.466,2.466,0,0,0,.531-3.545c-.8-.93-1.653-1.808-2.467-2.723a21.673,21.673,0,0,1,4.434.209,9.221,9.221,0,0,1,6.862,6.356,17.371,17.371,0,0,1,.386,5.137c-.023.967.048,1.941-.033,2.906a1.444,1.444,0,0,1-1.611,1.15c-9.852.028-19.7,0-29.553.014a1.272,1.272,0,0,0-1.317,1.177c-.753,0-1.508,0-2.261,0a1.259,1.259,0,0,0-1.084-1.158c-1.519-.072-3.042.034-4.561-.045a1.422,1.422,0,0,1-1.231-1.525c.008-1.88-.028-3.761.02-5.639A9.222,9.222,0,0,1,21.4,396.447Z" transform="translate(-14.974 -396.01)" fill="#be79ca"/>
      </g>
    </g>
  </g>
</svg>
