<svg xmlns="http://www.w3.org/2000/svg" width="400" height="250" viewBox="0 0 400 250">
  <g id="t1-i15" transform="translate(9109 5451)">
    <rect id="Rectangle_37338" data-name="Rectangle 37338" width="400" height="250" rx="30" transform="translate(-9109 -5451)" fill="#6e3dc6"/>
    <path id="Rectangle_37338_-_Outline" data-name="Rectangle 37338 - Outline" d="M30,3A26.975,26.975,0,0,0,3,30V220a26.975,26.975,0,0,0,27,27H370a26.975,26.975,0,0,0,27-27V30A26.975,26.975,0,0,0,370,3H30m0-3H370a30,30,0,0,1,30,30V220a30,30,0,0,1-30,30H30A30,30,0,0,1,0,220V30A30,30,0,0,1,30,0Z" transform="translate(-9109 -5451)" fill="#854af0"/>
    <path id="Path_157042" data-name="Path 157042" d="M109.8,18.1h7.477V21H105.1V19.013l7.455-10.742h-7.5V5.359H117.2V7.293Zm8.336-3.019a6.86,6.86,0,0,1,.677-3.1,4.84,4.84,0,0,1,1.944-2.089,5.856,5.856,0,0,1,2.976-.73,5.344,5.344,0,0,1,4.114,1.617,6.2,6.2,0,0,1,1.5,4.4v.129a6.019,6.019,0,0,1-1.509,4.313,5.359,5.359,0,0,1-4.087,1.6,5.42,5.42,0,0,1-3.985-1.488,5.819,5.819,0,0,1-1.622-4.034Zm3.62.226a4.325,4.325,0,0,0,.5,2.363,1.682,1.682,0,0,0,1.493.752q1.934,0,1.977-2.976v-.365q0-3.126-2-3.126-1.815,0-1.966,2.7Zm12.515-5.93.118,1.364a3.942,3.942,0,0,1,3.319-1.579,3.316,3.316,0,0,1,2.712,1.085,5.165,5.165,0,0,1,.929,3.266V21h-3.631V13.663a1.961,1.961,0,0,0-.354-1.294,1.64,1.64,0,0,0-1.289-.414,1.726,1.726,0,0,0-1.579.838V21h-3.62V9.377ZM149.9,21a4.088,4.088,0,0,1-.344-1.042,3.366,3.366,0,0,1-2.793,1.257,4.124,4.124,0,0,1-2.793-.994,3.163,3.163,0,0,1-1.149-2.5,3.251,3.251,0,0,1,1.4-2.857,7.114,7.114,0,0,1,4.061-.967H149.4v-.615q0-1.608-1.386-1.608a1.133,1.133,0,0,0-1.289,1.274H143.1a3.245,3.245,0,0,1,1.434-2.736,6.027,6.027,0,0,1,3.658-1.051,5.284,5.284,0,0,1,3.513,1.085,3.772,3.772,0,0,1,1.321,2.976v5.146a5.269,5.269,0,0,0,.494,2.449V21Zm-2.267-2.363a2.019,2.019,0,0,0,1.123-.29,1.818,1.818,0,0,0,.639-.655V15.833h-1.053q-1.891,0-1.891,1.7a1.036,1.036,0,0,0,.333.8A1.205,1.205,0,0,0,147.636,18.637Zm17.789-.215a1.61,1.61,0,0,0,1.182-.414,1.517,1.517,0,0,0,.408-1.155h3.395a4.018,4.018,0,0,1-1.37,3.137,5.1,5.1,0,0,1-3.529,1.225,5.158,5.158,0,0,1-4-1.59,6.264,6.264,0,0,1-1.461-4.4v-.15a7.08,7.08,0,0,1,.65-3.11,4.732,4.732,0,0,1,1.875-2.073,5.589,5.589,0,0,1,2.9-.725,5.03,5.03,0,0,1,3.6,1.257,4.458,4.458,0,0,1,1.332,3.405h-3.395a1.987,1.987,0,0,0-.44-1.386,1.52,1.52,0,0,0-1.182-.483q-1.407,0-1.644,1.794a12.659,12.659,0,0,0-.075,1.568,4.972,4.972,0,0,0,.419,2.428A1.45,1.45,0,0,0,165.425,18.422ZM178.488,21a4.088,4.088,0,0,1-.344-1.042,3.366,3.366,0,0,1-2.793,1.257,4.124,4.124,0,0,1-2.793-.994,3.163,3.163,0,0,1-1.149-2.5,3.251,3.251,0,0,1,1.4-2.857,7.114,7.114,0,0,1,4.061-.967h1.117v-.615q0-1.608-1.386-1.608a1.133,1.133,0,0,0-1.289,1.274h-3.62a3.245,3.245,0,0,1,1.434-2.736,6.027,6.027,0,0,1,3.658-1.051,5.284,5.284,0,0,1,3.513,1.085,3.772,3.772,0,0,1,1.321,2.976v5.146a5.269,5.269,0,0,0,.494,2.449V21Zm-2.267-2.363a2.019,2.019,0,0,0,1.123-.29,1.818,1.818,0,0,0,.639-.655V15.833H176.93q-1.891,0-1.891,1.7a1.036,1.036,0,0,0,.333.8A1.205,1.205,0,0,0,176.221,18.637ZM187.436,21h-3.631V4.5h3.631Zm6.048,0h-3.631V9.377h3.631ZM189.638,6.369a1.63,1.63,0,0,1,.559-1.275,2.364,2.364,0,0,1,2.9,0,1.63,1.63,0,0,1,.559,1.275,1.63,1.63,0,0,1-.559,1.275,2.364,2.364,0,0,1-2.9,0A1.63,1.63,0,0,1,189.638,6.369Zm11.7,14.846a5.975,5.975,0,0,1-4.329-1.6,5.509,5.509,0,0,1-1.654-4.152v-.3a7.138,7.138,0,0,1,.661-3.147,4.834,4.834,0,0,1,1.928-2.111,5.821,5.821,0,0,1,3.008-.747,5.031,5.031,0,0,1,3.867,1.52,5.973,5.973,0,0,1,1.418,4.238v1.407h-7.2a2.609,2.609,0,0,0,.849,1.536,2.525,2.525,0,0,0,1.7.559,3.254,3.254,0,0,0,2.686-1.2l1.654,1.955a4.624,4.624,0,0,1-1.917,1.488A6.48,6.48,0,0,1,201.336,21.215Zm-.408-9.26q-1.59,0-1.891,2.105h3.652v-.279a1.793,1.793,0,0,0-.44-1.348A1.753,1.753,0,0,0,200.928,11.955Zm10.087-2.578.118,1.364a3.942,3.942,0,0,1,3.319-1.579,3.316,3.316,0,0,1,2.712,1.085,5.165,5.165,0,0,1,.929,3.266V21h-3.631V13.663a1.961,1.961,0,0,0-.354-1.294,1.64,1.64,0,0,0-1.289-.414,1.726,1.726,0,0,0-1.579.838V21h-3.62V9.377Zm13.3-2.89v2.89h1.912v2.514h-1.912v5.317a1.358,1.358,0,0,0,.236.913,1.268,1.268,0,0,0,.935.258,5.311,5.311,0,0,0,.9-.064V20.9a6.681,6.681,0,0,1-2.041.312,3.792,3.792,0,0,1-2.761-.881,3.61,3.61,0,0,1-.892-2.675V11.891h-1.482V9.377h1.482V6.487Zm8.959,14.728a5.975,5.975,0,0,1-4.329-1.6,5.509,5.509,0,0,1-1.654-4.152v-.3a7.138,7.138,0,0,1,.661-3.147,4.834,4.834,0,0,1,1.928-2.111,5.821,5.821,0,0,1,3.008-.747,5.031,5.031,0,0,1,3.867,1.52,5.973,5.973,0,0,1,1.418,4.238v1.407h-7.2a2.609,2.609,0,0,0,.849,1.536,2.525,2.525,0,0,0,1.7.559,3.254,3.254,0,0,0,2.686-1.2l1.654,1.955a4.624,4.624,0,0,1-1.917,1.488A6.48,6.48,0,0,1,233.273,21.215Zm-.408-9.26q-1.59,0-1.891,2.105h3.652v-.279a1.793,1.793,0,0,0-.44-1.348A1.753,1.753,0,0,0,232.865,11.955Z" transform="translate(-9080 -5251)" fill="#fff"/>
    <rect id="Rectangle_37339" data-name="Rectangle 37339" width="250" height="2" transform="translate(-9034 -5270)" fill="#fff"/>
    <g id="_000000ff" data-name="#000000ff" transform="translate(-8959 -5410)">
      <path id="Path_156400" data-name="Path 156400" d="M48.666,0h.42A22.87,22.87,0,0,1,59.354,6.445,25,25,0,0,1,65.7,20.928a38.692,38.692,0,0,1-.072,8.518,15.8,15.8,0,0,0,4.094-7.951,1.954,1.954,0,0,1,2.346-1.621c.9.166,1.363,1.043,1.822,1.742A47.633,47.633,0,0,1,81,43.848a41.91,41.91,0,0,1-1.4,13.363,6.858,6.858,0,0,1,4.822-.068c3.09,1.244,5.139,4.18,6.316,7.186,1.418,3.721,1.8,8.066.078,11.756,1.424.385,2.857.73,4.27,1.152a6.14,6.14,0,0,1,3.4,2.773A11.554,11.554,0,0,1,100,85.326v1.355a17.363,17.363,0,0,1-3.715,10.008A8.743,8.743,0,0,1,90.73,100h-.738a28.271,28.271,0,0,1-3.762-.883q-17.8-4.778-35.6-9.547a2.18,2.18,0,0,0-1.1-.039q-13.72,3.7-27.449,7.361c-3.955,1.02-7.873,2.193-11.852,3.107H9.346a8.608,8.608,0,0,1-5.631-3.307A17.34,17.34,0,0,1,0,86.594V85.256a11.728,11.728,0,0,1,1.434-5.113,6.235,6.235,0,0,1,3.492-2.906c1.414-.408,2.844-.752,4.26-1.148a13.573,13.573,0,0,1-1.02-7.322,16.957,16.957,0,0,1,3.506-8.643A8.741,8.741,0,0,1,17,56.777a8.733,8.733,0,0,1,3.77.539A20.428,20.428,0,0,1,18.93,48.83a16.312,16.312,0,0,1,2.576-8.2c2.508-4.15,6.262-7.379,8.746-11.543a14.1,14.1,0,0,0,2.088-8.205c-.021-1.256-.426-2.463-.523-3.707a1.942,1.942,0,0,1,2.941-1.557,20.865,20.865,0,0,1,7.709,8.57,35.568,35.568,0,0,1,4.16-6.672c1.244-1.717,2.588-3.488,2.971-5.627.445-2.506-.459-4.994-1.51-7.23a12.82,12.82,0,0,1-1.135-2.518A1.99,1.99,0,0,1,48.666,0m4.168,6.01a13.584,13.584,0,0,1,.51,7.117,16.593,16.593,0,0,1-3.018,5.945,39.456,39.456,0,0,0-4.141,6.385A19.682,19.682,0,0,0,44.42,33.6a2.624,2.624,0,0,1-.529,1.893,1.961,1.961,0,0,1-2.943-.066c-.689-.844-.381-2-.5-3a16.063,16.063,0,0,0-4.145-10.5,17.608,17.608,0,0,1-1.428,6.7,33.1,33.1,0,0,1-5.512,8.18,40.109,40.109,0,0,0-5.217,7.066,11.6,11.6,0,0,0-1.3,6.322,20.971,20.971,0,0,0,2.986,8.48q4.336,1.148,8.666,2.318a17.309,17.309,0,0,1,.389-6.916,18.249,18.249,0,0,1,4.934-8.025,1.952,1.952,0,0,1,2.8.02,2.557,2.557,0,0,1,.594,1.584A11.1,11.1,0,0,0,45.086,52.6c3.457-3.283,6.035-7.732,6.279-12.57a23.944,23.944,0,0,0-.09-3.131,1.939,1.939,0,0,1,2.049-1.979,2.18,2.18,0,0,1,1.449.736,29.147,29.147,0,0,1,4.51,5.652,1.971,1.971,0,0,1-.254,2.477,1.949,1.949,0,0,1-2.684.043A13.3,13.3,0,0,1,55.1,42.035a23.7,23.7,0,0,1-8.219,14.2,2.808,2.808,0,0,1-1.955.941,3.006,3.006,0,0,1-1.861-1.039A12.009,12.009,0,0,1,40.2,51.672a13.619,13.619,0,0,0-1.32,2.654,13.848,13.848,0,0,0-.219,7.783c3.6.967,7.2,1.912,10.789,2.9a1.717,1.717,0,0,0,1.08,0c2.8-.758,5.605-1.5,8.408-2.26.295-1.307.389-2.646.635-3.959a1.951,1.951,0,0,1,3.205-.865c1.029.975.428,2.492.338,3.705q6.012-1.608,12.023-3.223A37.746,37.746,0,0,0,77.189,46.3a43.473,43.473,0,0,0-4.973-19.738,19.8,19.8,0,0,1-8.41,9.129,1.966,1.966,0,0,1-2.58-.635,2.282,2.282,0,0,1-.2-1.875c1.121-5.2,1.506-10.707.041-15.879A19.951,19.951,0,0,0,52.834,6.01M13.852,63.787c1.1.311,2.219.561,3.311.9a1.942,1.942,0,0,1-.92,3.768c-1.3-.295-2.584-.7-3.881-1.021-.572,2.5-.723,5.363.736,7.6q14.675-3.932,29.35-7.867-11.941-3.211-23.889-6.406a2.236,2.236,0,0,0-1.533.008,7.146,7.146,0,0,0-3.174,3.018M11.813,79.422a15.308,15.308,0,0,1,3.4,5.537,16.32,16.32,0,0,1,.635,9.561q34.881-9.349,69.762-18.691c1.576-.4,2.066-2.189,2.338-3.586-.936.225-1.852.521-2.791.73a1.94,1.94,0,0,1-1.072-3.727c1.232-.373,2.486-.67,3.727-1.018a12.238,12.238,0,0,0-3.283-6.463,3.137,3.137,0,0,0-2.885-1.051q-34.919,9.34-69.834,18.707m74.244.338C81.7,80.9,77.363,82.1,73.01,83.234a2.488,2.488,0,0,1,.957,1.174,1.96,1.96,0,0,1-1.174,2.434c-.9.326-1.809-.154-2.684-.342-1.551-.377-3.07-.9-4.639-1.2-2.652.635-5.277,1.4-7.916,2.092Q70.85,90.953,84.146,94.52a14.918,14.918,0,0,1-.361-5.262,16.827,16.827,0,0,1,4.424-9.879,4.569,4.569,0,0,0-2.152.381M6.125,80.953a2.564,2.564,0,0,0-1.469,1.408,8.879,8.879,0,0,0-.725,4.369,13.358,13.358,0,0,0,2.637,7.283,5.013,5.013,0,0,0,2.988,2.063A2.258,2.258,0,0,0,11.7,94.521a10.2,10.2,0,0,0,.477-5.947,12.219,12.219,0,0,0-3.234-6.48,3.27,3.27,0,0,0-2.812-1.141m86.723.025a4.237,4.237,0,0,0-1.576.926,10.938,10.938,0,0,0-2.965,4.809,11.8,11.8,0,0,0-.244,7.227c.326.918.918,1.967,1.973,2.135a3.938,3.938,0,0,0,2.939-1.531,13.034,13.034,0,0,0,3.1-8.006,7.785,7.785,0,0,0-1.1-4.766A1.885,1.885,0,0,0,92.848,80.979Z" fill="#fff"/>
      <path id="Path_156401" data-name="Path 156401" d="M303.223,249a1.949,1.949,0,1,1-1.232,2.049A1.961,1.961,0,0,1,303.223,249Z" transform="translate(-242.995 -200.259)" fill="#fff"/>
      <path id="Path_156402" data-name="Path 156402" d="M272.931,368.133a1.945,1.945,0,0,1,1.186,3.7c-1.268.4-2.566.684-3.842,1.057a2.509,2.509,0,0,1-2.031-.031,1.96,1.96,0,0,1-.721-2.725,2.316,2.316,0,0,1,1.566-.982C270.374,368.832,271.646,368.455,272.931,368.133Z" transform="translate(-215.042 -296.166)" fill="#fff"/>
      <path id="Path_156403" data-name="Path 156403" d="M120.951,413.184a1.943,1.943,0,0,1,1.172,3.705c-1.252.393-2.535.674-3.795,1.043a2.548,2.548,0,0,1-2.084-.025,1.957,1.957,0,0,1-.7-2.727,2.291,2.291,0,0,1,1.553-.973C118.386,413.887,119.662,413.5,120.951,413.184Z" transform="translate(-92.74 -332.418)" fill="#fff"/>
    </g>
  </g>
</svg>
