<svg xmlns="http://www.w3.org/2000/svg" width="218" height="190" viewBox="0 0 218 190">
  <g id="t1-l2" transform="translate(-224 228)">
    <path id="Rectangle_37179" data-name="Rectangle 37179" d="M2,2V188H216V2H2M0,0H218V190H0Z" transform="translate(224 -228)" fill="#12263f"/>
    <rect id="Rectangle_37180" data-name="Rectangle 37180" width="150" height="26" transform="translate(258 -199)" fill="#ba68c8"/>
    <rect id="Rectangle_37181" data-name="Rectangle 37181" width="150" height="26" transform="translate(258 -148)" fill="#ba68c8"/>
    <rect id="Rectangle_37182" data-name="Rectangle 37182" width="150" height="26" transform="translate(258 -97)" fill="#ba68c8"/>
    <path id="Path_156862" data-name="Path 156862" d="M3.359-4.008V0H1.016V-11.375H5.453a5.134,5.134,0,0,1,2.254.469A3.454,3.454,0,0,1,9.2-9.574a3.714,3.714,0,0,1,.523,1.965A3.266,3.266,0,0,1,8.582-4.973a4.767,4.767,0,0,1-3.168.965Zm0-1.9H5.453a2.059,2.059,0,0,0,1.418-.437,1.591,1.591,0,0,0,.488-1.25,1.876,1.876,0,0,0-.492-1.352,1.839,1.839,0,0,0-1.359-.531H3.359ZM16,0a2.507,2.507,0,0,1-.227-.758,2.732,2.732,0,0,1-2.133.914,3,3,0,0,1-2.059-.719,2.312,2.312,0,0,1-.816-1.812,2.389,2.389,0,0,1,1-2.062,4.915,4.915,0,0,1,2.879-.727H15.68v-.484a1.393,1.393,0,0,0-.3-.937,1.183,1.183,0,0,0-.949-.352,1.345,1.345,0,0,0-.895.273.929.929,0,0,0-.324.75H10.953a2.268,2.268,0,0,1,.453-1.359,3,3,0,0,1,1.281-.98,4.669,4.669,0,0,1,1.859-.355,3.689,3.689,0,0,1,2.48.785,2.747,2.747,0,0,1,.918,2.207v3.664a4.041,4.041,0,0,0,.336,1.82V0ZM14.133-1.57a1.945,1.945,0,0,0,.922-.223,1.462,1.462,0,0,0,.625-.6V-3.844h-.844q-1.7,0-1.8,1.172l-.008.133a.9.9,0,0,0,.3.7A1.153,1.153,0,0,0,14.133-1.57Zm10.3-4.766a6.134,6.134,0,0,0-.812-.062,1.654,1.654,0,0,0-1.68.867V0H19.68V-8.453h2.133l.063,1.008a2.092,2.092,0,0,1,1.883-1.164,2.366,2.366,0,0,1,.7.1Zm5.836,0a6.134,6.134,0,0,0-.812-.062,1.654,1.654,0,0,0-1.68.867V0H25.516V-8.453h2.133l.063,1.008a2.092,2.092,0,0,1,1.883-1.164,2.366,2.366,0,0,1,.7.1ZM33.734,0H31.469V-8.453h2.266Zm-2.4-10.641a1.112,1.112,0,0,1,.34-.836A1.277,1.277,0,0,1,32.6-11.8a1.28,1.28,0,0,1,.922.328,1.105,1.105,0,0,1,.344.836,1.108,1.108,0,0,1-.348.844,1.283,1.283,0,0,1-.918.328,1.283,1.283,0,0,1-.918-.328A1.108,1.108,0,0,1,31.336-10.641ZM37.977,0H35.711V-12h2.266Zm4.242,0H39.953V-12h2.266Zm6.758,0a2.507,2.507,0,0,1-.227-.758,2.732,2.732,0,0,1-2.133.914,3,3,0,0,1-2.059-.719,2.312,2.312,0,0,1-.816-1.812,2.389,2.389,0,0,1,1-2.062,4.915,4.915,0,0,1,2.879-.727h1.039v-.484a1.393,1.393,0,0,0-.3-.937,1.183,1.183,0,0,0-.949-.352,1.345,1.345,0,0,0-.895.273.929.929,0,0,0-.324.75H43.93a2.268,2.268,0,0,1,.453-1.359,3,3,0,0,1,1.281-.98,4.669,4.669,0,0,1,1.859-.355A3.689,3.689,0,0,1,50-7.824a2.747,2.747,0,0,1,.918,2.207v3.664a4.041,4.041,0,0,0,.336,1.82V0ZM47.109-1.57a1.945,1.945,0,0,0,.922-.223,1.462,1.462,0,0,0,.625-.6V-3.844h-.844q-1.7,0-1.8,1.172L46-2.539a.9.9,0,0,0,.3.7A1.153,1.153,0,0,0,47.109-1.57Z" transform="translate(307.105 -47.824)" fill="#12263f"/>
    <g id="Group_108081" data-name="Group 108081">
      <g id="Group_108077" data-name="Group 108077">
        <path id="Rectangle_37183" data-name="Rectangle 37183" d="M-.8-.8H27.077V25.786H-.8ZM25.477.8H.8V24.186H25.477Z" transform="translate(258.368 -173.01) rotate(-90)" fill="#12263f"/>
        <path id="Rectangle_37184" data-name="Rectangle 37184" d="M-.8-.8H27.077V25.786H-.8ZM25.477.8H.8V24.186H25.477Z" transform="translate(283.223 -173.01) rotate(-90)" fill="#12263f"/>
        <path id="Rectangle_37185" data-name="Rectangle 37185" d="M-.8-.8H27.077V25.786H-.8ZM25.477.8H.8V24.186H25.477Z" transform="translate(308.079 -173.01) rotate(-90)" fill="#12263f"/>
        <path id="Rectangle_37186" data-name="Rectangle 37186" d="M-.8-.8H27.077V25.786H-.8ZM25.477.8H.8V24.186H25.477Z" transform="translate(332.935 -173.01) rotate(-90)" fill="#12263f"/>
        <path id="Rectangle_37187" data-name="Rectangle 37187" d="M-.8-.8H27.077V25.786H-.8ZM25.477.8H.8V24.186H25.477Z" transform="translate(357.791 -173.01) rotate(-90)" fill="#12263f"/>
        <path id="Rectangle_37188" data-name="Rectangle 37188" d="M-.8-.8H27.077V25.786H-.8ZM25.477.8H.8V24.186H25.477Z" transform="translate(382.647 -173.01) rotate(-90)" fill="#12263f"/>
      </g>
      <g id="Group_108078" data-name="Group 108078">
        <path id="Rectangle_37189" data-name="Rectangle 37189" d="M-.8-.8H27.077V25.786H-.8ZM25.477.8H.8V24.186H25.477Z" transform="translate(258.368 -121.769) rotate(-90)" fill="#12263f"/>
        <path id="Rectangle_37190" data-name="Rectangle 37190" d="M-.8-.8H27.077V25.786H-.8ZM25.477.8H.8V24.186H25.477Z" transform="translate(283.223 -121.769) rotate(-90)" fill="#12263f"/>
        <path id="Rectangle_37191" data-name="Rectangle 37191" d="M-.8-.8H27.077V25.786H-.8ZM25.477.8H.8V24.186H25.477Z" transform="translate(308.079 -121.769) rotate(-90)" fill="#12263f"/>
        <path id="Rectangle_37192" data-name="Rectangle 37192" d="M-.8-.8H27.077V25.786H-.8ZM25.477.8H.8V24.186H25.477Z" transform="translate(332.935 -121.769) rotate(-90)" fill="#12263f"/>
        <path id="Rectangle_37193" data-name="Rectangle 37193" d="M-.8-.8H27.077V25.786H-.8ZM25.477.8H.8V24.186H25.477Z" transform="translate(357.791 -121.769) rotate(-90)" fill="#12263f"/>
        <path id="Rectangle_37194" data-name="Rectangle 37194" d="M-.8-.8H27.077V25.786H-.8ZM25.477.8H.8V24.186H25.477Z" transform="translate(382.647 -121.769) rotate(-90)" fill="#12263f"/>
      </g>
      <g id="Group_108079" data-name="Group 108079">
        <path id="Rectangle_37195" data-name="Rectangle 37195" d="M-.8-.8H27.077V25.786H-.8ZM25.477.8H.8V24.186H25.477Z" transform="translate(258.368 -70.528) rotate(-90)" fill="#12263f"/>
        <path id="Rectangle_37196" data-name="Rectangle 37196" d="M-.8-.8H27.077V25.786H-.8ZM25.477.8H.8V24.186H25.477Z" transform="translate(283.223 -70.528) rotate(-90)" fill="#12263f"/>
        <path id="Rectangle_37197" data-name="Rectangle 37197" d="M-.8-.8H27.077V25.786H-.8ZM25.477.8H.8V24.186H25.477Z" transform="translate(308.079 -70.528) rotate(-90)" fill="#12263f"/>
        <path id="Rectangle_37198" data-name="Rectangle 37198" d="M-.8-.8H27.077V25.786H-.8ZM25.477.8H.8V24.186H25.477Z" transform="translate(332.935 -70.528) rotate(-90)" fill="#12263f"/>
        <path id="Rectangle_37199" data-name="Rectangle 37199" d="M-.8-.8H27.077V25.786H-.8ZM25.477.8H.8V24.186H25.477Z" transform="translate(357.791 -70.528) rotate(-90)" fill="#12263f"/>
        <path id="Rectangle_37200" data-name="Rectangle 37200" d="M-.8-.8H27.077V25.786H-.8ZM25.477.8H.8V24.186H25.477Z" transform="translate(382.647 -70.528) rotate(-90)" fill="#12263f"/>
      </g>
      <g id="Group_108080" data-name="Group 108080">
        <path id="Path_156858" data-name="Path 156858" d="M415.117-162.257H250.883a.5.5,0,0,1-.5-.5v-47.3a.5.5,0,0,1,.5-.5H415.117a.5.5,0,0,1,.5.5v47.3A.5.5,0,0,1,415.117-162.257Zm-163.734-1H414.617v-46.3H251.383Z" fill="#c4337d"/>
        <path id="Path_156859" data-name="Path 156859" d="M250.883-163.257H415.117a.5.5,0,0,1,.5.5v55.182a.5.5,0,0,1-.5.5H250.883a.5.5,0,0,1-.5-.5v-55.182A.5.5,0,0,1,250.883-163.257Zm163.734,1H251.383v54.182H414.617Z" fill="#c4337d"/>
        <path id="Line_185" data-name="Line 185" d="M0,91.345a.5.5,0,0,1-.5-.5V0A.5.5,0,0,1,0-.5.5.5,0,0,1,.5,0V90.845A.5.5,0,0,1,0,91.345Z" transform="translate(250.883 -162.945)" fill="#c4337d"/>
        <path id="Line_186" data-name="Line 186" d="M0,91.345a.5.5,0,0,1-.5-.5V0A.5.5,0,0,1,0-.5.5.5,0,0,1,.5,0V90.845A.5.5,0,0,1,0,91.345Z" transform="translate(415.117 -162.945)" fill="#c4337d"/>
      </g>
      <path id="Path_156860" data-name="Path 156860" d="M423.8-66.845h-1.6V-215.826H243.8V-66.845h-1.6V-217.426H423.8Z" fill="#12263f"/>
    </g>
  </g>
</svg>
