<svg xmlns="http://www.w3.org/2000/svg" width="218" height="190" viewBox="0 0 218 190">
  <g id="t1-l3" transform="translate(-224 228)">
    <path id="Rectangle_37201" data-name="Rectangle 37201" d="M2,2V188H216V2H2M0,0H218V190H0Z" transform="translate(224 -228)" fill="#12263f"/>
    <path id="Path_156863" data-name="Path 156863" d="M7.438-2.344H3.328L2.547,0H.055L4.289-11.375H6.461L10.719,0H8.227Zm-3.477-1.9H6.8L5.375-8.5Zm9.375-4.211.07.977a2.951,2.951,0,0,1,2.43-1.133,2.453,2.453,0,0,1,2,.789,3.682,3.682,0,0,1,.672,2.359V0H16.25V-5.406a1.465,1.465,0,0,0-.312-1.043A1.4,1.4,0,0,0,14.9-6.773a1.553,1.553,0,0,0-1.43.813V0H11.211V-8.453Zm6.555,4.164a4.954,4.954,0,0,1,.926-3.133,3,3,0,0,1,2.5-1.187,2.631,2.631,0,0,1,2.164.953l.094-.8h2.047V-.281a3.613,3.613,0,0,1-.5,1.93A3.236,3.236,0,0,1,25.7,2.9a4.985,4.985,0,0,1-2.141.43,4.635,4.635,0,0,1-1.812-.371A3.217,3.217,0,0,1,20.406,2l1-1.375a2.645,2.645,0,0,0,2.047.945,1.936,1.936,0,0,0,1.4-.48,1.8,1.8,0,0,0,.5-1.363V-.727A2.612,2.612,0,0,1,23.3.156a2.992,2.992,0,0,1-2.465-1.191,4.953,4.953,0,0,1-.941-3.16Zm2.258.168a3.085,3.085,0,0,0,.461,1.8,1.466,1.466,0,0,0,1.266.653,1.568,1.568,0,0,0,1.477-.775V-6a1.564,1.564,0,0,0-1.461-.775,1.476,1.476,0,0,0-1.277.665A3.477,3.477,0,0,0,22.148-4.121ZM34.414-.859A2.831,2.831,0,0,1,32.1.156a2.67,2.67,0,0,1-2.074-.781,3.335,3.335,0,0,1-.73-2.289V-8.453h2.258v5.467q0,1.322,1.2,1.322a1.63,1.63,0,0,0,1.578-.8V-8.453H36.6V0H34.477ZM40.688,0H38.422V-12h2.266Zm6.758,0a2.507,2.507,0,0,1-.227-.758,2.732,2.732,0,0,1-2.133.914,3,3,0,0,1-2.059-.719,2.312,2.312,0,0,1-.816-1.812,2.389,2.389,0,0,1,1-2.062,4.915,4.915,0,0,1,2.879-.727h1.039v-.484a1.393,1.393,0,0,0-.3-.937,1.183,1.183,0,0,0-.949-.352,1.345,1.345,0,0,0-.895.273.929.929,0,0,0-.324.75H42.4a2.268,2.268,0,0,1,.453-1.359,3,3,0,0,1,1.281-.98,4.669,4.669,0,0,1,1.859-.355,3.689,3.689,0,0,1,2.48.785,2.747,2.747,0,0,1,.918,2.207v3.664a4.041,4.041,0,0,0,.336,1.82V0ZM45.578-1.57a1.945,1.945,0,0,0,.922-.223,1.462,1.462,0,0,0,.625-.6V-3.844h-.844q-1.7,0-1.8,1.172l-.008.133a.9.9,0,0,0,.3.7A1.153,1.153,0,0,0,45.578-1.57Zm10.3-4.766a6.134,6.134,0,0,0-.812-.062,1.654,1.654,0,0,0-1.68.867V0H51.125V-8.453h2.133l.063,1.008A2.092,2.092,0,0,1,55.2-8.609a2.366,2.366,0,0,1,.7.1Z" transform="translate(304.953 -47.824)" fill="#12263f"/>
    <g id="Group_108088" data-name="Group 108088">
      <rect id="Rectangle_37202" data-name="Rectangle 37202" width="19.197" height="71.028" transform="translate(281.32 -198.276) rotate(17.018)" fill="#64b5f6"/>
      <path id="Rectangle_37202_-_Outline" data-name="Rectangle 37202 - Outline" d="M-.8-.8H20V71.828H-.8ZM18.4.8H.8V70.228H18.4Z" transform="translate(281.32 -198.276) rotate(17.018)" fill="#12263f"/>
      <rect id="Rectangle_37203" data-name="Rectangle 37203" width="19.197" height="118.061" transform="translate(322.94 -209.628) rotate(17.018)" fill="#64b5f6"/>
      <path id="Rectangle_37203_-_Outline" data-name="Rectangle 37203 - Outline" d="M-.8-.8H20V118.861H-.8ZM18.4.8H.8V117.261H18.4Z" transform="translate(322.94 -209.628) rotate(17.018)" fill="#12263f"/>
      <rect id="Rectangle_37204" data-name="Rectangle 37204" width="19.197" height="118.061" transform="translate(358.734 -198.672) rotate(17.018)" fill="#64b5f6"/>
      <path id="Rectangle_37204_-_Outline" data-name="Rectangle 37204 - Outline" d="M-.8-.8H20V118.861H-.8ZM18.4.8H.8V117.261H18.4Z" transform="translate(358.734 -198.672) rotate(17.018)" fill="#12263f"/>
      <rect id="Rectangle_37205" data-name="Rectangle 37205" width="19.197" height="118.061" transform="translate(393.611 -187.997) rotate(17.018)" fill="#64b5f6"/>
      <path id="Rectangle_37205_-_Outline" data-name="Rectangle 37205 - Outline" d="M-.8-.8H20V118.861H-.8ZM18.4.8H.8V117.261H18.4Z" transform="translate(393.611 -187.997) rotate(17.018)" fill="#12263f"/>
      <g id="Group_108087" data-name="Group 108087">
        <g id="Group_108083" data-name="Group 108083">
          <path id="Rectangle_37206" data-name="Rectangle 37206" d="M-.75-.75H19.975V24.444H-.75ZM18.475.75H.75V22.944H18.475Z" transform="translate(323.289 -209.879) rotate(17.018)" fill="#12263f"/>
          <path id="Rectangle_37207" data-name="Rectangle 37207" d="M-.75-.75H19.975V24.444H-.75ZM18.475.75H.75V22.944H18.475Z" transform="translate(316.39 -187.34) rotate(17.018)" fill="#12263f"/>
          <path id="Rectangle_37208" data-name="Rectangle 37208" d="M-.75-.75H19.975V24.444H-.75ZM18.475.75H.75V22.944H18.475Z" transform="translate(309.492 -164.801) rotate(17.018)" fill="#12263f"/>
          <path id="Rectangle_37209" data-name="Rectangle 37209" d="M-.75-.75H19.975V24.444H-.75ZM18.475.75H.75V22.944H18.475Z" transform="translate(302.593 -142.262) rotate(17.018)" fill="#12263f"/>
          <path id="Rectangle_37210" data-name="Rectangle 37210" d="M-.75-.75H19.975V24.444H-.75ZM18.475.75H.75V22.944H18.475Z" transform="translate(295.694 -119.724) rotate(17.018)" fill="#12263f"/>
        </g>
        <g id="Group_108084" data-name="Group 108084">
          <path id="Rectangle_37211" data-name="Rectangle 37211" d="M-.75-.75H19.975V24.444H-.75ZM18.475.75H.75V22.944H18.475Z" transform="translate(358.693 -199.042) rotate(17.018)" fill="#12263f"/>
          <path id="Rectangle_37212" data-name="Rectangle 37212" d="M-.75-.75H19.975V24.444H-.75ZM18.475.75H.75V22.944H18.475Z" transform="translate(351.794 -176.503) rotate(17.018)" fill="#12263f"/>
          <path id="Rectangle_37213" data-name="Rectangle 37213" d="M-.75-.75H19.975V24.444H-.75ZM18.475.75H.75V22.944H18.475Z" transform="translate(344.896 -153.965) rotate(17.018)" fill="#12263f"/>
          <path id="Rectangle_37214" data-name="Rectangle 37214" d="M-.75-.75H19.975V24.444H-.75ZM18.475.75H.75V22.944H18.475Z" transform="translate(337.997 -131.426) rotate(17.018)" fill="#12263f"/>
          <path id="Rectangle_37215" data-name="Rectangle 37215" d="M-.75-.75H19.975V24.444H-.75ZM18.475.75H.75V22.944H18.475Z" transform="translate(331.098 -108.887) rotate(17.018)" fill="#12263f"/>
        </g>
        <g id="Group_108085" data-name="Group 108085">
          <path id="Rectangle_37216" data-name="Rectangle 37216" d="M-.75-.75H19.975V24.444H-.75ZM18.475.75H.75V22.944H18.475Z" transform="translate(281.157 -198.124) rotate(17.018)" fill="#12263f"/>
          <path id="Rectangle_37217" data-name="Rectangle 37217" d="M-.75-.75H19.975V24.444H-.75ZM18.475.75H.75V22.944H18.475Z" transform="translate(274.258 -175.586) rotate(17.018)" fill="#12263f"/>
          <path id="Rectangle_37218" data-name="Rectangle 37218" d="M-.75-.75H19.975V24.444H-.75ZM18.475.75H.75V22.944H18.475Z" transform="translate(267.359 -153.047) rotate(17.018)" fill="#12263f"/>
        </g>
        <path id="Line_187" data-name="Line 187" d="M0,83.126a.75.75,0,0,1-.22-.033.75.75,0,0,1-.5-.937L24.5-.22a.75.75,0,0,1,.937-.5.75.75,0,0,1,.5.937L.717,82.6A.75.75,0,0,1,0,83.126Z" transform="translate(285.162 -197.188)" fill="#c4337d"/>
        <path id="Line_188" data-name="Line 188" d="M0,83.126a.75.75,0,0,1-.22-.033.75.75,0,0,1-.5-.937L24.5-.22a.75.75,0,0,1,.937-.5.75.75,0,0,1,.5.937L.717,82.6A.75.75,0,0,1,0,83.126Z" transform="translate(320.566 -186.351)" fill="#c4337d"/>
        <path id="Line_189" data-name="Line 189" d="M88.51,27.842a.75.75,0,0,1-.22-.033L-.22.717a.75.75,0,0,1-.5-.937.75.75,0,0,1,.937-.5l88.51,27.091a.75.75,0,0,1-.219,1.467Z" transform="translate(318.277 -223)" fill="#c4337d"/>
        <path id="Line_190" data-name="Line 190" d="M88.51,27.842a.75.75,0,0,1-.22-.033L-.22.717a.75.75,0,0,1-.5-.937.75.75,0,0,1,.937-.5l88.51,27.091a.75.75,0,0,1-.219,1.467Z" transform="translate(277.29 -89.091)" fill="#c4337d"/>
        <path id="Line_191" data-name="Line 191" d="M0,83.126a.75.75,0,0,1-.22-.033.75.75,0,0,1-.5-.937L24.5-.22a.75.75,0,0,1,.937-.5.75.75,0,0,1,.5.937L.717,82.6A.75.75,0,0,1,0,83.126Z" transform="translate(355.97 -175.515)" fill="#c4337d"/>
        <path id="Line_192" data-name="Line 192" d="M0,79.382a.75.75,0,0,1-.22-.033.75.75,0,0,1-.5-.937L23.351-.22a.75.75,0,0,1,.937-.5.75.75,0,0,1,.5.937L.717,78.851A.75.75,0,0,1,0,79.382Z" transform="translate(249.412 -206.433)" fill="#c4337d"/>
        <g id="Group_108086" data-name="Group 108086">
          <path id="Rectangle_37219" data-name="Rectangle 37219" d="M-.75-.75H19.975V24.444H-.75ZM18.475.75H.75V22.944H18.475Z" transform="translate(394.097 -188.206) rotate(17.018)" fill="#12263f"/>
          <path id="Rectangle_37220" data-name="Rectangle 37220" d="M-.75-.75H19.975V24.444H-.75ZM18.475.75H.75V22.944H18.475Z" transform="translate(387.198 -165.667) rotate(17.018)" fill="#12263f"/>
          <path id="Rectangle_37221" data-name="Rectangle 37221" d="M-.75-.75H19.975V24.444H-.75ZM18.475.75H.75V22.944H18.475Z" transform="translate(380.299 -143.128) rotate(17.018)" fill="#12263f"/>
          <path id="Rectangle_37222" data-name="Rectangle 37222" d="M-.75-.75H19.975V24.444H-.75ZM18.475.75H.75V22.944H18.475Z" transform="translate(373.401 -120.589) rotate(17.018)" fill="#12263f"/>
          <path id="Rectangle_37223" data-name="Rectangle 37223" d="M-.75-.75H19.975V24.444H-.75ZM18.475.75H.75V22.944H18.475Z" transform="translate(366.502 -98.051) rotate(17.018)" fill="#12263f"/>
        </g>
        <path id="Line_193" data-name="Line 193" d="M0,83.126a.75.75,0,0,1-.22-.033.75.75,0,0,1-.5-.937L24.5-.22a.75.75,0,0,1,.937-.5.75.75,0,0,1,.5.937L.717,82.6A.75.75,0,0,1,0,83.126Z" transform="translate(391.374 -164.678)" fill="#c4337d"/>
      </g>
    </g>
  </g>
</svg>
