<svg xmlns="http://www.w3.org/2000/svg" width="218" height="190" viewBox="0 0 218 190">
  <g id="t1-l1" transform="translate(-224 440)">
    <path id="Rectangle_37152" data-name="Rectangle 37152" d="M2,2V188H216V2H2M0,0H218V190H0Z" transform="translate(224 -440)" fill="#12263f"/>
    <path id="Path_156861" data-name="Path 156861" d="M3.359-1.883H8.336V0H1.016V-11.375H3.359ZM11.914,0H9.648V-8.453h2.266Zm-2.4-10.641a1.112,1.112,0,0,1,.34-.836,1.277,1.277,0,0,1,.926-.328,1.28,1.28,0,0,1,.922.328,1.105,1.105,0,0,1,.344.836A1.108,1.108,0,0,1,11.7-9.8a1.283,1.283,0,0,1-.918.328A1.283,1.283,0,0,1,9.863-9.8,1.108,1.108,0,0,1,9.516-10.641ZM21.391-4.148A5.119,5.119,0,0,1,20.523-.98,2.872,2.872,0,0,1,18.1.156,2.639,2.639,0,0,1,15.906-.9l-.1.9H13.773V-12h2.258v4.3a2.571,2.571,0,0,1,2.055-.914,2.9,2.9,0,0,1,2.426,1.137,5.126,5.126,0,0,1,.879,3.2Zm-2.258-.164a3.363,3.363,0,0,0-.406-1.871,1.374,1.374,0,0,0-1.211-.59,1.489,1.489,0,0,0-1.484.883v3.336a1.509,1.509,0,0,0,1.5.891,1.394,1.394,0,0,0,1.438-1.078A5.562,5.562,0,0,0,19.133-4.312Zm8.4-2.023a6.134,6.134,0,0,0-.812-.062,1.654,1.654,0,0,0-1.68.867V0H22.781V-8.453h2.133l.063,1.008a2.092,2.092,0,0,1,1.883-1.164,2.366,2.366,0,0,1,.7.1ZM32.359.156A4.15,4.15,0,0,1,29.332-.984a4.054,4.054,0,0,1-1.168-3.039v-.219a5.106,5.106,0,0,1,.492-2.277,3.612,3.612,0,0,1,1.395-1.547,3.914,3.914,0,0,1,2.059-.543,3.508,3.508,0,0,1,2.73,1.094,4.444,4.444,0,0,1,1,3.1v.922H30.453a2.1,2.1,0,0,0,.66,1.328,2,2,0,0,0,1.395.5,2.437,2.437,0,0,0,2.039-.945l1.109,1.242A3.389,3.389,0,0,1,34.281-.246,4.511,4.511,0,0,1,32.359.156ZM32.1-6.789a1.411,1.411,0,0,0-1.09.455,2.357,2.357,0,0,0-.535,1.3h3.141v-.181a1.681,1.681,0,0,0-.406-1.165A1.456,1.456,0,0,0,32.1-6.789Zm7.133-1.664.07.945a2.971,2.971,0,0,1,2.43-1.1A2.255,2.255,0,0,1,43.977-7.32a2.9,2.9,0,0,1,2.539-1.289,2.521,2.521,0,0,1,2.047.8,3.681,3.681,0,0,1,.672,2.41V0H46.969V-5.391a1.61,1.61,0,0,0-.281-1.051,1.246,1.246,0,0,0-.992-.332,1.409,1.409,0,0,0-1.406.969L44.3,0H42.039V-5.383a1.59,1.59,0,0,0-.289-1.062,1.259,1.259,0,0,0-.984-.328,1.463,1.463,0,0,0-1.391.8V0H37.117V-8.453ZM54.859.156A4.15,4.15,0,0,1,51.832-.984a4.054,4.054,0,0,1-1.168-3.039v-.219a5.106,5.106,0,0,1,.492-2.277,3.612,3.612,0,0,1,1.395-1.547,3.914,3.914,0,0,1,2.059-.543,3.508,3.508,0,0,1,2.73,1.094,4.444,4.444,0,0,1,1,3.1v.922H52.953a2.1,2.1,0,0,0,.66,1.328,2,2,0,0,0,1.395.5,2.437,2.437,0,0,0,2.039-.945l1.109,1.242A3.389,3.389,0,0,1,56.781-.246,4.511,4.511,0,0,1,54.859.156ZM54.6-6.789a1.411,1.411,0,0,0-1.09.455,2.357,2.357,0,0,0-.535,1.3h3.141v-.181a1.681,1.681,0,0,0-.406-1.165A1.456,1.456,0,0,0,54.6-6.789ZM61.7-8.453l.07.977A2.951,2.951,0,0,1,64.2-8.609a2.453,2.453,0,0,1,2,.789,3.682,3.682,0,0,1,.672,2.359V0H64.609V-5.406A1.465,1.465,0,0,0,64.3-6.449a1.4,1.4,0,0,0-1.039-.324,1.553,1.553,0,0,0-1.43.813V0H59.57V-8.453Zm9.586-2.078v2.078h1.445V-6.8H71.281v4.219a1.007,1.007,0,0,0,.18.672.9.9,0,0,0,.688.2,3.6,3.6,0,0,0,.664-.055V-.047a4.648,4.648,0,0,1-1.367.2,2.156,2.156,0,0,1-2.422-2.4V-6.8H67.789V-8.453h1.234v-2.078ZM77.875.156A4.15,4.15,0,0,1,74.848-.984,4.054,4.054,0,0,1,73.68-4.023v-.219a5.106,5.106,0,0,1,.492-2.277,3.612,3.612,0,0,1,1.395-1.547,3.914,3.914,0,0,1,2.059-.543,3.508,3.508,0,0,1,2.73,1.094,4.444,4.444,0,0,1,1,3.1v.922H75.969a2.1,2.1,0,0,0,.66,1.328,2,2,0,0,0,1.395.5,2.437,2.437,0,0,0,2.039-.945l1.109,1.242A3.389,3.389,0,0,1,79.8-.246,4.511,4.511,0,0,1,77.875.156Zm-.258-6.945a1.411,1.411,0,0,0-1.09.455,2.357,2.357,0,0,0-.535,1.3h3.141v-.181a1.681,1.681,0,0,0-.406-1.165A1.456,1.456,0,0,0,77.617-6.789Z" transform="translate(292.117 -259.824)" fill="#12263f"/>
    <rect id="Rectangle_37153" data-name="Rectangle 37153" width="26" height="147" transform="translate(245 -427)" fill="#fff505"/>
    <rect id="Rectangle_37154" data-name="Rectangle 37154" width="26" height="147" transform="translate(395 -427)" fill="#fff505"/>
    <rect id="Rectangle_37155" data-name="Rectangle 37155" width="26" height="74" transform="translate(295 -354)" fill="#fff505"/>
    <rect id="Rectangle_37156" data-name="Rectangle 37156" width="26" height="74" transform="translate(345 -354)" fill="#87caff"/>
    <rect id="Rectangle_37157" data-name="Rectangle 37157" width="26" height="74" transform="translate(296 -378) rotate(-90)" fill="#fff505"/>
    <g id="Group_108075" data-name="Group 108075">
      <g id="Group_108070" data-name="Group 108070">
        <path id="Rectangle_37158" data-name="Rectangle 37158" d="M-.75-.75H26.711V25.435H-.75ZM25.211.75H.75V23.935H25.211Z" transform="translate(245.38 -427.47)" fill="#12263f"/>
        <path id="Rectangle_37159" data-name="Rectangle 37159" d="M-.75-.75H26.711V25.435H-.75ZM25.211.75H.75V23.935H25.211Z" transform="translate(245.38 -402.913)" fill="#12263f"/>
        <path id="Rectangle_37160" data-name="Rectangle 37160" d="M-.75-.75H26.711V25.435H-.75ZM25.211.75H.75V23.935H25.211Z" transform="translate(245.38 -378.356)" fill="#12263f"/>
        <path id="Rectangle_37161" data-name="Rectangle 37161" d="M-.75-.75H26.711V25.435H-.75ZM25.211.75H.75V23.935H25.211Z" transform="translate(245.38 -353.799)" fill="#12263f"/>
        <path id="Rectangle_37162" data-name="Rectangle 37162" d="M-.75-.75H26.711V25.435H-.75ZM25.211.75H.75V23.935H25.211Z" transform="translate(245.38 -329.242)" fill="#12263f"/>
        <path id="Rectangle_37163" data-name="Rectangle 37163" d="M-.75-.75H26.711V25.435H-.75ZM25.211.75H.75V23.935H25.211Z" transform="translate(245.38 -304.685)" fill="#12263f"/>
      </g>
      <g id="Group_108071" data-name="Group 108071">
        <path id="Rectangle_37164" data-name="Rectangle 37164" d="M-.75-.75H26.711V25.435H-.75ZM25.211.75H.75V23.935H25.211Z" transform="translate(394.658 -427.47)" fill="#12263f"/>
        <path id="Rectangle_37165" data-name="Rectangle 37165" d="M-.75-.75H26.711V25.435H-.75ZM25.211.75H.75V23.935H25.211Z" transform="translate(394.658 -402.913)" fill="#12263f"/>
        <path id="Rectangle_37166" data-name="Rectangle 37166" d="M-.75-.75H26.711V25.435H-.75ZM25.211.75H.75V23.935H25.211Z" transform="translate(394.658 -378.356)" fill="#12263f"/>
        <path id="Rectangle_37167" data-name="Rectangle 37167" d="M-.75-.75H26.711V25.435H-.75ZM25.211.75H.75V23.935H25.211Z" transform="translate(394.658 -353.799)" fill="#12263f"/>
        <path id="Rectangle_37168" data-name="Rectangle 37168" d="M-.75-.75H26.711V25.435H-.75ZM25.211.75H.75V23.935H25.211Z" transform="translate(394.658 -329.242)" fill="#12263f"/>
        <path id="Rectangle_37169" data-name="Rectangle 37169" d="M-.75-.75H26.711V25.435H-.75ZM25.211.75H.75V23.935H25.211Z" transform="translate(394.658 -304.685)" fill="#12263f"/>
      </g>
      <g id="Group_108072" data-name="Group 108072">
        <path id="Rectangle_37170" data-name="Rectangle 37170" d="M-.75-.75H26.711V25.435H-.75ZM25.211.75H.75V23.935H25.211Z" transform="translate(295.14 -353.799)" fill="#12263f"/>
        <path id="Rectangle_37171" data-name="Rectangle 37171" d="M-.75-.75H26.711V25.435H-.75ZM25.211.75H.75V23.935H25.211Z" transform="translate(295.14 -329.242)" fill="#12263f"/>
        <path id="Rectangle_37172" data-name="Rectangle 37172" d="M-.75-.75H26.711V25.435H-.75ZM25.211.75H.75V23.935H25.211Z" transform="translate(295.14 -304.685)" fill="#12263f"/>
      </g>
      <g id="Group_108073" data-name="Group 108073">
        <path id="Rectangle_37173" data-name="Rectangle 37173" d="M-.75-.75H26.711V25.435H-.75ZM25.211.75H.75V23.935H25.211Z" transform="translate(344.899 -353.799)" fill="#12263f"/>
        <path id="Rectangle_37174" data-name="Rectangle 37174" d="M-.75-.75H26.711V25.435H-.75ZM25.211.75H.75V23.935H25.211Z" transform="translate(344.899 -329.242)" fill="#12263f"/>
        <path id="Rectangle_37175" data-name="Rectangle 37175" d="M-.75-.75H26.711V25.435H-.75ZM25.211.75H.75V23.935H25.211Z" transform="translate(344.899 -304.685)" fill="#12263f"/>
      </g>
      <g id="Group_108074" data-name="Group 108074">
        <path id="Rectangle_37176" data-name="Rectangle 37176" d="M-.75-.75H26.711V25.435H-.75ZM25.211.75H.75V23.935H25.211Z" transform="translate(296.1 -377.909) rotate(-90)" fill="#12263f"/>
        <path id="Rectangle_37177" data-name="Rectangle 37177" d="M-.75-.75H26.711V25.435H-.75ZM25.211.75H.75V23.935H25.211Z" transform="translate(320.657 -377.909) rotate(-90)" fill="#12263f"/>
        <path id="Rectangle_37178" data-name="Rectangle 37178" d="M-.75-.75H26.711V25.435H-.75ZM25.211.75H.75V23.935H25.211Z" transform="translate(345.214 -377.909) rotate(-90)" fill="#12263f"/>
      </g>
      <path id="Path_156857" data-name="Path 156857" d="M380.38-364.923H280.428a.75.75,0,0,1-.75-.75v-45.433a.75.75,0,0,1,.75-.75H380.38a.75.75,0,0,1,.75.75v45.433A.75.75,0,0,1,380.38-364.923Zm-99.2-1.5H379.63v-43.933H281.178Z" fill="#c4337d"/>
      <path id="Line_182" data-name="Line 182" d="M0,90.5a.75.75,0,0,1-.75-.75V0A.75.75,0,0,1,0-.75.75.75,0,0,1,.75,0V89.752A.75.75,0,0,1,0,90.5Z" transform="translate(280.428 -369.752)" fill="#c4337d"/>
      <path id="Line_183" data-name="Line 183" d="M0,90.5a.75.75,0,0,1-.75-.75V0A.75.75,0,0,1,0-.75.75.75,0,0,1,.75,0V89.752A.75.75,0,0,1,0,90.5Z" transform="translate(380.38 -369.752)" fill="#c4337d"/>
      <path id="Line_184" data-name="Line 184" d="M0,86.423a.75.75,0,0,1-.75-.75V0A.75.75,0,0,1,0-.75.75.75,0,0,1,.75,0V85.673A.75.75,0,0,1,0,86.423Z" transform="translate(330.404 -365.673)" fill="#c4337d"/>
    </g>
  </g>
</svg>
