<svg xmlns="http://www.w3.org/2000/svg" width="40.571" height="50.25" viewBox="0 0 40.571 50.25">
  <g id="t1-t4" transform="translate(-49.434 0.125)">
    <path id="Path_156444" data-name="Path 156444" d="M68.421,0h1.838a10.2,10.2,0,0,1,8.714,5.4c.075.136.143.316.328.32A4.038,4.038,0,0,1,82.4,8.4a7.861,7.861,0,0,1,.218,2.53c-.007,1.013.024,2.027-.034,3.04a11.753,11.753,0,0,1-2.652,6.685,6.122,6.122,0,0,0-.54.649,4.581,4.581,0,0,0-.076.663,9.729,9.729,0,0,1-3.953,6.844c0,.658.009,1.317-.009,1.977,1.512.364,3.035.679,4.552,1.023a24.229,24.229,0,0,1,3.246.843,10.4,10.4,0,0,1,6.613,8.271,16.328,16.328,0,0,1,.111,2.434V50H49.559c0-2.508,0-5.016,0-7.523a10.649,10.649,0,0,1,.675-3.765,10.373,10.373,0,0,1,4.58-5.362,10.969,10.969,0,0,1,3.1-1.178c2.051-.459,4.1-.908,6.154-1.37q0-.995,0-1.988a10.777,10.777,0,0,1-1.81-1.713,9.581,9.581,0,0,1-2.177-5.516.671.671,0,0,0-.207-.5,11.7,11.7,0,0,1-3.047-7.507,15.3,15.3,0,0,1,.48-5.087A11.789,11.789,0,0,1,61.892,2.14,12.056,12.056,0,0,1,68.421,0m-8.1,5.939A10.514,10.514,0,0,0,58.428,12.5a10.536,10.536,0,0,0,1.615,6.175q0-2.484,0-4.967c1.923,0,3.846,0,5.769,0a7.559,7.559,0,0,0,4.2-1.3,7.909,7.909,0,0,0,2.476-2.73q.848,0,1.7,0a4.861,4.861,0,0,0,2.573,2.159,7.552,7.552,0,0,0,2.64.261q0,3.29,0,6.578A10.168,10.168,0,0,0,81,13.584c.027-1.274.008-2.549.012-3.822a2.463,2.463,0,0,0-1.028-2.055,2.9,2.9,0,0,0-1.912-.447,9.726,9.726,0,0,0-1.835-2.935,8.384,8.384,0,0,0-4.016-2.412,13.833,13.833,0,0,0-3.958-.284,10.255,10.255,0,0,0-7.939,4.311m13.046,5.386a11.488,11.488,0,0,1-.946,1.147,9.177,9.177,0,0,1-6.4,2.838c-1.454.029-2.908,0-4.362.014q0,2.054,0,4.108a14.027,14.027,0,0,0,.228,3.414,8.061,8.061,0,0,0,15.9-1.767c.015-2.463,0-4.926.007-7.39a6.3,6.3,0,0,1-4.419-2.365M65.689,29.757c0,.438,0,.876,0,1.313q2.013,1.685,4.031,3.361,2.016-1.679,4.031-3.36c0-.438,0-.877,0-1.314a9.874,9.874,0,0,1-3.475.858,9.746,9.746,0,0,1-4.586-.858m-2.322,2.857q.612,2.769,1.229,5.535,1.9-1.358,3.8-2.715c-1.235-1.038-2.484-2.061-3.714-3.105-.442.08-.879.19-1.318.285m11.38-.282c-1.224,1.048-2.476,2.063-3.707,3.1q1.9,1.358,3.8,2.715.618-2.767,1.232-5.535c-.442-.093-.879-.211-1.325-.282M58.2,33.762a9.139,9.139,0,0,0-3.235,1.395A8.8,8.8,0,0,0,51.4,40.422a10.455,10.455,0,0,0-.233,2.545q0,2.71,0,5.418,3.224,0,6.449,0,0-1.613,0-3.224c.538,0,1.075,0,1.613,0,0,1.075,0,2.15,0,3.226q3.661,0,7.319,0c.242-2.854.475-5.707.716-8.561q-.463-.472-.932-.937-1.395,1-2.788,1.991-.883-3.957-1.761-7.914-1.794.4-3.588.8m19.443-.795q-.88,3.957-1.761,7.913-1.395-.993-2.785-1.991c-.312.312-.625.622-.935.936.247,2.856.461,5.715.727,8.569,2.436-.02,4.872,0,7.309-.009,0-1.075,0-2.15,0-3.226.537,0,1.075,0,1.613,0q0,1.611,0,3.224h6.45c0-2.032.008-4.065-.007-6.1a8.816,8.816,0,0,0-6.816-8.473c-1.263-.294-2.531-.565-3.8-.847M67.67,37.938q.631.637,1.27,1.267c-.249,3.062-.512,6.121-.763,9.182h3.086c-.249-3.062-.519-6.122-.76-9.185.427-.416.844-.842,1.267-1.262q-1.024-.732-2.05-1.464C69.035,36.961,68.354,37.452,67.67,37.938Z" fill="#6e3dc6"/>
    <path id="Path_156444_-_Outline" data-name="Path 156444 - Outline" d="M68.419-.125h1.84a10.324,10.324,0,0,1,8.825,5.467l.029.054c.07.134.112.2.191.2l.018,0a4.183,4.183,0,0,1,3.2,2.767,6.11,6.11,0,0,1,.224,2.082c0,.16,0,.325,0,.486,0,.3,0,.609,0,.906,0,.7.006,1.428-.035,2.143a11.88,11.88,0,0,1-2.681,6.757c-.063.077-.131.151-.2.222a2.923,2.923,0,0,0-.323.4,2.961,2.961,0,0,0-.055.449c0,.059-.008.118-.014.177a9.873,9.873,0,0,1-3.953,6.9c0,.224,0,.452,0,.672,0,.374,0,.761-.006,1.143.908.218,1.835.421,2.731.617.564.124,1.148.252,1.721.382.262.061.529.119.787.175a16.73,16.73,0,0,1,2.476.673,10.525,10.525,0,0,1,6.692,8.37A15.626,15.626,0,0,1,90,43.237v6.888H49.434V50q0-1.464,0-2.928c0-1.506,0-3.064,0-4.6a10.714,10.714,0,0,1,.683-3.809,10.559,10.559,0,0,1,4.636-5.427,11.094,11.094,0,0,1,3.137-1.191q1.336-.3,2.673-.594c1.109-.246,2.255-.5,3.383-.754q0-.613,0-1.225v-.6a10.9,10.9,0,0,1-1.782-1.7,9.7,9.7,0,0,1-2.2-5.587v-.008a.544.544,0,0,0-.169-.407l-.005-.005a11.871,11.871,0,0,1-3.08-7.588A15.549,15.549,0,0,1,57.2,8.455a11.841,11.841,0,0,1,4.626-6.418,12.247,12.247,0,0,1,6.6-2.162ZM79.288,5.844a.5.5,0,0,1-.4-.332l-.028-.052A10.13,10.13,0,0,0,70.256.125H68.423a12,12,0,0,0-6.458,2.117,11.593,11.593,0,0,0-4.53,6.285,15.339,15.339,0,0,0-.476,5.049A11.617,11.617,0,0,0,59.97,21a.8.8,0,0,1,.242.582,9.447,9.447,0,0,0,2.148,5.439,10.827,10.827,0,0,0,1.79,1.694l.048.038v.724q0,.662,0,1.325v.1l-.1.022c-1.16.261-2.34.523-3.482.776q-1.337.3-2.673.594a10.847,10.847,0,0,0-3.067,1.164,10.307,10.307,0,0,0-4.526,5.3,10.466,10.466,0,0,0-.667,3.721c0,1.532,0,3.089,0,4.6q0,1.4,0,2.8h40.07V43.236a15.438,15.438,0,0,0-.11-2.291,10.275,10.275,0,0,0-6.534-8.172,16.544,16.544,0,0,0-2.44-.662c-.259-.056-.527-.115-.79-.176-.571-.13-1.154-.258-1.718-.381-.93-.2-1.892-.415-2.835-.642l-.1-.024,0-.1c.011-.412.01-.831.008-1.237,0-.242,0-.491,0-.737V28.75l.051-.037a9.622,9.622,0,0,0,3.9-6.754c.005-.057.009-.115.014-.172a3.061,3.061,0,0,1,.066-.509l0-.019.01-.017a3.038,3.038,0,0,1,.362-.451c.063-.069.128-.14.188-.212a11.628,11.628,0,0,0,2.624-6.613c.041-.707.038-1.429.035-2.127,0-.3,0-.6,0-.906,0-.161,0-.327,0-.488a5.924,5.924,0,0,0-.211-2A3.929,3.929,0,0,0,79.288,5.844ZM69.435,1.487a10.624,10.624,0,0,1,2.817.306,8.554,8.554,0,0,1,4.075,2.448,9.7,9.7,0,0,1,1.822,2.89c.07,0,.138,0,.2,0a2.764,2.764,0,0,1,1.7.48,2.581,2.581,0,0,1,1.079,2.158c0,.422,0,.853,0,1.271,0,.836.005,1.7-.013,2.552A10.248,10.248,0,0,1,79.5,18.743l-.23.359V16.483q0-2.13,0-4.261l-.531,0a5.807,5.807,0,0,1-2.027-.271,4.951,4.951,0,0,1-2.6-2.152q-.777,0-1.554,0a7.944,7.944,0,0,1-2.48,2.711,7.711,7.711,0,0,1-4.266,1.316c-.608,0-1.276,0-2.1,0H60.169c0,1.142,0,2.3,0,3.423V19.1l-.23-.352A10.7,10.7,0,0,1,58.3,12.5,10.63,10.63,0,0,1,60.22,5.866,10.417,10.417,0,0,1,68.256,1.5l.13,0C68.73,1.494,69.084,1.487,69.435,1.487Zm8.555,5.9-.035-.079a9.624,9.624,0,0,0-1.81-2.9,8.306,8.306,0,0,0-3.958-2.379,10.4,10.4,0,0,0-2.752-.3c-.348,0-.7.007-1.043.015l-.129,0a10.163,10.163,0,0,0-7.84,4.257A10.382,10.382,0,0,0,58.552,12.5v.009a10.553,10.553,0,0,0,1.365,5.73v-.978c0-1.163,0-2.366,0-3.549v-.125h.125q1.209,0,2.419,0h1.249c.826,0,1.493,0,2.1,0a7.461,7.461,0,0,0,4.129-1.274,7.74,7.74,0,0,0,2.438-2.69l.036-.062h.072q.849,0,1.7,0h.07l.036.06a4.722,4.722,0,0,0,2.505,2.1,5.513,5.513,0,0,0,1.944.257l.582,0h.2V12.1q0,2.193,0,4.386v1.748a9.979,9.979,0,0,0,1.352-4.652c.018-.846.016-1.709.013-2.544,0-.418,0-.85,0-1.275A2.332,2.332,0,0,0,79.91,7.81a2.715,2.715,0,0,0-1.834-.425Zm-4.621,3.735.1.123a6.208,6.208,0,0,0,4.33,2.318l.116.009v.116c0,1.005,0,2.028,0,3.016,0,1.434,0,2.916-.006,4.374a8.2,8.2,0,0,1-6.9,7.97,8.064,8.064,0,0,1-1.272.1,8.2,8.2,0,0,1-7.968-6.277,11.5,11.5,0,0,1-.232-2.9c0-.182,0-.365,0-.546v-1.37q0-1.37,0-2.739V15.2h.124c.582,0,1.164,0,1.746,0l.917,0c.681,0,1.2,0,1.7-.014a9,9,0,0,0,6.316-2.8l0,0a6.327,6.327,0,0,0,.652-.77c.091-.12.186-.245.283-.365Zm4.292,2.68a6.474,6.474,0,0,1-4.293-2.28c-.062.079-.123.159-.182.238a6.534,6.534,0,0,1-.676.8,9.253,9.253,0,0,1-6.49,2.875c-.495.01-1.02.014-1.7.014-.611,0-1.223,0-1.834,0l-.7,0q0,1.307,0,2.615v1.369c0,.182,0,.365,0,.548A11.313,11.313,0,0,0,62,22.816,7.952,7.952,0,0,0,69.728,28.9,7.912,7.912,0,0,0,75.6,26.291a7.945,7.945,0,0,0,2.059-5.213c.009-1.457.007-2.938.006-4.372C77.659,15.756,77.659,14.774,77.661,13.805Zm-12.1,15.76.175.077a9.852,9.852,0,0,0,3.944.868c.195,0,.391-.007.583-.02a9.74,9.74,0,0,0,3.433-.848l.174-.076v.19q0,.492,0,.986v.387l-.045.037c-1.063.889-2.145,1.79-3.192,2.662l-.919.765-.08-.067c-1.321-1.1-2.688-2.237-4.032-3.362l-.045-.037v-.387q0-.493,0-.986Zm8.061,1.448v-.271q0-.4,0-.8a9.872,9.872,0,0,1-3.345.794c-.195.013-.4.02-.6.02a10.057,10.057,0,0,1-3.87-.814q0,.4,0,.8v.27c1.3,1.09,2.625,2.19,3.906,3.257l.759-.632C71.511,32.777,72.578,31.889,73.626,31.013Zm-8.9,1.183.045.038c.724.615,1.467,1.233,2.185,1.83.5.417,1.02.848,1.528,1.275l.123.1-.131.094L65.2,37.872l-.684.488-.041-.184c-.363-1.623-.753-3.382-1.23-5.535l-.027-.123.123-.026c.149-.032.3-.066.446-.1.286-.065.582-.133.876-.186ZM68.2,35.427c-.468-.392-.943-.787-1.4-1.17-.7-.585-1.432-1.19-2.142-1.793-.27.051-.543.113-.807.173l-.326.074c.446,2.017.817,3.688,1.161,5.229l.377-.269ZM74.709,32.2l.057.009c.293.047.585.114.867.18.152.035.309.071.464.1l.124.026-.027.123c-.408,1.847-.827,3.722-1.232,5.535l-.041.184-.154-.11-1.574-1.124-2.226-1.591-.131-.094.123-.1c.518-.437,1.049-.878,1.562-1.3.706-.586,1.436-1.192,2.145-1.8Zm1.213.511-.345-.078c-.26-.06-.528-.122-.794-.167-.7.6-1.411,1.189-2.1,1.763-.472.392-.959.8-1.437,1.2l2.1,1.5,1.42,1.015C75.142,36.222,75.537,34.454,75.923,32.71Zm-14.036.107.568,2.553q.589,2.65,1.179,5.3.871-.62,1.741-1.243l.894-.639.086-.061.075.075c.348.347.639.639.933.938l.04.041,0,.057q-.171,2.027-.339,4.054c-.123,1.477-.25,3-.377,4.507l-.01.115H59.112v-.125q0-.664,0-1.329c0-.581,0-1.18,0-1.772H57.747v.683q0,1.208,0,2.416v.125h-.125q-3.224,0-6.449,0h-.125v-.125q0-1.548,0-3.1,0-1.161,0-2.322a10.362,10.362,0,0,1,.237-2.574A8.923,8.923,0,0,1,54.9,35.053a9.2,9.2,0,0,1,3.279-1.414c1.311-.294,2.607-.58,3.588-.8Zm1.585,8.274-.041-.184q-.612-2.741-1.22-5.483L61.7,33.115c-.966.213-2.208.487-3.466.769a8.957,8.957,0,0,0-3.191,1.375,8.673,8.673,0,0,0-3.514,5.19,10.135,10.135,0,0,0-.23,2.516q0,1.163,0,2.324,0,1.485,0,2.971,3.1,0,6.2,0,0-1.146,0-2.291v-.932h.124l.805,0h.933v.125c0,.633,0,1.276,0,1.9q0,.6,0,1.2h7.08c.124-1.465.248-2.952.367-4.392q.166-2,.334-4c-.258-.262-.517-.522-.816-.82l-.807.577q-.947.677-1.895,1.353Zm14.081-8.273.122.027,1.141.252c.872.192,1.774.39,2.658.6a8.941,8.941,0,0,1,6.913,8.593c.009,1.278.008,2.576.007,3.831q0,1.135,0,2.269v.125h-6.7v-.125q0-1.209,0-2.416v-.683H80.328c0,.592,0,1.191,0,1.772q0,.664,0,1.328v.124H80.2q-1.451,0-2.9,0H75.727c-1.135,0-2.008,0-2.833.01H72.78l-.011-.114c-.162-1.741-.307-3.511-.447-5.224-.09-1.1-.183-2.231-.279-3.346l0-.058.041-.041c.266-.269.538-.541.8-.8l.208-.207.086.061,1.166.834q.733.524,1.466,1.048.569-2.547,1.134-5.095l.586-2.634ZM88.143,48.26q0-1.072,0-2.144c0-1.255,0-2.552-.007-3.829a8.691,8.691,0,0,0-6.72-8.352c-.882-.205-1.783-.4-2.654-.595l-1.02-.225-.559,2.512q-.587,2.639-1.175,5.279l-.041.184-.153-.109Q75,40.4,74.194,39.824l-1.079-.772-.058.058c-.25.249-.508.506-.76.761.095,1.1.186,2.211.274,3.29.137,1.674.279,3.4.437,5.107.792-.006,1.637-.009,2.72-.009l3.147,0h1.2q0-.6,0-1.2c0-.622,0-1.265,0-1.9v-.125h.933l.806,0h.124v.932q0,1.145,0,2.291ZM69.72,36.322l.072.052q1.027.731,2.05,1.464l.12.086-.105.1q-.238.236-.474.474c-.245.246-.5.5-.752.748.138,1.754.288,3.536.433,5.26.107,1.267.217,2.577.322,3.866l.011.135H68.041l.011-.135c.116-1.409.236-2.841.352-4.227.134-1.6.273-3.264.406-4.9-.376-.372-.807-.8-1.229-1.226l-.1-.1.12-.085q.513-.364,1.024-.731t1.025-.731Zm1.857,1.633q-.928-.664-1.857-1.326-.477.338-.952.679l-.905.646c.4.406.81.81,1.165,1.161l.041.041,0,.058c-.134,1.652-.275,3.332-.411,4.956-.112,1.341-.228,2.726-.34,4.091h2.815c-.1-1.245-.208-2.508-.311-3.73-.147-1.743-.3-3.546-.438-5.32l0-.058.042-.041c.266-.259.533-.527.791-.786Z" fill="#6e3dc6"/>
  </g>
</svg>
