<svg xmlns="http://www.w3.org/2000/svg" width="55.841" height="50" viewBox="0 0 55.841 50">
  <g id="t1-t1" transform="translate(0 0)">
    <path id="Path_156392" data-name="Path 156392" d="M51.132,27.486a1.1,1.1,0,0,0-1.074-.686q-22.136,0-44.275,0a1.121,1.121,0,0,0-1.109.765q-1.7,4.244-3.4,8.489a2.836,2.836,0,0,0-.123,1.129c.007,1.781-.005,3.563.005,5.344a5.432,5.432,0,0,0,2.094,4.159q0,11.1,0,22.2c-.756.011-1.514-.023-2.27.013A1.11,1.11,0,0,0,0,69.84v5.976a1.126,1.126,0,0,0,.779.925,5.116,5.116,0,0,0,1.073.053q10.524,0,21.046,0a1.093,1.093,0,1,0,.01-2.179q-10.362,0-20.726,0,0-1.775,0-3.548,25.739,0,51.476,0,0,1.773,0,3.548-10.366,0-20.731,0a1.09,1.09,0,0,0-.689,1.986,2.17,2.17,0,0,0,1.243.2q10.143-.007,20.285,0a6.793,6.793,0,0,0,1.3-.053,1.174,1.174,0,0,0,.775-.853V69.818a1.118,1.118,0,0,0-.979-.923c-.757-.036-1.516,0-2.274-.013q0-11.1,0-22.2a5.41,5.41,0,0,0,2.094-4.16c.009-1.927,0-3.854,0-5.78a2.714,2.714,0,0,0-.309-1.15c-1.085-2.7-2.157-5.406-3.246-8.1M49.385,28.98q1.3,3.249,2.6,6.5-3.053,0-6.105,0-.869-3.249-1.731-6.5,2.619,0,5.241,0m-7.5,0q.867,3.249,1.732,6.5-3.09,0-6.182,0c-.287-2.166-.58-4.332-.865-6.5h5.315m-7.517,0q.434,3.249.866,6.5-3.11,0-6.221,0v-6.5q2.678,0,5.355,0m-7.537,0q0,3.251,0,6.5-3.11,0-6.22,0,.432-3.249.866-6.5,2.676,0,5.353,0m-7.556,0q-.427,3.251-.865,6.5-3.09,0-6.182,0,.862-3.251,1.732-6.5,2.657,0,5.315,0m-7.576,0q-.861,3.251-1.732,6.5-3.051,0-6.1,0,1.294-3.251,2.6-6.5,2.619,0,5.239,0M52.5,37.663c0,1.617.007,3.235,0,4.853a3.187,3.187,0,0,1-6.372-.1c0-1.586,0-3.173,0-4.76,2.126,0,4.251,0,6.377,0m-8.559,0c0,1.66.015,3.321-.01,4.98a3.185,3.185,0,0,1-6.354,0c-.027-1.659,0-3.32-.011-4.979q3.187,0,6.375,0m-8.556,0c-.008,1.656.014,3.311-.011,4.967a3.184,3.184,0,0,1-6.354.008c-.027-1.658-.005-3.317-.011-4.976,2.126,0,4.25,0,6.376,0m-8.561,0c0,1.623.009,3.246,0,4.869a3.186,3.186,0,0,1-6.369-.109c0-1.586,0-3.172,0-4.757,2.126,0,4.25,0,6.375,0m-8.556,0q0,2.05,0,4.1a4.9,4.9,0,0,1-.158,1.644,3.186,3.186,0,0,1-5.777.627,3.246,3.246,0,0,1-.442-1.72q0-2.326,0-4.652,3.189,0,6.375,0m-8.558,0c0,1.658.015,3.316-.01,4.973a3.184,3.184,0,0,1-6.354-.005c-.026-1.655,0-3.311-.012-4.966,2.126,0,4.25,0,6.376,0M50.405,47.682q0,10.6,0,21.2H47.357q0-8.435,0-16.87a1.118,1.118,0,0,0-.519-1.018,1.829,1.829,0,0,0-1.033-.168q-6.433,0-12.865,0a1.143,1.143,0,0,0-1.043.486,1.938,1.938,0,0,0-.188,1.136q0,8.216,0,16.432-13.134,0-26.266,0c-.014-7.067,0-14.135-.005-21.2a5.426,5.426,0,0,0,5.368-2.012,5.378,5.378,0,0,0,8.557,0,5.375,5.375,0,0,0,8.557,0,5.374,5.374,0,0,0,8.557,0,5.377,5.377,0,0,0,8.559,0,5.423,5.423,0,0,0,5.369,2.014M45.174,53.01q0,7.934,0,15.87c-3.762,0-7.524.009-11.287,0q.01-7.933,0-15.866Q39.533,53.009,45.174,53.01Z" transform="translate(0 -26.798)" fill="#6e3dc6"/>
    <path id="Path_156393" data-name="Path 156393" d="M276.983,247.145a4.955,4.955,0,0,0-.834-.034c-5.453.005-10.908,0-16.362.005a1.1,1.1,0,0,0-1.1,1.183c0,3.926-.007,7.853.005,11.779a1.092,1.092,0,0,0,1.1,1.076c5.527.012,11.056,0,16.583.007a1.651,1.651,0,0,0,.925-.167,1.117,1.117,0,0,0,.526-1.025V248.3a1.107,1.107,0,0,0-.841-1.154m-1.34,2.15q0,4.841,0,9.684c-1.4,0-2.8,0-4.2,0q-1.631-1.62-3.251-3.251a1.159,1.159,0,0,0-1.265-.393,1.093,1.093,0,0,0-.5,1.7c.62.667,1.287,1.291,1.923,1.945q-3.743,0-7.486,0,0-4.842,0-9.684Q268.255,249.293,275.643,249.294Z" transform="translate(-250.2 -223.081)" fill="#6e3dc6"/>
    <path id="Path_156394" data-name="Path 156394" d="M294.093,277.144a1.1,1.1,0,0,0-1.4.814,1.132,1.132,0,0,0,.361,1.061q2.128,2.128,4.259,4.256a1.089,1.089,0,1,0,1.543-1.536q-2.094-2.1-4.192-4.2A1.418,1.418,0,0,0,294.093,277.144Z" transform="translate(-275.267 -249.791)" fill="#6e3dc6"/>
    <path id="Path_156395" data-name="Path 156395" d="M247.651,465.169a1.088,1.088,0,1,0,.436,1.84A1.1,1.1,0,0,0,247.651,465.169Z" transform="translate(-219.446 -417.313)" fill="#6e3dc6"/>
  </g>
</svg>
