<svg xmlns="http://www.w3.org/2000/svg" xmlns:xlink="http://www.w3.org/1999/xlink" width="349.531" height="337" viewBox="0 0 349.531 337">
  <defs>
    <filter id="Path_156898" x="190.114" y="188.574" width="159.417" height="148.426" filterUnits="userSpaceOnUse">
      <feOffset dy="3" input="SourceAlpha"/>
      <feGaussianBlur stdDeviation="3" result="blur"/>
      <feFlood flood-opacity="0.161"/>
      <feComposite operator="in" in2="blur"/>
      <feComposite in="SourceGraphic"/>
    </filter>
    <filter id="Path_156901" x="0" y="0" width="159.417" height="148.426" filterUnits="userSpaceOnUse">
      <feOffset dy="3" input="SourceAlpha"/>
      <feGaussianBlur stdDeviation="3" result="blur-2"/>
      <feFlood flood-opacity="0.161"/>
      <feComposite operator="in" in2="blur-2"/>
      <feComposite in="SourceGraphic"/>
    </filter>
    <filter id="Path_156905" x="0" y="188.574" width="159.417" height="148.426" filterUnits="userSpaceOnUse">
      <feOffset dy="3" input="SourceAlpha"/>
      <feGaussianBlur stdDeviation="3" result="blur-3"/>
      <feFlood flood-opacity="0.161"/>
      <feComposite operator="in" in2="blur-3"/>
      <feComposite in="SourceGraphic"/>
    </filter>
    <filter id="Path_156910" x="190.114" y="0" width="159.417" height="148.426" filterUnits="userSpaceOnUse">
      <feOffset dy="3" input="SourceAlpha"/>
      <feGaussianBlur stdDeviation="3" result="blur-4"/>
      <feFlood flood-opacity="0.161"/>
      <feComposite operator="in" in2="blur-4"/>
      <feComposite in="SourceGraphic"/>
    </filter>
  </defs>
  <g id="t2-b2" transform="translate(-1924.269 -1893.621)">
    <g id="Group_108192" data-name="Group 108192" transform="translate(2123.383 2088.196)">
      <path id="Path_156897" data-name="Path 156897" d="M2303.121,2270.437H2202.7a14.011,14.011,0,0,1-12.251-20.81l50.208-90.469a14.011,14.011,0,0,1,24.5,0l50.208,90.469a14.011,14.011,0,0,1-12.251,20.81Z" transform="translate(-2182.204 -2146.308)" fill="#ffe400"/>
      <g id="Group_108191" data-name="Group 108191">
        <g transform="matrix(1, 0, 0, 1, -199.11, -194.57)" filter="url(#Path_156898)">
          <path id="Path_156898-2" data-name="Path 156898" d="M2306.241,2275.046H2195.713a15.422,15.422,0,0,1-13.485-22.906l55.264-99.58a15.422,15.422,0,0,1,26.97,0l55.265,99.58a15.423,15.423,0,0,1-13.485,22.906Zm-55.265-120.192a3.9,3.9,0,0,0-3.474,2.045l-56.614,102.012a3.973,3.973,0,0,0,3.474,5.9h113.229a3.972,3.972,0,0,0,3.474-5.9L2254.45,2156.9A3.894,3.894,0,0,0,2250.977,2154.855Z" transform="translate(-1981.15 -1950.05)"/>
        </g>
      </g>
      <path id="Path_156899" data-name="Path 156899" d="M2265.321,2196.471l11.988-.06-13.89,30.86,18.7-9.852-10.329,38.571,4.865-2.729-10.027,14.656-2.668-17.325,3.318,4.509,3.505-26.525-17.15,8.9Z" transform="translate(-2197.164 -2156.549)" fill-rule="evenodd"/>
      <path id="Path_156899_-_Outline" data-name="Path 156899 - Outline" d="M2277.643,2196.194l-13.771,30.595,18.578-9.79-10.324,38.553,5.222-2.93-10.854,15.865-.083-.538-2.8-18.192,3.521,4.785,3.381-25.585-17.226,8.941.137-.48,11.735-41.161h.162Zm-14.677,31.559,14.01-31.125-11.491.058-11.51,40.37,17.073-8.862-.054.41-3.575,27.055-3.115-4.233,2.452,15.921,9.2-13.447-4.508,2.529.132-.493,10.2-38.095Z" transform="translate(-2197.164 -2156.549)" fill="#2b2a29"/>
    </g>
    <g id="Group_108195" data-name="Group 108195" transform="translate(1933.268 1899.621)">
      <path id="Path_156900" data-name="Path 156900" d="M2056.121,2025.437H1955.7a14.011,14.011,0,0,1-12.251-20.81l50.208-90.469a14.011,14.011,0,0,1,24.5,0l50.209,90.469a14.011,14.011,0,0,1-12.251,20.81Z" transform="translate(-1935.204 -1901.308)" fill="#ffe400"/>
      <g id="Group_108193" data-name="Group 108193">
        <g transform="matrix(1, 0, 0, 1, -9, -6)" filter="url(#Path_156901)">
          <path id="Path_156901-2" data-name="Path 156901" d="M2059.242,2030.046H1948.713a15.422,15.422,0,0,1-13.485-22.906l55.264-99.58a15.422,15.422,0,0,1,26.97,0l55.265,99.58a15.423,15.423,0,0,1-13.485,22.906Zm-55.265-120.191a3.9,3.9,0,0,0-3.474,2.045l-56.614,102.012a3.972,3.972,0,0,0,3.474,5.9h113.229a3.972,3.972,0,0,0,3.474-5.9L2007.45,1911.9A3.894,3.894,0,0,0,2003.977,1909.855Z" transform="translate(-1924.27 -1893.62)"/>
        </g>
      </g>
      <g id="Group_108194" data-name="Group 108194" transform="translate(45.037 38.738)">
        <rect id="Rectangle_37314" data-name="Rectangle 37314" width="30.122" height="2.265" transform="translate(13.278 68.578)"/>
        <path id="Path_156902" data-name="Path 156902" d="M2027.406,2016.666c12-8.195,15.091-13.161,15.706-28.5.165-4.05-1.442,3.415-4.694,5.829,2.05-7.476,2.438-9.917-2.508-16.514.364,4.142-.077,5.594-2.836,8.905-.845-8.465-.5-12.187-6.07-18.944.147,3.793.674,5.056-1.1,8.661-1.219-5.879-4.183-9.671-5.927-15.039-1.431-4.4-1.074-6.878.545-11.112a59.518,59.518,0,0,0-3.173,5.255,16.035,16.035,0,0,0-1.46,4.545c-.791,4.726,1.111,8.49-.792,13.439-3.61-3.185-5.343-3.89-10.041-4.131,4.089,7.12,4.745,7.728,3.888,15.3-3.247-2.542-4.752-3.807-9.068-3.807,2.993,4.8,4.966,6.83,4.37,12.873-4.089-1.763-8.3-3.314-12.468-4.9,5.005,4.236,6.453,5.719,8.557,12.294a27.2,27.2,0,0,0,11.118,15.679Q2019.43,2016.585,2027.406,2016.666Z" transform="translate(-1991.781 -1949.95)" fill-rule="evenodd"/>
        <path id="Path_156903" data-name="Path 156903" d="M2026.639,2027.877c1.987-2.411,4.935-4.49,6.01-7.282,1.1-2.843.692-6.051.223-9.583q-.851,1.7-1.7,3.4c-.119-4.317.133-5.259-2.753-8.259q-.077,1.419-.162,2.835c-1.14-3.91-2.8-5.59-2.874-10.081a27.508,27.508,0,0,0-1.985,10.728c-1.625-2.12-2-3.382-4.856-3.239,1.969,3.237,2.121,4.191,1.293,8.016-.917-1.147-2.3-3.244-3.967-3.035,1.121,7.548,2.977,10.7,7.45,16.467Z" transform="translate(-1997.329 -1961.225)" fill="#ffe400" fill-rule="evenodd"/>
      </g>
    </g>
    <g id="Group_108199" data-name="Group 108199" transform="translate(1933.268 2088.196)">
      <path id="Path_156904" data-name="Path 156904" d="M2056.121,2270.437H1955.7a14.011,14.011,0,0,1-12.251-20.81l50.208-90.469a14.011,14.011,0,0,1,24.5,0l50.209,90.469a14.011,14.011,0,0,1-12.251,20.81Z" transform="translate(-1935.204 -2146.308)" fill="#ffe400"/>
      <g id="Group_108196" data-name="Group 108196">
        <g transform="matrix(1, 0, 0, 1, -9, -194.57)" filter="url(#Path_156905)">
          <path id="Path_156905-2" data-name="Path 156905" d="M2059.242,2275.046H1948.713a15.422,15.422,0,0,1-13.485-22.906l55.264-99.58a15.422,15.422,0,0,1,26.97,0l55.265,99.58a15.423,15.423,0,0,1-13.485,22.906Zm-55.265-120.192a3.9,3.9,0,0,0-3.474,2.045l-56.614,102.012a3.972,3.972,0,0,0,3.474,5.9h113.229a3.972,3.972,0,0,0,3.474-5.9L2007.45,2156.9A3.894,3.894,0,0,0,2003.977,2154.855Z" transform="translate(-1924.27 -1950.05)"/>
        </g>
      </g>
      <g id="Group_108198" data-name="Group 108198" transform="translate(34.849 46.213)">
        <g id="Group_108197" data-name="Group 108197">
          <path id="Path_156906" data-name="Path 156906" d="M2045.653,2228.862a5.315,5.315,0,1,1-4.3-6.165A5.315,5.315,0,0,1,2045.653,2228.862Z" transform="translate(-1991.571 -2208.797)" fill-rule="evenodd"/>
          <path id="Path_156907" data-name="Path 156907" d="M1981.419,2254.223a2.453,2.453,0,1,1-.84-4.834l12.207-2.15,6.811-16.355a4.529,4.529,0,0,1,1.731-2.1l12.661-8.408-2.5-6.777-9.058-4.254a2.458,2.458,0,1,1,2.084-4.454l9.961,4.681,0,.006a2.434,2.434,0,0,1,1.258,1.372c.705,1.9,4.276,9.067,4.251,10.578l-.958,15.858,6.706,6.044a2.457,2.457,0,0,1-3.287,3.652l-7.607-6.857,0,0a2.431,2.431,0,0,1-.8-2.023l.51-6.257-7.2,5.038,3.368,9.1a2.427,2.427,0,0,1,.068,1.477l.012,0-3.756,14.071a2.458,2.458,0,1,1-4.753-1.258l3.553-13.335-3.368-9.111-5.735,12.452a2.444,2.444,0,0,1-1.841,1.469Z" transform="translate(-1978.545 -2204.662)" fill-rule="evenodd"/>
        </g>
        <path id="Path_156908" data-name="Path 156908" d="M2033.235,2272.732h6.99v-5.2h15.647v5.2h6.987v5.2h-29.624Z" transform="translate(-1991.141 -2219.142)" fill-rule="evenodd"/>
      </g>
    </g>
    <g id="Group_108202" data-name="Group 108202" transform="translate(2123.383 1899.621)">
      <path id="Path_156909" data-name="Path 156909" d="M2303.121,2025.437H2202.7a14.011,14.011,0,0,1-12.251-20.81l50.208-90.469a14.011,14.011,0,0,1,24.5,0l50.208,90.469a14.011,14.011,0,0,1-12.251,20.81Z" transform="translate(-2182.204 -1901.308)" fill="#ffe400"/>
      <g id="Group_108200" data-name="Group 108200">
        <g transform="matrix(1, 0, 0, 1, -199.11, -6)" filter="url(#Path_156910)">
          <path id="Path_156910-2" data-name="Path 156910" d="M2306.241,2030.046H2195.713a15.422,15.422,0,0,1-13.485-22.906l55.264-99.58a15.422,15.422,0,0,1,26.97,0l55.265,99.58a15.423,15.423,0,0,1-13.485,22.906Zm-55.265-120.191a3.9,3.9,0,0,0-3.474,2.045l-56.614,102.012a3.973,3.973,0,0,0,3.474,5.9h113.229a3.972,3.972,0,0,0,3.474-5.9L2254.45,1911.9A3.894,3.894,0,0,0,2250.977,1909.855Z" transform="translate(-1981.15 -1893.62)"/>
        </g>
      </g>
      <g id="Group_108201" data-name="Group 108201" transform="translate(45.037 58.597)">
        <path id="Path_156911" data-name="Path 156911" d="M2270.425,1995.645a5.721,5.721,0,1,1-5.722,5.72A5.719,5.719,0,0,1,2270.425,1995.645Z" transform="translate(-2244.751 -1980.333)" fill-rule="evenodd"/>
        <path id="Path_156912" data-name="Path 156912" d="M2272.724,2013.047a8.882,8.882,0,0,1-8.86,0l-8.409,14.564a25.712,25.712,0,0,0,25.676,0Z" transform="translate(-2242.621 -1984.341)" fill-rule="evenodd"/>
        <path id="Path_156913" data-name="Path 156913" d="M2255.595,1996.784c0-.263.009-.518.029-.772a8.873,8.873,0,0,1,3.745-6.486l-9.641-13.774a25.638,25.638,0,0,0-10.947,21.032c0,.756.032,1.5.1,2.239l16.747-1.465C2255.6,1997.3,2255.595,1997.045,2255.595,1996.784Z" transform="translate(-2238.781 -1975.752)" fill-rule="evenodd"/>
        <path id="Path_156914" data-name="Path 156914" d="M2278.738,1989.526a8.852,8.852,0,0,1,3.775,7.258c0,.261-.009.518-.03.774l16.75,1.465c.062-.739.093-1.483.093-2.239a25.639,25.639,0,0,0-10.947-21.032Z" transform="translate(-2247.983 -1975.752)" fill-rule="evenodd"/>
      </g>
    </g>
  </g>
</svg>
