<svg xmlns="http://www.w3.org/2000/svg" xmlns:xlink="http://www.w3.org/1999/xlink" width="400" height="227" viewBox="0 0 400 227">
  <defs>
    <clipPath id="clip-path">
      <path id="Path_156765" data-name="Path 156765" d="M1911.706-1327.5h51.5l-25.75,37.5-25.75,37.5-25.75-37.5-25.75-37.5Zm87.5,170-25.75-37.5-25.75-37.5-25.75,37.5-25.75,37.5h103Zm-92.771-63.935-61.561-55.929-54.641,60.144,61.561,55.928Zm-76.779-69.754-12.45-11.311-54.641,60.143,12.451,11.312Zm182.55,92.9,61.561-55.928-54.641-60.144-61.561,55.929Zm76.778-69.753,12.451-11.312-54.641-60.143-12.45,11.311Z" fill="none"/>
    </clipPath>
  </defs>
  <g id="t2-m4" transform="translate(-1732 1360)">
    <rect id="Rectangle_36916" data-name="Rectangle 36916" width="400" height="227" transform="translate(1732 -1360)" fill="#ebf6ff"/>
    <g id="Group_107803" data-name="Group 107803">
      <rect id="Rectangle_36917" data-name="Rectangle 36917" width="384" height="3" transform="translate(1739.999 -1352.498)" fill="#12263f"/>
      <rect id="Rectangle_36918" data-name="Rectangle 36918" width="25" height="3" transform="translate(1742.999 -1352.497) rotate(90)" fill="#12263f"/>
      <rect id="Rectangle_36919" data-name="Rectangle 36919" width="117" height="3" transform="translate(2124 -1352.5) rotate(90)" fill="#12263f"/>
      <rect id="Rectangle_36920" data-name="Rectangle 36920" width="384" height="3" transform="translate(2124 -1140.502) rotate(-180)" fill="#12263f"/>
      <rect id="Rectangle_36921" data-name="Rectangle 36921" width="46.992" height="3" transform="translate(2121.001 -1140.506) rotate(-90)" fill="#12263f"/>
      <rect id="Rectangle_36922" data-name="Rectangle 36922" width="141.998" height="3" transform="translate(1739.999 -1140.5) rotate(-90)" fill="#12263f"/>
    </g>
    <path id="Path_156764" data-name="Path 156764" d="M1911.706-1327.5h51.5l-25.75,37.5-25.75,37.5-25.75-37.5-25.75-37.5Zm87.5,170-25.75-37.5-25.75-37.5-25.75,37.5-25.75,37.5h103Zm-92.771-63.935-61.561-55.929-54.641,60.144,61.561,55.928Zm-76.779-69.754-12.45-11.311-54.641,60.143,12.451,11.312Zm182.55,92.9,61.561-55.928-54.641-60.144-61.561,55.929Zm76.778-69.753,12.451-11.312-54.641-60.143-12.45,11.311Z" fill="#ba68c8"/>
    <g id="Group_107858" data-name="Group 107858">
      <g id="Group_107857" data-name="Group 107857" clip-path="url(#clip-path)">
        <g id="Group_107856" data-name="Group 107856" opacity="0.4" style="mix-blend-mode: multiply;isolation: isolate">
          <g id="Group_107829" data-name="Group 107829">
            <g id="Group_107804" data-name="Group 107804">
              <rect id="Rectangle_36923" data-name="Rectangle 36923" width="368.07" height="0.62" transform="matrix(0.707, -0.707, 0.707, 0.707, 1924.009, -972.17)" fill="#ba68c8"/>
            </g>
            <g id="Group_107805" data-name="Group 107805">
              <rect id="Rectangle_36924" data-name="Rectangle 36924" width="368.07" height="0.62" transform="translate(1914.272 -981.908) rotate(-45)" fill="#ba68c8"/>
            </g>
            <g id="Group_107806" data-name="Group 107806">
              <rect id="Rectangle_36925" data-name="Rectangle 36925" width="368.07" height="0.62" transform="translate(1904.547 -991.633) rotate(-45)" fill="#ba68c8"/>
            </g>
            <g id="Group_107807" data-name="Group 107807">
              <rect id="Rectangle_36926" data-name="Rectangle 36926" width="368.07" height="0.62" transform="matrix(0.707, -0.707, 0.707, 0.707, 1894.834, -1001.345)" fill="#ba68c8"/>
            </g>
            <g id="Group_107808" data-name="Group 107808">
              <rect id="Rectangle_36927" data-name="Rectangle 36927" width="368.07" height="0.62" transform="translate(1885.097 -1011.083) rotate(-45)" fill="#ba68c8"/>
            </g>
            <g id="Group_107809" data-name="Group 107809">
              <rect id="Rectangle_36928" data-name="Rectangle 36928" width="368.07" height="0.62" transform="matrix(0.707, -0.707, 0.707, 0.707, 1875.359, -1020.82)" fill="#ba68c8"/>
            </g>
            <g id="Group_107810" data-name="Group 107810">
              <rect id="Rectangle_36929" data-name="Rectangle 36929" width="368.07" height="0.62" transform="matrix(0.707, -0.707, 0.707, 0.707, 1865.659, -1030.521)" fill="#ba68c8"/>
            </g>
            <g id="Group_107811" data-name="Group 107811">
              <rect id="Rectangle_36930" data-name="Rectangle 36930" width="368.07" height="0.62" transform="translate(1855.922 -1040.258) rotate(-45)" fill="#ba68c8"/>
            </g>
            <g id="Group_107812" data-name="Group 107812">
              <rect id="Rectangle_36931" data-name="Rectangle 36931" width="368.07" height="0.62" transform="matrix(0.707, -0.707, 0.707, 0.707, 1846.184, -1049.995)" fill="#ba68c8"/>
            </g>
            <g id="Group_107813" data-name="Group 107813">
              <rect id="Rectangle_36932" data-name="Rectangle 36932" width="368.07" height="0.62" transform="matrix(0.707, -0.707, 0.707, 0.707, 1836.484, -1059.696)" fill="#ba68c8"/>
            </g>
            <g id="Group_107814" data-name="Group 107814">
              <rect id="Rectangle_36933" data-name="Rectangle 36933" width="368.07" height="0.62" transform="translate(1826.746 -1069.433) rotate(-45)" fill="#ba68c8"/>
            </g>
            <g id="Group_107815" data-name="Group 107815">
              <rect id="Rectangle_36934" data-name="Rectangle 36934" width="368.07" height="0.62" transform="matrix(0.707, -0.707, 0.707, 0.707, 1817.009, -1079.17)" fill="#ba68c8"/>
            </g>
            <g id="Group_107816" data-name="Group 107816">
              <rect id="Rectangle_36935" data-name="Rectangle 36935" width="368.07" height="0.62" transform="translate(1807.296 -1088.883) rotate(-45)" fill="#ba68c8"/>
            </g>
            <g id="Group_107817" data-name="Group 107817">
              <rect id="Rectangle_36936" data-name="Rectangle 36936" width="368.07" height="0.62" transform="translate(1797.571 -1098.608) rotate(-45)" fill="#ba68c8"/>
            </g>
            <g id="Group_107818" data-name="Group 107818">
              <rect id="Rectangle_36937" data-name="Rectangle 36937" width="368.07" height="0.62" transform="matrix(0.707, -0.707, 0.707, 0.707, 1787.834, -1108.346)" fill="#ba68c8"/>
            </g>
            <g id="Group_107819" data-name="Group 107819">
              <rect id="Rectangle_36938" data-name="Rectangle 36938" width="368.07" height="0.62" transform="translate(1778.121 -1118.058) rotate(-45)" fill="#ba68c8"/>
            </g>
            <g id="Group_107820" data-name="Group 107820">
              <rect id="Rectangle_36939" data-name="Rectangle 36939" width="368.07" height="0.62" transform="matrix(0.707, -0.707, 0.707, 0.707, 1768.408, -1127.771)" fill="#ba68c8"/>
            </g>
            <g id="Group_107821" data-name="Group 107821">
              <rect id="Rectangle_36940" data-name="Rectangle 36940" width="368.07" height="0.62" transform="translate(1758.671 -1137.508) rotate(-45)" fill="#ba68c8"/>
            </g>
            <g id="Group_107822" data-name="Group 107822">
              <rect id="Rectangle_36941" data-name="Rectangle 36941" width="368.07" height="0.62" transform="translate(1748.946 -1147.233) rotate(-45)" fill="#ba68c8"/>
            </g>
            <g id="Group_107823" data-name="Group 107823">
              <rect id="Rectangle_36942" data-name="Rectangle 36942" width="368.07" height="0.62" transform="matrix(0.707, -0.707, 0.707, 0.707, 1739.233, -1156.946)" fill="#ba68c8"/>
            </g>
            <g id="Group_107824" data-name="Group 107824">
              <rect id="Rectangle_36943" data-name="Rectangle 36943" width="368.07" height="0.62" transform="translate(1729.496 -1166.684) rotate(-45)" fill="#ba68c8"/>
            </g>
            <g id="Group_107825" data-name="Group 107825">
              <rect id="Rectangle_36944" data-name="Rectangle 36944" width="368.07" height="0.62" transform="matrix(0.707, -0.707, 0.707, 0.707, 1719.759, -1176.421)" fill="#ba68c8"/>
            </g>
            <g id="Group_107826" data-name="Group 107826">
              <rect id="Rectangle_36945" data-name="Rectangle 36945" width="368.07" height="0.62" transform="matrix(0.707, -0.707, 0.707, 0.707, 1710.058, -1186.121)" fill="#ba68c8"/>
            </g>
            <g id="Group_107827" data-name="Group 107827">
              <rect id="Rectangle_36946" data-name="Rectangle 36946" width="368.07" height="0.62" transform="translate(1700.321 -1195.859) rotate(-45)" fill="#ba68c8"/>
            </g>
            <g id="Group_107828" data-name="Group 107828">
              <rect id="Rectangle_36947" data-name="Rectangle 36947" width="368.07" height="0.62" transform="matrix(0.707, -0.707, 0.707, 0.707, 1690.583, -1205.596)" fill="#ba68c8"/>
            </g>
          </g>
          <g id="Group_107855" data-name="Group 107855">
            <g id="Group_107830" data-name="Group 107830">
              <rect id="Rectangle_36948" data-name="Rectangle 36948" width="368.07" height="0.62" transform="translate(1919.558 -977.09) rotate(-45)" fill="#ba68c8"/>
            </g>
            <g id="Group_107831" data-name="Group 107831">
              <rect id="Rectangle_36949" data-name="Rectangle 36949" width="368.07" height="0.62" transform="matrix(0.707, -0.707, 0.707, 0.707, 1909.821, -986.827)" fill="#ba68c8"/>
            </g>
            <g id="Group_107832" data-name="Group 107832">
              <rect id="Rectangle_36950" data-name="Rectangle 36950" width="368.07" height="0.62" transform="matrix(0.707, -0.707, 0.707, 0.707, 1900.121, -996.528)" fill="#ba68c8"/>
            </g>
            <g id="Group_107833" data-name="Group 107833">
              <rect id="Rectangle_36951" data-name="Rectangle 36951" width="368.07" height="0.62" transform="translate(1890.383 -1006.265) rotate(-45)" fill="#ba68c8"/>
            </g>
            <g id="Group_107834" data-name="Group 107834">
              <rect id="Rectangle_36952" data-name="Rectangle 36952" width="368.07" height="0.62" transform="matrix(0.707, -0.707, 0.707, 0.707, 1880.646, -1016.003)" fill="#ba68c8"/>
            </g>
            <g id="Group_107835" data-name="Group 107835">
              <rect id="Rectangle_36953" data-name="Rectangle 36953" width="368.07" height="0.62" transform="translate(1870.933 -1025.715) rotate(-45)" fill="#ba68c8"/>
            </g>
            <g id="Group_107836" data-name="Group 107836">
              <rect id="Rectangle_36954" data-name="Rectangle 36954" width="368.07" height="0.62" transform="matrix(0.707, -0.707, 0.707, 0.707, 1861.22, -1035.428)" fill="#ba68c8"/>
            </g>
            <g id="Group_107837" data-name="Group 107837">
              <rect id="Rectangle_36955" data-name="Rectangle 36955" width="368.07" height="0.62" transform="matrix(0.707, -0.707, 0.707, 0.707, 1851.471, -1045.178)" fill="#ba68c8"/>
            </g>
            <g id="Group_107838" data-name="Group 107838">
              <rect id="Rectangle_36956" data-name="Rectangle 36956" width="368.07" height="0.62" transform="translate(1841.758 -1054.89) rotate(-45)" fill="#ba68c8"/>
            </g>
            <g id="Group_107839" data-name="Group 107839">
              <rect id="Rectangle_36957" data-name="Rectangle 36957" width="368.07" height="0.62" transform="matrix(0.707, -0.707, 0.707, 0.707, 1832.045, -1064.603)" fill="#ba68c8"/>
            </g>
            <g id="Group_107840" data-name="Group 107840">
              <rect id="Rectangle_36958" data-name="Rectangle 36958" width="368.07" height="0.62" transform="translate(1822.308 -1074.341) rotate(-45)" fill="#ba68c8"/>
            </g>
            <g id="Group_107841" data-name="Group 107841">
              <rect id="Rectangle_36959" data-name="Rectangle 36959" width="368.07" height="0.62" transform="translate(1812.583 -1084.066) rotate(-45)" fill="#ba68c8"/>
            </g>
            <g id="Group_107842" data-name="Group 107842">
              <rect id="Rectangle_36960" data-name="Rectangle 36960" width="368.07" height="0.62" transform="matrix(0.707, -0.707, 0.707, 0.707, 1802.87, -1093.778)" fill="#ba68c8"/>
            </g>
            <g id="Group_107843" data-name="Group 107843">
              <rect id="Rectangle_36961" data-name="Rectangle 36961" width="368.07" height="0.62" transform="translate(1793.133 -1103.516) rotate(-45)" fill="#ba68c8"/>
            </g>
            <g id="Group_107844" data-name="Group 107844">
              <rect id="Rectangle_36962" data-name="Rectangle 36962" width="368.07" height="0.62" transform="matrix(0.707, -0.707, 0.707, 0.707, 1783.395, -1113.253)" fill="#ba68c8"/>
            </g>
            <g id="Group_107845" data-name="Group 107845">
              <rect id="Rectangle_36963" data-name="Rectangle 36963" width="368.07" height="0.62" transform="matrix(0.707, -0.707, 0.707, 0.707, 1773.695, -1122.953)" fill="#ba68c8"/>
            </g>
            <g id="Group_107846" data-name="Group 107846">
              <rect id="Rectangle_36964" data-name="Rectangle 36964" width="368.07" height="0.62" transform="translate(1763.957 -1132.691) rotate(-45)" fill="#ba68c8"/>
            </g>
            <g id="Group_107847" data-name="Group 107847">
              <rect id="Rectangle_36965" data-name="Rectangle 36965" width="368.07" height="0.62" transform="matrix(0.707, -0.707, 0.707, 0.707, 1754.22, -1142.428)" fill="#ba68c8"/>
            </g>
            <g id="Group_107848" data-name="Group 107848">
              <rect id="Rectangle_36966" data-name="Rectangle 36966" width="368.07" height="0.62" transform="translate(1744.508 -1152.141) rotate(-45)" fill="#ba68c8"/>
            </g>
            <g id="Group_107849" data-name="Group 107849">
              <rect id="Rectangle_36967" data-name="Rectangle 36967" width="368.07" height="0.62" transform="translate(1734.782 -1161.866) rotate(-45)" fill="#ba68c8"/>
            </g>
            <g id="Group_107850" data-name="Group 107850">
              <rect id="Rectangle_36968" data-name="Rectangle 36968" width="368.07" height="0.62" transform="matrix(0.707, -0.707, 0.707, 0.707, 1725.045, -1171.603)" fill="#ba68c8"/>
            </g>
            <g id="Group_107851" data-name="Group 107851">
              <rect id="Rectangle_36969" data-name="Rectangle 36969" width="368.07" height="0.62" transform="translate(1715.332 -1181.316) rotate(-45)" fill="#ba68c8"/>
            </g>
            <g id="Group_107852" data-name="Group 107852">
              <rect id="Rectangle_36970" data-name="Rectangle 36970" width="368.07" height="0.62" transform="translate(1705.607 -1191.041) rotate(-45)" fill="#ba68c8"/>
            </g>
            <g id="Group_107853" data-name="Group 107853">
              <rect id="Rectangle_36971" data-name="Rectangle 36971" width="368.07" height="0.62" transform="translate(1695.882 -1200.766) rotate(-45)" fill="#ba68c8"/>
            </g>
            <g id="Group_107854" data-name="Group 107854">
              <rect id="Rectangle_36972" data-name="Rectangle 36972" width="368.07" height="0.62" transform="translate(1686.157 -1210.491) rotate(-45)" fill="#ba68c8"/>
            </g>
          </g>
        </g>
      </g>
    </g>
    <path id="Path_156766" data-name="Path 156766" d="M2046.848-1340.63l55.717,61.327-13.635,12.388-55.716-61.328Zm53.457,61.219-53.565-58.959-11.266,10.235,53.564,58.96ZM1858.686-1328.3h106.04l-.86,1.253-52.16,75.96Zm103,1.6h-99.96l49.98,72.787Zm57.494,11.206,55.717,61.328-62.745,57-.538-.592-55.179-60.735Zm53.457,61.22-53.565-58.96-60.377,54.853,53.565,58.959Zm-255.485-49.356,13.634,12.387-.538.592-55.178,60.736-13.635-12.388.538-.592Zm11.374,12.5-11.266-10.235-53.565,58.959,11.267,10.236Zm16.294,12.641,62.745,57-55.717,61.327-.592-.538-62.153-56.466.538-.592Zm60.485,57.113-60.377-54.853-53.565,58.96,60.377,54.852Zm42.4-12.532,53.02,77.213h-106.04l.86-1.253Zm49.98,75.613-49.98-72.787-49.98,72.787Z" fill="#12263f"/>
  </g>
</svg>
