<svg xmlns="http://www.w3.org/2000/svg" width="483.25" height="337.25" viewBox="0 0 483.25 337.25">
  <g id="t2-s1" transform="translate(-716.875 549.125)">
    <rect id="Rectangle_36620" data-name="Rectangle 36620" width="481" height="335" transform="translate(718 -548)" fill="#fffee6"/>
    <path id="Rectangle_36620_-_Outline" data-name="Rectangle 36620 - Outline" d="M-1.125-1.125h483.25v337.25H-1.125Zm481,2.25H1.125v332.75h478.75Z" transform="translate(718 -548)" fill="#12263f"/>
    <rect id="Rectangle_36621" data-name="Rectangle 36621" width="51" height="262" transform="translate(773 -498)" fill="#fff505"/>
    <rect id="Rectangle_36622" data-name="Rectangle 36622" width="51" height="262" transform="translate(881 -498)" fill="#5c22c3"/>
    <rect id="Rectangle_36623" data-name="Rectangle 36623" width="51" height="262" transform="translate(989 -498)" fill="#64b5f6"/>
    <rect id="Rectangle_36624" data-name="Rectangle 36624" width="51" height="262" transform="translate(1097 -498)" fill="#ba68c8"/>
    <path id="Path_157286" data-name="Path 157286" d="M8.367-2.637H3.744L2.865,0H.062L4.825-12.8H7.269L12.059,0h-2.8ZM4.456-4.772h3.2L6.047-9.562ZM15.047-9.51l.079,1.063a3.342,3.342,0,0,1,2.733-1.239,2.536,2.536,0,0,1,2.522,1.45,3.265,3.265,0,0,1,2.856-1.45,2.836,2.836,0,0,1,2.3.9A4.141,4.141,0,0,1,26.3-6.073V0H23.748V-6.078a1.818,1.818,0,0,0-.316-1.185,1.4,1.4,0,0,0-1.116-.374,1.585,1.585,0,0,0-1.582,1.092L20.742,0H18.2V-6.07a1.8,1.8,0,0,0-.325-1.2,1.414,1.414,0,0,0-1.107-.37,1.645,1.645,0,0,0-1.564.9V0h-2.54V-9.51ZM36.809-4.667a5.7,5.7,0,0,1-1,3.52A3.2,3.2,0,0,1,33.117.176a2.963,2.963,0,0,1-2.329-1V3.656h-2.54V-9.51H30.6l.088.932A2.985,2.985,0,0,1,33.1-9.686a3.22,3.22,0,0,1,2.733,1.3A5.858,5.858,0,0,1,36.809-4.8Zm-2.54-.194a3.763,3.763,0,0,0-.47-2.054,1.53,1.53,0,0,0-1.367-.723,1.662,1.662,0,0,0-1.644.917v3.906a1.691,1.691,0,0,0,1.661.943Q34.269-1.872,34.269-4.861ZM41.063,0H38.514V-13.5h2.549Zm4.772,0H43.286V-9.51h2.549Zm-2.7-11.971a1.251,1.251,0,0,1,.382-.94,1.436,1.436,0,0,1,1.042-.369,1.44,1.44,0,0,1,1.037.369,1.244,1.244,0,0,1,.387.94,1.247,1.247,0,0,1-.391.949,1.443,1.443,0,0,1-1.033.369,1.443,1.443,0,0,1-1.033-.369A1.247,1.247,0,0,1,43.137-11.971Zm7.831.123V-9.51h1.626v1.863H50.968V-2.9a1.133,1.133,0,0,0,.2.756,1.015,1.015,0,0,0,.773.229,4.051,4.051,0,0,0,.747-.062V-.053a5.229,5.229,0,0,1-1.538.229,2.425,2.425,0,0,1-2.725-2.7V-7.646H47.039V-9.51h1.389v-2.338ZM59.7-.967A3.185,3.185,0,0,1,57.1.176,3,3,0,0,1,54.769-.7a3.752,3.752,0,0,1-.822-2.575V-9.51h2.54v6.151q0,1.487,1.354,1.487a1.834,1.834,0,0,0,1.775-.9V-9.51h2.549V0H59.774Zm3.981-3.858a5.731,5.731,0,0,1,1-3.542,3.237,3.237,0,0,1,2.729-1.318,2.913,2.913,0,0,1,2.294,1.037V-13.5h2.549V0H69.961l-.123-1.011A2.989,2.989,0,0,1,67.395.176,3.228,3.228,0,0,1,64.7-1.147,5.916,5.916,0,0,1,63.686-4.825Zm2.54.181a3.775,3.775,0,0,0,.466,2.057,1.516,1.516,0,0,0,1.354.715,1.7,1.7,0,0,0,1.661-1V-6.64a1.675,1.675,0,0,0-1.644-1Q66.226-7.638,66.226-4.644Z" transform="translate(923.876 -517.824)" fill="#12263f"/>
    <path id="Path_157287" data-name="Path 157287" d="M3.779-4.509V0H1.143V-12.8H6.135a5.776,5.776,0,0,1,2.536.527,3.886,3.886,0,0,1,1.683,1.5,4.178,4.178,0,0,1,.589,2.21A3.674,3.674,0,0,1,9.655-5.594,5.363,5.363,0,0,1,6.091-4.509Zm0-2.136H6.135a2.316,2.316,0,0,0,1.6-.492,1.79,1.79,0,0,0,.549-1.406,2.111,2.111,0,0,0-.554-1.521,2.068,2.068,0,0,0-1.529-.6H3.779Zm14.15-.483a6.9,6.9,0,0,0-.914-.07,1.86,1.86,0,0,0-1.89.976V0h-2.54V-9.51h2.4l.07,1.134a2.354,2.354,0,0,1,2.118-1.31,2.662,2.662,0,0,1,.791.114Zm.51,2.285a5.64,5.64,0,0,1,.545-2.522,3.989,3.989,0,0,1,1.569-1.714,4.577,4.577,0,0,1,2.377-.606,4.33,4.33,0,0,1,3.142,1.178,4.727,4.727,0,0,1,1.358,3.2l.018.65a4.97,4.97,0,0,1-1.222,3.511A4.247,4.247,0,0,1,22.948.176a4.268,4.268,0,0,1-3.283-1.318,5.058,5.058,0,0,1-1.226-3.586Zm2.54.18a3.555,3.555,0,0,0,.51,2.073,1.682,1.682,0,0,0,1.459.717,1.686,1.686,0,0,0,1.441-.709,3.89,3.89,0,0,0,.519-2.267,3.519,3.519,0,0,0-.519-2.06,1.686,1.686,0,0,0-1.459-.731,1.658,1.658,0,0,0-1.441.726A3.955,3.955,0,0,0,20.979-4.662ZM29.707,0V-7.646H28.292V-9.51h1.415v-.809a3.283,3.283,0,0,1,.918-2.483,3.557,3.557,0,0,1,2.571-.883,5.987,5.987,0,0,1,1.292.174l-.026,1.953a3.238,3.238,0,0,0-.773-.079q-1.433,0-1.433,1.356v.771h1.89v1.863h-1.89V0ZM41.159-.967a3.185,3.185,0,0,1-2.6,1.143A3,3,0,0,1,36.224-.7,3.752,3.752,0,0,1,35.4-3.278V-9.51h2.54v6.151q0,1.487,1.354,1.487a1.834,1.834,0,0,0,1.775-.9V-9.51H43.62V0H41.229ZM47.874-9.51l.079,1.1a3.32,3.32,0,0,1,2.733-1.274,2.759,2.759,0,0,1,2.25.888,4.142,4.142,0,0,1,.756,2.654V0h-2.54V-6.1A1.654,1.654,0,0,0,50.8-7.272a1.572,1.572,0,0,0-1.169-.366,1.747,1.747,0,0,0-1.608.916V0h-2.54V-9.51Zm7.348,4.685a5.731,5.731,0,0,1,1-3.542,3.237,3.237,0,0,1,2.729-1.318,2.913,2.913,0,0,1,2.294,1.037V-13.5h2.549V0H61.5l-.123-1.011A2.989,2.989,0,0,1,58.931.176a3.228,3.228,0,0,1-2.694-1.323A5.916,5.916,0,0,1,55.222-4.825Zm2.54.181a3.775,3.775,0,0,0,.466,2.057,1.516,1.516,0,0,0,1.354.715,1.7,1.7,0,0,0,1.661-1V-6.64a1.675,1.675,0,0,0-1.644-1Q57.762-7.638,57.762-4.644ZM68.44,0H65.892V-9.51H68.44Zm-2.7-11.971a1.251,1.251,0,0,1,.382-.94,1.436,1.436,0,0,1,1.042-.369,1.44,1.44,0,0,1,1.037.369,1.244,1.244,0,0,1,.387.94,1.247,1.247,0,0,1-.391.949,1.443,1.443,0,0,1-1.033.369,1.443,1.443,0,0,1-1.033-.369A1.247,1.247,0,0,1,65.742-11.971Zm4.395,7.146a5.731,5.731,0,0,1,1-3.542,3.237,3.237,0,0,1,2.729-1.318,2.913,2.913,0,0,1,2.294,1.037V-13.5h2.549V0H76.412l-.123-1.011A2.989,2.989,0,0,1,73.846.176a3.228,3.228,0,0,1-2.694-1.323A5.916,5.916,0,0,1,70.137-4.825Zm2.54.181a3.775,3.775,0,0,0,.466,2.057,1.516,1.516,0,0,0,1.354.715,1.7,1.7,0,0,0,1.661-1V-6.64a1.675,1.675,0,0,0-1.644-1Q72.677-7.638,72.677-4.644ZM86.186,0a2.821,2.821,0,0,1-.255-.853,3.073,3.073,0,0,1-2.4,1.028,3.376,3.376,0,0,1-2.316-.809A2.6,2.6,0,0,1,80.3-2.672a2.687,2.687,0,0,1,1.121-2.32,5.529,5.529,0,0,1,3.239-.817h1.169v-.545a1.567,1.567,0,0,0-.338-1.055,1.331,1.331,0,0,0-1.068-.4,1.513,1.513,0,0,0-1.006.308,1.045,1.045,0,0,0-.365.844h-2.54a2.551,2.551,0,0,1,.51-1.529,3.37,3.37,0,0,1,1.441-1.1,5.253,5.253,0,0,1,2.092-.4,4.15,4.15,0,0,1,2.791.883,3.09,3.09,0,0,1,1.033,2.483V-2.2a4.546,4.546,0,0,0,.378,2.048V0Zm-2.1-1.767a2.188,2.188,0,0,0,1.037-.25,1.645,1.645,0,0,0,.7-.672V-4.324h-.949q-1.907,0-2.03,1.318l-.009.149a1.017,1.017,0,0,0,.334.782A1.3,1.3,0,0,0,84.085-1.767ZM89.93-4.825a5.731,5.731,0,0,1,1-3.542,3.237,3.237,0,0,1,2.729-1.318A2.913,2.913,0,0,1,95.95-8.648V-13.5H98.5V0H96.205l-.123-1.011A2.989,2.989,0,0,1,93.639.176a3.228,3.228,0,0,1-2.694-1.323A5.916,5.916,0,0,1,89.93-4.825Zm2.54.181a3.775,3.775,0,0,0,.466,2.057,1.516,1.516,0,0,0,1.354.715,1.7,1.7,0,0,0,1.661-1V-6.64a1.675,1.675,0,0,0-1.644-1Q92.47-7.638,92.47-4.644Z" transform="translate(753.883 -319.058) rotate(-90)" fill="#12263f"/>
    <g id="Group_107576" data-name="Group 107576">
      <path id="Rectangle_36625" data-name="Rectangle 36625" d="M-.8-.8H51.8V44.591H-.8ZM50.2.8H.8V42.991H50.2Z" transform="translate(773 -497.607)" fill="#12263f"/>
      <path id="Rectangle_36626" data-name="Rectangle 36626" d="M-.8-.8H51.8V44.591H-.8ZM50.2.8H.8V42.991H50.2Z" transform="translate(773 -454.044)" fill="#12263f"/>
      <path id="Rectangle_36627" data-name="Rectangle 36627" d="M-.8-.8H51.8V44.591H-.8ZM50.2.8H.8V42.991H50.2Z" transform="translate(773 -410.481)" fill="#12263f"/>
      <path id="Rectangle_36628" data-name="Rectangle 36628" d="M-.8-.8H51.8V44.591H-.8ZM50.2.8H.8V42.991H50.2Z" transform="translate(773 -366.917)" fill="#12263f"/>
      <path id="Rectangle_36629" data-name="Rectangle 36629" d="M-.8-.8H51.8V44.591H-.8ZM50.2.8H.8V42.991H50.2Z" transform="translate(773 -323.354)" fill="#12263f"/>
      <path id="Rectangle_36630" data-name="Rectangle 36630" d="M-.8-.8H51.8V44.591H-.8ZM50.2.8H.8V42.991H50.2Z" transform="translate(773 -279.791)" fill="#12263f"/>
    </g>
    <g id="Group_107577" data-name="Group 107577">
      <path id="Rectangle_36631" data-name="Rectangle 36631" d="M-.8-.8H51.8V44.591H-.8ZM50.2.8H.8V42.991H50.2Z" transform="translate(881 -497.607)" fill="#12263f"/>
      <path id="Rectangle_36632" data-name="Rectangle 36632" d="M-.8-.8H51.8V44.591H-.8ZM50.2.8H.8V42.991H50.2Z" transform="translate(881 -454.044)" fill="#12263f"/>
      <path id="Rectangle_36633" data-name="Rectangle 36633" d="M-.8-.8H51.8V44.591H-.8ZM50.2.8H.8V42.991H50.2Z" transform="translate(881 -410.481)" fill="#12263f"/>
      <path id="Rectangle_36634" data-name="Rectangle 36634" d="M-.8-.8H51.8V44.591H-.8ZM50.2.8H.8V42.991H50.2Z" transform="translate(881 -366.917)" fill="#12263f"/>
      <path id="Rectangle_36635" data-name="Rectangle 36635" d="M-.8-.8H51.8V44.591H-.8ZM50.2.8H.8V42.991H50.2Z" transform="translate(881 -323.354)" fill="#12263f"/>
      <path id="Rectangle_36636" data-name="Rectangle 36636" d="M-.8-.8H51.8V44.591H-.8ZM50.2.8H.8V42.991H50.2Z" transform="translate(881 -279.791)" fill="#12263f"/>
    </g>
    <g id="Group_107578" data-name="Group 107578">
      <path id="Rectangle_36637" data-name="Rectangle 36637" d="M-.8-.8H51.8V44.591H-.8ZM50.2.8H.8V42.991H50.2Z" transform="translate(989 -497.607)" fill="#12263f"/>
      <path id="Rectangle_36638" data-name="Rectangle 36638" d="M-.8-.8H51.8V44.591H-.8ZM50.2.8H.8V42.991H50.2Z" transform="translate(989 -454.044)" fill="#12263f"/>
      <path id="Rectangle_36639" data-name="Rectangle 36639" d="M-.8-.8H51.8V44.591H-.8ZM50.2.8H.8V42.991H50.2Z" transform="translate(989 -410.481)" fill="#12263f"/>
      <path id="Rectangle_36640" data-name="Rectangle 36640" d="M-.8-.8H51.8V44.591H-.8ZM50.2.8H.8V42.991H50.2Z" transform="translate(989 -366.917)" fill="#12263f"/>
      <path id="Rectangle_36641" data-name="Rectangle 36641" d="M-.8-.8H51.8V44.591H-.8ZM50.2.8H.8V42.991H50.2Z" transform="translate(989 -323.354)" fill="#12263f"/>
      <path id="Rectangle_36642" data-name="Rectangle 36642" d="M-.8-.8H51.8V44.591H-.8ZM50.2.8H.8V42.991H50.2Z" transform="translate(989 -279.791)" fill="#12263f"/>
    </g>
    <g id="Group_107579" data-name="Group 107579">
      <path id="Rectangle_36643" data-name="Rectangle 36643" d="M-.8-.8H51.8V44.591H-.8ZM50.2.8H.8V42.991H50.2Z" transform="translate(1097 -497.607)" fill="#12263f"/>
      <path id="Rectangle_36644" data-name="Rectangle 36644" d="M-.8-.8H51.8V44.591H-.8ZM50.2.8H.8V42.991H50.2Z" transform="translate(1097 -454.044)" fill="#12263f"/>
      <path id="Rectangle_36645" data-name="Rectangle 36645" d="M-.8-.8H51.8V44.591H-.8ZM50.2.8H.8V42.991H50.2Z" transform="translate(1097 -410.481)" fill="#12263f"/>
      <path id="Rectangle_36646" data-name="Rectangle 36646" d="M-.8-.8H51.8V44.591H-.8ZM50.2.8H.8V42.991H50.2Z" transform="translate(1097 -366.917)" fill="#12263f"/>
      <path id="Rectangle_36647" data-name="Rectangle 36647" d="M-.8-.8H51.8V44.591H-.8ZM50.2.8H.8V42.991H50.2Z" transform="translate(1097 -323.354)" fill="#12263f"/>
      <path id="Rectangle_36648" data-name="Rectangle 36648" d="M-.8-.8H51.8V44.591H-.8ZM50.2.8H.8V42.991H50.2Z" transform="translate(1097 -279.791)" fill="#12263f"/>
    </g>
  </g>
</svg>
